<svg id="Layer_1" xmlns="http://www.w3.org/2000/svg" viewBox="0 0 1920 1320"><style>.st0{fill:#6c1491}</style><path class="st0" d="M1346.5 145.5l1.2 9.5c7.2-1 14.4 1 20 5.4 5.8 4.4 9.5 10.9 10.4 18 .9 7.2-1 14.4-5.4 20-4.4 5.8-10.9 9.5-18 10.4l1.2 9.5c9.8-1.3 18.3-6.3 24.4-14.1 6-7.8 8.6-17.4 7.3-27.1-1.3-9.8-6.3-18.3-14.1-24.4-7.6-5.9-17.3-8.5-27-7.2zM482.2 1158.3c10.4 18.6 3.7 42.3-15 52.6-9.1 5.1-19.5 6.3-29.4 3.4-10-2.8-18.2-9.4-23.2-18.4l-12 6.7c6.8 12.3 17.9 21 31.4 24.9 4.8 1.4 9.6 2 14.4 2 8.8 0 17.5-2.3 25.4-6.7 25.2-14.1 34.3-46.1 20.2-71.3l-11.8 6.8zM1660.1 835c-19.7 21.8-18.1 55.6 3.6 75.4l9.4-10.3c-16.1-14.7-17.3-39.7-2.7-55.7 14.7-16.1 39.7-17.3 55.7-2.7l9.4-10.3c-21.9-19.8-55.7-18.1-75.4 3.6zM506.2-233.2c-4.2-3.7-6.7-8.8-7-14.4-.3-5.6 1.5-11 5.2-15.2s8.8-6.7 14.4-7l-.4-7.4c-7.6.5-14.5 3.8-19.4 9.5-5 5.7-7.5 13-7.1 20.4.5 7.6 3.8 14.5 9.5 19.4 5.2 4.6 11.8 7.1 18.7 7.1h1.7l-.4-7.4c-5.6.6-11-1.3-15.2-5zm1403.9 911.3c-12.4-16.8-36.1-20.6-52.9-8.3l5.8 8c12.5-9.1 30-6.4 39.2 6.1 4.4 6.1 6.2 13.5 5.1 20.8-1.2 7.4-5.1 13.9-11.2 18.3l5.8 8c8.2-6 13.6-14.8 15.1-24.7 1.5-9.9-.9-20-6.9-28.2zm-882.2 153.3l8.1 12.6c19.5-12.6 45.8-6.9 58.3 12.7 12.6 19.5 6.9 45.8-12.7 58.3l8.1 12.6c26.5-17 34.2-52.4 17.1-78.9-17-26.6-52.4-34.3-78.9-17.3zM51.4-156.7l-6.4 4.1c6.3 10.1 3.3 23.3-6.8 29.7-4.9 3.1-10.7 4.1-16.2 2.8-5.6-1.3-10.4-4.7-13.5-9.5l-6.4 4.1c5.5 8.8 15.1 13.6 24.7 13.6 5.3 0 10.7-1.4 15.5-4.5 13.6-8.7 17.7-26.7 9.1-40.3zM1840.8 6.2c12.1-9.7 29.7-7.7 39.3 4.4l7.7-6.2c-13.1-16.2-36.9-18.9-53.1-5.9-7.9 6.3-12.9 15.4-14 25.3-1.1 10.1 1.7 19.9 8.1 27.8l7.7-6.2c-4.7-5.8-6.8-13.2-6-20.5.8-7.4 4.5-14 10.3-18.7zM829.1 800.4c-15.8 1.5-30.2 9.2-40.4 21.4-20.9 25.3-17.3 63.1 8.1 84l9.9-12c-18.7-15.5-21.4-43.4-6-62.1 7.5-9.1 18-14.8 29.8-15.8 11.8-1.1 23.2 2.4 32.3 9.9l9.9-12c-12.2-10.3-27.7-14.9-43.6-13.4zM1621-178.8c5 0 10-1.1 14.7-3.5 16-8.1 22.4-27.7 14.4-43.7-5.7-11.3-17.1-17.8-29-17.8-5 0-10 1.1-14.7 3.5-16 8.1-22.4 27.7-14.4 43.7 5.7 11.3 17.1 17.8 29 17.8zm-10.2-52.6c3.2-1.6 6.6-2.4 10.2-2.4 8.6 0 16.2 4.7 20.1 12.4 2.7 5.4 3.2 11.5 1.3 17.1-1.9 5.7-5.9 10.4-11.2 13.1-3.2 1.6-6.6 2.4-10.2 2.4-8.6 0-16.2-4.7-20-12.4-5.7-11-1.2-24.6 9.8-30.2zm-1275.1 673c.9.1 1.9.2 2.8.2 13.2 0 24.5-10 25.9-23.4 1.5-14.4-8.9-27.2-23.2-28.7-.9-.1-1.9-.2-2.8-.2-13.2 0-24.5 10-25.9 23.4-1.5 14.3 8.8 27.2 23.2 28.7zm-15.2-27.8c1-9.3 8.7-16.1 17.9-16.1.6 0 1.3 0 1.9.1 4.8.5 9.1 2.9 12.2 6.6 3 3.8 4.4 8.5 3.9 13.3-1 9.3-8.7 16.1-17.9 16.1-.6 0-1.3 0-1.9-.1-10-1.1-17.2-10-16.1-19.9zm1446.8-161.6c-2.5 0-5.1.4-7.7 1.1-14.6 4.2-22.8 19.3-18.6 33.9 3.5 12 14.4 19.7 26.2 19.7 2.5 0 5.1-.4 7.7-1.1 14.5-4.2 22.8-19.3 18.6-33.9-3.4-11.9-14.3-19.7-26.2-19.7zm5.3 45.5c-1.7.5-3.5.8-5.3.8-8.4 0-15.8-5.6-18.1-13.7-2.9-10 2.9-20.5 12.9-23.4 1.7-.5 3.5-.8 5.3-.8 8.4 0 15.8 5.6 18.1 13.7 2.9 10-2.9 20.5-12.9 23.4zM801.1-188c5.5 2.5 11.3 3.7 16.9 3.7 15.6 0 30.4-8.9 37.3-24 9.4-20.5.3-44.9-20.3-54.2-5.5-2.5-11.3-3.7-16.9-3.7-15.6 0-30.4 8.9-37.3 24-9.4 20.6-.2 44.8 20.3 54.2zm-8.8-49c4.6-10.1 14.8-16.6 25.8-16.6 4.1 0 8 .9 11.7 2.6 6.9 3.1 12.2 8.8 14.8 15.8 2.7 7.1 2.4 14.8-.7 21.6-4.6 10.1-14.8 16.6-25.8 16.6-4.1 0-8-.9-11.7-2.6-14.3-6.4-20.5-23.2-14.1-37.4zm574.3 831.2c-1.7-.3-3.5-.4-5.2-.4-14.4 0-27 10.4-29.6 24.9-2.8 16.3 8.2 31.9 24.5 34.8 1.7.3 3.5.4 5.2.4 14.4 0 27-10.3 29.6-24.9 2.9-16.4-8.1-32-24.5-34.8zm15.4 33.1c-1.7 10-10.4 17.2-20.4 17.2-1.2 0-2.4-.1-3.6-.3-11.3-2-18.9-12.8-16.9-24 1.7-10 10.4-17.2 20.4-17.2 1.2 0 2.4.1 3.6.3 11.3 2 18.9 12.7 16.9 24zM298.6 699.8c6.5 5.1 14.2 7.6 21.8 7.6 10.6 0 20.9-4.7 27.9-13.6 12.1-15.5 9.4-37.7-6.1-49.7-6.5-5.1-14.2-7.6-21.8-7.6-10.6 0-20.9 4.7-27.9 13.6-11.9 15.3-9.3 37.6 6.1 49.7zm2.6-43.1c4.7-6 11.8-9.4 19.3-9.4 5.5 0 10.8 1.8 15.1 5.2 5.2 4.1 8.4 9.9 9.2 16.3.8 6.5-1 13-5.1 18-4.7 6-11.8 9.4-19.3 9.4-5.5 0-10.8-1.8-15.1-5.2-10.6-8.2-12.4-23.6-4.1-34.3zm-210.6 814c-5.2 0-10.5 1.6-15 5.1-10.9 8.3-13 23.7-4.7 34.6 4.9 6.4 12.3 9.8 19.7 9.8 5.2 0 10.5-1.7 15-5.1 10.9-8.3 13-23.7 4.7-34.6-5-6.5-12.4-9.8-19.7-9.8zm16.9 27c-.6 4.5-3 8.6-6.6 11.3-3 2.3-6.6 3.5-10.4 3.5-5.4 0-10.4-2.5-13.7-6.8-2.8-3.6-4-8.1-3.3-12.7.6-4.5 3-8.6 6.6-11.3 3-2.3 6.6-3.5 10.4-3.5 5.4 0 10.4 2.5 13.7 6.8 2.7 3.7 3.9 8.2 3.3 12.7zM917.2 198.3c5.1 0 10.3-.9 15.4-2.7 23.2-8.5 35.2-34.2 26.7-57.4-6.6-18.1-23.8-29.4-42.1-29.4-5.1 0-10.3.9-15.4 2.7-23.2 8.5-35.2 34.2-26.7 57.4 6.7 18.1 23.9 29.4 42.1 29.4zm-28-57.9c3.5-7.5 9.7-13.2 17.4-16 3.4-1.3 7-1.9 10.6-1.9 13 0 24.6 8.2 29.1 20.3 5.9 16-2.5 33.8-18.4 39.7-3.4 1.3-7 1.9-10.6 1.9-13 0-24.6-8.2-29.1-20.3-2.9-7.7-2.6-16.2 1-23.7zm49 1271.6c-3.6-1.8-7.5-2.6-11.3-2.6-9.4 0-18.4 5.3-22.9 14.3-6.2 12.7-1 27.9 11.7 34.2 3.6 1.8 7.5 2.6 11.3 2.6 9.4 0 18.4-5.2 22.9-14.3 6.1-12.8.9-28-11.7-34.2zm4.6 30.6c-3 6.1-9.1 9.9-15.8 9.9-2.7 0-5.3-.6-7.8-1.8-8.8-4.3-12.4-15-8.1-23.6 3-6.1 9.1-9.9 15.8-9.9 2.7 0 5.3.6 7.8 1.8 4.2 2.1 7.4 5.7 8.9 10.2 1.5 4.4 1.2 9.2-.8 13.4zM624-10.3l46.3 51.1 68.6-6.3-46.3-51.1-68.6 6.3zm50.4 40.2L645.8-1.7l42.5-3.9L716.9 26l-42.5 3.9zm-579.5 1008l-47.3-50.1-11.7 68 47.3 50.1 11.7-68zm-47.7 14.5l7.2-42.1 29.3 31-7.3 42.1-29.2-31zm1551.3 366.8l18.7 100.7 91.7 45.5-18.7-100.7-91.7-45.5zm32.6 90.1l-11.6-62.3 56.8 28.1 11.6 62.3-56.8-28.1zM330.4-40.3l15.9 50.6L396.5 28l-15.9-50.6-50.2-17.7zm22.5 44.4L343-27.3l31 11 9.9 31.4-31-11zm551.4 1059.8l7.2 60.6 44.2-42.1-7.2-60.6-44.2 42.1zm14.2 41.1l-4.5-37.5 27.3-26 4.5 37.5-27.3 26zM589.3 661.8L540.9 635l7.6 54.8 48.3 26.8-7.5-54.8zm-33.1 22.6l-4.7-33.9 29.9 16.5 4.7 33.9-29.9-16.5zm60.4 876.7l50.6-9.7 22.6-46.4-50.6 9.7-22.6 46.4zm59.3-45.3l-14 28.7-31.3 6 14-28.7 31.3-6zM939.5 440.7l-57.1 85.7 102.9-5.8 57.1-85.7-102.9 5.8zm36.9 64.8l-63.7 3.6 35.4-53 63.7-3.6-35.4 53zM174-204.3l67.5 70.2 15.7-96-67.5-70.2-15.7 96zm25.5-64.3l41.8 43.4-9.7 59.4-41.8-43.4 9.7-59.4zm-13.3 369.3c-8-4.7-17-5.8-25.6-3.2-8.6 2.7-15.5 8.8-19.3 17.1-2.2 4.7-5.9 8-10.6 9.5-4.6 1.4-9.6.8-14.1-1.8-8-4.7-17-5.8-25.6-3.2-8.6 2.7-15.5 8.8-19.3 17.1-1.7 3.6-.1 7.9 3.5 9.6 1 .5 2 .7 3.1.7 2.7 0 5.3-1.5 6.6-4.2 2.2-4.7 6-8.1 10.6-9.5s9.6-.8 14.1 1.8c8 4.7 17 5.8 25.6 3.1 8.6-2.7 15.5-8.8 19.3-17.1 2.2-4.7 6-8.1 10.6-9.5s9.6-.8 14.1 1.8c3.4 2 7.9.9 9.9-2.6 1.6-3.2.4-7.6-2.9-9.6zm1289.7 328.8c-3.4.2-6.5-.9-8.7-3.1-2.3-2.2-3.5-5.3-3.3-8.7.2-6-1.9-11.6-6.1-15.7-4.2-4.1-9.8-6.1-15.8-5.8-2.6.2-4.6 2.4-4.4 5 .1 2.6 2.4 4.4 5 4.4 3.4-.2 6.5.9 8.7 3.2 2.3 2.2 3.4 5.3 3.3 8.7-.2 6 2 11.6 6.2 15.7s9.8 6.1 15.8 5.8c3.4-.2 6.5.9 8.7 3.2 2.3 2.2 3.4 5.3 3.3 8.6-.1 2.6 1.9 4.8 4.5 4.9h.2c2.5 0 4.6-2 4.7-4.5.2-6-1.9-11.6-6.1-15.7-4.4-4.2-10-6.2-16-6zm-41.9 870c-2.3.3-4 2.4-3.8 4.7.3 3-.5 5.9-2.5 8-1.9 2.2-4.6 3.4-7.7 3.4-5.5.1-10.5 2.3-14 6.3s-5.1 9.2-4.6 14.6c.3 3-.5 5.9-2.5 8.1-1.9 2.1-4.6 3.4-7.7 3.4-2.4 0-4.3 2-4.2 4.3 0 2.3 1.9 4.2 4.3 4.2h.1c5.5-.1 10.4-2.3 14-6.3 3.5-4 5.2-9.2 4.6-14.6-.3-3 .5-5.9 2.5-8 1.9-2.2 4.6-3.4 7.7-3.4 5.5-.1 10.5-2.3 14-6.3s5.1-9.2 4.6-14.6c-.4-2.4-2.5-4.1-4.8-3.8zM284.3 923.1c3.7 3 5.9 7.2 6.2 11.7.3 4.5-1.4 8.9-4.8 12.3-6 6.2-9.1 14.2-8.6 22.4.5 8.4 4.5 15.9 11.2 21.3 1.2 1 2.7 1.5 4.2 1.5 2 0 3.9-.9 5.2-2.5 2.3-2.9 1.9-7.1-1-9.5-3.7-3-6-7.2-6.2-11.7-.3-4.5 1.4-8.9 4.8-12.3 6-6.2 9.1-14.2 8.6-22.4s-4.5-15.8-11.2-21.3c-3.7-3-6-7.2-6.2-11.7-.3-4.5 1.4-8.9 4.8-12.3 2.6-2.7 2.6-6.9-.1-9.5-2.6-2.6-6.9-2.6-9.5.1-6 6.2-9.1 14.2-8.6 22.4.6 8.4 4.6 16 11.2 21.5zm84.3 528.3c-5.6.9-11-.5-15.1-3.9s-6.6-8.3-6.9-14c-.6-10.1-5.1-19-12.8-25.2-7.6-6.2-17.3-8.8-27.3-7.3-5.6.9-11-.5-15.1-3.9s-6.6-8.3-6.9-13.9c-.2-4.4-3.9-7.7-8.3-7.5-4.4.2-7.7 4-7.5 8.4.6 10.1 5.1 19 12.7 25.2 7.6 6.2 17.3 8.8 27.4 7.3 5.6-.9 10.9.5 15.1 3.9 4.1 3.4 6.6 8.3 6.9 13.9.6 10.1 5.1 19.1 12.7 25.3 6.2 5 13.8 7.7 21.7 7.7 1.9 0 3.7-.1 5.6-.4 4.3-.7 7.3-4.7 6.6-9-.6-4.3-4.5-7.3-8.8-6.6zM37.1 390.7c6.5 0 12.6-2.5 16.9-7.1 4.6-4.8 7-11.2 6.5-18-.2-3.8 1-7.4 3.5-10 2.5-2.6 6-4 9.8-3.8 6.8.2 13.2-2.3 17.7-7.1s7-11.2 6.5-18c-.2-3-2.7-5.2-5.7-5-3 .2-5.2 2.7-5 5.7.2 3.8-1 7.4-3.5 10-2.5 2.6-6 3.9-9.8 3.8-6.8-.2-13.2 2.3-17.7 7.1-4.6 4.8-7 11.2-6.5 18 .2 3.8-1 7.4-3.5 9.9-2.5 2.6-5.9 4-9.8 3.8-3 0-5.4 2.2-5.5 5.2s2.2 5.4 5.2 5.5h.9zm653.8 37.8c-3.9 1.3-7.9 1-11.3-.9-3.4-1.9-5.7-5.1-6.7-9.1-1.7-7.2-6.1-13-12.3-16.4-6.2-3.5-13.5-4.1-20.4-1.7-3.9 1.3-7.9 1-11.3-.9-3.4-1.9-5.7-5.1-6.7-9.1-.7-3.1-3.8-5-6.9-4.3s-5 3.8-4.3 6.9c1.7 7.2 6 13 12.3 16.4 6.2 3.5 13.5 4.1 20.4 1.7 3.9-1.3 7.9-1 11.2.9 3.4 1.9 5.8 5.1 6.7 9.1 1.7 7.2 6 13 12.3 16.4 3.7 2.1 7.9 3.1 12.1 3.1 2.8 0 5.6-.5 8.4-1.4 3-1 4.6-4.3 3.6-7.3-1-2.8-4.2-4.4-7.1-3.4zM98.1 588.9c3-2.4 3.4-6.8 1-9.7-2.4-3-6.8-3.4-9.7-1-6.9 5.6-11 13.4-11.5 21.8-.5 8.6 2.7 16.7 8.9 23.1 3.4 3.5 5.2 8 4.9 12.7-.3 4.6-2.5 8.9-6.3 12-6.9 5.6-11 13.4-11.5 21.8-.5 8.6 2.7 16.7 8.9 23.1 1.4 1.4 3.1 2.1 4.9 2.1 1.7 0 3.5-.7 4.8-2 2.7-2.7 2.8-7 .1-9.8-3.5-3.5-5.2-8-5-12.7.3-4.6 2.5-8.9 6.4-12 6.9-5.6 11-13.4 11.4-21.9.5-8.6-2.7-16.7-8.9-23-3.5-3.5-5.2-8-5-12.7.6-4.5 2.8-8.7 6.6-11.8zM1159-40.1c-4 2.1-8.6 2.3-13 .6-8-2.9-16.3-2.5-23.7 1.4-7.3 3.8-12.5 10.4-14.7 18.6-1.2 4.6-4.1 8.3-8 10.3-4 2.1-8.6 2.3-13 .7-3.4-1.3-7.3.5-8.5 3.9-1.3 3.4.5 7.3 3.9 8.5 3.5 1.3 7 1.9 10.5 1.9 4.6 0 9.1-1.1 13.2-3.2 7.3-3.8 12.6-10.5 14.8-18.6 1.2-4.6 4.1-8.2 8-10.3 4-2.1 8.6-2.3 13-.7 8 3 16.3 2.5 23.6-1.3 7.3-3.8 12.6-10.5 14.7-18.6.9-3.5-1.2-7.2-4.7-8.1s-7.2 1.2-8.1 4.7c-1.2 4.5-4 8.2-8 10.2zm274.3 793.8c-1.6-1.5-4.1-1.4-5.5.2-1.5 1.6-1.4 4.1.2 5.5l25.5 23.4c.8.7 1.7 1 2.7 1 1.1 0 2.1-.4 2.9-1.3 1.5-1.6 1.4-4.1-.2-5.5l-25.6-23.3zM620.9 970.6c1 0 2-.3 2.7-1 1.7-1.5 1.9-4.1.4-5.8l-24.2-27.3c-1.5-1.7-4.1-1.9-5.8-.4-1.7 1.5-1.9 4.1-.4 5.8l24.2 27.3c.8.9 2 1.4 3.1 1.4zM451 209.5c.4 0 .7 0 1.1-.1l42.4-9.8c2.7-.6 4.3-3.3 3.7-5.9-.6-2.7-3.3-4.3-5.9-3.7l-42.4 9.8c-2.7.6-4.3 3.3-3.7 5.9.5 2.2 2.5 3.8 4.8 3.8zm920.8-383.3c2.5-.6 4.1-3.1 3.5-5.6-.6-2.5-3.1-4.1-5.6-3.5l-40.1 9.7c-2.5.6-4.1 3.1-3.5 5.6.5 2.1 2.4 3.6 4.5 3.6.4 0 .7 0 1.1-.1l40.1-9.7zm487.3 1532.2c-.6-2.3-2.9-3.7-5.2-3.2-2.3.6-3.7 2.9-3.2 5.2l8.8 36.8c.5 2 2.2 3.3 4.2 3.3.3 0 .7 0 1-.1 2.3-.6 3.7-2.9 3.2-5.2l-8.8-36.8zm-697.6 44.3c-.9-2.1-3.4-3-5.5-2.1-2.1.9-3 3.4-2.1 5.5l14.9 33.5c.7 1.5 2.2 2.5 3.8 2.5.6 0 1.1-.1 1.7-.4 2.1-.9 3-3.4 2.1-5.5l-14.9-33.5zm55.4-239.5l-61.1 3.6c-3.8.2-6.8 3.5-6.5 7.3.2 3.7 3.3 6.5 6.9 6.5h.4l61.1-3.6c3.8-.2 6.8-3.5 6.5-7.3-.1-3.8-3.4-6.7-7.3-6.5zm-466.8 64.9c-.6-1.9-2.6-3.1-4.6-2.5-2 .6-3.1 2.6-2.5 4.6l9.2 31.2c.5 1.6 1.9 2.6 3.5 2.6.3 0 .7 0 1-.2 2-.6 3.1-2.6 2.5-4.6l-9.1-31.1zm1150.5-196.8l-53.3-6.4c-3.3-.4-6.4 2-6.8 5.3-.4 3.3 2 6.4 5.3 6.8l53.3 6.4h.7c3 0 5.7-2.3 6-5.4.6-3.3-1.8-6.3-5.2-6.7zm-275.2-414.6l11.2 11.1 45.3-45.6 45.6 45.3 11.1-11.2-56.7-56.4-56.5 56.8zm-233 454.2l29.4-51.3-51.3-29.4-5.8 10.2 41.3 23.6-23.6 41.3 10 5.6zm-325.9 535.5l-24.6-34.4-8.5 6 30.6 42.8 42.8-30.6-6-8.5-34.3 24.7zM1553.7-1.5l-11.1-2.1-10.6 56.2 56.2 10.6 2.1-11.1-45.2-8.6 8.6-45zm-386.8-284l-10.8-9.1-37 44.1-44.1-37-9.1 10.8 54.9 46.1 46.1-54.9zm-.2 637.7l9.9-1.7-8.8-50.1-50 8.8 1.7 9.9 40.3-7 6.9 40.1zM1909-250.7l-8.7-6.9-27.9 35.3-35.3-28-6.9 8.7 44 34.8 34.8-43.9zm-577.7 1814.8l5.3 9.9 40.2-21.4 21.4 40.2 9.9-5.3-26.6-50-50.2 26.6zm370.1-467l-10.9-10.8-43.8 44.2-44.2-43.8-10.8 10.9 55 54.5 54.7-55z"/></svg>