<svg id="Layer_1" xmlns="http://www.w3.org/2000/svg" viewBox="0 0 1920 1320"><style>.st0{fill:#02d26d}</style><path class="st0" d="M-250.5 1100.3l-52.5 52.5c-7 7-6.5 18.7.9 26.3 7.5 7.5 19.3 7.8 26.3.9l52.5-52.5c7-7 6.5-18.7-.9-26.3-7.4-7.6-19.2-7.9-26.3-.9zm-40.9 4.7l52.5-52.5c7-7 6.5-18.7-.9-26.3-7.5-7.5-19.3-7.8-26.3-.9l-52.5 52.5c-7 7-6.5 18.7.9 26.3 7.6 7.5 19.3 7.9 26.3.9zm-195.1-124.8l74.6-74.6c9.9-9.9 9.4-26.7-1.3-37.3-10.7-10.6-27.3-11.2-37.3-1.3l-74.6 74.6c-9.9 9.9-9.4 26.7 1.3 37.3 10.6 10.6 27.3 11.2 37.3 1.3zm361.6 89l-74.6 74.6c-9.9 9.9-9.4 26.7 1.3 37.3 10.6 10.6 27.3 11.2 37.3 1.3l74.6-74.6c9.9-9.9 9.4-26.7-1.3-37.3-10.7-10.7-27.4-11.2-37.3-1.3zm239.8 41.9l-74.6 74.6c-9.9 9.9-9.4 26.7 1.3 37.3 10.6 10.6 27.3 11.2 37.3 1.3l74.6-74.6c9.9-9.9 9.4-26.7-1.3-37.3-10.7-10.5-27.4-11.1-37.3-1.3zm-35.4-95.3c-5.8-5.8-15.4-5.8-21.2 0l-93.1 93.1c-5.8 5.8-5.8 15.4 0 21.2 5.8 5.8 15.4 5.8 21.2 0l93.1-93.1c5.8-5.8 5.8-15.3 0-21.2zm-92.3-59.3L86.6 857c3.8-3.8 3.8-9.9 0-13.6-3.8-3.8-9.9-3.8-13.6 0l-99.6 99.4c-3.8 3.8-3.8 9.9 0 13.6 3.7 3.9 10 3.9 13.8.1zm-263.9 4.7l42.2-42.2c2.2-2.2 2.2-5.5 0-7.7s-5.5-2.2-7.7 0l-42.2 42.2c-2.2 2.2-2.2 5.5 0 7.7 2.1 2 5.6 2 7.7 0zm132.8 18l-24.4 24.4c-3.8 3.8-3.8 9.9 0 13.6 3.8 3.8 9.9 3.8 13.6 0l24.4-24.4c3.8-3.8 3.8-9.9 0-13.6-3.9-3.8-10-3.8-13.6 0zm303.1 8.1l-19 19c-2 2-2 5.4 0 7.5 2 2 5.4 2 7.5 0l19-19c2-2 2-5.4 0-7.5-2-2-5.3-2-7.5 0zm90.4 16.1c-3.3-3.3-8.7-3.3-11.9 0l-21.8 21.8c-3.3 3.3-3.3 8.7 0 11.9 3.3 3.3 8.7 3.3 11.9 0l21.8-21.8c3.4-3.3 3.4-8.7 0-11.9zM167 827.2L145.2 849c-3.3 3.3-3.3 8.7 0 11.9 3.3 3.3 8.7 3.3 11.9 0l21.8-21.8c3.3-3.3 3.3-8.7 0-11.9-3.3-3.2-8.5-3.3-11.9 0zm-196.5-46.6c-15.5-15.5-40.6-15.5-56 0L-188 883.1c-15.5 15.5-15.5 40.6 0 56 15.5 15.5 40.6 15.5 56 0l102.5-102.3c15.5-15.6 15.5-40.7 0-56.2zm168.4-208.3c-3.3-3.3-8.7-3.3-11.9 0l-21.8 21.8c-3.3 3.3-3.3 8.7 0 11.9 3.3 3.3 8.7 3.3 11.9 0l21.8-21.8c3.3-3.3 3.3-8.6 0-11.9zm-479.7 265.9l-11.9 11.9c-2.2 2.2-2.2 5.5 0 7.7s5.5 2.2 7.7 0l11.9-11.9c2.2-2.2 2.2-5.5 0-7.7-2-2-5.5-2-7.7 0zm-40.3-85.2c2 2 5.2 2 7.3 0l42.2-42.2c2-2 2-5.2 0-7.3-2-2-5.2-2-7.3 0l-42.2 42.2c-2.1 2.1-2.1 5.3 0 7.3zm194.2-159.8l-11.5 11.5c-1.9 1.9-1.9 4.9 0 6.8 1.9 1.9 4.9 1.9 6.8 0l11.5-11.5c1.9-1.9 1.9-4.9 0-6.8-1.9-1.9-4.9-1.9-6.8 0zm-174 75.9l29-29c2-2 2-5.2 0-7.3-2-2-5.2-2-7.3 0l-29 29c-2 2-2 5.2 0 7.3 2 1.9 5.4 1.9 7.3 0z"/><path transform="rotate(-45.001 -178.692 555.786)" class="st0" d="M-233.7 555h110v1.6h-110z"/><path transform="rotate(-45.001 -335.578 948.484)" class="st0" d="M-471.3 947.3h271.5v2.3h-271.5z"/><path transform="rotate(-45.001 -461.876 1184.952)" class="st0" d="M-597.6 1183.8h271.5v2.3h-271.5z"/><path class="st0" d="M360.1 419.4L168 611.3l1.8 1.8 192-192.1zm-539.7 375.9L4 611.6c8.9-8.9 8.9-23.2 0-32.1s-23.2-8.9-32.1 0l-183.6 183.6c-8.9 8.9-8.9 23.2 0 32.1 8.8 8.9 23.1 8.8 32.1.1zm160.4-32.7L93 650.4l-.7-.7L-20 761.9zm154.9-3.6c-.7-.7-1.7-.7-2.5 0l-53.6 53.6c-.7.7-.7 1.7 0 2.5.7.7 1.7.7 2.5 0l53.6-53.6c.7-.8.7-1.8 0-2.5zM-18.2 983.5c-.7-.7-1.7-.7-2.5 0l-53.6 53.6c-.7.7-.7 1.7 0 2.5s1.7.7 2.5 0l53.6-53.6c.6-.7.6-1.7 0-2.5zm355.9 156.7l-52.5 52.5c-7 7-6.5 18.7.9 26.3 7.5 7.5 19.3 7.8 26.3.9l52.5-52.5c7-7 6.5-18.7-.9-26.3-7.5-7.6-19.3-7.9-26.3-.9zm-40.9 4.8l52.5-52.5c7-7 6.5-18.7-.9-26.3-7.5-7.5-19.3-7.8-26.3-.9l-52.7 52.5c-7 7-6.5 18.7.9 26.3 7.6 7.5 19.4 7.8 26.5.9zm166.4-35.9l-74.6 74.6c-9.9 9.9-9.4 26.7 1.3 37.3 10.7 10.6 27.3 11.2 37.3 1.3l74.6-74.6c9.9-9.9 9.4-26.7-1.3-37.3-10.6-10.6-27.5-11.2-37.3-1.3zm239.8 42l-74.6 74.6c-9.9 9.9-9.4 26.7 1.3 37.3 10.6 10.6 27.3 11.2 37.3 1.3l74.6-74.6c9.9-9.9 9.4-26.7-1.3-37.3-10.6-10.6-27.3-11.2-37.3-1.3zm-35.4-95.4c-5.8-5.8-15.4-5.8-21.2 0l-93.1 93.1c-5.8 5.8-5.8 15.4 0 21.2 5.8 5.8 15.4 5.8 21.2 0l93.1-93.1c5.9-5.8 5.9-15.3 0-21.2zm-223.5-36.6l-24.4 24.4c-3.8 3.8-3.8 9.9 0 13.6 3.8 3.8 9.9 3.8 13.6 0l24.4-24.4c3.8-3.8 3.8-9.9 0-13.6-3.7-3.6-9.8-3.6-13.6 0zm303.3 8.1l-19 19c-2 2-2 5.4 0 7.5 2 2 5.4 2 7.5 0l19-19c2-2 2-5.4 0-7.5-2.1-2-5.5-2-7.5 0zm90.3 16.1c-3.3-3.3-8.7-3.3-11.9 0l-21.8 21.8c-3.3 3.3-3.3 8.7 0 11.9 3.3 3.3 8.7 3.3 11.9 0l21.8-21.8c3.3-3.3 3.3-8.5 0-11.9z"/><path transform="rotate(-45.001 126.3 1224.813)" class="st0" d="M-9.4 1223.6h271.5v2.3H-9.4z"/><path class="st0" d="M569.9 1023.5c-.7-.7-1.7-.7-2.5 0l-53.6 53.6c-.7.7-.7 1.7 0 2.5s1.7.7 2.5 0l53.6-53.6c.7-.8.7-1.8 0-2.5zM520.5 202L468 254.5c-7 7-6.5 18.7.9 26.3 7.5 7.5 19.3 7.8 26.3.9l52.5-52.5c7-7 6.5-18.7-.9-26.3-7.6-7.6-19.3-7.9-26.3-.9zm-41.1 4.8l52.5-52.5c7-7 6.5-18.7-.9-26.3-7.5-7.5-19.3-7.8-26.3-.9l-52.5 52.5c-7 7-6.5 18.7.9 26.3 7.6 7.4 19.3 7.8 26.3.9zm166.5-35.9l-74.6 74.6c-9.9 9.9-9.4 26.7 1.3 37.3 10.6 10.6 27.3 11.2 37.3 1.3l74.6-74.6c9.9-9.9 9.4-26.7-1.3-37.3-10.7-10.7-27.4-11.2-37.3-1.3zm239.8 42l-74.6 74.6c-9.9 9.9-9.4 26.7 1.3 37.3 10.6 10.6 27.3 11.2 37.3 1.3l74.6-74.6c9.9-9.9 9.4-26.7-1.3-37.3-10.7-10.8-27.4-11.2-37.3-1.3zm-35.4-95.4c-5.8-5.8-15.4-5.8-21.2 0L736 210.6c-5.8 5.8-5.8 15.4 0 21.2 5.8 5.8 15.4 5.8 21.2 0l93.1-93.1c5.8-5.8 5.8-15.3 0-21.2zM626.9 80.9l-24.4 24.4c-3.8 3.8-3.8 9.9 0 13.6 3.8 3.8 9.9 3.8 13.6 0l24.2-24.4c3.8-3.8 3.8-9.9 0-13.6-3.5-3.8-9.8-3.8-13.4 0zM930 89l-19 19.2c-2 2-2 5.4 0 7.5 2 2 5.4 2 7.5 0l19-19c2-2 2-5.4 0-7.5s-5.3-2.2-7.5-.2zm90.4 16.1c-3.3-3.3-8.7-3.3-11.9 0l-21.8 21.8c-3.3 3.3-3.3 8.7 0 11.9 3.3 3.2 8.7 3.3 11.9 0l21.8-21.8c3.4-3.3 3.4-8.7 0-11.9z"/><path transform="rotate(-45.001 308.972 286.692)" class="st0" d="M173.2 285.5h271.5v2.3H173.2z"/><path class="st0" d="M752.6 85.3c-.7-.7-1.7-.7-2.5 0l-53.6 53.6c-.7.7-.7 1.7 0 2.5s1.7.7 2.5 0l53.6-53.6c.6-.8.6-2 0-2.5z"/><circle class="st0" cx="182" cy="689" r="39.2"/><circle class="st0" cx="-263" cy="682.8" r="39.2"/><path class="st0" d="M-501 1123.6c21.6 0 39.2-17.6 39.2-39.2s-17.6-39.2-39.2-39.2-39.2 17.6-39.2 39.2 17.5 39.2 39.2 39.2zM536.2 884.8l-52.5 52.5c-7 7-6.5 18.7.9 26.3 7.5 7.5 19.3 7.8 26.3.9l52.5-52.5c7-7 6.5-18.7-.9-26.3-7.6-7.4-19.4-7.8-26.3-.9zm-41 4.8l52.5-52.5c7-7 6.5-18.7-.9-26.3-7.5-7.5-19.3-7.8-26.3-.9L468 862.4c-7 7-6.5 18.7.9 26.3 7.5 7.6 19.4 8 26.3.9zM336 651.7l-74.6 74.6c-9.9 9.9-9.4 26.7 1.3 37.3 10.6 10.6 27.3 11.2 37.3 1.3l74.6-74.6c9.9-9.9 9.4-26.7-1.3-37.3-10.6-10.6-27.3-11.2-37.3-1.3zm362.9 203.4c-10.6-10.6-27.3-11.2-37.3-1.3L587 928.4c-9.9 9.9-9.4 26.7 1.3 37.3 10.6 10.6 27.3 11.2 37.3 1.3l74.6-74.6c9.9-9.9 9.3-26.6-1.3-37.3zM938.7 897c-10.6-10.6-27.3-11.2-37.3-1.3l-74.5 74.6c-9.9 9.9-9.4 26.7 1.3 37.3 10.7 10.6 27.3 11.2 37.3 1.3l74.6-74.6c9.8-9.8 9.2-26.7-1.4-37.3zM509.9 745.8l42.2-42.2c2.2-2.2 2.2-5.5 0-7.7s-5.5-2.2-7.7 0l-42.2 42.2c-2.2 2.2-2.2 5.5 0 7.7 2.2 2.1 5.5 2.1 7.7 0zm132.7 18.1l-24.4 24.4c-3.8 3.8-3.8 9.9 0 13.6 3.8 3.8 9.9 3.8 13.6 0l24.4-24.4c3.8-3.8 3.8-9.9 0-13.6s-9.8-3.8-13.6 0zm114.5-198.6c-15.5-15.5-40.6-15.5-56 0L598.6 667.8c-15.5 15.5-15.5 40.6 0 56 15.5 15.5 40.6 15.5 56 0l102.5-102.5c15.6-15.5 15.6-40.6 0-56zm146.5-174.6l21.8-21.8c3.3-3.3 3.3-8.7 0-11.9-3.3-3.2-8.7-3.3-11.9 0l-21.8 21.8c-3.3 3.3-3.3 8.7 0 11.9 3.3 3.2 8.7 3.2 11.9 0zM441.7 642.4l11.9-11.9c2.2-2.2 2.2-5.5 0-7.7s-5.5-2.2-7.7 0L434 634.7c-2.2 2.2-2.2 5.5 0 7.7s5.5 2.2 7.7 0zm-29.1-104.8l42.2-42.2c2-2 2-5.2 0-7.3-2-2-5.2-2-7.3 0l-42.1 42.2c-2 2-2 5.2 0 7.3 2 2 5.2 2 7.2 0zm187-159.7l-11.5 11.5c-1.9 1.9-1.9 4.9 0 6.8 1.9 1.9 4.9 1.9 6.8 0l11.5-11.5c1.9-1.9 1.9-4.9 0-6.8-1.9-1.9-4.9-1.9-6.8 0zm-173.9 75.8l29-29c2-2 2-5.2 0-7.3-2-2-5.2-2-7.3 0l-29 29c-2 2-2 5.2 0 7.3 2.1 2 5.3 2 7.3 0z"/><path transform="rotate(-45.001 607.891 340.549)" class="st0" d="M552.9 339.7h110v1.6h-110z"/><path transform="rotate(-45.001 667.774 991.873)" class="st0" d="M612.8 991.1h110v1.6h-110z"/><path transform="rotate(-45.001 451.108 733.144)" class="st0" d="M315.4 732h271.5v2.3H315.4z"/><path transform="rotate(-45.001 324.81 969.612)" class="st0" d="M189.1 968.4h271.5v2.3H189.1z"/><path class="st0" d="M817.2 928.7c-3.3-3.3-8.9-3.3-12.2 0l-69.7 69.7c-3.3 3.3-3.3 8.9 0 12.2 3.3 3.3 8.9 3.3 12.2 0l69.7-69.7c3.5-3.5 3.5-8.9 0-12.2zM606.9 579.8l183.6-183.6c8.9-8.9 8.9-23.2 0-32.1-8.9-8.9-23.2-8.9-32.1 0L574.9 547.9c-8.9 8.9-8.9 23.2 0 32.1 8.9 8.8 23.1 8.7 32-.2zm160.4-32.6L879.5 435l-.7-.8-112.2 112.2zm152.4-3.7l-53.6 53.6c-.7.7-.7 1.7 0 2.5.7.7 1.7.7 2.5 0l53.6-53.6c.7-.7.7-1.7 0-2.5-.6-.7-1.8-.7-2.5 0zM768.3 768.1c-.7-.7-1.7-.7-2.5 0l-53.6 53.6c-.7.7-.7 1.7 0 2.5s1.7.7 2.5 0l53.6-53.6c.7-.6.7-1.8 0-2.5zM523.5 506.7c21.6 0 39.2-17.6 39.2-39.2s-17.6-39.2-39.2-39.2-39.2 17.6-39.2 39.2c.1 21.6 17.6 39.2 39.2 39.2zM246.3 869c0 21.6 17.6 39.2 39.2 39.2s39.2-17.6 39.2-39.2-17.6-39.2-39.2-39.2c-21.7 0-39.2 17.6-39.2 39.2zm-376.1-489.6l-52.5 52.5c-7 7-6.5 18.7.9 26.3 7.5 7.5 19.3 7.8 26.3.9l52.5-52.5c7-7 6.5-18.7-.9-26.3-7.6-7.6-19.4-8-26.3-.9zm-41 4.8l52.5-52.5c7-7 6.5-18.7-.9-26.3-7.5-7.5-19.3-7.8-26.3-.9L-198 357c-7 7-6.5 18.7.9 26.3 7.5 7.4 19.4 7.8 26.3.9zm-195.2-125l74.6-74.6c9.9-9.9 9.4-26.7-1.3-37.3-10.6-10.6-27.3-11.2-37.3-1.3l-74.6 74.6c-9.9 9.9-9.4 26.7 1.3 37.3 10.6 10.7 27.3 11.3 37.3 1.3zm325.6 202.2l74.6-74.6c9.9-9.9 9.4-26.7-1.3-37.3-10.6-10.6-27.3-11.2-37.3-1.3l-74.5 74.6c-9.9 9.9-9.4 26.7 1.3 37.3 10.8 10.6 27.2 11.3 37.2 1.3zM162.1 502c10.6 10.6 27.3 11.2 37.3 1.3l74.6-74.6c9.9-9.9 9.4-26.7-1.3-37.3-10.7-10.6-27.3-11.2-37.3-1.3l-74.6 74.6c-9.9 10-9.3 26.7 1.3 37.3zm-76.4-92.9c5.8 5.8 15.4 5.8 21.2 0L200 316c5.8-5.8 5.8-15.4 0-21.2-5.8-5.8-15.4-5.8-21.2 0l-93.1 93.1c-5.9 6-5.9 15.4 0 21.2zM94 235.5c3.8 3.8 9.9 3.8 13.6 0l99.6-99.6c3.8-3.8 3.8-9.9 0-13.6-3.8-3.8-9.9-3.8-13.6 0L94 221.9c-3.8 3.7-3.8 9.8 0 13.6zm-257.8-2.9c-2.2 2.2-2.2 5.5 0 7.7s5.5 2.2 7.7 0l42.2-42.2c2.2-2.2 2.2-5.5 0-7.7s-5.5-2.2-7.7 0l-42.2 42.2zm140.4 25.7l-24.4 24.4c-3.8 3.8-3.8 9.9 0 13.6s9.9 3.8 13.6 0l24.4-24.4c3.8-3.8 3.8-9.9 0-13.6-3.8-3.8-9.9-3.8-13.6 0zM268.2 293l19-19c2-2 2-5.4 0-7.5-2-2-5.4-2-7.5 0l-18.9 19c-2 2-2 5.4 0 7.5 2 2 5.4 2 7.4 0zm80.1 23.2l21.8-21.8c3.3-3.3 3.3-8.7 0-11.9-3.3-3.3-8.7-3.3-11.9 0l-21.8 21.8c-3.3 3.3-3.3 8.7 0 11.9s8.7 3.4 11.9 0zm-359.7-97.8L91.1 115.9c15.5-15.5 15.5-40.6 0-56-15.5-15.5-40.6-15.5-56 0L-67.4 162.3c-15.5 15.5-15.5 40.6 0 56 15.4 15.5 40.5 15.5 56 .1z"/><path transform="rotate(-45.001 1.633 486.351)" class="st0" d="M-53.4 485.6h110v1.6h-110z"/><path transform="rotate(-45.001 -214.93 227.52)" class="st0" d="M-350.7 226.4h271.5v2.3h-271.5z"/><path transform="rotate(-45.001 -341.24 463.96)" class="st0" d="M-477 462.8h271.5v2.3H-477z"/><path class="st0" d="M151.2 423.1c-3.3-3.3-8.9-3.3-12.2 0l-69.7 69.7c-3.3 3.3-3.3 8.9 0 12.2s8.9 3.3 12.2 0l69.7-69.7c3.5-3.5 3.5-8.9 0-12.2zM99.7 262.5l-53.6 53.6c-.7.7-.7 1.7 0 2.5.7.7 1.7.7 2.5 0l53.6-53.6c.7-.7.7-1.7 0-2.5-.8-.7-1.7-.6-2.5 0zm-480.1 140.1c21.6 0 39.2-17.6 39.2-39.2s-17.6-39.2-39.2-39.2-39.2 17.6-39.2 39.2c-.1 21.8 17.4 39.2 39.2 39.2zm1564.2 651.2l-52.5 52.5c-7 7-6.5 18.7.9 26.3 7.5 7.5 19.3 7.8 26.3.9l52.5-52.5c7-7 6.5-18.7-.9-26.3-7.5-7.6-19.2-7.9-26.3-.9zm-41 4.8l52.5-52.5c7-7 6.5-18.7-.9-26.3-7.5-7.5-19.3-7.8-26.3-.9l-52.5 52.5c-7 7-6.5 18.7.9 26.3 7.6 7.4 19.4 7.9 26.3.9zM904.2 846.7l74.6-74.6c9.9-9.9 9.4-26.7-1.3-37.3-10.6-10.6-27.3-11.2-37.3-1.3L865.6 808c-9.9 9.9-9.4 26.7 1.3 37.3 10.6 10.6 27.3 11.2 37.3 1.4zm405.1 176l-74.6 74.6c-9.9 9.9-9.4 26.7 1.3 37.3 10.7 10.6 27.3 11.2 37.3 1.3l74.6-74.6c9.9-9.9 9.4-26.7-1.3-37.3-10.7-10.7-27.4-11.1-37.3-1.3zm239.8 42l-74.6 74.6c-9.9 9.9-9.4 26.7 1.3 37.3 10.6 10.6 27.3 11.2 37.3 1.3l74.6-74.6c9.9-9.9 9.4-26.7-1.3-37.3-10.7-10.6-27.4-11.2-37.3-1.3zm-35.4-95.4c-5.8-5.8-15.4-5.8-21.2 0l-93.1 93.1c-5.8 5.8-5.8 15.4 0 21.2 5.8 5.8 15.4 5.8 21.2 0l93.1-93.1c5.8-5.8 5.8-15.2 0-21.2zm-92.3-59.2l99.6-99.6c3.8-3.8 3.8-9.9 0-13.6s-9.9-3.8-13.6 0l-99.7 99.4c-3.8 3.8-3.8 9.9 0 13.6 3.7 4 9.9 4 13.7.2zm-263.9 4.6l42.2-42.2c2.2-2.2 2.2-5.5 0-7.7s-5.5-2.2-7.7 0l-42.2 42.2c-2.2 2.2-2.2 5.5 0 7.7 2.2 2.1 5.7 2.1 7.7 0zm132.8 18l-24.4 24.4c-3.8 3.8-3.8 9.9 0 13.6 3.8 3.8 9.9 3.8 13.6 0l24.4-24.4c3.8-3.8 3.8-9.9 0-13.6-3.9-3.7-10-3.7-13.6 0zm303.1 8.2l-19 19c-2 2-2 5.4 0 7.5 2 2 5.4 2 7.5 0l19-19c2-2 2-5.4 0-7.5-2-2.1-5.3-2.1-7.5 0zm90.5 16.1c-3.3-3.3-8.7-3.3-11.9 0l-21.8 21.8c-3.3 3.3-3.3 8.7 0 11.9 3.3 3.3 8.6 3.3 11.9 0l21.8-21.8c3.3-3.4 3.3-8.7 0-11.9zm-82.6-176.3l-21.8 21.8c-3.3 3.3-3.3 8.7 0 11.9 3.3 3.3 8.6 3.3 11.9 0l21.8-21.8c3.3-3.3 3.3-8.7 0-11.9-3.4-3.3-8.6-3.3-11.9 0zm-196.6-46.6c-15.5-15.5-40.6-15.5-56 0l-102.5 102.5c-15.5 15.5-15.5 40.6 0 56 15.5 15.5 40.6 15.5 56 0l102.5-102.5c15.5-15.3 15.5-40.4 0-56zm168.4-208.3c-3.3-3.3-8.7-3.3-11.9 0l-21.8 21.8c-3.3 3.3-3.3 8.7 0 11.9 3.3 3.3 8.7 3.3 11.9 0l21.8-21.8c3.3-3.3 3.3-8.5 0-11.9zm-479.6 266l-11.9 11.9c-2.2 2.2-2.2 5.5 0 7.7s5.5 2.2 7.7 0l11.9-11.9c2.2-2.2 2.2-5.5 0-7.7-2.1-2.1-5.6-2.1-7.7 0zm-40.4-85.2c2 2 5.2 2 7.3 0l42.2-42.2c2-2 2-5.2 0-7.3-2-2-5.2-2-7.3 0l-42.2 42.2c-2 2-2 5.2 0 7.3zm194.2-159.9l-11.5 11.5c-1.9 1.9-1.9 4.9 0 6.8 1.9 1.9 4.9 1.9 6.8 0l11.5-11.5c1.9-1.9 1.9-4.9 0-6.8-1.8-1.8-4.9-1.8-6.8 0zm-174 76l29-29c2-2 2-5.2 0-7.3-2-2-5.2-2-7.3 0l-29 29c-2 2-2 5.2 0 7.3 2.1 1.8 5.4 1.8 7.3 0z"/><path transform="rotate(-45.001 1255.537 509.36)" class="st0" d="M1200.5 508.5h110v1.6h-110z"/><path transform="rotate(-45.001 1098.65 902.058)" class="st0" d="M962.9 900.9h271.5v2.3H962.9z"/><path transform="rotate(-45.001 972.354 1138.526)" class="st0" d="M836.6 1137.3h271.5v2.3H836.6z"/><path class="st0" d="M1794.3 373l-192 191.9 1.7 1.7 192.1-192zm-539.7 375.8l183.6-183.6c8.9-8.9 8.9-23.2 0-32.1-8.9-8.9-23.2-8.9-32.1 0l-183.6 183.6c-8.9 8.9-8.9 23.2 0 32.1 8.9 8.7 23.1 8.7 32.1 0zm160.4-32.7l112.2-112.2-.7-.7-112.2 112.2zm154.9-3.6c-.7-.7-1.7-.7-2.5 0l-53.6 53.6c-.7.7-.7 1.7 0 2.5s1.7.7 2.5 0l53.6-53.6c.7-.7.7-1.8 0-2.5zM1416 937.1c-.7-.7-1.7-.7-2.5 0l-53.6 53.6c-.7.7-.7 1.7 0 2.5.7.7 1.7.7 2.5 0l53.6-53.6c.6-.8.6-1.8 0-2.5zm356 156.6l-52.5 52.5c-7 7-6.5 18.7.9 26.3 7.5 7.5 19.3 7.8 26.3.9l52.5-52.5c7-7 6.5-18.7-.9-26.3-7.6-7.6-19.4-7.8-26.3-.9zm-41 4.8l52.5-52.5c7-7 6.5-18.7-.9-26.3-7.5-7.5-19.3-7.8-26.3-.9l-52.5 52.5c-7 7-6.5 18.7.9 26.3 7.5 7.6 19.2 7.9 26.3.9zm166.4-35.8l-74.6 74.6c-9.9 9.9-9.4 26.7 1.3 37.3 10.7 10.6 27.3 11.2 37.3 1.3l74.6-74.6c9.9-9.9 9.4-26.7-1.3-37.3-10.6-10.6-27.4-11.2-37.3-1.3zm239.8 41.9l-74.6 74.6c-9.9 9.9-9.4 26.7 1.3 37.3 10.6 10.6 27.3 11.2 37.3 1.3l74.6-74.6c9.9-9.9 9.4-26.7-1.3-37.3-10.6-10.6-27.3-11.2-37.3-1.3zm-35.4-95.4c-5.8-5.8-15.4-5.8-21.2 0l-93.1 93.1c-5.8 5.8-5.8 15.4 0 21.2s15.4 5.8 21.2 0l93.1-93.1c5.9-5.8 5.9-15.2 0-21.2zm-223.4-36.5L1854 997c-3.8 3.8-3.8 9.9 0 13.6s9.9 3.8 13.6 0l24.4-24.4c3.8-3.8 3.8-9.9 0-13.6-3.8-3.6-9.9-3.6-13.6.1zm303.2 8.1l-19 19c-2 2-2 5.4 0 7.5 2 2 5.4 2 7.5 0l19-19c2-2 2-5.4 0-7.5-2.1-2-5.4-2-7.5 0zm90.3 16.1c-3.3-3.3-8.7-3.3-11.9 0l-21.8 21.8c-3.3 3.3-3.3 8.7 0 11.9 3.3 3.3 8.6 3.3 11.9 0l21.8-21.8c3.4-3.3 3.4-8.6 0-11.9z"/><path transform="rotate(-45.001 1560.529 1178.387)" class="st0" d="M1424.8 1177.2h271.5v2.3h-271.5z"/><path class="st0" d="M2004.1 977c-.7-.7-1.7-.7-2.5 0l-53.6 53.6c-.7.7-.7 1.7 0 2.5s1.7.7 2.5 0l53.6-53.6c.7-.7.7-1.8 0-2.5zm-49.4-821.5l-52.5 52.5c-7 7-6.5 18.7.9 26.3 7.5 7.5 19.3 7.8 26.3.9l52.5-52.5c7-7 6.5-18.7-.9-26.3-7.5-7.6-19.3-7.8-26.3-.9zm-41.1 4.8l52.5-52.5c7-7 6.5-18.7-.9-26.3-7.5-7.5-19.3-7.8-26.3-.9l-52.5 52.5c-7 7-6.5 18.7.9 26.3 7.6 7.4 19.4 7.9 26.3.9zm166.6-35.8l-74.6 74.6c-9.9 9.9-9.4 26.7 1.3 37.3 10.6 10.6 27.3 11.2 37.3 1.3l74.6-74.6c9.9-9.9 9.4-26.7-1.3-37.3-10.8-10.8-27.5-11.2-37.3-1.3zm239.8 41.9l-74.6 74.6c-9.9 9.9-9.4 26.7 1.3 37.3 10.6 10.6 27.3 11.2 37.3 1.3l74.6-74.6c9.9-9.9 9.4-26.7-1.3-37.3-10.8-10.7-27.5-11.2-37.3-1.3zM2284.5 71c-5.8-5.8-15.4-5.8-21.2 0l-93.1 93.1c-5.8 5.8-5.8 15.4 0 21.2 5.8 5.8 15.4 5.8 21.2 0l93.1-93.1c5.9-5.8 5.9-15.2 0-21.2zm-223.4-36.5l-24.4 24.4c-3.8 3.8-3.8 9.9 0 13.6s9.9 3.8 13.6 0l24.4-24.4c3.8-3.8 3.8-9.9 0-13.6-3.7-3.8-9.9-3.8-13.6 0zm303.1 8.1l-19 19c-2 2-2 5.4 0 7.5 2 2 5.4 2 7.5 0l19-19c2-2 2-5.4 0-7.5-1.9-2.1-5.3-2.1-7.5 0zm90.5 16.1a8.39 8.39 0 0 0-11.9 0L2421 80.5c-3.3 3.3-3.3 8.7 0 11.9 3.3 3.3 8.7 3.3 11.9 0l21.8-21.8c3.3-3.3 3.3-8.7 0-11.9z"/><path transform="rotate(-45.001 1743.201 240.266)" class="st0" d="M1607.5 239.1H1879v2.3h-271.5z"/><path class="st0" d="M2186.8 38.8c-.7-.7-1.7-.7-2.5 0l-53.6 53.6c-.7.7-.7 1.7 0 2.5.7.7 1.7.7 2.5 0l53.6-53.6c.6-.8.6-1.9 0-2.5z"/><circle class="st0" cx="1616.2" cy="642.5" r="39.2"/><circle class="st0" cx="1171.3" cy="636.3" r="39.2"/><path class="st0" d="M933.2 1077.2c21.6 0 39.2-17.6 39.2-39.2s-17.6-39.2-39.2-39.2-39.2 17.5-39.2 39.2c0 21.6 17.6 39.2 39.2 39.2zm1037.2-238.8l-52.5 52.5c-7 7-6.5 18.7.9 26.3 7.5 7.5 19.3 7.8 26.3.9l52.5-52.5c7-7 6.5-18.7-.9-26.3-7.6-7.5-19.3-7.9-26.3-.9zm-40.9 4.8l52.5-52.5c7-7 6.5-18.7-.9-26.3-7.5-7.5-19.3-7.8-26.3-.9l-52.5 52.5c-7 7-6.5 18.7.9 26.3 7.4 7.5 19.3 8 26.3.9zm-159.3-238l-74.6 74.6c-9.9 9.9-9.4 26.7 1.3 37.3 10.6 10.6 27.3 11.2 37.3 1.3l74.6-74.6c9.9-9.9 9.4-26.7-1.3-37.3-10.7-10.5-27.3-11.1-37.3-1.3zm362.9 203.4c-10.6-10.6-27.3-11.2-37.3-1.3l-74.6 74.6c-9.9 9.9-9.4 26.7 1.3 37.3 10.6 10.6 27.3 11.2 37.3 1.3l74.6-74.6c9.9-9.8 9.3-26.5-1.3-37.3zm239.9 42c-10.6-10.6-27.3-11.2-37.3-1.3l-74.6 74.6c-9.9 9.9-9.4 26.7 1.3 37.3 10.6 10.6 27.3 11.2 37.3 1.3l74.6-74.6c9.8-9.9 9.2-26.7-1.3-37.3zm-428.9-151.3l42.2-42.2c2.2-2.2 2.2-5.5 0-7.7s-5.5-2.2-7.7 0l-42.2 42.2c-2.2 2.2-2.2 5.5 0 7.7s5.6 2.2 7.7 0zm132.7 18.2l-24.4 24.4c-3.8 3.8-3.8 9.9 0 13.6 3.8 3.8 9.9 3.8 13.6 0l24.4-24.4c3.8-3.8 3.8-9.9 0-13.6-3.7-3.8-9.8-3.8-13.6 0zm114.5-198.6c-15.5-15.5-40.6-15.5-56 0l-102.5 102.5c-15.5 15.5-15.5 40.6 0 56 15.5 15.5 40.6 15.5 56 0l102.5-102.5c15.6-15.5 15.6-40.6 0-56zm146.5-174.7l21.8-21.8c3.3-3.3 3.3-8.7 0-11.9s-8.7-3.3-11.9 0l-21.8 21.8c-3.3 3.3-3.3 8.7 0 11.9 3.4 3.2 8.7 3.2 11.9 0zM1875.9 596l11.9-11.9c2.2-2.2 2.2-5.5 0-7.7s-5.5-2.2-7.7 0l-11.9 11.9c-2.2 2.2-2.2 5.5 0 7.7 2.2 2.1 5.5 2.1 7.7 0zm-29-104.9l42.2-42.2c2-2 2-5.2 0-7.3-2-2-5.2-2-7.3 0l-42.1 42.2c-2 2-2 5.2 0 7.3 1.9 2.1 5.1 2.1 7.2 0zm186.9-159.6l-11.5 11.5c-1.9 1.9-1.9 4.9 0 6.8 1.9 1.9 4.9 1.9 6.8 0l11.5-11.5c1.9-1.9 1.9-4.9 0-6.8s-4.9-1.9-6.8 0zm-173.9 75.7l29-29c2-2 2-5.2 0-7.3-2-2-5.2-2-7.3 0l-29 29c-2 2-2 5.2 0 7.3 2.1 2.1 5.3 2.1 7.3 0z"/><path transform="rotate(-45.001 2042.12 294.123)" class="st0" d="M1987.1 293.3h110v1.6h-110z"/><path transform="rotate(-45.001 2102.003 945.447)" class="st0" d="M2047 944.6h110v1.6h-110z"/><path transform="rotate(-45.001 1885.337 686.718)" class="st0" d="M1749.6 685.5h271.5v2.3h-271.5z"/><path transform="rotate(-45.001 1759.04 923.186)" class="st0" d="M1623.3 922h271.5v2.3h-271.5z"/><path class="st0" d="M2251.4 882.2c-3.3-3.3-8.9-3.3-12.2 0l-69.7 69.7c-3.3 3.3-3.3 8.9 0 12.2 3.3 3.3 8.9 3.3 12.2 0l69.7-69.7c3.5-3.5 3.5-8.8 0-12.2zm-210.3-348.8l183.6-183.6c8.9-8.9 8.9-23.2 0-32.1s-23.2-8.9-32.1 0L2009 501.3c-8.9 8.9-8.9 23.2 0 32.1 8.9 8.8 23.2 8.8 32.1 0zm160.4-32.7l112.2-112.2-.7-.7L2200.8 500zm152.4-3.6l-53.6 53.6c-.7.7-.7 1.7 0 2.5.7.7 1.7.7 2.5 0l53.6-53.6c.7-.7.7-1.7 0-2.5-.6-.7-1.7-.7-2.5 0zm-151.4 224.6c-.7-.7-1.7-.7-2.5 0l-53.6 53.6c-.7.7-.7 1.7 0 2.5s1.7.7 2.5 0l53.6-53.6c.8-.6.8-1.8 0-2.5zm-244.7-261.5c21.6 0 39.2-17.6 39.2-39.2s-17.6-39.2-39.2-39.2-39.2 17.6-39.2 39.2c0 21.7 17.5 39.2 39.2 39.2zm-277.3 362.4c0 21.6 17.6 39.2 39.2 39.2s39.2-17.6 39.2-39.2-17.6-39.2-39.2-39.2-39.2 17.5-39.2 39.2zm-376.1-489.7l-52.5 52.5c-7 7-6.5 18.7.9 26.3 7.5 7.5 19.3 7.8 26.3.9l52.5-52.5c7-7 6.5-18.7-.9-26.3-7.6-7.6-19.3-8-26.3-.9zm-40.9 4.8l52.5-52.5c7-7 6.5-18.7-.9-26.3-7.5-7.5-19.3-7.8-26.3-.9l-52.5 52.5c-7 7-6.5 18.7.9 26.3 7.4 7.4 19.3 7.9 26.3.9zm-195.3-125l74.6-74.6c9.9-9.9 9.4-26.7-1.3-37.3-10.6-10.6-27.3-11.2-37.3-1.3l-74.6 74.6c-9.9 9.9-9.4 26.7 1.3 37.3 10.6 10.8 27.3 11.3 37.3 1.3zm325.6 202.2l74.6-74.6c9.9-9.9 9.4-26.7-1.3-37.3-10.6-10.6-27.3-11.2-37.3-1.3l-74.5 74.6c-9.9 9.9-9.4 26.7 1.3 37.3 10.5 10.8 27.2 11.3 37.2 1.3zm202.5 40.7c10.6 10.6 27.3 11.2 37.3 1.3l74.6-74.6c9.9-9.9 9.4-26.7-1.3-37.3-10.6-10.6-27.3-11.2-37.3-1.3l-74.6 74.6c-9.9 10-9.3 26.7 1.3 37.3zm-76.3-92.9c5.8 5.8 15.4 5.8 21.2 0l93.1-93.1c5.8-5.8 5.8-15.4 0-21.2s-15.4-5.8-21.2 0l-93.1 93.1c-6 5.9-6 15.4 0 21.2zm8.2-173.6c3.8 3.8 9.9 3.8 13.6 0l99.6-99.6c3.8-3.8 3.8-9.9 0-13.6-3.8-3.8-9.9-3.8-13.6 0l-99.6 99.6c-3.7 3.7-3.7 9.8 0 13.6zm-257.8-3c-2.2 2.2-2.2 5.5 0 7.7s5.5 2.2 7.7 0l42.2-42.2c2.2-2.2 2.2-5.5 0-7.7s-5.5-2.2-7.7 0l-42.2 42.2zm140.4 25.7l-24.4 24.4c-3.8 3.8-3.8 9.9 0 13.6s9.9 3.8 13.6 0l24.4-24.4c3.8-3.8 3.8-9.9 0-13.6-3.7-3.7-9.8-3.7-13.6 0zm291.6 34.7l19-19c2-2 2-5.4 0-7.5-2-2-5.4-2-7.5 0l-18.9 19c-2 2-2 5.4 0 7.5 2.1 2.1 5.4 2.1 7.4 0zm80.2 23.3l21.8-21.8c3.3-3.3 3.3-8.7 0-11.9a8.39 8.39 0 0 0-11.9 0l-21.8 21.8c-3.3 3.3-3.3 8.7 0 11.9 3.3 3.3 8.7 3.3 11.9 0zm-359.8-97.9l102.5-102.5c15.5-15.5 15.5-40.6 0-56-15.5-15.5-40.6-15.5-56 0l-102.6 102.3c-15.5 15.5-15.5 40.6 0 56 15.5 15.6 40.6 15.6 56.1.2z"/><path transform="rotate(-45.001 1435.862 439.925)" class="st0" d="M1380.8 439.1h110v1.6h-110z"/><path transform="rotate(-45.001 1219.299 181.093)" class="st0" d="M1083.6 179.9h271.5v2.3h-271.5z"/><path transform="rotate(-45.001 1092.99 417.534)" class="st0" d="M957.3 416.4h271.5v2.3H957.3z"/><path class="st0" d="M1585.4 376.6c-3.3-3.3-8.9-3.3-12.2 0l-69.7 69.7c-3.3 3.3-3.3 8.9 0 12.2 3.3 3.3 8.9 3.3 12.2 0l69.7-69.7c3.5-3.5 3.5-8.9 0-12.2zm-51.5-160.5l-53.6 53.6c-.7.7-.7 1.7 0 2.5s1.7.7 2.5 0l53.6-53.6c.7-.7.7-1.7 0-2.5s-1.6-.6-2.5 0zm-480.1 140c21.6 0 39.2-17.6 39.2-39.2s-17.6-39.2-39.2-39.2-39.2 17.6-39.2 39.2c-.1 21.8 17.5 39.2 39.2 39.2z"/></svg>