<svg id="Layer_1" xmlns="http://www.w3.org/2000/svg" viewBox="0 0 1920 1320"><style>.st0{fill:#00acc1}</style><path class="st0" d="M1391 1641l32.7 3.7-13.1-30.2zM838 762.5l-37.4 8.1 25.7 28.3zM615.4 68.8l-4.4 59.8 54-26.2zM1507.9 3l-27.1 27.2 37.2 9.9zm50.3 1881.2l18.9-24.6-30.8-4zM1037.4 231.7l-10.4-49.4-37.5 33.7zM900.3 958.8l-61-20.7 12.6 63.2zm-496 33.8l17.4-28.6-33.5-.8zm930.2 119.1l-43.7 24.3 42.9 25.7zm-229.3-399.3l-30.5-8.2 8.2 30.6zM220.5 1731.6l9.6-29.4-30.3 6.4zm42.4-1491.2l52.4-40-60.9-25.4zm212.4 1027.5l5.4-39.6-37 15.1zM144.9 458.1l-57.1-26.7 5.4 62.8zm1203.8-44l-32.1-9.1 8.1 32.4zm-13.1 1353.4l23.4-24.9-33.2-7.9zm562.5-499.2l-29.1 16.6 29 16.9zm-640.2 362.1l36.3-7-24.2-27.9zm155.2-238.6l-49.2 18.6 40.7 33.3zm-674-1012.1l-31.8-.9 15.1 27.9zm-335.2 1061l43.1-38.5-54.9-18.1zM1900.1 157.4l-28.9 24.6 35.8 12.7zm-1490.5 1737l12.7-29.8-32.2 4zm382.6-200.8l-6.8 30.5 29.8-9.4zm957.2 234.3l40.4-29.3-45.5-20.3zm-756.2-351l12.6-31-33.2 4.5zm-786.3-248.6l48.7 22.5-5-53.4zm38.2-807.6l11.9 42.9 31.2-31.7zM82.6 1806.2l56.6-25.9-50.8-36.1zM47.4 678.1l31.1-53.3-61.7-.3zm1730.7 134l-45.6 28.5 47.5 25.2zm-697.1 215l-29.3 54.6 61.9-1.9zM22.3 806.6l30.6-13-26.6-20zm1861.6 934.5l19.9-26.4-32.8-4zm5.2-963l-31.5 7.1 21.9 23.7zm-863.2 1050.5l30.9 14.8-2.6-34.2zm820.3-693.4l51.4 19-9.3-54zm30.8-646.8l31.3-25-37.3-14.6zM718.9 1272.2l42.2 14.9-8.2-44zm464.3-889.3l-3 49.3 44.2-22zm487.4-169.7l33.8-32.1-44.6-13.3zm-71.1 940.3l1 54.3 46.6-28.1zM411.4 820l-54.7-23.3 7.1 59zm1351.8 191.8l39.2-35.4-50.3-16.3zm-272.4 320.4l28.7 40.4 20.6-45zm-1290-278.1l31.1-3.1-18.2-25.4zm-53.4-704.7l-8.5-33.3-24.6 24zM595.9 239l-58.1-1.8 27.5 51.2zm1280.9 717.4l6.4 43.3 34.3-27.2zm-213.2-540.2l-45.8-21.5 4.2 50.5zm-648.2 892.5l-48.3-14.5 11.6 49.1zm471.6 473.8l9.5-44-42.8 13.7zm120.2-718.7l3.7-45.5-41.2 19.5zM556 1323.7l19 49.8 33.6-41.3zm1168.9 253.8l17.3 59.3 42.7-44.6zM1100.1 283.1l-14.6 31.5 34.6-3.1zm-81.7 194l27.3-29.9-39.6-8.7zM1599 765.5l-38.1.7 19.6 32.7zM166.2 239.3l-2.2-57-48.3 30.5zM566.2 9L552 36.9l31.3-1.7zm314 1220l-25.9 49.2 55.7-2.1zm-421.1 302.4l19.4 29.8 16.1-31.7zm485.7-697.8l-10.7 62.8 59.7-22.1zm-787.3 45.8l56.3-26.5-51.1-35.5zM398.8 404l-4.1 33.6 31.2-13.3zm1359.9 708.3l-25.8 18.8 29.1 12.9zM518 1660.7l-28 13.8 26 17.3zM267.4 55.8l-30.5-8.6 7.8 30.8zM290 403.9l-2.2-50.6-42.8 27.2zM22.4 12.6l-2.2 34 30.5-15.1zm403.8 4l-31.9 49.2 58.6 3zm1015.5 1041.8l-10.9 32 33.2-6.6zm-1017.1-485l-9.9-30.7-21.6 23.9zm294.3 927.9l29.2 14.3-2.3-32.4zM944.5 1722l11.8-36.1-37.2 7.8zm-581-618.2l-35.3-3.4 14.7 32.3zM1425 153.1l-59.2-27.1 6.2 64.8zM978.7 58.4l-18.2 27.5 32.9 2zm444.2 625.7l-64.4 2.8 34.6 54.4zM906.7 259.3l-48.8 31.8 51.9 26.3zm845 1046l41.3-30.9-47.4-20.3zm82.7 112.4l-20.1 25.8 32.4 4.5zm-203.5-533.3l-28.5 39.3 48.2 5zm-530.5 293.9l-37.6 44.8 57.6 10.2zM571.5 974.2l32.2 1.1-15.1-28.5zm593 355.5l-45.1-5.3 17.9 41.7zm406.6 181.3l26.1-59.3-64.4 7zm117.4-168.8l-54.3-25.3 5.3 59.7zm184.9-724.9l-32.7 13.8 28.3 21.4zM430.1 146.6l-31.8 3 18.5 26zm1338 219l-21.3 23.3 30.8 6.8zM91.4 922.7l-25.2 38.4 45.8 2.7zm539.7 524.9l-34.4 16.4 31.4 21.6zm698.8-919.9l-58.5 29.3 54.6 36zM128.5 554.1L108.2 582l34.2 3.7zm1238.4 304.1l-11.1-52.2-39.7 35.7zM746.8 646.1l14.6-32.3-35.3 3.4zm-225.3-30L509.9 656l40.3-9.9zm725.8 34.5l-20.7 28.6 35.1 3.7zm440.1 1017.5l-51.1 21.9 44.5 33.3zM408.7 267.7l-16.4 33.1 36.9-2.3zM165.7 1382l-65.4 2.2 34.6 55.6zm1287-137.2l50.4-13.2-36.6-37.1zM841 1399l-29.8-8.3 7.7 30zm435.1 33.1l-42.1 30.2 47.2 21.3zm-639.2-246.2l-31.4 5.8 20.7 24.2zm922.7-845.8l-6.2-58.7-47.8 34.7zM24.2 152.6l-11.3 47.7 46.9-14.1zm280 581l29.3-24.8-36.1-13zm405.7 267.1l-23.2 28 35.8 6zM1688 14.8l-52.4 32 54 29.4zM52.3 326.1L7.6 317 22 360.3zm577.9 212.8l56-10.6-37.2-43.2zM1531.4 1641l46.4 4.4-19.3-42.4zM16.8 1439.3l44.9-29.9-48.4-23.9zM84.9 1213l-43.3 41.5 57.6 16.8zM1836.4 50.7l-40.9 20.4 38.2 25.2zM550 1898.4l20.7-60.3-62.5 12.1zM1700.3 734.7l14.7-62.9-61.8 18.8zm-212.5-111.6l8.2 35 26.2-24.6zm-450.4 800l-66.7 1.1 34.4 57.3zM846 1596.4l24.3-32.4-40.3-4.8zm584.9-81.3l14 29.3 18.4-26.8zM671 773.3l-60.2-2.9 27.6 53.6zm.1 823.6l-8.7 56.9 53.6-20.9zM1116.6 40l-7.1 30.5 29.9-9zM531.8 1118.8l-9.1-36.5-27 26.1zM124 67.6l-34.8-.1 17.3 30.1zm231.9 1620.5l32.5 56.4 32.6-56.4zm-70.1 164.4l48.6-34.2-53.9-25zm920.8-908.4l7.7-60.1-55.9 23.4zM977.5 707.2l-33.2 43 53.8 7.2zm84.8 982.1l33.6-15.8-30.5-21.1zM894.8 444.1l-41.9-19 4.4 45.8zm211.9 133.5l55.9-3.6-31-46.7zm23.8 969.4l35.9 7.4-11.4-34.8zM509.3 813.4l-21.4 48.1 52.4-5.6zm1397.5-498.8l-38.3 11.7 29.3 27.3zM746 225.9l-29.4-12.2 4.1 31.5zm81.9 908.5l-14.9-34.9-22.8 30.4zm159.5 12l-28.1-26.6-9 37.7zM852.4 78.1l-63.5-2.3 29.8 56.2zm469 197.7l-6.3 36.4 34.6-12.8zM87.8 1087.7l-49-26.5 1.6 55.6zm78.3 462.5l2-36.9-33 16.7zM1244.9 1886l50.1 1-24.2-43.9zm-1215.1-4.3l27.3-20.2-31.2-13.6zM197.1 706.4L182.7 679l-16.5 26.2zm1221.2 1206.4l16.8-51.7-53.1 11.2zm408.1-65.1l45-22.3-41.9-27.9zM1184.1 771.8l1 31 26.3-16.4zm483 749l49.2-29.7-50.3-27.8zm18.4 321.1l10.1-45.1-44.1 13.8zm-1514.1 62l37.8-3.8-22.1-30.8zm764.5 5.5l14.9-52.4-52.8 13.3zm-135.1-62.6l31.9-19.5-32.9-17.8zM675.1 1896l53.3 7-20.5-49.7zm790.7-1433.1l-34 11.8 27.2 23.6zm-277.5 1311.8l28.7-26.3-37.1-11.7zm70.1-1677.8l-42.3 19.9 38.4 26.7zm73.7 1175.6l-44.3 19.6 39.1 28.5zm-196.4 640.3l17.8-25.5-31-2.6zm-765.9-637.5l-29.6-40.8-20.6 46zm1501.5 348.2l27.2-46.5-53.9-.3zm-1261.9 151l36.5-34-47.7-14.6zm-315.7-142.2l46.9-41.9-59.8-19.7zm-78.8-415.8l17.8-38.2-41.9 3.7zM3 1661.4l18.7 24.7 12.1-28.5zm1026-723.6l50.6 24.2-4.3-55.9zm582.2-405.7l-.4 34.7 30.3-17zm-161.4 343.8l34.3 47 23.5-53.2zM98.9 1592.8l-28.6 25.7 36.6 11.9zm1210.9-619.9l-30 14.8 27.8 18.6zm512.3-724.3l-59-13.3L1781 293zM1190.4 1168l34.2-24-37.9-17.6zm331.8-1010.2l24.2-35.5-42.9-3.2zM284 1440.3l-24.7 22.6 31.9 10.1zm650.1-804.7l25.5-56.1-61.3 6zM551.7 401.2l-20 28.2 34.4 3.2zM1757.5 523l-16.3 47.1 48.9-9.4z"/></svg>