<svg id="Layer_1" xmlns="http://www.w3.org/2000/svg" viewBox="0 0 1920 1320"><style>.st0{fill:#e65100}</style><path class="st0" d="M211.8 585.2c-.7-.7-1.8-.8-2.6-.2-.7.7-.8 1.8-.2 2.6l5.8 6.6c.7.7 1.8.8 2.6.2.7-.7.8-1.8.2-2.6l-5.8-6.6zm229.1-792.3l9.7-3.7c1.1-.4 1.7-1.7 1.2-2.8-.4-1.1-1.7-1.7-2.8-1.2l-9.7 3.7c-1.1.4-1.7 1.7-1.2 2.8.5 1.1 1.7 1.7 2.8 1.2zM480.8 8.7l-7.6 6.3c-.9.7-1 2-.3 2.9.7.9 2 1 2.9.3l7.6-6.3c.9-.7 1-2 .3-2.9-.7-.9-2.1-1-2.9-.3zm24.4 546.8c1.5 1 3.4.6 4.4-.8 1-1.5.6-3.4-.8-4.4l-12.8-8.8c-1.5-1-3.4-.6-4.4.8-1 1.5-.6 3.4.8 4.4l12.8 8.8zM151.3-124.2c-2.2-1.6-5.2-1.2-6.9.9l-14.3 18.9c-1.6 2.2-1.2 5.2.9 6.9 2.2 1.6 5.2 1.2 6.9-.9l14.3-18.9c1.7-2.2 1.2-5.3-.9-6.9zm588.8-24.4c.7 1 2.1 1.3 3.1.6 1-.7 1.3-2.1.6-3.1l-6.2-9c-.7-1-2.1-1.3-3.1-.6-1 .7-1.3 2.1-.6 3.1l6.2 9zm33.5-50.6c1.5 1.7 4 1.8 5.7.3l14.5-12.9c1.7-1.5 1.8-4 .3-5.7-1.5-1.7-4-1.8-5.7-.3l-14.5 12.9c-1.6 1.5-1.8 4-.3 5.7zM421.5 34.4l-7.6 8.5c-.9 1-.8 2.5.2 3.3 1 .9 2.5.8 3.3-.2l7.6-8.5c.9-1 .8-2.5-.2-3.3-.9-.8-2.4-.8-3.3.2zm-249.7 82.5l8.2-23.6c.9-2.7-.5-5.6-3.2-6.5s-5.6.5-6.5 3.2l-8.2 23.6c-.9 2.7.5 5.6 3.2 6.5s5.6-.5 6.5-3.2zm-9.3-157.5l18.5 14a4.78 4.78 0 1 0 5.8-7.6l-18.5-14a4.78 4.78 0 1 0-5.8 7.6zM114.8 316c-1.8-.3-3.5 1-3.7 2.8l-2.2 15.9c-.3 1.8 1 3.5 2.8 3.7 1.8.3 3.5-1 3.7-2.8l2.3-15.9c.2-1.7-1.1-3.4-2.9-3.7zM858 97.2c1.3 2.4 4.3 3.3 6.7 2s3.3-4.3 2-6.7l-11.3-21.1c-1.3-2.4-4.3-3.3-6.7-2s-3.3 4.3-2 6.7L858 97.2zm-70.1 42.9c-1.7-2.2-4.8-2.7-7.1-1l-19.6 14.6c-2.2 1.7-2.7 4.8-1 7.1 1.7 2.2 4.8 2.7 7.1 1l19.6-14.6c2.2-1.7 2.7-4.8 1-7.1zm39.9-271.3l16.1-7.3c1.8-.8 2.6-3 1.8-4.8-.8-1.8-3-2.6-4.8-1.8l-16.2 7.3c-1.8.8-2.6 3-1.8 4.8.9 1.9 3 2.7 4.9 1.8zM572.2 196.9l-1.4 33.1c-.2 3.8 2.8 7 6.5 7.1 3.8.2 7-2.8 7.1-6.5l1.4-33.1c.2-3.8-2.8-7-6.5-7.1-3.8-.2-6.9 2.7-7.1 6.5zm-254.5 28.9l-14.7.8c-1.7.1-3 1.5-2.9 3.2s1.5 3 3.2 2.9l14.7-.8c1.7-.1 3-1.5 2.9-3.2s-1.6-3-3.2-2.9zM676-190.3l3.9-7.3c.5-.8.1-1.9-.7-2.3-.8-.5-1.9-.1-2.3.7l-3.9 7.3c-.5.8-.1 1.9.7 2.3.8.4 1.8.1 2.3-.7zm187.7-13.1l23.7-6.5c2.7-.7 4.3-3.5 3.5-6.2-.7-2.7-3.5-4.3-6.2-3.5l-23.7 6.5c-2.7.7-4.3 3.5-3.5 6.2s3.5 4.3 6.2 3.5zm-514.1-3.1c.6 1.8 2.5 2.7 4.3 2.1 1.7-.6 2.6-2.5 2.1-4.3l-5.2-15.5c-.6-1.8-2.5-2.7-4.3-2.1-1.8.6-2.7 2.5-2.1 4.3l5.2 15.5zM560.7 54.1L541 39.9c-2.3-1.6-5.4-1.1-7 1.2s-1.1 5.4 1.2 7L555 62.2c2.3 1.6 5.4 1.1 7-1.2 1.6-2.2 1.1-5.3-1.3-6.9zM446.9 157.2c1.3 1.2 3.3 1.1 4.5-.2 1.2-1.3 1.1-3.3-.2-4.5L439.7 142c-1.3-1.2-3.3-1.1-4.5.2-1.2 1.3-1.1 3.3.2 4.5l11.5 10.5zm155.5-437.6c.2 1 1.1 1.7 2.1 1.6 1-.2 1.7-1.1 1.6-2.1l-1.3-9c-.2-1-1.1-1.7-2.1-1.6-1 .2-1.7 1.1-1.6 2.1l1.3 9zM660.2 334c-.9-.4-2-.1-2.4.8l-3.8 7.8c-.4.9-.1 2 .8 2.4.9.4 2 .1 2.4-.8l3.8-7.8c.5-.8.1-1.9-.8-2.4zm10-335.9c-.9 2.2.1 4.7 2.3 5.6l19.1 8c2.2.9 4.7-.1 5.6-2.3.9-2.2-.1-4.7-2.3-5.6l-19.1-8c-2.2-.9-4.7.1-5.6 2.3zM315 57.6c.3 1.2 1.6 2 2.8 1.7 1.2-.3 2-1.6 1.7-2.8l-2.7-10.9c-.3-1.2-1.6-2-2.8-1.7-1.2.3-2 1.6-1.7 2.8l2.7 10.9zm277.4 254.8L566 317c-3 .5-5 3.4-4.5 6.4s3.4 5 6.4 4.5l26.4-4.6c3-.5 5-3.4 4.5-6.4-.6-3-3.4-5-6.4-4.5zm189.5 179c-1.3-3.4-5.1-5.1-8.5-3.8l-29.8 11.3c-3.4 1.3-5.1 5.1-3.8 8.5 1.3 3.4 5.1 5.1 8.5 3.8l29.8-11.3c3.4-1.3 5.1-5.1 3.8-8.5zM86.5-237.5l28-.8c3.2-.1 5.7-2.7 5.6-5.9-.1-3.2-2.7-5.7-5.9-5.6l-28 .8c-3.2.1-5.7 2.7-5.6 5.9.1 3.2 2.7 5.7 5.9 5.6zM650.1-46.3c2.2-.4 3.6-2.5 3.2-4.7l-3.6-19c-.4-2.2-2.5-3.6-4.7-3.2-2.2.4-3.6 2.5-3.2 4.7l3.6 19c.5 2.2 2.6 3.6 4.7 3.2zm-292.2 377a5.2 5.2 0 0 0-6.7-2.9l-23.4 9.4a5.2 5.2 0 0 0-2.9 6.7 5.2 5.2 0 0 0 6.7 2.9l23.4-9.4c2.7-1.1 4-4.1 2.9-6.7zm572.9-503.6l19.2 3.5c2.2.4 4.3-1 4.7-3.2.4-2.2-1-4.3-3.2-4.7l-19.3-3.5c-2.2-.4-4.3 1-4.7 3.2-.4 2.2 1.1 4.3 3.3 4.7zM264.6 483.9l-23.7 23c-2.7 2.6-2.8 6.9-.2 9.6s6.9 2.8 9.6.2l23.7-23c2.7-2.6 2.8-6.9.2-9.6-2.6-2.7-6.9-2.8-9.6-.2zm328 139.8l-8.6-6.2c-1-.7-2.4-.5-3.1.5s-.5 2.4.5 3.1l8.7 6.2c1 .7 2.4.5 3.1-.5.6-1 .4-2.4-.6-3.1zM150.4 171l-12.6-7c-1.4-.8-3.2-.3-4 1.1-.8 1.4-.3 3.2 1.1 4l12.6 7c1.4.8 3.2.3 4-1.1.9-1.4.4-3.2-1.1-4zm612 445c-2.6-2.7-6.9-2.8-9.6-.2-2.7 2.6-2.8 6.9-.2 9.6l22.9 23.7c2.6 2.7 6.9 2.8 9.6.2s2.8-6.9.2-9.6L762.4 616zM605.6.9l-7.2 10.3c-.8 1.2-.5 2.8.7 3.6s2.8.5 3.6-.7l7.2-10.3c.8-1.2.5-2.8-.7-3.6s-2.8-.5-3.6.7zm-464.5 612c-.9-.7-2.2-.6-2.9.3-.7.9-.6 2.2.3 2.9l7.6 6.3c.9.7 2.2.6 2.9-.3.7-.9.6-2.2-.3-2.9l-7.6-6.3zm747.2-609c-1.3-.3-2.7.5-3 1.8l-2.9 11.5c-.3 1.3.5 2.7 1.8 3 1.3.3 2.7-.5 3-1.8l2.9-11.5c.3-1.4-.5-2.7-1.8-3zM552.9 374.6c-1-.6-2.3-.2-2.8.8l-4.9 8.9c-.6 1-.2 2.3.8 2.8 1 .6 2.3.2 2.8-.8l4.9-8.9c.6-1 .2-2.3-.8-2.8zm-160.5 201c-3.6-.7-7.1 1.7-7.7 5.3l-5.8 31.8c-.7 3.6 1.7 7.1 5.3 7.7 3.6.7 7.1-1.7 7.7-5.3l5.8-31.8c.7-3.6-1.7-7-5.3-7.7zm539.1-369.4l-8.3 3c-1 .3-1.4 1.4-1.1 2.3.3 1 1.4 1.4 2.3 1.1l8.3-3c1-.3 1.4-1.4 1.1-2.3-.3-.9-1.4-1.4-2.3-1.1zM32.8 436.5L9.4 457.4c-2.7 2.4-2.9 6.4-.5 9.1 2.4 2.7 6.4 2.9 9.1.5l23.5-20.9c2.7-2.4 2.9-6.4.5-9.1-2.4-2.6-6.5-2.8-9.2-.5zm515.4-319.8c.3-2.9-1.8-5.6-4.7-5.9-2.9-.3-5.6 1.8-5.9 4.7l-2.8 25.8c-.3 2.9 1.8 5.6 4.7 5.9 2.9.3 5.6-1.8 5.9-4.7l2.8-25.8zm-526.7-250c1-1.3.7-3.1-.5-4.1L9.9-146c-1.3-1-3.1-.8-4.1.5-1 1.3-.8 3.1.5 4.1l11.1 8.6c1.3 1 3.2.8 4.1-.5zm27.6 311.1c-3.3-1-6.8 1-7.8 4.3l-8.5 29.3c-1 3.3 1 6.8 4.3 7.8s6.8-1 7.8-4.3l8.5-29.3c.9-3.3-1-6.8-4.3-7.8zm137.8 319.6l-10.3-3.6c-1.2-.4-2.5.2-2.9 1.4s.2 2.5 1.4 2.9l10.3 3.6c1.2.4 2.5-.2 2.9-1.4.4-1.2-.2-2.5-1.4-2.9zm49 156.7l-13.5-4.2c-1.5-.5-3.2.4-3.7 1.9s.4 3.2 1.9 3.7l13.5 4.2c1.5.5 3.2-.4 3.7-1.9.5-1.6-.4-3.2-1.9-3.7zm444-15.8l-6.3 7.2c-.7.8-.6 2.1.2 2.8.8.7 2.1.6 2.8-.2l6.3-7.2c.7-.8.6-2.1-.2-2.8-.8-.7-2-.6-2.8.2zM16.4-51.2l-3.5 9.1c-.4 1 .1 2.2 1.1 2.6 1 .4 2.2-.1 2.6-1.1l3.5-9.1c.4-1-.1-2.2-1.1-2.6-1-.5-2.1 0-2.6 1.1zm46.9-69.5l-.3 8.9c0 1 .8 1.9 1.8 1.9s1.9-.8 1.9-1.8l.3-8.9c0-1-.8-1.9-1.8-1.9-1.1 0-1.9.8-1.9 1.8zm707-143.3c1.4.6 3.1 0 3.7-1.5l5.5-12.6c.6-1.4 0-3.1-1.4-3.7s-3.1 0-3.7 1.5l-5.5 12.6c-.6 1.4 0 3.1 1.4 3.7zm-7.2 349.9l14.9-4.4c1.7-.5 2.7-2.3 2.2-4-.5-1.7-2.3-2.7-4-2.2l-14.9 4.4c-1.7.5-2.7 2.3-2.2 4 .5 1.7 2.3 2.7 4 2.2zM413.2-53.3l7.8 2.9c.9.3 1.9-.1 2.2-1 .3-.9-.1-1.9-1-2.2l-7.8-2.9c-.9-.3-1.9.1-2.2 1-.3.9.2 1.9 1 2.2zm-396.4 330c1.3-1.3 1.4-3.4.1-4.7L5.7 260.4c-1.3-1.3-3.4-1.4-4.7-.1-1.3 1.3-1.4 3.4-.1 4.7L12 276.6c1.4 1.3 3.5 1.4 4.8.1zm936.2 366l-9.6 9.4c-1.1 1.1-1.1 2.8 0 3.9s2.8 1.1 3.9.1l9.6-9.4c1.1-1.1 1.1-2.8.1-3.9-1.2-1.2-2.9-1.2-4-.1zM822.7 303.2l-10.2.4c-1.2.1-2.1 1-2 2.2 0 1.2 1 2.1 2.2 2l10.2-.4c1.2-.1 2.1-1 2-2.2-.1-1.2-1.1-2.1-2.2-2zM707.6 409.7l-10.3 4.8c-1.2.5-1.7 1.9-1.1 3.1.5 1.2 2 1.7 3.1 1.1l10.3-4.8c1.2-.5 1.7-1.9 1.1-3.1-.5-1.2-1.9-1.7-3.1-1.1zM118.7 37.5c.9-2.5-.5-5.3-3-6.2l-22.4-7.8c-2.5-.9-5.3.5-6.2 3-.9 2.5.5 5.3 3 6.2l22.4 7.8c2.6.9 5.3-.5 6.2-3zm68.2-9.1c-1.4.1-2.4 1.4-2.3 2.8l1.2 12.3c.1 1.4 1.4 2.4 2.8 2.3 1.4-.1 2.4-1.4 2.3-2.8l-1.2-12.3c-.1-1.4-1.4-2.4-2.8-2.3zm431.3 402.4l-8.2-3.9c-.9-.4-2.1 0-2.5.9-.4.9-.1 2.1.9 2.5l8.2 3.9c.9.4 2.1 0 2.5-.9.4-.9 0-2-.9-2.5zm-326-546.3c-.5-2.5-3-4.1-5.5-3.6l-22.2 4.6c-2.5.5-4.1 3-3.6 5.5.5 2.5 3 4.1 5.5 3.6l22.2-4.6c2.5-.5 4.1-3 3.6-5.5zM12.7 41c-2.8 1.8-3.7 5.5-1.9 8.4l15.6 25c1.8 2.8 5.5 3.7 8.4 1.9 2.8-1.8 3.7-5.5 1.9-8.4l-15.6-25c-1.8-2.8-5.6-3.7-8.4-1.9zm49.7 575.6c-3.5-.9-7 1.2-7.9 4.7l-7.7 30.6c-.9 3.5 1.2 7 4.7 7.9 3.5.9 7-1.2 7.9-4.7l7.7-30.6c.8-3.5-1.3-7-4.7-7.9zm255.5-486.4l-16.2 7c-1.8.8-2.7 2.9-1.9 4.8.8 1.8 2.9 2.7 4.8 1.9l16.2-7c1.8-.8 2.7-2.9 1.9-4.8-.8-1.8-3-2.7-4.8-1.9zm-264 253.1c.8 1.3 2.6 1.7 3.9.9 1.3-.8 1.7-2.6.9-3.9l-7.3-11.6c-.8-1.3-2.6-1.7-3.9-.9-1.3.8-1.7 2.6-.9 3.9l7.3 11.6zm239.5 57.4l12-12.7c1.4-1.4 1.3-3.7-.1-5.1-1.4-1.4-3.7-1.3-5.1.1l-12 12.7c-1.4 1.4-1.3 3.7.1 5.1 1.4 1.4 3.7 1.3 5.1-.1zm-56.7-310.6c.7 1.2 2.2 1.6 3.5.9 1.2-.7 1.6-2.2.9-3.4L235 117c-.7-1.2-2.2-1.6-3.4-.9s-1.6 2.2-.9 3.5l6 10.5zm-53.1-276.2c-.5 3 1.5 5.9 4.6 6.5L215-135c3 .5 5.9-1.5 6.5-4.6.5-3-1.5-5.9-4.6-6.5l-26.8-4.6c-3.1-.5-6 1.5-6.5 4.6zm740 67.5c.6-.8.5-1.9-.3-2.5l-6.7-5.5c-.8-.6-1.9-.5-2.5.3-.6.8-.5 1.9.3 2.5l6.7 5.5c.7.5 1.9.4 2.5-.3zM8.7 603.2c-.4-1.3-1.8-2-3-1.6-1.3.4-2 1.7-1.6 3L7.5 616c.4 1.3 1.8 2 3 1.6 1.3-.4 2-1.8 1.6-3l-3.4-11.4zm757.9-386.5c-1.1.5-1.5 1.8-1 2.9l4.7 9.5c.5 1.1 1.8 1.5 2.9 1s1.5-1.8 1-2.9l-4.7-9.5c-.5-1.1-1.8-1.6-2.9-1zM253.8-41.8c2.2 2.2 5.8 2.2 8.1 0 2.2-2.2 2.2-5.8 0-8.1l-19.5-19.6c-2.2-2.2-5.8-2.2-8.1 0-2.2 2.2-2.2 5.8 0 8.1l19.5 19.6zm390.6-75.7c2.4-.7 3.8-3.3 3.1-5.7l-6.4-21.4c-.7-2.4-3.3-3.8-5.7-3.1-2.4.7-3.8 3.3-3.1 5.7l6.4 21.4c.6 2.4 3.3 3.8 5.7 3.1zM64.9 278.2l-11.3 4.2c-1.3.5-1.9 1.9-1.5 3.2.5 1.3 1.9 1.9 3.2 1.5l11.3-4.2c1.3-.5 1.9-1.9 1.5-3.2-.4-1.3-1.9-2-3.2-1.5zM827.5 15.1c2.3-2.4 2.2-6.1-.1-8.4-2.4-2.3-6.1-2.2-8.4.1l-20.2 20.9c-2.3 2.4-2.2 6.1.1 8.4 2.4 2.3 6.1 2.2 8.4-.1l20.2-20.9zM417.2 255.4l-13.4 9.1c-1.5 1-1.9 3.1-.9 4.7 1 1.5 3.1 1.9 4.7.9L421 261c1.5-1 1.9-3.1.9-4.7-1.1-1.6-3.2-2-4.7-.9zM870.3 355c-2.2-.5-4.5.9-5 3.1l-4.6 19.8c-.5 2.3.9 4.5 3.1 5s4.5-.9 5-3.1l4.6-19.8c.5-2.2-.9-4.5-3.1-5zM816 420.8c-3.1-.6-6.2 1.4-6.8 4.6l-5.4 27.7c-.6 3.1 1.4 6.2 4.6 6.8 3.1.6 6.2-1.4 6.8-4.6l5.4-27.7c.5-3.2-1.5-6.2-4.6-6.8zM263.5-187.7c.8.8 2 .7 2.8 0 .8-.8.7-2 0-2.8l-6.9-6.7c-.8-.8-2-.7-2.8 0-.8.8-.7 2 0 2.8l6.9 6.7zm3.3 454.2c-.1-2.7-2.4-4.9-5.2-4.7l-24.1 1c-2.7.1-4.9 2.4-4.7 5.2.1 2.7 2.4 4.9 5.2 4.7l24.1-1c2.7-.1 4.8-2.4 4.7-5.2zM25 527.5c-2.3.2-4.1 2.2-3.9 4.6l1.7 20.5c.2 2.3 2.2 4 4.6 3.9 2.3-.2 4.1-2.2 3.9-4.6l-1.7-20.5c-.2-2.4-2.3-4.1-4.6-3.9zm773.2 38c-1.5.1-2.6 1.3-2.5 2.7l.5 12.8c.1 1.5 1.3 2.6 2.7 2.5 1.5-.1 2.6-1.3 2.5-2.7L801 568c0-1.4-1.3-2.5-2.8-2.5zM63.3-284.7l12.8-5.4c1.5-.6 2.1-2.3 1.5-3.7-.6-1.5-2.3-2.1-3.7-1.5l-12.8 5.4c-1.5.6-2.1 2.3-1.5 3.7.5 1.5 2.2 2.2 3.7 1.5zM952.1 8.4l-9-1.5c-1-.2-2 .5-2.2 1.5s.5 2 1.5 2.2l9 1.5c1 .2 2-.5 2.2-1.5.2-1.1-.5-2.1-1.5-2.2zM857 220.2c-1.2-2.5-4.2-3.6-6.7-2.4l-22.2 10.3c-2.5 1.2-3.6 4.2-2.4 6.7 1.2 2.5 4.2 3.6 6.7 2.4l22.3-10.3c2.4-1.2 3.5-4.2 2.3-6.7zM275.1 331.6l-15 .6c-1.7.1-3 1.5-3 3.2.1 1.7 1.5 3 3.2 3l15-.6c1.7-.1 3-1.5 3-3.2 0-1.7-1.5-3-3.2-3zM924 95.6c.7 1.3 2.3 1.8 3.6 1.1l11.4-6c1.3-.7 1.8-2.3 1.1-3.6-.7-1.3-2.3-1.8-3.6-1.1l-11.4 6c-1.3.7-1.8 2.3-1.1 3.6zM673.3 484.5c-.6.9-.5 2.1.4 2.7l7.5 5.6c.9.6 2.1.5 2.7-.4.6-.9.5-2.1-.4-2.7l-7.5-5.6c-.8-.6-2-.5-2.7.4zm60-158.3c-2.8.1-5 2.4-4.9 5.1l.5 24.4c.1 2.8 2.4 5 5.1 4.9 2.8-.1 5-2.4 4.9-5.1l-.5-24.4c0-2.6-2.3-4.9-5.1-4.9zM478.7-278.2c.2 1 1.2 1.6 2.2 1.4 1-.2 1.6-1.2 1.4-2.2l-2-8.6c-.2-1-1.2-1.6-2.2-1.4-1 .2-1.6 1.2-1.4 2.2l2 8.6zM669-249.6c2.8 1.8 6.5.9 8.3-1.8l15.6-24.7c1.8-2.8.9-6.5-1.9-8.3-2.8-1.8-6.5-.9-8.3 1.8L667.1-258c-1.7 2.9-.9 6.6 1.9 8.4zm-32.9 403l-7.8 4.2c-.9.5-1.2 1.6-.7 2.5s1.6 1.2 2.5.7l7.8-4.2c.9-.5 1.2-1.6.7-2.5-.5-.8-1.6-1.1-2.5-.7zM474.7-64l20.9-2.8c2.4-.3 4-2.5 3.7-4.9-.3-2.4-2.5-4-4.9-3.7l-20.9 2.8c-2.4.3-4 2.5-3.7 4.9.4 2.3 2.6 4 4.9 3.7zM610.3 91.5c-1.4-.9-3.2-.6-4.1.8l-8 11.9c-.9 1.4-.6 3.2.8 4.1 1.4.9 3.2.6 4.1-.8l8-11.9c1-1.4.6-3.2-.8-4.1zM488.6 77.4c-2-1.3-4.7-.7-6 1.3l-11.4 17.7c-1.3 2-.7 4.7 1.3 6 2 1.3 4.7.7 6-1.3l11.4-17.7c1.4-2 .8-4.7-1.3-6zM290.5 618.3c-.5-1-1.7-1.4-2.7-.9-1 .5-1.4 1.7-.9 2.7l4.3 8.6c.5 1 1.7 1.4 2.7.9s1.4-1.7.9-2.7l-4.3-8.6zm436.6-357.7c-1.7-.8-3.8-.1-4.6 1.6l-7.3 14.9c-.8 1.7-.1 3.8 1.6 4.6s3.8.1 4.6-1.6l7.3-14.9c.8-1.8.1-3.8-1.6-4.6zM508.9 600.3l-24.4 20.1c-2.8 2.3-3.2 6.4-.9 9.1 2.3 2.8 6.4 3.2 9.1.9l24.4-20.1c2.8-2.3 3.2-6.4.9-9.1-2.2-2.8-6.3-3.2-9.1-.9zM92.5 108.5c-1.5 0-2.7 1.1-2.7 2.6s1.1 2.7 2.6 2.7l12.8.4c1.5 0 2.7-1.1 2.7-2.6s-1.1-2.7-2.6-2.7l-12.8-.4zm785.8 54.8l-.8-25.8c-.1-2.9-2.5-5.2-5.5-5.1-2.9.1-5.2 2.5-5.1 5.5l.8 25.8c.1 2.9 2.5 5.2 5.5 5.1 2.8-.1 5.2-2.5 5.1-5.5zm-742.9 60c-.6-3.6-4.1-6-7.7-5.4l-31.9 5.6c-3.6.6-6 4.1-5.4 7.7.6 3.6 4.1 6 7.7 5.4l31.9-5.5c3.6-.7 6.1-4.1 5.4-7.8zM330-66.2c-.4.9-.1 1.9.8 2.4.9.4 1.9.1 2.4-.8l3.9-7.6c.4-.9.1-1.9-.8-2.4-.9-.4-1.9-.1-2.4.8l-3.9 7.6zm-183.2 481c-1.1-1.1-2.9-1.1-4 .1l-9.6 9.8c-1.1 1.1-1.1 2.9.1 4 1.1 1.1 2.9 1.1 4-.1l9.6-9.8c1-1.2 1-2.9-.1-4zM7-272.3c2.1.4 4-1 4.4-3l3.3-18c.4-2.1-1-4-3-4.4-2.1-.4-4 1-4.4 3l-3.3 18c-.4 2 1 4 3 4.4zm86.8 830.6c-.7-1-2.1-1.2-3.1-.4-1 .7-1.2 2.1-.4 3.1l6.4 8.5c.7 1 2.1 1.2 3.1.4 1-.7 1.2-2.1.4-3.1l-6.4-8.5zm622-408.8c-1.7-2.2-4.9-2.6-7.1-.9l-19.4 14.9c-2.2 1.7-2.6 4.9-.9 7.1 1.7 2.2 4.9 2.6 7.1.9l19.4-14.9c2.2-1.7 2.6-4.9.9-7.1zm-350 491.4l-19.6 9.8c-2.2 1.1-3.1 3.8-2 6.1 1.1 2.2 3.8 3.1 6.1 2l19.6-9.8c2.2-1.1 3.1-3.8 2-6.1-1.2-2.2-3.9-3.1-6.1-2zM310.5 557l-8.8-1c-1-.1-1.9.6-2 1.6-.1 1 .6 1.9 1.6 2l8.8 1c1 .1 1.9-.6 2-1.6s-.6-1.9-1.6-2zm621.4-136.4c-.6-1.1-2-1.5-3.1-1l-9.8 5.1c-1.1.6-1.5 2-1 3.1.6 1.1 2 1.5 3.1 1l9.8-5.1c1.2-.6 1.6-2 1-3.1zm-349 93.3c-.9-.4-1.9 0-2.3.9l-3.6 7.7c-.4.9 0 1.9.9 2.3.9.4 1.9 0 2.3-.9l3.6-7.7c.4-.8 0-1.8-.9-2.3zm101.5 49l-14.9.1c-1.7 0-3.1 1.4-3.1 3.1s1.4 3.1 3.1 3.1l14.9-.1c1.7 0 3.1-1.4 3.1-3.1s-1.4-3.1-3.1-3.1zm270.9-285c1.1 0 1.9-.9 1.9-2l-.3-9.3c0-1.1-.9-1.9-2-1.9s-1.9.9-1.9 2l.3 9.3c.1 1.1 1 1.9 2 1.9zM99.1 492l-13.9-2.5c-1.6-.3-3.1.8-3.4 2.4-.3 1.6.8 3.1 2.4 3.4l13.9 2.5c1.6.3 3.1-.8 3.4-2.4.2-1.6-.8-3.1-2.4-3.4zm860.4-352.2c-1.9-1.6-4.6-1.3-6.2.6l-13.6 16.4c-1.6 1.9-1.3 4.6.6 6.2 1.9 1.6 4.7 1.3 6.2-.6l13.6-16.4c1.5-1.9 1.3-4.7-.6-6.2zm-79 430.2c-.4-1.7-2-2.7-3.7-2.3l-14.6 3.2c-1.7.4-2.7 2-2.3 3.7.4 1.7 2 2.7 3.7 2.3l14.5-3.2c1.7-.4 2.8-2.1 2.4-3.7zM517.3 423.9l-28.2 6.3c-3.2.7-5.2 3.9-4.5 7.1.7 3.2 3.9 5.2 7.1 4.5l28.2-6.3c3.2-.7 5.2-3.9 4.5-7.1-.7-3.2-3.9-5.2-7.1-4.5zM627 271.5l-9.1 2.8c-1 .3-1.6 1.4-1.3 2.5.3 1 1.4 1.6 2.5 1.3l9.1-2.8c1-.3 1.6-1.4 1.3-2.5-.3-1.1-1.4-1.6-2.5-1.3zM518.3-190.8c.4 1.3 1.8 2.1 3.1 1.7 1.3-.4 2.1-1.8 1.7-3.1l-3.4-11.7c-.4-1.3-1.8-2.1-3.1-1.7-1.3.4-2.1 1.8-1.7 3.1l3.4 11.7zm-30.5 404.5c1 2.6 3.9 4 6.5 3l23.1-8.3c2.6-1 4-3.9 3-6.5s-3.9-4-6.5-3l-23.1 8.3c-2.6.9-3.9 3.9-3 6.5zm-99.7-474.9l18.9-21.6c2.2-2.4 1.9-6.2-.5-8.3-2.5-2.2-6.2-1.9-8.3.5l-19 21.6c-2.2 2.4-1.9 6.2.5 8.3 2.5 2.2 6.3 2 8.4-.5zm65.7 906.6l-9-.2c-1 0-1.9.8-1.9 1.8s.8 1.9 1.8 1.9l9 .2c1 0 1.9-.8 1.9-1.8 0-1.1-.8-1.9-1.8-1.9zM422.6 525l-23.4 5.3c-2.7.6-4.3 3.3-3.7 5.9.6 2.7 3.3 4.3 5.9 3.7l23.4-5.3c2.7-.6 4.3-3.3 3.7-5.9-.6-2.6-3.2-4.3-5.9-3.7zM31.1 133.7l-5.8 7.9c-.7.9-.5 2.2.4 2.8.9.7 2.2.5 2.8-.4l5.8-7.9c.7-.9.5-2.2-.4-2.8-.9-.7-2.1-.5-2.8.4zm258.3-405c.5 1 1.7 1.3 2.7.8 1-.5 1.3-1.7.8-2.7l-4.6-8.4c-.5-1-1.7-1.3-2.7-.8-1 .5-1.3 1.7-.8 2.7l4.6 8.4zm114.5 117.7c-3.7-.3-7 2.5-7.3 6.2l-2.7 32.7c-.3 3.7 2.5 7 6.2 7.3 3.7.3 7-2.5 7.3-6.2l2.7-32.8c.3-3.6-2.4-6.9-6.2-7.2zM539-244.5l24.4-19.1c2.8-2.2 3.2-6.2 1.1-9-2.2-2.8-6.2-3.2-9-1.1l-24.4 19.1c-2.8 2.2-3.2 6.2-1.1 9 2.2 2.8 6.2 3.3 9 1.1zM83.5-33.7c1.1-.5 1.6-1.9 1-3l-4.7-9.7c-.5-1.1-1.9-1.6-3-1-1.1.5-1.6 1.9-1 3l4.7 9.7c.6 1.1 1.9 1.5 3 1zm359.3 374c-2.5-1.1-5.4.1-6.4 2.6l-9.3 21.9c-1.1 2.5.1 5.4 2.6 6.4 2.5 1.1 5.4-.1 6.4-2.6l9.3-21.9c1.1-2.5 0-5.4-2.6-6.4zM331.4-139.3c1 .1 1.9-.6 2-1.6l.9-8.8c.1-1-.6-1.9-1.6-2-1-.1-1.9.6-2 1.6l-.9 8.8c-.1 1 .6 1.9 1.6 2zm169.2 425.4c-2-2.5-5.6-3-8.1-1s-3 5.6-1 8.1l17.3 22.2c2 2.5 5.6 3 8.2 1 2.5-2 3-5.6 1-8.1l-17.4-22.2zm452 224.1c.6-2.3-.8-4.5-3.1-5.1l-19.9-4.9c-2.3-.6-4.5.8-5.1 3.1-.6 2.3.8 4.5 3.1 5.1l19.9 4.9c2.3.5 4.5-.9 5.1-3.1zM220.4 218.6c1.5-2 1.2-4.9-.9-6.5l-17.7-13.6c-2-1.5-4.9-1.2-6.5.9-1.5 2-1.2 4.9.9 6.5l17.8 13.6c1.9 1.5 4.8 1.1 6.4-.9zm163.4-24.5c.3 1 1.4 1.5 2.4 1.2s1.5-1.4 1.2-2.4l-2.9-8.6c-.3-1-1.4-1.5-2.4-1.2-1 .3-1.5 1.4-1.2 2.4l2.9 8.6zM677 75.4l-5.3-6.9c-.6-.8-1.7-.9-2.5-.3-.8.6-.9 1.7-.3 2.5l5.3 6.9c.6.8 1.7.9 2.5.3.7-.6.9-1.7.3-2.5zM179.8-240.9c3 2 7.1 1.2 9-1.8l17.4-26.5c2-3 1.2-7.1-1.8-9-3-2-7.1-1.2-9 1.8L178-250c-2 3-1.2 7.1 1.8 9.1zM543.3-21.3c.2-1.1-.5-2.2-1.6-2.5l-9.9-2.1c-1.1-.2-2.2.5-2.5 1.6-.2 1.1.5 2.2 1.6 2.5l9.9 2.1c1.1.3 2.2-.4 2.5-1.6zM212.8 376.3c-2.6.8-4.1 3.5-3.3 6.2l6.9 23.1c.8 2.6 3.5 4.1 6.2 3.3 2.6-.8 4.1-3.5 3.3-6.2l-6.9-23.1c-.8-2.6-3.5-4.1-6.2-3.3zm684.5 252.1L872 636c-2.9.9-4.5 3.9-3.6 6.8.9 2.9 3.9 4.5 6.8 3.6l25.3-7.6c2.9-.9 4.5-3.9 3.6-6.8-.9-2.8-4-4.5-6.8-3.6zM732-20.1c-1.9 3-1 6.9 1.9 8.8L760 5.3c3 1.9 6.9 1 8.8-1.9 1.9-3 1-6.9-1.9-8.8L740.8-22c-2.9-2-6.9-1.1-8.8 1.9zm-56.9 251.2c1.1-2.1.4-4.6-1.7-5.8l-18-9.9c-2.1-1.1-4.6-.4-5.8 1.7-1.1 2.1-.4 4.6 1.7 5.8l18 9.9c2.1 1.1 4.7.4 5.8-1.7zM384.6 105c1.2-.3 1.9-1.6 1.6-2.8l-2.9-10.5c-.3-1.2-1.6-1.9-2.8-1.6-1.2.3-1.9 1.6-1.6 2.8l2.9 10.5c.3 1.2 1.6 1.9 2.8 1.6zm-27.9 410.8c2.7-1 4.1-4 3.1-6.7l-8.8-23.9c-1-2.7-4-4.1-6.7-3.1-2.7 1-4.1 4-3.1 6.7l8.8 23.9c1 2.8 4 4.2 6.7 3.1zm23.1-93.9l11.8 6.6c1.3.8 3 .3 3.8-1.1.8-1.3.3-3-1.1-3.8l-11.8-6.6c-1.3-.8-3.1-.3-3.8 1.1-.7 1.3-.2 3 1.1 3.8zM262.5 11.2l-7.1 8.3c-.8.9-.7 2.4.2 3.2.9.8 2.4.7 3.2-.2l7.1-8.3c.8-.9.7-2.4-.2-3.2-.9-.8-2.4-.7-3.2.2zm458.8-87.3l11.8-7.6c1.3-.9 1.7-2.7.9-4-.9-1.3-2.7-1.7-4-.9L718.1-81c-1.3.9-1.7 2.7-.9 4 .8 1.4 2.7 1.8 4.1.9zm75.9 460.5l-4.6-21.4c-.5-2.4-2.9-4-5.4-3.5-2.4.5-4 2.9-3.5 5.4l4.6 21.4c.5 2.4 2.9 4 5.4 3.5 2.4-.6 4-3 3.5-5.4zm80.6 108.9c-.9-2.5-3.7-3.9-6.2-3l-22.3 7.9c-2.5.9-3.9 3.7-2.9 6.2.9 2.5 3.7 3.9 6.2 2.9l22.3-7.9c2.5-.7 3.8-3.5 2.9-6.1zm29.7-218l-16.8-2.9c-1.9-.3-3.7 1-4.1 2.9-.3 1.9 1 3.7 2.9 4.1l16.8 2.9c1.9.3 3.7-1 4.1-2.9.4-2-.9-3.8-2.9-4.1zM590.6-187.6c2 1.3 4.7.7 6-1.4l11.2-17.8c1.3-2 .7-4.7-1.4-6-2-1.3-4.7-.7-6 1.4l-11.2 17.8c-1.2 2.1-.6 4.8 1.4 6zm-91.8 68.9c2.5.5 4.9-1.1 5.4-3.6l4.3-21.7c.5-2.5-1.1-4.9-3.6-5.4s-4.9 1.1-5.4 3.6l-4.3 21.7c-.5 2.5 1.1 4.9 3.6 5.4zM943 586.5c1-.2 1.6-1.2 1.3-2.2l-2.2-8.5c-.2-1-1.2-1.6-2.2-1.3-1 .2-1.6 1.2-1.3 2.2l2.2 8.5c.3.9 1.3 1.5 2.2 1.3zM809.2-51.9l29.4-4.1c3.3-.5 5.7-3.6 5.2-6.9-.5-3.3-3.6-5.7-6.9-5.2L807.5-64c-3.3.5-5.7 3.6-5.2 6.9.5 3.3 3.5 5.6 6.9 5.2zM898-263.6l18.1-14.4c2.1-1.6 2.4-4.6.8-6.7-1.6-2.1-4.6-2.4-6.7-.7L892.1-271c-2.1 1.6-2.4 4.6-.7 6.7 1.6 2 4.6 2.4 6.6.7zm-714.6 569c.5-1 .1-2.2-.9-2.8l-8.8-4.5c-1-.5-2.2-.1-2.8.9-.5 1-.1 2.2.9 2.8l8.8 4.5c1.1.5 2.3.1 2.8-.9zM572.1-80.4l14-11.6c1.6-1.3 1.8-3.7.5-5.3-1.3-1.6-3.7-1.8-5.3-.5l-14 11.6c-1.6 1.3-1.8 3.7-.5 5.3 1.3 1.6 3.7 1.9 5.3.5zM92.8-173.1l17.8-1.8c2-.2 3.5-2 3.3-4.1-.2-2-2-3.5-4.1-3.3L92-180.5c-2 .2-3.5 2-3.3 4.1.3 2 2.1 3.5 4.1 3.3zm838.9 516.8c.5.9 1.7 1.2 2.7.7l8.1-4.7c.9-.5 1.2-1.7.7-2.7-.5-.9-1.7-1.2-2.7-.7l-8.1 4.7c-.9.6-1.2 1.8-.7 2.7zM470.1 465.9c-3.2-.6-6.3 1.6-6.9 4.8l-5.1 28.4c-.6 3.2 1.6 6.3 4.8 6.9 3.2.6 6.3-1.6 6.9-4.8l5-28.4c.6-3.2-1.5-6.3-4.7-6.9zM12.8-211.4c1.7 1.3 4 1 5.3-.7l11.2-14.6c1.3-1.7 1-4-.7-5.3-1.7-1.3-4-1-5.3.7l-11.2 14.6c-1.2 1.7-.9 4 .7 5.3zM357.5-5.7l7.9 5.8c.9.7 2.2.5 2.8-.4.7-.9.5-2.2-.4-2.8l-7.9-5.8c-.9-.7-2.2-.5-2.8.4-.7.9-.5 2.2.4 2.8zm814.8 590.9c-.7-.7-1.8-.8-2.6-.2-.7.7-.8 1.8-.2 2.6l5.8 6.6c.7.7 1.8.8 2.6.2.7-.7.8-1.8.2-2.6l-5.8-6.6zm229.3-792.3l9.7-3.7c1.1-.4 1.7-1.7 1.2-2.8-.4-1.1-1.7-1.7-2.8-1.2l-9.7 3.7c-1.1.4-1.7 1.7-1.2 2.8.4 1.1 1.7 1.7 2.8 1.2zm39.8 215.8l-7.6 6.3c-.9.7-1 2-.3 2.9.7.9 2 1 2.9.3l7.6-6.3c.9-.7 1-2 .3-2.9-.8-.9-2-1-2.9-.3zm24.3 546.8c1.5 1 3.4.6 4.4-.8 1-1.5.6-3.4-.8-4.4l-12.8-8.8c-1.5-1-3.4-.6-4.4.8-1 1.5-.6 3.4.8 4.4l12.8 8.8zm-353.9-679.7c-2.2-1.6-5.2-1.2-6.9.9l-14.3 18.9c-1.6 2.2-1.2 5.2.9 6.9 2.2 1.6 5.2 1.2 6.9-.9l14.3-18.9c1.8-2.2 1.4-5.3-.9-6.9zm588.9-24.4c.7 1 2.1 1.3 3.1.6 1-.7 1.3-2.1.6-3.1l-6.2-9c-.7-1-2.1-1.3-3.1-.6-1 .7-1.3 2.1-.6 3.1l6.2 9zm33.4-50.6c1.5 1.7 4 1.8 5.7.3l14.5-12.9c1.7-1.5 1.8-4 .3-5.7-1.5-1.7-4-1.8-5.7-.3l-14.5 12.9c-1.6 1.5-1.8 4-.3 5.7zM1382 34.4l-7.6 8.5c-.9 1-.8 2.5.2 3.3 1 .9 2.5.8 3.3-.2l7.6-8.5c.9-1 .8-2.5-.2-3.3-.9-.8-2.4-.8-3.3.2zm-249.7 82.5l8.2-23.6c.9-2.7-.5-5.6-3.2-6.5-2.7-.9-5.6.5-6.5 3.2l-8.2 23.6c-.9 2.7.5 5.6 3.2 6.5s5.6-.5 6.5-3.2zm-9.1-157.5l18.5 14a4.78 4.78 0 1 0 5.8-7.6l-18.5-14a4.78 4.78 0 0 0-6.7.9c-1.7 2.1-1.2 5.1.9 6.7zM1075.4 316c-1.8-.3-3.5 1-3.7 2.8l-2.2 15.9c-.3 1.8 1 3.5 2.8 3.7 1.8.3 3.5-1 3.7-2.8l2.3-15.9c.2-1.7-1.1-3.4-2.9-3.7zm743.1-218.8c1.3 2.4 4.3 3.3 6.7 2 2.4-1.3 3.3-4.3 2-6.7l-11.3-21.1c-1.3-2.4-4.3-3.3-6.7-2s-3.3 4.3-2 6.7l11.3 21.1zm-69.9 42.9c-1.7-2.2-4.8-2.7-7.1-1l-19.6 14.6c-2.2 1.7-2.7 4.8-1 7.1 1.7 2.2 4.8 2.7 7.1 1l19.6-14.6c2.2-1.7 2.6-4.8 1-7.1zm39.8-271.3l16.1-7.3c1.8-.8 2.6-3 1.8-4.8-.8-1.8-3-2.6-4.8-1.8l-16.1 7.3c-1.8.8-2.6 3-1.8 4.8.7 1.9 3 2.7 4.8 1.8zm-255.7 328.1l-1.4 33.1c-.2 3.8 2.8 7 6.5 7.1 3.8.2 7-2.8 7.1-6.5l1.4-33.1c.2-3.8-2.8-7-6.5-7.1-3.7-.2-6.9 2.7-7.1 6.5zm-254.4 28.9l-14.7.8c-1.7.1-3 1.5-2.9 3.2s1.5 3 3.2 2.9l14.7-.8c1.7-.1 3-1.5 2.9-3.2-.1-1.7-1.5-3-3.2-2.9zm358.3-416.1l3.9-7.3c.5-.8.1-1.9-.7-2.3-.8-.5-1.9-.1-2.3.7l-3.9 7.3c-.5.8-.1 1.9.7 2.3.8.4 1.8.1 2.3-.7zm187.7-13.1l23.7-6.5c2.7-.7 4.3-3.5 3.5-6.2-.7-2.7-3.5-4.3-6.2-3.5l-23.7 6.5c-2.7.7-4.3 3.5-3.5 6.2.7 2.7 3.5 4.3 6.2 3.5zm-514.2-3.1c.6 1.8 2.5 2.7 4.3 2.1 1.8-.6 2.7-2.5 2.1-4.3l-5.2-15.5c-.6-1.8-2.5-2.7-4.3-2.1-1.8.6-2.7 2.5-2.1 4.3l5.2 15.5zm211.3 260.6L1501.6 40c-2.3-1.6-5.4-1.1-7 1.2s-1.1 5.4 1.2 7l19.8 14.1c2.3 1.6 5.4 1.1 7-1.2 1.5-2.3 1-5.4-1.2-7zm-114 103.1c1.3 1.2 3.3 1.1 4.5-.2 1.2-1.3 1.1-3.3-.2-4.5l-11.4-10.5c-1.3-1.2-3.3-1.1-4.5.2-1.2 1.3-1.1 3.3.2 4.5l11.4 10.5zM1563-280.4c.2 1 1.1 1.7 2.1 1.6 1-.2 1.7-1.1 1.6-2.1l-1.3-9c-.2-1-1.1-1.7-2.1-1.6-1 .2-1.7 1.1-1.6 2.1l1.3 9zm57.8 614.4c-.9-.4-2-.1-2.4.8l-3.8 7.8c-.4.9-.1 2 .8 2.4.9.4 2 .1 2.4-.8l3.8-7.8c.4-.8.1-1.9-.8-2.4zm10-335.9c-.9 2.2.1 4.7 2.3 5.6l19.1 8c2.2.9 4.7-.1 5.6-2.3s-.1-4.7-2.3-5.6l-19.1-8c-2.2-.9-4.7.1-5.6 2.3zm-355.1 59.5c.3 1.2 1.6 2 2.8 1.7 1.2-.3 2-1.6 1.7-2.8l-2.7-10.9c-.3-1.2-1.6-2-2.8-1.7-1.2.3-2 1.6-1.7 2.8l2.7 10.9zM1553 312.4l-26.4 4.6c-3 .5-5 3.4-4.5 6.4.5 3 3.4 5 6.4 4.5l26.4-4.6c3-.5 5-3.4 4.5-6.4s-3.4-5-6.4-4.5zm189.5 179c-1.3-3.4-5.1-5.1-8.5-3.8l-29.8 11.3c-3.4 1.3-5.1 5.1-3.8 8.5 1.3 3.4 5.1 5.1 8.5 3.8l29.8-11.3c3.3-1.3 5-5.1 3.8-8.5zm-695.3-728.9l28-.8c3.2-.1 5.7-2.7 5.6-5.9-.1-3.2-2.7-5.7-5.9-5.6l-28.1.8c-3.2.1-5.7 2.7-5.6 5.9.1 3.2 2.8 5.7 6 5.6zm563.5 191.2c2.2-.4 3.6-2.5 3.2-4.7l-3.6-19c-.4-2.2-2.5-3.6-4.7-3.2-2.2.4-3.6 2.5-3.2 4.7l3.6 19c.4 2.2 2.5 3.6 4.7 3.2zm-292.2 377a5.2 5.2 0 0 0-6.7-2.9l-23.4 9.4a5.2 5.2 0 0 0-2.9 6.7 5.2 5.2 0 0 0 6.7 2.9l23.4-9.4c2.7-1.1 4-4.1 2.9-6.7zm572.8-503.6l19.2 3.5c2.2.4 4.3-1 4.7-3.2.4-2.2-1-4.3-3.2-4.7l-19.2-3.5c-2.2-.4-4.3 1-4.7 3.2-.4 2.2 1 4.3 3.2 4.7zm-666.1 656.8l-23.7 23c-2.7 2.6-2.8 6.9-.2 9.6s6.9 2.8 9.6.2l23.7-23c2.7-2.6 2.8-6.9.2-9.6-2.7-2.7-7-2.8-9.6-.2zm328 139.8l-8.6-6.2c-1-.7-2.4-.5-3.1.5-.7 1-.5 2.4.5 3.1l8.7 6.2c1 .7 2.4.5 3.1-.5.6-1 .4-2.4-.6-3.1zM1110.9 171l-12.6-7c-1.4-.8-3.2-.3-4 1.1s-.3 3.2 1.1 4l12.6 7c1.4.8 3.2.3 4-1.1.9-1.4.4-3.2-1.1-4zm612 445c-2.6-2.7-6.9-2.8-9.6-.2-2.7 2.6-2.8 6.9-.2 9.6l22.9 23.7c2.6 2.7 6.9 2.8 9.6.2 2.7-2.6 2.8-6.9.2-9.6l-22.9-23.7zM1566.1.9l-7.2 10.3c-.8 1.2-.5 2.8.7 3.6s2.8.5 3.6-.7l7.2-10.3c.8-1.2.5-2.8-.7-3.6-1.1-.8-2.7-.5-3.6.7zm-464.5 612c-.9-.7-2.2-.6-2.9.3-.7.9-.6 2.2.3 2.9l7.6 6.3c.9.7 2.2.6 2.9-.3.7-.9.6-2.2-.3-2.9l-7.6-6.3zm747.2-609c-1.3-.3-2.7.5-3 1.8l-2.9 11.5c-.3 1.3.5 2.7 1.8 3 1.3.3 2.7-.5 3-1.8l2.9-11.5c.3-1.4-.5-2.7-1.8-3zm-335.3 370.7c-1-.6-2.3-.2-2.8.8l-4.9 8.9c-.6 1-.2 2.3.8 2.8 1 .6 2.3.2 2.8-.8l4.9-8.9c.6-1 .2-2.3-.8-2.8zm-160.5 201c-3.6-.7-7.1 1.7-7.7 5.3l-5.8 31.8c-.7 3.6 1.7 7.1 5.3 7.7 3.6.7 7.1-1.7 7.7-5.3l5.8-31.8c.7-3.6-1.7-7-5.3-7.7zm539-369.4l-8.3 3c-1 .3-1.4 1.4-1.1 2.3.3 1 1.4 1.4 2.3 1.1l8.3-3c1-.3 1.4-1.4 1.1-2.3-.3-.9-1.4-1.4-2.3-1.1zM993.4 436.5L970 457.4c-2.7 2.4-2.9 6.4-.5 9.1 2.4 2.7 6.4 2.9 9.1.5l23.5-20.9c2.7-2.4 2.9-6.4.5-9.1-2.4-2.6-6.5-2.8-9.2-.5zm515.4-319.8c.3-2.9-1.8-5.6-4.7-5.9-2.9-.3-5.6 1.8-5.9 4.7l-2.8 25.8c-.3 2.9 1.8 5.6 4.7 5.9s5.6-1.8 5.9-4.7l2.8-25.8zm-526.7-250c1-1.3.7-3.1-.5-4.1l-11.1-8.6c-1.3-1-3.1-.8-4.1.5-1 1.3-.8 3.1.5 4.1l11.1 8.6c1.3 1 3.1.8 4.1-.5zm27.5 311.1c-3.3-1-6.8 1-7.8 4.3l-8.5 29.3c-1 3.3 1 6.8 4.3 7.8s6.8-1 7.8-4.3l8.5-29.3c1-3.3-1-6.8-4.3-7.8zm137.9 319.6l-10.3-3.6c-1.2-.4-2.5.2-2.9 1.4s.2 2.5 1.4 2.9l10.3 3.6c1.2.4 2.5-.2 2.9-1.4.4-1.2-.3-2.5-1.4-2.9zm49 156.7l-13.5-4.2c-1.5-.5-3.2.4-3.7 1.9s.4 3.2 1.9 3.7l13.5 4.2c1.5.5 3.2-.4 3.7-1.9.5-1.6-.4-3.2-1.9-3.7zm444-15.8l-6.3 7.2c-.7.8-.6 2.1.2 2.8.8.7 2.1.6 2.8-.2l6.3-7.2c.7-.8.6-2.1-.2-2.8-.9-.7-2.1-.6-2.8.2zM977-51.2l-3.5 9.1c-.4 1 .1 2.2 1.1 2.6 1 .4 2.2-.1 2.6-1.1l3.5-9.1c.4-1-.1-2.2-1.1-2.6-1.1-.5-2.2 0-2.6 1.1zm46.8-69.5l-.3 8.9c0 1 .8 1.9 1.8 1.9s1.9-.8 1.9-1.8l.3-8.9c0-1-.8-1.9-1.8-1.9s-1.9.8-1.9 1.8zM1730.9-264c1.4.6 3.1 0 3.7-1.5l5.5-12.6c.6-1.4 0-3.1-1.4-3.7s-3.1 0-3.7 1.5l-5.5 12.6c-.7 1.4-.1 3.1 1.4 3.7zm-7.3 349.9l14.9-4.4c1.7-.5 2.7-2.3 2.2-4-.5-1.7-2.3-2.7-4-2.2l-14.9 4.4c-1.7.5-2.7 2.3-2.2 4 .6 1.7 2.3 2.7 4 2.2zM1373.8-53.3l7.8 2.9c.9.3 1.9-.1 2.2-1 .3-.9-.1-1.9-1-2.2l-7.8-2.9c-.9-.3-1.9.1-2.2 1-.4.9.1 1.9 1 2.2zm-396.5 330c1.3-1.3 1.4-3.4.1-4.7l-11.1-11.6c-1.3-1.3-3.4-1.4-4.7-.1-1.3 1.3-1.4 3.4-.1 4.7l11.1 11.6c1.3 1.3 3.4 1.4 4.7.1zm936.3 366l-9.6 9.4c-1.1 1.1-1.1 2.8 0 3.9s2.8 1.1 3.9.1l9.6-9.4c1.1-1.1 1.1-2.8.1-3.9-1.2-1.2-2.9-1.2-4-.1zm-130.4-339.5l-10.2.4c-1.2.1-2.1 1-2 2.2 0 1.2 1 2.1 2.2 2l10.2-.4c1.2-.1 2.1-1 2-2.2 0-1.2-1-2.1-2.2-2zm-114.9 106.5l-10.3 4.8c-1.2.5-1.7 1.9-1.1 3.1.5 1.2 2 1.7 3.1 1.1l10.3-4.8c1.2-.5 1.7-1.9 1.1-3.1-.6-1.2-2-1.7-3.1-1.1zm-589-372.2c.9-2.5-.5-5.3-3-6.2l-22.4-7.8c-2.5-.9-5.3.5-6.2 3s.5 5.3 3 6.2l22.4 7.8c2.6.9 5.4-.5 6.2-3zm68.1-9.1c-1.4.1-2.4 1.4-2.3 2.8l1.2 12.3c.1 1.4 1.4 2.4 2.8 2.3 1.4-.1 2.4-1.4 2.3-2.8l-1.2-12.3c-.1-1.4-1.3-2.4-2.8-2.3zm431.3 402.4l-8.2-3.9c-.9-.4-2.1 0-2.5.9s-.1 2.1.9 2.5l8.2 3.9c.9.4 2.1 0 2.5-.9.4-.9 0-2-.9-2.5zm-326-546.3c-.5-2.5-3-4.1-5.5-3.6l-22.2 4.6c-2.5.5-4.1 3-3.6 5.5.5 2.5 3 4.1 5.5 3.6l22.2-4.6c2.5-.5 4.2-3 3.6-5.5zM973.2 41c-2.8 1.8-3.7 5.5-1.9 8.4l15.6 25c1.8 2.8 5.5 3.7 8.4 1.9 2.8-1.8 3.7-5.5 1.9-8.4l-15.6-25c-1.8-2.8-5.5-3.7-8.4-1.9zm49.7 575.6c-3.5-.9-7 1.2-7.9 4.7l-7.7 30.6c-.9 3.5 1.2 7 4.7 7.9 3.5.9 7-1.2 7.9-4.7l7.7-30.6c.9-3.5-1.2-7-4.7-7.9zm255.6-486.4l-16.2 7c-1.8.8-2.7 2.9-1.9 4.8.8 1.8 2.9 2.7 4.8 1.9l16.2-7c1.8-.8 2.7-2.9 1.9-4.8-.8-1.8-3-2.7-4.8-1.9zm-264.1 253.1c.8 1.3 2.6 1.7 3.9.9 1.3-.8 1.7-2.6.9-3.9l-7.3-11.6c-.8-1.3-2.6-1.7-3.9-.9-1.3.8-1.7 2.6-.9 3.9l7.3 11.6zm239.5 57.4l12-12.7c1.4-1.4 1.3-3.7-.1-5.1-1.4-1.4-3.7-1.3-5.1.1l-12 12.7c-1.4 1.4-1.3 3.7.1 5.1 1.4 1.4 3.7 1.3 5.1-.1zm-56.6-310.6c.7 1.2 2.2 1.6 3.5.9 1.2-.7 1.6-2.2.9-3.4l-6.1-10.6c-.7-1.2-2.2-1.6-3.4-.9-1.2.7-1.6 2.2-.9 3.5l6 10.5zm-53.2-276.2c-.5 3 1.5 5.9 4.6 6.5l26.8 4.6c3 .5 5.9-1.5 6.5-4.6.5-3-1.5-5.9-4.6-6.5l-26.8-4.6c-3.1-.5-6 1.5-6.5 4.6zm740 67.5c.6-.8.5-1.9-.3-2.5l-6.7-5.5c-.8-.6-1.9-.5-2.5.3-.6.8-.5 1.9.3 2.5l6.7 5.5c.8.5 1.9.4 2.5-.3zM969.3 603.2c-.4-1.3-1.8-2-3-1.6-1.3.4-2 1.7-1.6 3l3.4 11.3c.4 1.3 1.8 2 3 1.6 1.3-.4 2-1.8 1.6-3l-3.4-11.3zm757.8-386.5c-1.1.5-1.5 1.8-1 2.9l4.7 9.5c.5 1.1 1.8 1.5 2.9 1s1.5-1.8 1-2.9l-4.7-9.5c-.5-1.1-1.8-1.6-2.9-1zM1214.4-41.8c2.2 2.2 5.8 2.2 8.1 0 2.2-2.2 2.2-5.8 0-8.1L1203-69.6c-2.2-2.2-5.8-2.2-8.1 0-2.2 2.2-2.2 5.8 0 8.1l19.5 19.7zm390.6-75.7c2.4-.7 3.8-3.3 3.1-5.7l-6.4-21.4c-.7-2.4-3.3-3.8-5.7-3.1-2.4.7-3.8 3.3-3.1 5.7l6.4 21.4c.7 2.4 3.2 3.8 5.7 3.1zm-579.5 395.7l-11.3 4.2c-1.3.5-1.9 1.9-1.5 3.2.5 1.3 1.9 1.9 3.2 1.5l11.3-4.2c1.3-.5 1.9-1.9 1.5-3.2-.5-1.3-1.9-2-3.2-1.5zm762.6-263.1c2.3-2.4 2.2-6.1-.1-8.4-2.4-2.3-6.1-2.2-8.4.1l-20.2 20.9c-2.3 2.4-2.2 6.1.1 8.4 2.4 2.3 6.1 2.2 8.4-.1l20.2-20.9zm-410.4 240.3l-13.4 9.1c-1.5 1-1.9 3.1-.9 4.7 1 1.5 3.1 1.9 4.7.9l13.4-9.1c1.5-1 1.9-3.1.9-4.7-1-1.6-3.1-2-4.7-.9zm453.2 99.6c-2.2-.5-4.5.9-5 3.1l-4.6 19.8c-.5 2.3.9 4.5 3.1 5s4.5-.9 5-3.1l4.6-19.8c.5-2.2-.9-4.5-3.1-5zm-54.4 65.8c-3.1-.6-6.2 1.4-6.8 4.6l-5.4 27.7c-.6 3.1 1.4 6.2 4.6 6.8 3.1.6 6.2-1.4 6.8-4.6l5.4-27.7c.6-3.2-1.5-6.2-4.6-6.8zM1224-187.7c.8.8 2 .7 2.8 0 .8-.8.7-2 0-2.8l-6.9-6.7c-.8-.8-2-.7-2.8 0-.8.8-.7 2 0 2.8l6.9 6.7zm3.3 454.2c-.1-2.7-2.4-4.9-5.2-4.7l-24.1 1c-2.7.1-4.9 2.4-4.7 5.2.1 2.7 2.4 4.9 5.2 4.7l24.1-1c2.7-.1 4.9-2.4 4.7-5.2zm-241.8 261c-2.3.2-4.1 2.2-3.9 4.6l1.7 20.5c.2 2.3 2.2 4 4.6 3.9 2.3-.2 4.1-2.2 3.9-4.6l-1.7-20.5c-.2-2.4-2.3-4.1-4.6-3.9zm773.3 38c-1.5.1-2.6 1.3-2.5 2.7l.5 12.8c.1 1.5 1.3 2.6 2.7 2.5 1.5-.1 2.6-1.3 2.5-2.7l-.5-12.8c0-1.4-1.2-2.5-2.7-2.5zm-735-850.2l12.8-5.4c1.5-.6 2.1-2.3 1.5-3.7-.6-1.5-2.3-2.1-3.7-1.5l-12.8 5.4c-1.5.6-2.1 2.3-1.5 3.7.5 1.5 2.2 2.2 3.7 1.5zM1912.7 8.4l-9-1.5c-1-.2-2 .5-2.2 1.5-.2 1 .5 2 1.5 2.2l9 1.5c1 .2 2-.5 2.2-1.5.2-1.1-.5-2.1-1.5-2.2zm-95.1 211.8c-1.2-2.5-4.2-3.6-6.7-2.4l-22.2 10.3c-2.5 1.2-3.6 4.2-2.4 6.7 1.2 2.5 4.2 3.6 6.7 2.4l22.3-10.3c2.3-1.2 3.4-4.2 2.3-6.7zm-581.9 111.4l-15 .6c-1.7.1-3 1.5-3 3.2.1 1.7 1.5 3 3.2 3l15-.6c1.7-.1 3-1.5 3-3.2 0-1.7-1.5-3-3.2-3zm648.8-236c.7 1.3 2.3 1.8 3.6 1.1l11.4-6c1.3-.7 1.8-2.3 1.1-3.6-.7-1.3-2.3-1.8-3.6-1.1l-11.4 6c-1.3.7-1.8 2.3-1.1 3.6zm-250.6 388.9c-.6.9-.5 2.1.4 2.7l7.5 5.6c.9.6 2.1.5 2.7-.4.6-.9.5-2.1-.4-2.7l-7.5-5.6c-.8-.6-2-.5-2.7.4zm59.9-158.3c-2.8.1-5 2.4-4.9 5.1l.5 24.4c.1 2.8 2.4 5 5.1 4.9 2.8-.1 5-2.4 4.9-5.1l-.5-24.4c0-2.6-2.3-4.9-5.1-4.9zm-254.5-604.4c.2 1 1.2 1.6 2.2 1.4 1-.2 1.6-1.2 1.4-2.2l-2-8.6c-.2-1-1.2-1.6-2.2-1.4-1 .2-1.6 1.2-1.4 2.2l2 8.6zm190.3 28.6c2.8 1.8 6.5.9 8.3-1.8l15.6-24.6c1.8-2.8.9-6.5-1.9-8.3-2.8-1.8-6.5-.9-8.3 1.8l-15.5 24.6c-1.9 2.8-1.1 6.5 1.8 8.3zm-32.8 403l-7.8 4.2c-.9.5-1.2 1.6-.7 2.5.5.9 1.6 1.2 2.5.7l7.8-4.2c.9-.5 1.2-1.6.7-2.5-.6-.8-1.7-1.1-2.5-.7zM1435.4-64l20.9-2.8c2.4-.3 4-2.5 3.7-4.9-.3-2.4-2.5-4-4.9-3.7l-20.9 2.8c-2.4.3-4 2.5-3.7 4.9.3 2.3 2.5 4 4.9 3.7zm135.5 155.5c-1.4-.9-3.2-.6-4.1.8l-8 11.9c-.9 1.4-.6 3.2.8 4.1 1.4.9 3.2.6 4.1-.8l8-11.9c.9-1.4.5-3.2-.8-4.1zm-121.7-14.1c-2-1.3-4.7-.7-6 1.3l-11.4 17.7c-1.3 2-.7 4.7 1.3 6s4.7.7 6-1.3l11.4-17.7c1.3-2 .7-4.7-1.3-6zm-198.1 540.9c-.5-1-1.7-1.4-2.7-.9-1 .5-1.4 1.7-.9 2.7l4.3 8.6c.5 1 1.7 1.4 2.7.9 1-.5 1.4-1.7.9-2.7l-4.3-8.6zm436.6-357.7c-1.7-.8-3.8-.1-4.6 1.6l-7.3 14.9c-.8 1.7-.1 3.8 1.6 4.6s3.8.1 4.6-1.6l7.3-14.9c.8-1.8.1-3.8-1.6-4.6zm-218.1 339.7l-24.4 20.1c-2.8 2.3-3.2 6.4-.9 9.1 2.3 2.8 6.4 3.2 9.1.9l24.4-20.1c2.8-2.3 3.2-6.4.9-9.1-2.3-2.8-6.4-3.2-9.1-.9zm-416.5-491.8c-1.5 0-2.7 1.1-2.7 2.6s1.1 2.7 2.6 2.7l12.8.4c1.5 0 2.7-1.1 2.7-2.6s-1.1-2.7-2.6-2.7l-12.8-.4zm785.7 54.8l-.8-25.8c-.1-2.9-2.5-5.2-5.5-5.1-2.9.1-5.2 2.5-5.1 5.5l.8 25.8c.1 2.9 2.5 5.2 5.5 5.1 2.9-.1 5.2-2.5 5.1-5.5zm-742.9 60c-.6-3.6-4.1-6-7.7-5.4l-31.9 5.6c-3.6.6-6 4.1-5.4 7.7.6 3.6 4.1 6 7.7 5.4l31.9-5.5c3.7-.7 6.1-4.1 5.4-7.8zm194.7-289.5c-.4.9-.1 1.9.8 2.4.9.4 1.9.1 2.4-.8l3.9-7.6c.4-.9.1-1.9-.8-2.4-.9-.4-1.9-.1-2.4.8l-3.9 7.6zm-183.3 481c-1.1-1.1-2.9-1.1-4 .1l-9.6 9.8c-1.1 1.1-1.1 2.9.1 4 1.1 1.1 2.9 1.1 4-.1l9.6-9.8c1-1.2 1-2.9-.1-4zM967.7-272.3c2.1.4 4-1 4.4-3l3.3-18c.4-2.1-1-4-3-4.4-2.1-.4-4 1-4.4 3l-3.3 18c-.4 2 .9 4 3 4.4zm86.6 830.6c-.7-1-2.1-1.2-3.1-.4-1 .7-1.2 2.1-.4 3.1l6.4 8.5c.7 1 2.1 1.2 3.1.4 1-.7 1.2-2.1.4-3.1l-6.4-8.5zm622.1-408.8c-1.7-2.2-4.9-2.6-7.1-.9l-19.5 14.9c-2.2 1.7-2.6 4.9-.9 7.1 1.7 2.2 4.9 2.6 7.1.9l19.4-14.9c2.3-1.7 2.7-4.9 1-7.1zm-350.1 491.4l-19.6 9.8c-2.2 1.1-3.1 3.8-2 6.1 1.1 2.2 3.8 3.1 6.1 2l19.6-9.8c2.2-1.1 3.1-3.8 2-6.1-1.1-2.2-3.9-3.1-6.1-2zM1271 557l-8.8-1c-1-.1-1.9.6-2 1.6-.1 1 .6 1.9 1.6 2l8.8 1c1 .1 1.9-.6 2-1.6.3-1-.5-1.9-1.6-2zm621.4-136.4c-.6-1.1-2-1.5-3.1-1l-9.8 5.1c-1.1.6-1.5 2-1 3.1.6 1.1 2 1.5 3.1 1l9.8-5.1c1.2-.6 1.6-2 1-3.1zm-349 93.3c-.9-.4-1.9 0-2.3.9l-3.6 7.7c-.4.9 0 1.9.9 2.3.9.4 1.9 0 2.3-.9l3.6-7.7c.4-.8 0-1.8-.9-2.3zm101.5 49l-14.9.1c-1.7 0-3.1 1.4-3.1 3.1s1.4 3.1 3.1 3.1l14.9-.1c1.7 0 3.1-1.4 3.1-3.1s-1.4-3.1-3.1-3.1zm271.1-285c1.1 0 1.9-.9 1.9-2l-.3-9.3c0-1.1-.9-1.9-2-1.9s-1.9.9-1.9 2l.3 9.3c0 1.1.9 1.9 2 1.9zM1059.6 492l-13.9-2.5c-1.6-.3-3.1.8-3.4 2.4-.3 1.6.8 3.1 2.4 3.4l13.9 2.5c1.6.3 3.1-.8 3.4-2.4.2-1.6-.8-3.1-2.4-3.4zM1920 139.8c-1.9-1.6-4.6-1.3-6.2.6l-13.6 16.4c-1.6 1.9-1.3 4.6.6 6.2 1.9 1.6 4.7 1.3 6.2-.6l13.6-16.4c1.6-1.9 1.3-4.7-.6-6.2zM1841 570c-.4-1.7-2-2.7-3.7-2.3l-14.6 3.2c-1.7.4-2.7 2-2.3 3.7.4 1.7 2 2.7 3.7 2.3l14.5-3.2c1.7-.4 2.8-2.1 2.4-3.7zm-363.1-146.1l-28.2 6.3c-3.2.7-5.2 3.9-4.5 7.1.7 3.2 3.9 5.2 7.1 4.5l28.2-6.3c3.2-.7 5.2-3.9 4.5-7.1-.8-3.2-3.9-5.2-7.1-4.5zm109.7-152.4l-9.1 2.8c-1 .3-1.6 1.4-1.3 2.5.3 1 1.4 1.6 2.5 1.3l9.1-2.8c1-.3 1.6-1.4 1.3-2.5-.3-1.1-1.4-1.6-2.5-1.3zm-108.7-462.3c.4 1.3 1.8 2.1 3.1 1.7 1.3-.4 2.1-1.8 1.7-3.1l-3.4-11.7c-.4-1.3-1.8-2.1-3.1-1.7-1.3.4-2.1 1.8-1.7 3.1l3.4 11.7zm-30.5 404.5c1 2.6 3.9 4 6.5 3l23.1-8.3c2.6-1 4-3.9 3-6.5s-3.9-4-6.5-3l-23.1 8.3c-2.6.9-4 3.9-3 6.5zm-99.8-474.9l18.9-21.6c2.2-2.4 1.9-6.2-.5-8.3-2.5-2.2-6.2-1.9-8.3.5l-18.9 21.6c-2.2 2.4-1.9 6.2.5 8.3 2.4 2.2 6.2 2 8.3-.5zm65.7 906.6l-9-.2c-1 0-1.9.8-1.9 1.8s.8 1.9 1.8 1.9l9 .2c1 0 1.9-.8 1.9-1.8.1-1.1-.8-1.9-1.8-1.9zM1383.2 525l-23.4 5.3c-2.7.6-4.3 3.3-3.7 5.9.6 2.7 3.3 4.3 5.9 3.7l23.4-5.3c2.7-.6 4.3-3.3 3.7-5.9-.6-2.6-3.3-4.3-5.9-3.7zM991.7 133.7l-5.8 7.9c-.7.9-.5 2.2.4 2.8.9.7 2.2.5 2.8-.4l5.8-7.9c.7-.9.5-2.2-.4-2.8-.9-.7-2.2-.5-2.8.4zm258.2-405c.5 1 1.7 1.3 2.7.8 1-.5 1.3-1.7.8-2.7l-4.6-8.4c-.5-1-1.7-1.3-2.7-.8-1 .5-1.3 1.7-.8 2.7l4.6 8.4zm114.6 117.7c-3.7-.3-7 2.5-7.3 6.2l-2.7 32.8c-.3 3.7 2.5 7 6.2 7.3s7-2.5 7.3-6.2l2.7-32.8c.2-3.7-2.5-7-6.2-7.3zm135-90.9l24.4-19.1c2.8-2.2 3.2-6.2 1.1-9-2.2-2.8-6.2-3.2-9-1.1l-24.4 19.1c-2.8 2.2-3.2 6.2-1.1 9 2.3 2.8 6.3 3.3 9 1.1zM1044.1-33.7c1.1-.5 1.6-1.9 1-3l-4.7-9.7c-.5-1.1-1.9-1.6-3-1-1.1.5-1.6 1.9-1 3l4.7 9.7c.6 1.1 1.9 1.5 3 1zm359.3 374c-2.5-1.1-5.4.1-6.4 2.6l-9.3 21.9c-1.1 2.5.1 5.4 2.6 6.4 2.5 1.1 5.4-.1 6.4-2.6l9.3-21.9c1.1-2.5-.1-5.4-2.6-6.4zM1292-139.3c1 .1 1.9-.6 2-1.6l.9-8.8c.1-1-.6-1.9-1.6-2s-1.9.6-2 1.6l-.9 8.8c-.2 1 .6 1.9 1.6 2zm169.2 425.4c-2-2.5-5.6-3-8.1-1s-3 5.6-1 8.1l17.3 22.2c2 2.5 5.6 3 8.2 1 2.5-2 3-5.6 1-8.1l-17.4-22.2zm452 224.1c.6-2.3-.8-4.5-3.1-5.1l-19.9-4.9c-2.3-.6-4.5.8-5.1 3.1-.6 2.3.8 4.5 3.1 5.1l19.9 4.9c2.3.5 4.6-.9 5.1-3.1zm-732.3-291.6c1.5-2 1.2-4.9-.9-6.5l-17.7-13.6c-2-1.5-4.9-1.2-6.5.9-1.5 2-1.2 4.9.9 6.5l17.8 13.6c2 1.5 4.9 1.1 6.4-.9zm163.5-24.5c.3 1 1.4 1.5 2.4 1.2s1.5-1.4 1.2-2.4l-2.9-8.6c-.3-1-1.4-1.5-2.4-1.2-1 .3-1.5 1.4-1.2 2.4l2.9 8.6zm293.2-118.7l-5.3-6.9c-.6-.8-1.7-.9-2.5-.3-.8.6-.9 1.7-.3 2.5l5.3 6.9c.6.8 1.7.9 2.5.3.8-.6.9-1.7.3-2.5zm-497.2-316.3c3 2 7.1 1.2 9-1.8l17.4-26.5c2-3 1.2-7.1-1.8-9-3-2-7.1-1.2-9 1.8l-17.5 26.4c-2 3-1.1 7.1 1.9 9.1zm363.4 219.6c.2-1.1-.5-2.2-1.6-2.5l-9.9-2.1c-1.1-.2-2.2.5-2.5 1.6-.2 1.1.5 2.2 1.6 2.5l9.9 2.1c1.1.3 2.3-.4 2.5-1.6zm-330.4 397.6c-2.6.8-4.1 3.5-3.3 6.2l6.9 23.1c.8 2.6 3.5 4.1 6.2 3.3 2.6-.8 4.1-3.5 3.3-6.2l-6.9-23.1c-.9-2.6-3.6-4.1-6.2-3.3zm684.4 252.1l-25.3 7.6c-2.9.9-4.5 3.9-3.6 6.8.9 2.9 3.9 4.5 6.8 3.6l25.3-7.6c2.9-.9 4.5-3.9 3.6-6.8-.8-2.8-3.9-4.5-6.8-3.6zM1692.5-20.1c-1.9 3-1 6.9 1.9 8.8l26.1 16.6c3 1.9 6.9 1 8.8-1.9 1.9-3 1-6.9-1.9-8.8L1701.3-22c-2.9-2-6.9-1.1-8.8 1.9zm-56.7 251.2c1.1-2.1.4-4.6-1.7-5.8l-18-9.9c-2.1-1.1-4.6-.4-5.8 1.7-1.1 2.1-.4 4.6 1.7 5.8l18 9.9c2.1 1.1 4.6.4 5.8-1.7zM1345.1 105c1.2-.3 1.9-1.6 1.6-2.8l-2.9-10.5c-.3-1.2-1.6-1.9-2.8-1.6-1.2.3-1.9 1.6-1.6 2.8l2.9 10.5c.4 1.2 1.6 1.9 2.8 1.6zm-27.8 410.8c2.7-1 4.1-4 3.1-6.7l-8.8-23.9c-1-2.7-4-4.1-6.7-3.1-2.7 1-4.1 4-3.1 6.7l8.8 23.9c1 2.8 4 4.2 6.7 3.1zm23-93.9l11.8 6.6c1.3.8 3 .3 3.8-1.1.8-1.3.3-3-1.1-3.8L1343 417c-1.3-.8-3.1-.3-3.8 1.1-.7 1.3-.2 3 1.1 3.8zM1223.1 11.2l-7.1 8.3c-.8.9-.7 2.4.2 3.2.9.8 2.4.7 3.2-.2l7.1-8.3c.8-.9.7-2.4-.2-3.2-1-.8-2.4-.7-3.2.2zm458.7-87.3l11.8-7.6c1.3-.9 1.7-2.7.9-4-.9-1.3-2.7-1.7-4-.9l-11.8 7.6c-1.3.9-1.7 2.7-.9 4 .9 1.4 2.7 1.8 4 .9zm76 460.5l-4.6-21.4c-.5-2.4-2.9-4-5.4-3.5-2.4.5-4 2.9-3.5 5.4l4.6 21.4c.5 2.4 2.9 4 5.4 3.5 2.5-.6 4-3 3.5-5.4zm80.5 108.9c-.9-2.5-3.7-3.9-6.2-3l-22.3 7.9c-2.5.9-3.9 3.7-2.9 6.2.9 2.5 3.7 3.9 6.2 2.9l22.3-7.9c2.5-.7 3.8-3.5 2.9-6.1zm29.9-218l-16.8-2.9c-1.9-.3-3.7 1-4.1 2.9-.3 1.9 1 3.7 2.9 4.1l16.8 2.9c1.9.3 3.7-1 4.1-2.9.3-2-1-3.8-2.9-4.1zm-316.9-462.9c2 1.3 4.7.7 6-1.4l11.2-17.8c1.3-2 .7-4.7-1.4-6-2-1.3-4.7-.7-6 1.4l-11.2 17.8c-1.3 2.1-.7 4.8 1.4 6zm-92 68.9c2.5.5 4.9-1.1 5.4-3.6l4.3-21.7c.5-2.5-1.1-4.9-3.6-5.4s-4.9 1.1-5.4 3.6l-4.3 21.7c-.5 2.5 1.1 4.9 3.6 5.4zm444.4 705.2c1-.2 1.6-1.2 1.3-2.2l-2.2-8.5c-.2-1-1.2-1.6-2.2-1.3-1 .2-1.6 1.2-1.3 2.2l2.2 8.5c.1.9 1.1 1.5 2.2 1.3zm-134-638.4l29.4-4.1c3.3-.5 5.7-3.6 5.2-6.9-.5-3.3-3.6-5.7-6.9-5.2L1768-64c-3.3.5-5.7 3.6-5.2 6.9.5 3.3 3.6 5.6 6.9 5.2zm88.9-211.7l18.1-14.4c2.1-1.6 2.4-4.6.8-6.7-1.6-2.1-4.6-2.4-6.7-.7l-18.2 14.4c-2.1 1.6-2.4 4.6-.7 6.7 1.6 2 4.6 2.4 6.7.7zm-714.7 569c.5-1 .1-2.2-.9-2.8l-8.8-4.5c-1-.5-2.2-.1-2.8.9-.5 1-.1 2.2.9 2.8l8.8 4.5c1.1.5 2.3.1 2.8-.9zm388.7-385.8l14-11.6c1.6-1.3 1.8-3.7.5-5.3-1.3-1.6-3.7-1.8-5.3-.5l-14 11.6c-1.6 1.3-1.8 3.7-.5 5.3 1.4 1.6 3.7 1.9 5.3.5zm-479.3-92.7l17.8-1.8c2-.2 3.5-2 3.3-4.1-.2-2-2-3.5-4.1-3.3l-17.8 1.8c-2 .2-3.5 2-3.3 4.1.3 2 2.1 3.5 4.1 3.3zm839 516.8c.5.9 1.7 1.2 2.7.7l8.1-4.7c.9-.5 1.2-1.7.7-2.7-.5-.9-1.7-1.2-2.7-.7l-8.1 4.7c-1 .6-1.3 1.8-.7 2.7zm-461.6 122.2c-3.2-.6-6.3 1.6-6.9 4.8l-5.1 28.4c-.6 3.2 1.6 6.3 4.8 6.9 3.2.6 6.3-1.6 6.9-4.8l5.1-28.4c.5-3.2-1.6-6.3-4.8-6.9zM973.4-211.4c1.7 1.3 4 1 5.3-.7l11.2-14.6c1.3-1.7 1-4-.7-5.3-1.7-1.3-4-1-5.3.7l-11.2 14.6c-1.3 1.7-1 4 .7 5.3zM1318.1-5.7l7.9 5.8c.9.7 2.2.5 2.8-.4.7-.9.5-2.2-.4-2.8l-7.9-5.8c-.9-.7-2.2-.5-2.8.4-.7.9-.5 2.2.4 2.8zM221.8 1549.2c-.7-.7-1.8-.8-2.6-.2-.7.7-.8 1.8-.2 2.6l5.8 6.6c.7.7 1.8.8 2.6.2.7-.7.8-1.8.2-2.6l-5.8-6.6zm229.1-792.3l9.7-3.7c1.1-.4 1.7-1.7 1.2-2.8-.4-1.1-1.7-1.7-2.8-1.2l-9.7 3.7c-1.1.4-1.7 1.7-1.2 2.8.5 1.1 1.7 1.7 2.8 1.2zm39.9 215.8l-7.6 6.3c-.9.7-1 2-.3 2.9.7.9 2 1 2.9.3l7.6-6.3c.9-.7 1-2 .3-2.9-.7-.9-2.1-1-2.9-.3zm24.4 546.8c1.5 1 3.4.6 4.4-.8 1-1.5.6-3.4-.8-4.4l-12.8-8.8c-1.5-1-3.4-.6-4.4.8-1 1.5-.6 3.4.8 4.4l12.8 8.8zM161.3 839.8c-2.2-1.6-5.2-1.2-6.9.9l-14.3 18.9c-1.6 2.2-1.2 5.2.9 6.9 2.2 1.6 5.2 1.2 6.9-.9l14.3-18.9c1.7-2.2 1.2-5.3-.9-6.9zm588.8-24.4c.7 1 2.1 1.3 3.1.6 1-.7 1.3-2.1.6-3.1l-6.2-9c-.7-1-2.1-1.3-3.1-.6-1 .7-1.3 2.1-.6 3.1l6.2 9zm33.5-50.6c1.5 1.7 4 1.8 5.7.3l14.5-12.9c1.7-1.5 1.8-4 .3-5.7-1.5-1.7-4-1.8-5.7-.3l-14.5 12.9c-1.6 1.5-1.8 4-.3 5.7zM431.5 998.4l-7.6 8.5c-.9 1-.8 2.5.2 3.3 1 .9 2.5.8 3.3-.2l7.6-8.5c.9-1 .8-2.5-.2-3.3-.9-.8-2.4-.8-3.3.2zm-249.7 82.5l8.2-23.6c.9-2.7-.5-5.6-3.2-6.5-2.7-.9-5.6.5-6.5 3.2l-8.2 23.6c-.9 2.7.5 5.6 3.2 6.5 2.7.9 5.6-.5 6.5-3.2zm-9.3-157.5l18.5 14a4.78 4.78 0 1 0 5.8-7.6l-18.5-14a4.78 4.78 0 1 0-5.8 7.6zM124.8 1280c-1.8-.3-3.5 1-3.7 2.8l-2.2 15.9c-.3 1.8 1 3.5 2.8 3.7 1.8.3 3.5-1 3.7-2.8l2.3-15.9c.2-1.7-1.1-3.4-2.9-3.7zM868 1061.2c1.3 2.4 4.3 3.3 6.7 2 2.4-1.3 3.3-4.3 2-6.7l-11.3-21.1c-1.3-2.4-4.3-3.3-6.7-2s-3.3 4.3-2 6.7l11.3 21.1zm-70.1 42.9c-1.7-2.2-4.8-2.7-7.1-1l-19.6 14.6c-2.2 1.7-2.7 4.8-1 7.1 1.7 2.2 4.8 2.7 7.1 1l19.6-14.6c2.2-1.7 2.7-4.8 1-7.1zm39.9-271.3l16.1-7.3c1.8-.8 2.6-3 1.8-4.8s-3-2.6-4.8-1.8l-16.2 7.3c-1.8.8-2.6 3-1.8 4.8.9 1.9 3 2.7 4.9 1.8zm-255.6 328.1l-1.4 33.1c-.2 3.8 2.8 7 6.5 7.1 3.8.2 7-2.8 7.1-6.5l1.4-33.1c.2-3.8-2.8-7-6.5-7.1-3.8-.2-6.9 2.7-7.1 6.5zm-254.5 28.9l-14.7.8c-1.7.1-3 1.5-2.9 3.2s1.5 3 3.2 2.9l14.7-.8c1.7-.1 3-1.5 2.9-3.2s-1.6-3-3.2-2.9zM686 773.7l3.9-7.3c.5-.8.1-1.9-.7-2.3-.8-.5-1.9-.1-2.3.7l-3.9 7.3c-.5.8-.1 1.9.7 2.3.8.4 1.8.1 2.3-.7zm187.7-13.1l23.7-6.5c2.7-.7 4.3-3.5 3.5-6.2-.7-2.7-3.5-4.3-6.2-3.5l-23.7 6.5c-2.7.7-4.3 3.5-3.5 6.2s3.5 4.3 6.2 3.5zm-514.1-3.1c.6 1.8 2.5 2.7 4.3 2.1 1.7-.6 2.6-2.5 2.1-4.3l-5.2-15.5c-.6-1.8-2.5-2.7-4.3-2.1-1.8.6-2.7 2.5-2.1 4.3l5.2 15.5zm211.1 260.6l-19.8-14.1c-2.3-1.6-5.4-1.1-7 1.2-1.6 2.3-1.1 5.4 1.2 7l19.8 14.1c2.3 1.6 5.4 1.1 7-1.2 1.7-2.3 1.2-5.4-1.2-7zm-113.8 103.1c1.3 1.2 3.3 1.1 4.5-.2 1.2-1.3 1.1-3.3-.2-4.5l-11.4-10.5c-1.3-1.2-3.3-1.1-4.5.2-1.2 1.3-1.1 3.3.2 4.5l11.4 10.5zm155.5-437.6c.2 1 1.1 1.7 2.1 1.6 1-.2 1.7-1.1 1.6-2.1l-1.3-9c-.2-1-1.1-1.7-2.1-1.6-1 .2-1.7 1.1-1.6 2.1l1.3 9zm57.8 614.4c-.9-.4-2-.1-2.4.8l-3.8 7.8c-.4.9-.1 2 .8 2.4.9.4 2 .1 2.4-.8l3.8-7.8c.5-.8.1-1.9-.8-2.4zm10-335.9c-.9 2.2.1 4.7 2.3 5.6l19.1 8c2.2.9 4.7-.1 5.6-2.3.9-2.2-.1-4.7-2.3-5.6l-19.1-8c-2.2-.9-4.7.1-5.6 2.3zM325 1021.6c.3 1.2 1.6 2 2.8 1.7 1.2-.3 2-1.6 1.7-2.8l-2.7-10.9c-.3-1.2-1.6-2-2.8-1.7-1.2.3-2 1.6-1.7 2.8l2.7 10.9zm277.4 254.8L576 1281c-3 .5-5 3.4-4.5 6.4s3.4 5 6.4 4.5l26.4-4.6c3-.5 5-3.4 4.5-6.4-.6-3-3.4-5-6.4-4.5zm189.5 179c-1.3-3.4-5.1-5.1-8.5-3.8l-29.8 11.3c-3.4 1.3-5.1 5.1-3.8 8.5 1.3 3.4 5.1 5.1 8.5 3.8l29.8-11.3c3.4-1.3 5.1-5.1 3.8-8.5zM96.5 726.5l28-.8c3.2-.1 5.7-2.7 5.6-5.9-.1-3.2-2.7-5.7-5.9-5.6l-28 .8c-3.2.1-5.7 2.7-5.6 5.9.1 3.2 2.7 5.7 5.9 5.6zm563.6 191.2c2.2-.4 3.6-2.5 3.2-4.7l-3.6-19c-.4-2.2-2.5-3.6-4.7-3.2-2.2.4-3.6 2.5-3.2 4.7l3.6 19c.5 2.2 2.6 3.6 4.7 3.2zm-292.2 377a5.2 5.2 0 0 0-6.7-2.9l-23.4 9.4a5.2 5.2 0 0 0-2.9 6.7 5.2 5.2 0 0 0 6.7 2.9l23.4-9.4c2.7-1.1 4-4.1 2.9-6.7zm572.9-503.6l19.2 3.5c2.2.4 4.3-1 4.7-3.2.4-2.2-1-4.3-3.2-4.7l-19.3-3.5c-2.2-.4-4.3 1-4.7 3.2-.4 2.2 1.1 4.3 3.3 4.7zm-666.2 656.8l-23.7 23c-2.7 2.6-2.8 6.9-.2 9.6 2.6 2.7 6.9 2.8 9.6.2l23.7-23c2.7-2.6 2.8-6.9.2-9.6-2.6-2.7-6.9-2.8-9.6-.2zm328 139.8l-8.6-6.2c-1-.7-2.4-.5-3.1.5-.7 1-.5 2.4.5 3.1l8.7 6.2c1 .7 2.4.5 3.1-.5.6-1 .4-2.4-.6-3.1zM160.4 1135l-12.6-7c-1.4-.8-3.2-.3-4 1.1-.8 1.4-.3 3.2 1.1 4l12.6 7c1.4.8 3.2.3 4-1.1.9-1.4.4-3.2-1.1-4zm612 445c-2.6-2.7-6.9-2.8-9.6-.2-2.7 2.6-2.8 6.9-.2 9.6l22.9 23.7c2.6 2.7 6.9 2.8 9.6.2s2.8-6.9.2-9.6l-22.9-23.7zM615.6 964.9l-7.2 10.3c-.8 1.2-.5 2.8.7 3.6 1.2.8 2.8.5 3.6-.7l7.2-10.3c.8-1.2.5-2.8-.7-3.6-1.2-.8-2.8-.5-3.6.7zm-464.5 612c-.9-.7-2.2-.6-2.9.3-.7.9-.6 2.2.3 2.9l7.6 6.3c.9.7 2.2.6 2.9-.3.7-.9.6-2.2-.3-2.9l-7.6-6.3zm747.2-609c-1.3-.3-2.7.5-3 1.8l-2.9 11.5c-.3 1.3.5 2.7 1.8 3 1.3.3 2.7-.5 3-1.8l2.9-11.5c.3-1.4-.5-2.7-1.8-3zm-335.4 370.7c-1-.6-2.3-.2-2.8.8l-4.9 8.9c-.6 1-.2 2.3.8 2.8 1 .6 2.3.2 2.8-.8l4.9-8.9c.6-1 .2-2.3-.8-2.8zm-160.5 201c-3.6-.7-7.1 1.7-7.7 5.3l-5.8 31.8c-.7 3.6 1.7 7.1 5.3 7.7 3.6.7 7.1-1.7 7.7-5.3l5.8-31.8c.7-3.6-1.7-7-5.3-7.7zm539.1-369.4l-8.3 3c-1 .3-1.4 1.4-1.1 2.3.3 1 1.4 1.4 2.3 1.1l8.3-3c1-.3 1.4-1.4 1.1-2.3-.3-.9-1.4-1.4-2.3-1.1zM42.8 1400.5l-23.5 20.9c-2.7 2.4-2.9 6.4-.5 9.1 2.4 2.7 6.4 2.9 9.1.5l23.5-20.9c2.7-2.4 2.9-6.4.5-9.1-2.3-2.6-6.4-2.8-9.1-.5zm515.4-319.8c.3-2.9-1.8-5.6-4.7-5.9-2.9-.3-5.6 1.8-5.9 4.7l-2.8 25.8c-.3 2.9 1.8 5.6 4.7 5.9 2.9.3 5.6-1.8 5.9-4.7l2.8-25.8zm-526.7-250c1-1.3.7-3.1-.5-4.1L19.9 818c-1.3-1-3.1-.8-4.1.5-1 1.3-.8 3.1.5 4.1l11.1 8.6c1.3 1 3.2.8 4.1-.5zm27.6 311.1c-3.3-1-6.8 1-7.8 4.3l-8.5 29.3c-1 3.3 1 6.8 4.3 7.8s6.8-1 7.8-4.3l8.5-29.3c.9-3.3-1-6.8-4.3-7.8zm137.8 319.6l-10.3-3.6c-1.2-.4-2.5.2-2.9 1.4-.4 1.2.2 2.5 1.4 2.9l10.3 3.6c1.2.4 2.5-.2 2.9-1.4.4-1.2-.2-2.5-1.4-2.9zm49 156.7l-13.5-4.2c-1.5-.5-3.2.4-3.7 1.9s.4 3.2 1.9 3.7l13.5 4.2c1.5.5 3.2-.4 3.7-1.9.5-1.6-.4-3.2-1.9-3.7zm444-15.8l-6.3 7.2c-.7.8-.6 2.1.2 2.8s2.1.6 2.8-.2l6.3-7.2c.7-.8.6-2.1-.2-2.8-.8-.7-2-.6-2.8.2zM26.4 912.8l-3.5 9.1c-.4 1 .1 2.2 1.1 2.6 1 .4 2.2-.1 2.6-1.1l3.5-9.1c.4-1-.1-2.2-1.1-2.6-1-.5-2.1 0-2.6 1.1zm46.9-69.5l-.3 8.9c0 1 .8 1.9 1.8 1.9s1.9-.8 1.9-1.8l.3-8.9c0-1-.8-1.9-1.8-1.9-1.1 0-1.9.8-1.9 1.8zm707-143.3c1.4.6 3.1 0 3.7-1.5l5.5-12.6c.6-1.4 0-3.1-1.4-3.7s-3.1 0-3.7 1.5l-5.5 12.6c-.6 1.4 0 3.1 1.4 3.7zm-7.2 349.9l14.9-4.4c1.7-.5 2.7-2.3 2.2-4-.5-1.7-2.3-2.7-4-2.2l-14.9 4.4c-1.7.5-2.7 2.3-2.2 4 .5 1.7 2.3 2.7 4 2.2zM423.2 910.7l7.8 2.9c.9.3 1.9-.1 2.2-1 .3-.9-.1-1.9-1-2.2l-7.8-2.9c-.9-.3-1.9.1-2.2 1-.3.9.2 1.9 1 2.2zm-396.4 330c1.3-1.3 1.4-3.4.1-4.7l-11.1-11.6c-1.3-1.3-3.4-1.4-4.7-.1-1.3 1.3-1.4 3.4-.1 4.7l11.1 11.6c1.3 1.3 3.4 1.4 4.7.1zm936.2 366l-9.6 9.4c-1.1 1.1-1.1 2.8 0 3.9s2.8 1.1 3.9.1l9.6-9.4c1.1-1.1 1.1-2.8.1-3.9-1.2-1.2-2.9-1.2-4-.1zm-130.3-339.5l-10.2.4c-1.2.1-2.1 1-2 2.2 0 1.2 1 2.1 2.2 2l10.2-.4c1.2-.1 2.1-1 2-2.2-.1-1.2-1.1-2.1-2.2-2zm-115.1 106.5l-10.3 4.8c-1.2.5-1.7 1.9-1.1 3.1.5 1.2 2 1.7 3.1 1.1l10.3-4.8c1.2-.5 1.7-1.9 1.1-3.1-.5-1.2-1.9-1.7-3.1-1.1zm-588.9-372.2c.9-2.5-.5-5.3-3-6.2l-22.4-7.8c-2.5-.9-5.3.5-6.2 3-.9 2.5.5 5.3 3 6.2l22.4 7.8c2.6.9 5.3-.5 6.2-3zm68.2-9.1c-1.4.1-2.4 1.4-2.3 2.8l1.2 12.3c.1 1.4 1.4 2.4 2.8 2.3 1.4-.1 2.4-1.4 2.3-2.8l-1.2-12.3c-.1-1.4-1.4-2.4-2.8-2.3zm431.3 402.4l-8.2-3.9c-.9-.4-2.1 0-2.5.9-.4.9-.1 2.1.9 2.5l8.2 3.9c.9.4 2.1 0 2.5-.9.4-.9 0-2-.9-2.5zm-326-546.3c-.5-2.5-3-4.1-5.5-3.6l-22.2 4.6c-2.5.5-4.1 3-3.6 5.5.5 2.5 3 4.1 5.5 3.6l22.2-4.6c2.5-.5 4.1-3 3.6-5.5zM22.7 1005c-2.8 1.8-3.7 5.5-1.9 8.4l15.6 25c1.8 2.8 5.5 3.7 8.4 1.9 2.8-1.8 3.7-5.5 1.9-8.4l-15.6-25c-1.8-2.8-5.6-3.7-8.4-1.9zm49.7 575.6c-3.5-.9-7 1.2-7.9 4.7l-7.7 30.6c-.9 3.5 1.2 7 4.7 7.9 3.5.9 7-1.2 7.9-4.7l7.7-30.6c.8-3.5-1.3-7-4.7-7.9zm255.5-486.4l-16.2 7c-1.8.8-2.7 2.9-1.9 4.8.8 1.8 2.9 2.7 4.8 1.9l16.2-7c1.8-.8 2.7-2.9 1.9-4.8-.8-1.8-3-2.7-4.8-1.9zm-264 253.1c.8 1.3 2.6 1.7 3.9.9 1.3-.8 1.7-2.6.9-3.9l-7.3-11.6c-.8-1.3-2.6-1.7-3.9-.9-1.3.8-1.7 2.6-.9 3.9l7.3 11.6zm239.5 57.4l12-12.7c1.4-1.4 1.3-3.7-.1-5.1-1.4-1.4-3.7-1.3-5.1.1l-12 12.7c-1.4 1.4-1.3 3.7.1 5.1s3.7 1.3 5.1-.1zm-56.7-310.6c.7 1.2 2.2 1.6 3.5.9 1.2-.7 1.6-2.2.9-3.4L245 1081c-.7-1.2-2.2-1.6-3.4-.9s-1.6 2.2-.9 3.5l6 10.5zm-53.1-276.2c-.5 3 1.5 5.9 4.6 6.5L225 829c3 .5 5.9-1.5 6.5-4.6.5-3-1.5-5.9-4.6-6.5l-26.8-4.6c-3.1-.5-6 1.5-6.5 4.6zm740 67.5c.6-.8.5-1.9-.3-2.5l-6.7-5.5c-.8-.6-1.9-.5-2.5.3-.6.8-.5 1.9.3 2.5l6.7 5.5c.7.5 1.9.4 2.5-.3zM18.7 1567.2c-.4-1.3-1.8-2-3-1.6-1.3.4-2 1.7-1.6 3l3.4 11.3c.4 1.3 1.8 2 3 1.6 1.3-.4 2-1.8 1.6-3l-3.4-11.3zm757.9-386.5c-1.1.5-1.5 1.8-1 2.9l4.7 9.5c.5 1.1 1.8 1.5 2.9 1 1.1-.5 1.5-1.8 1-2.9l-4.7-9.5c-.5-1.1-1.8-1.6-2.9-1zM263.8 922.2c2.2 2.2 5.8 2.2 8.1 0 2.2-2.2 2.2-5.8 0-8.1l-19.5-19.6c-2.2-2.2-5.8-2.2-8.1 0-2.2 2.2-2.2 5.8 0 8.1l19.5 19.6zm390.6-75.7c2.4-.7 3.8-3.3 3.1-5.7l-6.4-21.4c-.7-2.4-3.3-3.8-5.7-3.1-2.4.7-3.8 3.3-3.1 5.7l6.4 21.4c.6 2.4 3.3 3.8 5.7 3.1zM74.9 1242.2l-11.3 4.2c-1.3.5-1.9 1.9-1.5 3.2.5 1.3 1.9 1.9 3.2 1.5l11.3-4.2c1.3-.5 1.9-1.9 1.5-3.2-.4-1.3-1.9-2-3.2-1.5zm762.6-263.1c2.3-2.4 2.2-6.1-.1-8.4-2.4-2.3-6.1-2.2-8.4.1l-20.2 20.9c-2.3 2.4-2.2 6.1.1 8.4 2.4 2.3 6.1 2.2 8.4-.1l20.2-20.9zm-410.3 240.3l-13.4 9.1c-1.5 1-1.9 3.1-.9 4.7 1 1.5 3.1 1.9 4.7.9l13.4-9.1c1.5-1 1.9-3.1.9-4.7-1.1-1.6-3.2-2-4.7-.9zm453.1 99.6c-2.2-.5-4.5.9-5 3.1l-4.6 19.8c-.5 2.3.9 4.5 3.1 5s4.5-.9 5-3.1l4.6-19.8c.5-2.2-.9-4.5-3.1-5zm-54.3 65.8c-3.1-.6-6.2 1.4-6.8 4.6l-5.4 27.7c-.6 3.1 1.4 6.2 4.6 6.8 3.1.6 6.2-1.4 6.8-4.6l5.4-27.7c.5-3.2-1.5-6.2-4.6-6.8zM273.5 776.3c.8.8 2 .7 2.8 0 .8-.8.7-2 0-2.8l-6.9-6.7c-.8-.8-2-.7-2.8 0-.8.8-.7 2 0 2.8l6.9 6.7zm3.3 454.2c-.1-2.7-2.4-4.9-5.2-4.7l-24.1 1c-2.7.1-4.9 2.4-4.7 5.2.1 2.7 2.4 4.9 5.2 4.7l24.1-1c2.7-.1 4.8-2.4 4.7-5.2zM35 1491.5c-2.3.2-4.1 2.2-3.9 4.6l1.7 20.5c.2 2.3 2.2 4 4.6 3.9 2.3-.2 4.1-2.2 3.9-4.6l-1.7-20.5c-.2-2.4-2.3-4.1-4.6-3.9zm773.2 38c-1.5.1-2.6 1.3-2.5 2.7l.5 12.8c.1 1.5 1.3 2.6 2.7 2.5 1.5-.1 2.6-1.3 2.5-2.7l-.4-12.8c0-1.4-1.3-2.5-2.8-2.5zM73.3 679.3l12.8-5.4c1.5-.6 2.1-2.3 1.5-3.7-.6-1.5-2.3-2.1-3.7-1.5l-12.8 5.4c-1.5.6-2.1 2.3-1.5 3.7.5 1.5 2.2 2.2 3.7 1.5zm888.8 293.1l-9-1.5c-1-.2-2 .5-2.2 1.5s.5 2 1.5 2.2l9 1.5c1 .2 2-.5 2.2-1.5.2-1.1-.5-2.1-1.5-2.2zM867 1184.2c-1.2-2.5-4.2-3.6-6.7-2.4l-22.2 10.3c-2.5 1.2-3.6 4.2-2.4 6.7 1.2 2.5 4.2 3.6 6.7 2.4l22.3-10.3c2.4-1.2 3.5-4.2 2.3-6.7zm-581.9 111.4l-15 .6c-1.7.1-3 1.5-3 3.2.1 1.7 1.5 3 3.2 3l15-.6c1.7-.1 3-1.5 3-3.2 0-1.7-1.5-3-3.2-3zm648.9-236c.7 1.3 2.3 1.8 3.6 1.1l11.4-6c1.3-.7 1.8-2.3 1.1-3.6s-2.3-1.8-3.6-1.1l-11.4 6c-1.3.7-1.8 2.3-1.1 3.6zm-250.7 388.9c-.6.9-.5 2.1.4 2.7l7.5 5.6c.9.6 2.1.5 2.7-.4.6-.9.5-2.1-.4-2.7l-7.5-5.6c-.8-.6-2-.5-2.7.4zm60-158.3c-2.8.1-5 2.4-4.9 5.1l.5 24.4c.1 2.8 2.4 5 5.1 4.9 2.8-.1 5-2.4 4.9-5.1l-.5-24.4c0-2.6-2.3-4.9-5.1-4.9zM488.7 685.8c.2 1 1.2 1.6 2.2 1.4 1-.2 1.6-1.2 1.4-2.2l-2-8.6c-.2-1-1.2-1.6-2.2-1.4-1 .2-1.6 1.2-1.4 2.2l2 8.6zM679 714.4c2.8 1.8 6.5.9 8.3-1.8l15.6-24.7c1.8-2.8.9-6.5-1.9-8.3-2.8-1.8-6.5-.9-8.3 1.8L677.1 706c-1.7 2.9-.9 6.6 1.9 8.4zm-32.9 403l-7.8 4.2c-.9.5-1.2 1.6-.7 2.5.5.9 1.6 1.2 2.5.7l7.8-4.2c.9-.5 1.2-1.6.7-2.5-.5-.8-1.6-1.1-2.5-.7zM484.7 900l20.9-2.8c2.4-.3 4-2.5 3.7-4.9-.3-2.4-2.5-4-4.9-3.7l-20.9 2.8c-2.4.3-4 2.5-3.7 4.9.4 2.3 2.6 4 4.9 3.7zm135.6 155.5c-1.4-.9-3.2-.6-4.1.8l-8 11.9c-.9 1.4-.6 3.2.8 4.1 1.4.9 3.2.6 4.1-.8l8-11.9c1-1.4.6-3.2-.8-4.1zm-121.7-14.1c-2-1.3-4.7-.7-6 1.3l-11.4 17.7c-1.3 2-.7 4.7 1.3 6 2 1.3 4.7.7 6-1.3l11.4-17.7c1.4-2 .8-4.7-1.3-6zm-198.1 540.9c-.5-1-1.7-1.4-2.7-.9-1 .5-1.4 1.7-.9 2.7l4.3 8.6c.5 1 1.7 1.4 2.7.9s1.4-1.7.9-2.7l-4.3-8.6zm436.6-357.7c-1.7-.8-3.8-.1-4.6 1.6l-7.3 14.9c-.8 1.7-.1 3.8 1.6 4.6 1.7.8 3.8.1 4.6-1.6l7.3-14.9c.8-1.8.1-3.8-1.6-4.6zm-218.2 339.7l-24.4 20.1c-2.8 2.3-3.2 6.4-.9 9.1 2.3 2.8 6.4 3.2 9.1.9l24.4-20.1c2.8-2.3 3.2-6.4.9-9.1-2.2-2.8-6.3-3.2-9.1-.9zm-416.4-491.8c-1.5 0-2.7 1.1-2.7 2.6s1.1 2.7 2.6 2.7l12.8.4c1.5 0 2.7-1.1 2.7-2.6s-1.1-2.7-2.6-2.7l-12.8-.4zm785.8 54.8l-.8-25.8c-.1-2.9-2.5-5.2-5.5-5.1-2.9.1-5.2 2.5-5.1 5.5l.8 25.8c.1 2.9 2.5 5.2 5.5 5.1 2.8-.1 5.2-2.5 5.1-5.5zm-742.9 60c-.6-3.6-4.1-6-7.7-5.4l-31.9 5.6c-3.6.6-6 4.1-5.4 7.7s4.1 6 7.7 5.4l31.9-5.5c3.6-.7 6.1-4.1 5.4-7.8zM340 897.8c-.4.9-.1 1.9.8 2.4.9.4 1.9.1 2.4-.8l3.9-7.6c.4-.9.1-1.9-.8-2.4-.9-.4-1.9-.1-2.4.8l-3.9 7.6zm-183.2 481c-1.1-1.1-2.9-1.1-4 .1l-9.6 9.8c-1.1 1.1-1.1 2.9.1 4 1.1 1.1 2.9 1.1 4-.1l9.6-9.8c1-1.2 1-2.9-.1-4zM17 691.7c2.1.4 4-1 4.4-3l3.3-18c.4-2.1-1-4-3-4.4-2.1-.4-4 1-4.4 3l-3.3 18c-.4 2 1 4 3 4.4zm86.8 830.6c-.7-1-2.1-1.2-3.1-.4-1 .7-1.2 2.1-.4 3.1l6.4 8.5c.7 1 2.1 1.2 3.1.4 1-.7 1.2-2.1.4-3.1l-6.4-8.5zm622-408.8c-1.7-2.2-4.9-2.6-7.1-.9l-19.4 14.9c-2.2 1.7-2.6 4.9-.9 7.1 1.7 2.2 4.9 2.6 7.1.9l19.4-14.9c2.2-1.7 2.6-4.9.9-7.1zm-350 491.4l-19.6 9.8c-2.2 1.1-3.1 3.8-2 6.1 1.1 2.2 3.8 3.1 6.1 2l19.6-9.8c2.2-1.1 3.1-3.8 2-6.1-1.2-2.2-3.9-3.1-6.1-2zm-55.3-83.9l-8.8-1c-1-.1-1.9.6-2 1.6-.1 1 .6 1.9 1.6 2l8.8 1c1 .1 1.9-.6 2-1.6s-.6-1.9-1.6-2zm621.4-136.4c-.6-1.1-2-1.5-3.1-1l-9.8 5.1c-1.1.6-1.5 2-1 3.1.6 1.1 2 1.5 3.1 1l9.8-5.1c1.2-.6 1.6-2 1-3.1zm-349 93.3c-.9-.4-1.9 0-2.3.9l-3.6 7.7c-.4.9 0 1.9.9 2.3s1.9 0 2.3-.9l3.6-7.7c.4-.8 0-1.8-.9-2.3zm101.5 49l-14.9.1c-1.7 0-3.1 1.4-3.1 3.1s1.4 3.1 3.1 3.1l14.9-.1c1.7 0 3.1-1.4 3.1-3.1 0-1.7-1.4-3.1-3.1-3.1zm270.9-285c1.1 0 1.9-.9 1.9-2l-.3-9.3c0-1.1-.9-1.9-2-1.9s-1.9.9-1.9 2l.3 9.3c.1 1.1 1 1.9 2 1.9zM109.1 1456l-13.9-2.5c-1.6-.3-3.1.8-3.4 2.4-.3 1.6.8 3.1 2.4 3.4l13.9 2.5c1.6.3 3.1-.8 3.4-2.4.2-1.6-.8-3.1-2.4-3.4zm860.4-352.2c-1.9-1.6-4.6-1.3-6.2.6l-13.6 16.4c-1.6 1.9-1.3 4.6.6 6.2 1.9 1.6 4.7 1.3 6.2-.6l13.6-16.4c1.5-1.9 1.3-4.7-.6-6.2zm-79 430.2c-.4-1.7-2-2.7-3.7-2.3l-14.6 3.2c-1.7.4-2.7 2-2.3 3.7.4 1.7 2 2.7 3.7 2.3l14.5-3.2c1.7-.4 2.8-2.1 2.4-3.7zm-363.2-146.1l-28.2 6.3c-3.2.7-5.2 3.9-4.5 7.1s3.9 5.2 7.1 4.5l28.2-6.3c3.2-.7 5.2-3.9 4.5-7.1-.7-3.2-3.9-5.2-7.1-4.5zM637 1235.5l-9.1 2.8c-1 .3-1.6 1.4-1.3 2.5.3 1 1.4 1.6 2.5 1.3l9.1-2.8c1-.3 1.6-1.4 1.3-2.5s-1.4-1.6-2.5-1.3zM528.3 773.2c.4 1.3 1.8 2.1 3.1 1.7 1.3-.4 2.1-1.8 1.7-3.1l-3.4-11.7c-.4-1.3-1.8-2.1-3.1-1.7-1.3.4-2.1 1.8-1.7 3.1l3.4 11.7zm-30.5 404.5c1 2.6 3.9 4 6.5 3l23.1-8.3c2.6-1 4-3.9 3-6.5s-3.9-4-6.5-3l-23.1 8.3c-2.6.9-3.9 3.9-3 6.5zm-99.7-474.9l18.9-21.6c2.2-2.4 1.9-6.2-.5-8.3-2.5-2.2-6.2-1.9-8.3.5l-19 21.6c-2.2 2.4-1.9 6.2.5 8.3 2.5 2.2 6.3 2 8.4-.5zm65.7 906.6l-9-.2c-1 0-1.9.8-1.9 1.8s.8 1.9 1.8 1.9l9 .2c1 0 1.9-.8 1.9-1.8 0-1.1-.8-1.9-1.8-1.9zM432.6 1489l-23.4 5.3c-2.7.6-4.3 3.3-3.7 5.9.6 2.7 3.3 4.3 5.9 3.7l23.4-5.3c2.7-.6 4.3-3.3 3.7-5.9-.6-2.6-3.2-4.3-5.9-3.7zM41.1 1097.7l-5.8 7.9c-.7.9-.5 2.2.4 2.8.9.7 2.2.5 2.8-.4l5.8-7.9c.7-.9.5-2.2-.4-2.8-.9-.7-2.1-.5-2.8.4zm258.3-405c.5 1 1.7 1.3 2.7.8s1.3-1.7.8-2.7l-4.6-8.4c-.5-1-1.7-1.3-2.7-.8-1 .5-1.3 1.7-.8 2.7l4.6 8.4zm114.5 117.7c-3.7-.3-7 2.5-7.3 6.2l-2.7 32.7c-.3 3.7 2.5 7 6.2 7.3 3.7.3 7-2.5 7.3-6.2l2.7-32.8c.3-3.6-2.4-6.9-6.2-7.2zM549 719.5l24.4-19.1c2.8-2.2 3.2-6.2 1.1-9-2.2-2.8-6.2-3.2-9-1.1l-24.4 19.1c-2.8 2.2-3.2 6.2-1.1 9 2.2 2.8 6.2 3.3 9 1.1zM93.5 930.3c1.1-.5 1.6-1.9 1-3l-4.7-9.7c-.5-1.1-1.9-1.6-3-1-1.1.5-1.6 1.9-1 3l4.7 9.7c.6 1.1 1.9 1.5 3 1zm359.3 374c-2.5-1.1-5.4.1-6.4 2.6l-9.3 21.9c-1.1 2.5.1 5.4 2.6 6.4 2.5 1.1 5.4-.1 6.4-2.6l9.3-21.9c1.1-2.5 0-5.4-2.6-6.4zM341.4 824.7c1 .1 1.9-.6 2-1.6l.9-8.8c.1-1-.6-1.9-1.6-2-1-.1-1.9.6-2 1.6l-.9 8.8c-.1 1 .6 1.9 1.6 2zm169.2 425.4c-2-2.5-5.6-3-8.1-1s-3 5.6-1 8.1l17.3 22.2c2 2.5 5.6 3 8.2 1 2.5-2 3-5.6 1-8.1l-17.4-22.2zm452 224.1c.6-2.3-.8-4.5-3.1-5.1l-19.9-4.9c-2.3-.6-4.5.8-5.1 3.1s.8 4.5 3.1 5.1l19.9 4.9c2.3.5 4.5-.9 5.1-3.1zm-732.2-291.6c1.5-2 1.2-4.9-.9-6.5l-17.7-13.6c-2-1.5-4.9-1.2-6.5.9-1.5 2-1.2 4.9.9 6.5l17.8 13.6c1.9 1.5 4.8 1.1 6.4-.9zm163.4-24.5c.3 1 1.4 1.5 2.4 1.2s1.5-1.4 1.2-2.4l-2.9-8.6c-.3-1-1.4-1.5-2.4-1.2-1 .3-1.5 1.4-1.2 2.4l2.9 8.6zM687 1039.4l-5.3-6.9c-.6-.8-1.7-.9-2.5-.3-.8.6-.9 1.7-.3 2.5l5.3 6.9c.6.8 1.7.9 2.5.3.7-.6.9-1.7.3-2.5zM189.8 723.1c3 2 7.1 1.2 9-1.8l17.4-26.5c2-3 1.2-7.1-1.8-9-3-2-7.1-1.2-9 1.8L188 714c-2 3-1.2 7.1 1.8 9.1zm363.5 219.6c.2-1.1-.5-2.2-1.6-2.5l-9.9-2.1c-1.1-.2-2.2.5-2.5 1.6-.2 1.1.5 2.2 1.6 2.5l9.9 2.1c1.1.3 2.2-.4 2.5-1.6zm-330.5 397.6c-2.6.8-4.1 3.5-3.3 6.2l6.9 23.1c.8 2.6 3.5 4.1 6.2 3.3 2.6-.8 4.1-3.5 3.3-6.2l-6.9-23.1c-.8-2.6-3.5-4.1-6.2-3.3zm684.5 252.1L882 1600c-2.9.9-4.5 3.9-3.6 6.8.9 2.9 3.9 4.5 6.8 3.6l25.3-7.6c2.9-.9 4.5-3.9 3.6-6.8-.9-2.8-4-4.5-6.8-3.6zM742 943.9c-1.9 3-1 6.9 1.9 8.8l26.1 16.6c3 1.9 6.9 1 8.8-1.9 1.9-3 1-6.9-1.9-8.8L750.8 942c-2.9-2-6.9-1.1-8.8 1.9zm-56.9 251.2c1.1-2.1.4-4.6-1.7-5.8l-18-9.9c-2.1-1.1-4.6-.4-5.8 1.7-1.1 2.1-.4 4.6 1.7 5.8l18 9.9c2.1 1.1 4.7.4 5.8-1.7zM394.6 1069c1.2-.3 1.9-1.6 1.6-2.8l-2.9-10.5c-.3-1.2-1.6-1.9-2.8-1.6-1.2.3-1.9 1.6-1.6 2.8l2.9 10.5c.3 1.2 1.6 1.9 2.8 1.6zm-27.9 410.8c2.7-1 4.1-4 3.1-6.7l-8.8-23.9c-1-2.7-4-4.1-6.7-3.1-2.7 1-4.1 4-3.1 6.7l8.8 23.9c1 2.8 4 4.2 6.7 3.1zm23.1-93.9l11.8 6.6c1.3.8 3 .3 3.8-1.1.8-1.3.3-3-1.1-3.8l-11.8-6.6c-1.3-.8-3.1-.3-3.8 1.1-.7 1.3-.2 3 1.1 3.8zM272.5 975.2l-7.1 8.3c-.8.9-.7 2.4.2 3.2.9.8 2.4.7 3.2-.2l7.1-8.3c.8-.9.7-2.4-.2-3.2-.9-.8-2.4-.7-3.2.2zm458.8-87.3l11.8-7.6c1.3-.9 1.7-2.7.9-4-.9-1.3-2.7-1.7-4-.9l-11.8 7.6c-1.3.9-1.7 2.7-.9 4 .7 1.4 2.6 1.8 4 .9zm75.9 460.5l-4.6-21.4c-.5-2.4-2.9-4-5.4-3.5-2.4.5-4 2.9-3.5 5.4l4.6 21.4c.5 2.4 2.9 4 5.4 3.5 2.4-.6 4-3 3.5-5.4zm80.6 108.9c-.9-2.5-3.7-3.9-6.2-3l-22.3 7.9c-2.5.9-3.9 3.7-2.9 6.2.9 2.5 3.7 3.9 6.2 2.9l22.3-7.9c2.5-.7 3.8-3.5 2.9-6.1zm29.7-218l-16.8-2.9c-1.9-.3-3.7 1-4.1 2.9-.3 1.9 1 3.7 2.9 4.1l16.8 2.9c1.9.3 3.7-1 4.1-2.9.4-2-.9-3.8-2.9-4.1zM600.6 776.4c2 1.3 4.7.7 6-1.4l11.2-17.8c1.3-2 .7-4.7-1.4-6-2-1.3-4.7-.7-6 1.4l-11.2 17.8c-1.2 2.1-.6 4.8 1.4 6zm-91.8 68.9c2.5.5 4.9-1.1 5.4-3.6l4.3-21.7c.5-2.5-1.1-4.9-3.6-5.4s-4.9 1.1-5.4 3.6l-4.3 21.7c-.5 2.5 1.1 4.9 3.6 5.4zM953 1550.5c1-.2 1.6-1.2 1.3-2.2l-2.2-8.5c-.2-1-1.2-1.6-2.2-1.3-1 .2-1.6 1.2-1.3 2.2l2.2 8.5c.3.9 1.3 1.5 2.2 1.3zM819.2 912.1l29.4-4.1c3.3-.5 5.7-3.6 5.2-6.9-.5-3.3-3.6-5.7-6.9-5.2l-29.4 4.1c-3.3.5-5.7 3.6-5.2 6.9.5 3.3 3.5 5.6 6.9 5.2zM908 700.4l18.1-14.4c2.1-1.6 2.4-4.6.8-6.7-1.6-2.1-4.6-2.4-6.7-.7L902.1 693c-2.1 1.6-2.4 4.6-.7 6.7 1.6 2 4.6 2.4 6.6.7zm-714.6 569c.5-1 .1-2.2-.9-2.8l-8.8-4.5c-1-.5-2.2-.1-2.8.9-.5 1-.1 2.2.9 2.8l8.8 4.5c1.1.5 2.3.1 2.8-.9zm388.7-385.8l14-11.6c1.6-1.3 1.8-3.7.5-5.3-1.3-1.6-3.7-1.8-5.3-.5l-14 11.6c-1.6 1.3-1.8 3.7-.5 5.3s3.7 1.9 5.3.5zm-479.3-92.7l17.8-1.8c2-.2 3.5-2 3.3-4.1-.2-2-2-3.5-4.1-3.3l-17.8 1.8c-2 .2-3.5 2-3.3 4.1.3 2 2.1 3.5 4.1 3.3zm838.9 516.8c.5.9 1.7 1.2 2.7.7l8.1-4.7c.9-.5 1.2-1.7.7-2.7-.5-.9-1.7-1.2-2.7-.7l-8.1 4.7c-.9.6-1.2 1.8-.7 2.7zm-461.6 122.2c-3.2-.6-6.3 1.6-6.9 4.8l-5.1 28.4c-.6 3.2 1.6 6.3 4.8 6.9 3.2.6 6.3-1.6 6.9-4.8l5-28.4c.6-3.2-1.5-6.3-4.7-6.9zM22.8 752.6c1.7 1.3 4 1 5.3-.7l11.2-14.6c1.3-1.7 1-4-.7-5.3-1.7-1.3-4-1-5.3.7l-11.2 14.6c-1.2 1.7-.9 4 .7 5.3zm344.7 205.7l7.9 5.8c.9.7 2.2.5 2.8-.4.7-.9.5-2.2-.4-2.8l-7.9-5.8c-.9-.7-2.2-.5-2.8.4-.7.9-.5 2.2.4 2.8zm814.8 590.9c-.7-.7-1.8-.8-2.6-.2-.7.7-.8 1.8-.2 2.6l5.8 6.6c.7.7 1.8.8 2.6.2.7-.7.8-1.8.2-2.6l-5.8-6.6zm229.3-792.3l9.7-3.7c1.1-.4 1.7-1.7 1.2-2.8-.4-1.1-1.7-1.7-2.8-1.2l-9.7 3.7c-1.1.4-1.7 1.7-1.2 2.8.4 1.1 1.7 1.7 2.8 1.2zm39.8 215.8l-7.6 6.3c-.9.7-1 2-.3 2.9.7.9 2 1 2.9.3l7.6-6.3c.9-.7 1-2 .3-2.9-.8-.9-2-1-2.9-.3zm24.3 546.8c1.5 1 3.4.6 4.4-.8 1-1.5.6-3.4-.8-4.4l-12.8-8.8c-1.5-1-3.4-.6-4.4.8-1 1.5-.6 3.4.8 4.4l12.8 8.8zm-353.9-679.7c-2.2-1.6-5.2-1.2-6.9.9l-14.3 18.9c-1.6 2.2-1.2 5.2.9 6.9 2.2 1.6 5.2 1.2 6.9-.9l14.3-18.9c1.8-2.2 1.4-5.3-.9-6.9zm588.9-24.4c.7 1 2.1 1.3 3.1.6 1-.7 1.3-2.1.6-3.1l-6.2-9c-.7-1-2.1-1.3-3.1-.6-1 .7-1.3 2.1-.6 3.1l6.2 9zm33.4-50.6c1.5 1.7 4 1.8 5.7.3l14.5-12.9c1.7-1.5 1.8-4 .3-5.7-1.5-1.7-4-1.8-5.7-.3l-14.5 12.9c-1.6 1.5-1.8 4-.3 5.7zM1392 998.4l-7.6 8.5c-.9 1-.8 2.5.2 3.3 1 .9 2.5.8 3.3-.2l7.6-8.5c.9-1 .8-2.5-.2-3.3-.9-.8-2.4-.8-3.3.2zm-249.7 82.5l8.2-23.6c.9-2.7-.5-5.6-3.2-6.5-2.7-.9-5.6.5-6.5 3.2l-8.2 23.6c-.9 2.7.5 5.6 3.2 6.5 2.7.9 5.6-.5 6.5-3.2zm-9.1-157.5l18.5 14a4.78 4.78 0 1 0 5.8-7.6l-18.5-14a4.78 4.78 0 0 0-6.7.9c-1.7 2.1-1.2 5.1.9 6.7zm-47.8 356.6c-1.8-.3-3.5 1-3.7 2.8l-2.2 15.9c-.3 1.8 1 3.5 2.8 3.7 1.8.3 3.5-1 3.7-2.8l2.3-15.9c.2-1.7-1.1-3.4-2.9-3.7zm743.1-218.8c1.3 2.4 4.3 3.3 6.7 2 2.4-1.3 3.3-4.3 2-6.7l-11.3-21.1c-1.3-2.4-4.3-3.3-6.7-2s-3.3 4.3-2 6.7l11.3 21.1zm-69.9 42.9c-1.7-2.2-4.8-2.7-7.1-1l-19.6 14.6c-2.2 1.7-2.7 4.8-1 7.1 1.7 2.2 4.8 2.7 7.1 1l19.6-14.6c2.2-1.7 2.6-4.8 1-7.1zm39.8-271.3l16.1-7.3c1.8-.8 2.6-3 1.8-4.8-.8-1.8-3-2.6-4.8-1.8l-16.1 7.3c-1.8.8-2.6 3-1.8 4.8.7 1.9 3 2.7 4.8 1.8zm-255.7 328.1l-1.4 33.1c-.2 3.8 2.8 7 6.5 7.1 3.8.2 7-2.8 7.1-6.5l1.4-33.1c.2-3.8-2.8-7-6.5-7.1-3.7-.2-6.9 2.7-7.1 6.5zm-254.4 28.9l-14.7.8c-1.7.1-3 1.5-2.9 3.2s1.5 3 3.2 2.9l14.7-.8c1.7-.1 3-1.5 2.9-3.2-.1-1.7-1.5-3-3.2-2.9zm358.3-416.1l3.9-7.3c.5-.8.1-1.9-.7-2.3-.8-.5-1.9-.1-2.3.7l-3.9 7.3c-.5.8-.1 1.9.7 2.3.8.4 1.8.1 2.3-.7zm187.7-13.1l23.7-6.5c2.7-.7 4.3-3.5 3.5-6.2-.7-2.7-3.5-4.3-6.2-3.5l-23.7 6.5c-2.7.7-4.3 3.5-3.5 6.2.7 2.7 3.5 4.3 6.2 3.5zm-514.2-3.1c.6 1.8 2.5 2.7 4.3 2.1 1.8-.6 2.7-2.5 2.1-4.3l-5.2-15.5c-.6-1.8-2.5-2.7-4.3-2.1-1.8.6-2.7 2.5-2.1 4.3l5.2 15.5zm211.3 260.6l-19.8-14.1c-2.3-1.6-5.4-1.1-7 1.2s-1.1 5.4 1.2 7l19.8 14.1c2.3 1.6 5.4 1.1 7-1.2 1.5-2.3 1-5.4-1.2-7zm-114 103.1c1.3 1.2 3.3 1.1 4.5-.2 1.2-1.3 1.1-3.3-.2-4.5l-11.4-10.5c-1.3-1.2-3.3-1.1-4.5.2-1.2 1.3-1.1 3.3.2 4.5l11.4 10.5zM1573 683.6c.2 1 1.1 1.7 2.1 1.6 1-.2 1.7-1.1 1.6-2.1l-1.3-9c-.2-1-1.1-1.7-2.1-1.6-1 .2-1.7 1.1-1.6 2.1l1.3 9zm57.8 614.4c-.9-.4-2-.1-2.4.8l-3.8 7.8c-.4.9-.1 2 .8 2.4.9.4 2 .1 2.4-.8l3.8-7.8c.4-.8.1-1.9-.8-2.4zm10-335.9c-.9 2.2.1 4.7 2.3 5.6l19.1 8c2.2.9 4.7-.1 5.6-2.3.9-2.2-.1-4.7-2.3-5.6l-19.1-8c-2.2-.9-4.7.1-5.6 2.3zm-355.1 59.5c.3 1.2 1.6 2 2.8 1.7 1.2-.3 2-1.6 1.7-2.8l-2.7-10.9c-.3-1.2-1.6-2-2.8-1.7-1.2.3-2 1.6-1.7 2.8l2.7 10.9zm277.3 254.8l-26.4 4.6c-3 .5-5 3.4-4.5 6.4.5 3 3.4 5 6.4 4.5l26.4-4.6c3-.5 5-3.4 4.5-6.4-.5-3-3.4-5-6.4-4.5zm189.5 179c-1.3-3.4-5.1-5.1-8.5-3.8l-29.8 11.3c-3.4 1.3-5.1 5.1-3.8 8.5 1.3 3.4 5.1 5.1 8.5 3.8l29.8-11.3c3.3-1.3 5-5.1 3.8-8.5zm-695.3-728.9l28-.8c3.2-.1 5.7-2.7 5.6-5.9-.1-3.2-2.7-5.7-5.9-5.6l-28.1.8c-3.2.1-5.7 2.7-5.6 5.9.1 3.2 2.8 5.7 6 5.6zm563.5 191.2c2.2-.4 3.6-2.5 3.2-4.7l-3.6-19c-.4-2.2-2.5-3.6-4.7-3.2-2.2.4-3.6 2.5-3.2 4.7l3.6 19c.4 2.2 2.5 3.6 4.7 3.2zm-292.2 377a5.2 5.2 0 0 0-6.7-2.9l-23.4 9.4a5.2 5.2 0 0 0-2.9 6.7 5.2 5.2 0 0 0 6.7 2.9l23.4-9.4c2.7-1.1 4-4.1 2.9-6.7zm572.8-503.6l19.2 3.5c2.2.4 4.3-1 4.7-3.2.4-2.2-1-4.3-3.2-4.7l-19.2-3.5c-2.2-.4-4.3 1-4.7 3.2-.4 2.2 1 4.3 3.2 4.7zm-666.1 656.8l-23.7 23c-2.7 2.6-2.8 6.9-.2 9.6 2.6 2.7 6.9 2.8 9.6.2l23.7-23c2.7-2.6 2.8-6.9.2-9.6-2.7-2.7-7-2.8-9.6-.2zm328 139.8l-8.6-6.2c-1-.7-2.4-.5-3.1.5-.7 1-.5 2.4.5 3.1l8.7 6.2c1 .7 2.4.5 3.1-.5.6-1 .4-2.4-.6-3.1zM1120.9 1135l-12.6-7c-1.4-.8-3.2-.3-4 1.1s-.3 3.2 1.1 4l12.6 7c1.4.8 3.2.3 4-1.1.9-1.4.4-3.2-1.1-4zm612 445c-2.6-2.7-6.9-2.8-9.6-.2-2.7 2.6-2.8 6.9-.2 9.6l22.9 23.7c2.6 2.7 6.9 2.8 9.6.2 2.7-2.6 2.8-6.9.2-9.6l-22.9-23.7zm-156.8-615.1l-7.2 10.3c-.8 1.2-.5 2.8.7 3.6 1.2.8 2.8.5 3.6-.7l7.2-10.3c.8-1.2.5-2.8-.7-3.6-1.1-.8-2.7-.5-3.6.7zm-464.5 612c-.9-.7-2.2-.6-2.9.3-.7.9-.6 2.2.3 2.9l7.6 6.3c.9.7 2.2.6 2.9-.3.7-.9.6-2.2-.3-2.9l-7.6-6.3zm747.2-609c-1.3-.3-2.7.5-3 1.8l-2.9 11.5c-.3 1.3.5 2.7 1.8 3 1.3.3 2.7-.5 3-1.8l2.9-11.5c.3-1.4-.5-2.7-1.8-3zm-335.3 370.7c-1-.6-2.3-.2-2.8.8l-4.9 8.9c-.6 1-.2 2.3.8 2.8 1 .6 2.3.2 2.8-.8l4.9-8.9c.6-1 .2-2.3-.8-2.8zm-160.5 201c-3.6-.7-7.1 1.7-7.7 5.3l-5.8 31.8c-.7 3.6 1.7 7.1 5.3 7.7 3.6.7 7.1-1.7 7.7-5.3l5.8-31.8c.7-3.6-1.7-7-5.3-7.7zm539-369.4l-8.3 3c-1 .3-1.4 1.4-1.1 2.3.3 1 1.4 1.4 2.3 1.1l8.3-3c1-.3 1.4-1.4 1.1-2.3-.3-.9-1.4-1.4-2.3-1.1zm-898.6 230.3l-23.5 20.9c-2.7 2.4-2.9 6.4-.5 9.1 2.4 2.7 6.4 2.9 9.1.5l23.5-20.9c2.7-2.4 2.9-6.4.5-9.1-2.3-2.6-6.4-2.8-9.1-.5zm515.4-319.8c.3-2.9-1.8-5.6-4.7-5.9-2.9-.3-5.6 1.8-5.9 4.7l-2.8 25.8c-.3 2.9 1.8 5.6 4.7 5.9s5.6-1.8 5.9-4.7l2.8-25.8zm-526.7-250c1-1.3.7-3.1-.5-4.1l-11.1-8.6c-1.3-1-3.1-.8-4.1.5-1 1.3-.8 3.1.5 4.1l11.1 8.6c1.3 1 3.1.8 4.1-.5zm27.5 311.1c-3.3-1-6.8 1-7.8 4.3l-8.5 29.3c-1 3.3 1 6.8 4.3 7.8s6.8-1 7.8-4.3l8.5-29.3c1-3.3-1-6.8-4.3-7.8zm137.9 319.6l-10.3-3.6c-1.2-.4-2.5.2-2.9 1.4-.4 1.2.2 2.5 1.4 2.9l10.3 3.6c1.2.4 2.5-.2 2.9-1.4.4-1.2-.3-2.5-1.4-2.9zm49 156.7l-13.5-4.2c-1.5-.5-3.2.4-3.7 1.9s.4 3.2 1.9 3.7l13.5 4.2c1.5.5 3.2-.4 3.7-1.9.5-1.6-.4-3.2-1.9-3.7zm444-15.8l-6.3 7.2c-.7.8-.6 2.1.2 2.8.8.7 2.1.6 2.8-.2l6.3-7.2c.7-.8.6-2.1-.2-2.8-.9-.7-2.1-.6-2.8.2zM987 912.8l-3.5 9.1c-.4 1 .1 2.2 1.1 2.6 1 .4 2.2-.1 2.6-1.1l3.5-9.1c.4-1-.1-2.2-1.1-2.6-1.1-.5-2.2 0-2.6 1.1zm46.8-69.5l-.3 8.9c0 1 .8 1.9 1.8 1.9s1.9-.8 1.9-1.8l.3-8.9c0-1-.8-1.9-1.8-1.9s-1.9.8-1.9 1.8zM1740.9 700c1.4.6 3.1 0 3.7-1.5l5.5-12.6c.6-1.4 0-3.1-1.4-3.7s-3.1 0-3.7 1.5l-5.5 12.6c-.7 1.4-.1 3.1 1.4 3.7zm-7.3 349.9l14.9-4.4c1.7-.5 2.7-2.3 2.2-4-.5-1.7-2.3-2.7-4-2.2l-14.9 4.4c-1.7.5-2.7 2.3-2.2 4 .6 1.7 2.3 2.7 4 2.2zm-349.8-139.2l7.8 2.9c.9.3 1.9-.1 2.2-1 .3-.9-.1-1.9-1-2.2l-7.8-2.9c-.9-.3-1.9.1-2.2 1-.4.9.1 1.9 1 2.2zm-396.5 330c1.3-1.3 1.4-3.4.1-4.7l-11.1-11.6c-1.3-1.3-3.4-1.4-4.7-.1-1.3 1.3-1.4 3.4-.1 4.7l11.1 11.6c1.3 1.3 3.4 1.4 4.7.1zm936.3 366l-9.6 9.4c-1.1 1.1-1.1 2.8 0 3.9s2.8 1.1 3.9.1l9.6-9.4c1.1-1.1 1.1-2.8.1-3.9-1.2-1.2-2.9-1.2-4-.1zm-130.4-339.5l-10.2.4c-1.2.1-2.1 1-2 2.2 0 1.2 1 2.1 2.2 2l10.2-.4c1.2-.1 2.1-1 2-2.2 0-1.2-1-2.1-2.2-2zm-114.9 106.5l-10.3 4.8c-1.2.5-1.7 1.9-1.1 3.1.5 1.2 2 1.7 3.1 1.1l10.3-4.8c1.2-.5 1.7-1.9 1.1-3.1-.6-1.2-2-1.7-3.1-1.1zm-589-372.2c.9-2.5-.5-5.3-3-6.2l-22.4-7.8c-2.5-.9-5.3.5-6.2 3s.5 5.3 3 6.2l22.4 7.8c2.6.9 5.4-.5 6.2-3zm68.1-9.1c-1.4.1-2.4 1.4-2.3 2.8l1.2 12.3c.1 1.4 1.4 2.4 2.8 2.3 1.4-.1 2.4-1.4 2.3-2.8l-1.2-12.3c-.1-1.4-1.3-2.4-2.8-2.3zm431.3 402.4l-8.2-3.9c-.9-.4-2.1 0-2.5.9s-.1 2.1.9 2.5l8.2 3.9c.9.4 2.1 0 2.5-.9.4-.9 0-2-.9-2.5zm-326-546.3c-.5-2.5-3-4.1-5.5-3.6l-22.2 4.6c-2.5.5-4.1 3-3.6 5.5.5 2.5 3 4.1 5.5 3.6l22.2-4.6c2.5-.5 4.2-3 3.6-5.5zM983.2 1005c-2.8 1.8-3.7 5.5-1.9 8.4l15.6 25c1.8 2.8 5.5 3.7 8.4 1.9 2.8-1.8 3.7-5.5 1.9-8.4l-15.6-25c-1.8-2.8-5.5-3.7-8.4-1.9zm49.7 575.6c-3.5-.9-7 1.2-7.9 4.7l-7.7 30.6c-.9 3.5 1.2 7 4.7 7.9 3.5.9 7-1.2 7.9-4.7l7.7-30.6c.9-3.5-1.2-7-4.7-7.9zm255.6-486.4l-16.2 7c-1.8.8-2.7 2.9-1.9 4.8.8 1.8 2.9 2.7 4.8 1.9l16.2-7c1.8-.8 2.7-2.9 1.9-4.8-.8-1.8-3-2.7-4.8-1.9zm-264.1 253.1c.8 1.3 2.6 1.7 3.9.9 1.3-.8 1.7-2.6.9-3.9l-7.3-11.6c-.8-1.3-2.6-1.7-3.9-.9-1.3.8-1.7 2.6-.9 3.9l7.3 11.6zm239.5 57.4l12-12.7c1.4-1.4 1.3-3.7-.1-5.1-1.4-1.4-3.7-1.3-5.1.1l-12 12.7c-1.4 1.4-1.3 3.7.1 5.1s3.7 1.3 5.1-.1zm-56.6-310.6c.7 1.2 2.2 1.6 3.5.9 1.2-.7 1.6-2.2.9-3.4l-6.1-10.6c-.7-1.2-2.2-1.6-3.4-.9-1.2.7-1.6 2.2-.9 3.5l6 10.5zm-53.2-276.2c-.5 3 1.5 5.9 4.6 6.5l26.8 4.6c3 .5 5.9-1.5 6.5-4.6.5-3-1.5-5.9-4.6-6.5l-26.8-4.6c-3.1-.5-6 1.5-6.5 4.6zm740 67.5c.6-.8.5-1.9-.3-2.5l-6.7-5.5c-.8-.6-1.9-.5-2.5.3-.6.8-.5 1.9.3 2.5l6.7 5.5c.8.5 1.9.4 2.5-.3zm-914.8 681.8c-.4-1.3-1.8-2-3-1.6-1.3.4-2 1.7-1.6 3l3.4 11.3c.4 1.3 1.8 2 3 1.6 1.3-.4 2-1.8 1.6-3l-3.4-11.3zm757.8-386.5c-1.1.5-1.5 1.8-1 2.9l4.7 9.5c.5 1.1 1.8 1.5 2.9 1 1.1-.5 1.5-1.8 1-2.9l-4.7-9.5c-.5-1.1-1.8-1.6-2.9-1zm-512.7-258.5c2.2 2.2 5.8 2.2 8.1 0 2.2-2.2 2.2-5.8 0-8.1l-19.5-19.6c-2.2-2.2-5.8-2.2-8.1 0-2.2 2.2-2.2 5.8 0 8.1l19.5 19.6zm390.6-75.7c2.4-.7 3.8-3.3 3.1-5.7l-6.4-21.4c-.7-2.4-3.3-3.8-5.7-3.1-2.4.7-3.8 3.3-3.1 5.7l6.4 21.4c.7 2.4 3.2 3.8 5.7 3.1zm-579.5 395.7l-11.3 4.2c-1.3.5-1.9 1.9-1.5 3.2.5 1.3 1.9 1.9 3.2 1.5l11.3-4.2c1.3-.5 1.9-1.9 1.5-3.2-.5-1.3-1.9-2-3.2-1.5zm762.6-263.1c2.3-2.4 2.2-6.1-.1-8.4-2.4-2.3-6.1-2.2-8.4.1l-20.2 20.9c-2.3 2.4-2.2 6.1.1 8.4 2.4 2.3 6.1 2.2 8.4-.1l20.2-20.9zm-410.4 240.3l-13.4 9.1c-1.5 1-1.9 3.1-.9 4.7 1 1.5 3.1 1.9 4.7.9l13.4-9.1c1.5-1 1.9-3.1.9-4.7-1-1.6-3.1-2-4.7-.9zm453.2 99.6c-2.2-.5-4.5.9-5 3.1l-4.6 19.8c-.5 2.3.9 4.5 3.1 5s4.5-.9 5-3.1l4.6-19.8c.5-2.2-.9-4.5-3.1-5zm-54.4 65.8c-3.1-.6-6.2 1.4-6.8 4.6l-5.4 27.7c-.6 3.1 1.4 6.2 4.6 6.8 3.1.6 6.2-1.4 6.8-4.6l5.4-27.7c.6-3.2-1.5-6.2-4.6-6.8zM1234 776.3c.8.8 2 .7 2.8 0 .8-.8.7-2 0-2.8l-6.9-6.7c-.8-.8-2-.7-2.8 0-.8.8-.7 2 0 2.8l6.9 6.7zm3.3 454.2c-.1-2.7-2.4-4.9-5.2-4.7l-24.1 1c-2.7.1-4.9 2.4-4.7 5.2.1 2.7 2.4 4.9 5.2 4.7l24.1-1c2.7-.1 4.9-2.4 4.7-5.2zm-241.8 261c-2.3.2-4.1 2.2-3.9 4.6l1.7 20.5c.2 2.3 2.2 4 4.6 3.9 2.3-.2 4.1-2.2 3.9-4.6l-1.7-20.5c-.2-2.4-2.3-4.1-4.6-3.9zm773.3 38c-1.5.1-2.6 1.3-2.5 2.7l.5 12.8c.1 1.5 1.3 2.6 2.7 2.5 1.5-.1 2.6-1.3 2.5-2.7l-.5-12.8c0-1.4-1.2-2.5-2.7-2.5zm-735-850.2l12.8-5.4c1.5-.6 2.1-2.3 1.5-3.7-.6-1.5-2.3-2.1-3.7-1.5l-12.8 5.4c-1.5.6-2.1 2.3-1.5 3.7.5 1.5 2.2 2.2 3.7 1.5zm888.9 293.1l-9-1.5c-1-.2-2 .5-2.2 1.5-.2 1 .5 2 1.5 2.2l9 1.5c1 .2 2-.5 2.2-1.5.2-1.1-.5-2.1-1.5-2.2zm-95.1 211.8c-1.2-2.5-4.2-3.6-6.7-2.4l-22.2 10.3c-2.5 1.2-3.6 4.2-2.4 6.7s4.2 3.6 6.7 2.4l22.3-10.3c2.3-1.2 3.4-4.2 2.3-6.7zm-581.9 111.4l-15 .6c-1.7.1-3 1.5-3 3.2.1 1.7 1.5 3 3.2 3l15-.6c1.7-.1 3-1.5 3-3.2 0-1.7-1.5-3-3.2-3zm648.8-236c.7 1.3 2.3 1.8 3.6 1.1l11.4-6c1.3-.7 1.8-2.3 1.1-3.6-.7-1.3-2.3-1.8-3.6-1.1l-11.4 6c-1.3.7-1.8 2.3-1.1 3.6zm-250.6 388.9c-.6.9-.5 2.1.4 2.7l7.5 5.6c.9.6 2.1.5 2.7-.4.6-.9.5-2.1-.4-2.7l-7.5-5.6c-.8-.6-2-.5-2.7.4zm59.9-158.3c-2.8.1-5 2.4-4.9 5.1l.5 24.4c.1 2.8 2.4 5 5.1 4.9 2.8-.1 5-2.4 4.9-5.1l-.5-24.4c0-2.6-2.3-4.9-5.1-4.9zm-254.5-604.4c.2 1 1.2 1.6 2.2 1.4s1.6-1.2 1.4-2.2l-2-8.6c-.2-1-1.2-1.6-2.2-1.4-1 .2-1.6 1.2-1.4 2.2l2 8.6zm190.3 28.6c2.8 1.8 6.5.9 8.3-1.8l15.6-24.6c1.8-2.8.9-6.5-1.9-8.3s-6.5-.9-8.3 1.8l-15.5 24.6c-1.9 2.8-1.1 6.5 1.8 8.3zm-32.8 403l-7.8 4.2c-.9.5-1.2 1.6-.7 2.5.5.9 1.6 1.2 2.5.7l7.8-4.2c.9-.5 1.2-1.6.7-2.5-.6-.8-1.7-1.1-2.5-.7zM1445.4 900l20.9-2.8c2.4-.3 4-2.5 3.7-4.9-.3-2.4-2.5-4-4.9-3.7l-20.9 2.8c-2.4.3-4 2.5-3.7 4.9.3 2.3 2.5 4 4.9 3.7zm135.5 155.5c-1.4-.9-3.2-.6-4.1.8l-8 11.9c-.9 1.4-.6 3.2.8 4.1 1.4.9 3.2.6 4.1-.8l8-11.9c.9-1.4.5-3.2-.8-4.1zm-121.7-14.1c-2-1.3-4.7-.7-6 1.3l-11.4 17.7c-1.3 2-.7 4.7 1.3 6 2 1.3 4.7.7 6-1.3l11.4-17.7c1.3-2 .7-4.7-1.3-6zm-198.1 540.9c-.5-1-1.7-1.4-2.7-.9-1 .5-1.4 1.7-.9 2.7l4.3 8.6c.5 1 1.7 1.4 2.7.9 1-.5 1.4-1.7.9-2.7l-4.3-8.6zm436.6-357.7c-1.7-.8-3.8-.1-4.6 1.6l-7.3 14.9c-.8 1.7-.1 3.8 1.6 4.6 1.7.8 3.8.1 4.6-1.6l7.3-14.9c.8-1.8.1-3.8-1.6-4.6zm-218.1 339.7l-24.4 20.1c-2.8 2.3-3.2 6.4-.9 9.1 2.3 2.8 6.4 3.2 9.1.9l24.4-20.1c2.8-2.3 3.2-6.4.9-9.1-2.3-2.8-6.4-3.2-9.1-.9zm-416.5-491.8c-1.5 0-2.7 1.1-2.7 2.6s1.1 2.7 2.6 2.7l12.8.4c1.5 0 2.7-1.1 2.7-2.6s-1.1-2.7-2.6-2.7l-12.8-.4zm785.7 54.8l-.8-25.8c-.1-2.9-2.5-5.2-5.5-5.1-2.9.1-5.2 2.5-5.1 5.5l.8 25.8c.1 2.9 2.5 5.2 5.5 5.1 2.9-.1 5.2-2.5 5.1-5.5zm-742.9 60c-.6-3.6-4.1-6-7.7-5.4l-31.9 5.6c-3.6.6-6 4.1-5.4 7.7.6 3.6 4.1 6 7.7 5.4l31.9-5.5c3.7-.7 6.1-4.1 5.4-7.8zm194.7-289.5c-.4.9-.1 1.9.8 2.4.9.4 1.9.1 2.4-.8l3.9-7.6c.4-.9.1-1.9-.8-2.4-.9-.4-1.9-.1-2.4.8l-3.9 7.6zm-183.3 481c-1.1-1.1-2.9-1.1-4 .1l-9.6 9.8c-1.1 1.1-1.1 2.9.1 4 1.1 1.1 2.9 1.1 4-.1l9.6-9.8c1-1.2 1-2.9-.1-4zM977.7 691.7c2.1.4 4-1 4.4-3l3.3-18c.4-2.1-1-4-3-4.4-2.1-.4-4 1-4.4 3l-3.3 18c-.4 2 .9 4 3 4.4zm86.6 830.6c-.7-1-2.1-1.2-3.1-.4-1 .7-1.2 2.1-.4 3.1l6.4 8.5c.7 1 2.1 1.2 3.1.4 1-.7 1.2-2.1.4-3.1l-6.4-8.5zm622.1-408.8c-1.7-2.2-4.9-2.6-7.1-.9l-19.5 14.9c-2.2 1.7-2.6 4.9-.9 7.1 1.7 2.2 4.9 2.6 7.1.9l19.4-14.9c2.3-1.7 2.7-4.9 1-7.1zm-350.1 491.4l-19.6 9.8c-2.2 1.1-3.1 3.8-2 6.1 1.1 2.2 3.8 3.1 6.1 2l19.6-9.8c2.2-1.1 3.1-3.8 2-6.1-1.1-2.2-3.9-3.1-6.1-2zM1281 1521l-8.8-1c-1-.1-1.9.6-2 1.6s.6 1.9 1.6 2l8.8 1c1 .1 1.9-.6 2-1.6.3-1-.5-1.9-1.6-2zm621.4-136.4c-.6-1.1-2-1.5-3.1-1l-9.8 5.1c-1.1.6-1.5 2-1 3.1.6 1.1 2 1.5 3.1 1l9.8-5.1c1.2-.6 1.6-2 1-3.1zm-349 93.3c-.9-.4-1.9 0-2.3.9l-3.6 7.7c-.4.9 0 1.9.9 2.3s1.9 0 2.3-.9l3.6-7.7c.4-.8 0-1.8-.9-2.3zm101.5 49l-14.9.1c-1.7 0-3.1 1.4-3.1 3.1s1.4 3.1 3.1 3.1l14.9-.1c1.7 0 3.1-1.4 3.1-3.1 0-1.7-1.4-3.1-3.1-3.1zm271.1-285c1.1 0 1.9-.9 1.9-2l-.3-9.3c0-1.1-.9-1.9-2-1.9s-1.9.9-1.9 2l.3 9.3c0 1.1.9 1.9 2 1.9zM1069.6 1456l-13.9-2.5c-1.6-.3-3.1.8-3.4 2.4s.8 3.1 2.4 3.4l13.9 2.5c1.6.3 3.1-.8 3.4-2.4.2-1.6-.8-3.1-2.4-3.4zm860.4-352.2c-1.9-1.6-4.6-1.3-6.2.6l-13.6 16.4c-1.6 1.9-1.3 4.6.6 6.2 1.9 1.6 4.7 1.3 6.2-.6l13.6-16.4c1.6-1.9 1.3-4.7-.6-6.2zm-79 430.2c-.4-1.7-2-2.7-3.7-2.3l-14.6 3.2c-1.7.4-2.7 2-2.3 3.7s2 2.7 3.7 2.3l14.5-3.2c1.7-.4 2.8-2.1 2.4-3.7zm-363.1-146.1l-28.2 6.3c-3.2.7-5.2 3.9-4.5 7.1.7 3.2 3.9 5.2 7.1 4.5l28.2-6.3c3.2-.7 5.2-3.9 4.5-7.1-.8-3.2-3.9-5.2-7.1-4.5zm109.7-152.4l-9.1 2.8c-1 .3-1.6 1.4-1.3 2.5.3 1 1.4 1.6 2.5 1.3l9.1-2.8c1-.3 1.6-1.4 1.3-2.5-.3-1.1-1.4-1.6-2.5-1.3zm-108.7-462.3c.4 1.3 1.8 2.1 3.1 1.7 1.3-.4 2.1-1.8 1.7-3.1l-3.4-11.7c-.4-1.3-1.8-2.1-3.1-1.7-1.3.4-2.1 1.8-1.7 3.1l3.4 11.7zm-30.5 404.5c1 2.6 3.9 4 6.5 3l23.1-8.3c2.6-1 4-3.9 3-6.5s-3.9-4-6.5-3l-23.1 8.3c-2.6.9-4 3.9-3 6.5zm-99.8-474.9l18.9-21.6c2.2-2.4 1.9-6.2-.5-8.3-2.5-2.2-6.2-1.9-8.3.5l-18.9 21.6c-2.2 2.4-1.9 6.2.5 8.3 2.4 2.2 6.2 2 8.3-.5zm65.7 906.6l-9-.2c-1 0-1.9.8-1.9 1.8s.8 1.9 1.8 1.9l9 .2c1 0 1.9-.8 1.9-1.8.1-1.1-.8-1.9-1.8-1.9zm-31.1-120.4l-23.4 5.3c-2.7.6-4.3 3.3-3.7 5.9.6 2.7 3.3 4.3 5.9 3.7l23.4-5.3c2.7-.6 4.3-3.3 3.7-5.9-.6-2.6-3.3-4.3-5.9-3.7zm-391.5-391.3l-5.8 7.9c-.7.9-.5 2.2.4 2.8.9.7 2.2.5 2.8-.4l5.8-7.9c.7-.9.5-2.2-.4-2.8-.9-.7-2.2-.5-2.8.4zm258.2-405c.5 1 1.7 1.3 2.7.8 1-.5 1.3-1.7.8-2.7l-4.6-8.4c-.5-1-1.7-1.3-2.7-.8-1 .5-1.3 1.7-.8 2.7l4.6 8.4zm114.6 117.7c-3.7-.3-7 2.5-7.3 6.2l-2.7 32.8c-.3 3.7 2.5 7 6.2 7.3s7-2.5 7.3-6.2l2.7-32.8c.2-3.7-2.5-7-6.2-7.3zm135-90.9l24.4-19.1c2.8-2.2 3.2-6.2 1.1-9-2.2-2.8-6.2-3.2-9-1.1l-24.4 19.1c-2.8 2.2-3.2 6.2-1.1 9 2.3 2.8 6.3 3.3 9 1.1zm-455.4 210.8c1.1-.5 1.6-1.9 1-3l-4.7-9.7c-.5-1.1-1.9-1.6-3-1-1.1.5-1.6 1.9-1 3l4.7 9.7c.6 1.1 1.9 1.5 3 1zm359.3 374c-2.5-1.1-5.4.1-6.4 2.6l-9.3 21.9c-1.1 2.5.1 5.4 2.6 6.4 2.5 1.1 5.4-.1 6.4-2.6l9.3-21.9c1.1-2.5-.1-5.4-2.6-6.4zM1302 824.7c1 .1 1.9-.6 2-1.6l.9-8.8c.1-1-.6-1.9-1.6-2-1-.1-1.9.6-2 1.6l-.9 8.8c-.2 1 .6 1.9 1.6 2zm169.2 425.4c-2-2.5-5.6-3-8.1-1s-3 5.6-1 8.1l17.3 22.2c2 2.5 5.6 3 8.2 1 2.5-2 3-5.6 1-8.1l-17.4-22.2zm452 224.1c.6-2.3-.8-4.5-3.1-5.1l-19.9-4.9c-2.3-.6-4.5.8-5.1 3.1-.6 2.3.8 4.5 3.1 5.1l19.9 4.9c2.3.5 4.6-.9 5.1-3.1zm-732.3-291.6c1.5-2 1.2-4.9-.9-6.5l-17.7-13.6c-2-1.5-4.9-1.2-6.5.9-1.5 2-1.2 4.9.9 6.5l17.8 13.6c2 1.5 4.9 1.1 6.4-.9zm163.5-24.5c.3 1 1.4 1.5 2.4 1.2s1.5-1.4 1.2-2.4l-2.9-8.6c-.3-1-1.4-1.5-2.4-1.2-1 .3-1.5 1.4-1.2 2.4l2.9 8.6zm293.2-118.7l-5.3-6.9c-.6-.8-1.7-.9-2.5-.3-.8.6-.9 1.7-.3 2.5l5.3 6.9c.6.8 1.7.9 2.5.3.8-.6.9-1.7.3-2.5zm-497.2-316.3c3 2 7.1 1.2 9-1.8l17.4-26.5c2-3 1.2-7.1-1.8-9-3-2-7.1-1.2-9 1.8l-17.5 26.4c-2 3-1.1 7.1 1.9 9.1zm363.4 219.6c.2-1.1-.5-2.2-1.6-2.5l-9.9-2.1c-1.1-.2-2.2.5-2.5 1.6-.2 1.1.5 2.2 1.6 2.5l9.9 2.1c1.1.3 2.3-.4 2.5-1.6zm-330.4 397.6c-2.6.8-4.1 3.5-3.3 6.2l6.9 23.1c.8 2.6 3.5 4.1 6.2 3.3 2.6-.8 4.1-3.5 3.3-6.2l-6.9-23.1c-.9-2.6-3.6-4.1-6.2-3.3zm684.4 252.1l-25.3 7.6c-2.9.9-4.5 3.9-3.6 6.8.9 2.9 3.9 4.5 6.8 3.6l25.3-7.6c2.9-.9 4.5-3.9 3.6-6.8-.8-2.8-3.9-4.5-6.8-3.6zm-165.3-648.5c-1.9 3-1 6.9 1.9 8.8l26.1 16.6c3 1.9 6.9 1 8.8-1.9 1.9-3 1-6.9-1.9-8.8l-26.1-16.6c-2.9-2-6.9-1.1-8.8 1.9zm-56.7 251.2c1.1-2.1.4-4.6-1.7-5.8l-18-9.9c-2.1-1.1-4.6-.4-5.8 1.7-1.1 2.1-.4 4.6 1.7 5.8l18 9.9c2.1 1.1 4.6.4 5.8-1.7zM1355.1 1069c1.2-.3 1.9-1.6 1.6-2.8l-2.9-10.5c-.3-1.2-1.6-1.9-2.8-1.6-1.2.3-1.9 1.6-1.6 2.8l2.9 10.5c.4 1.2 1.6 1.9 2.8 1.6zm-27.8 410.8c2.7-1 4.1-4 3.1-6.7l-8.8-23.9c-1-2.7-4-4.1-6.7-3.1-2.7 1-4.1 4-3.1 6.7l8.8 23.9c1 2.8 4 4.2 6.7 3.1zm23-93.9l11.8 6.6c1.3.8 3 .3 3.8-1.1.8-1.3.3-3-1.1-3.8l-11.8-6.6c-1.3-.8-3.1-.3-3.8 1.1-.7 1.3-.2 3 1.1 3.8zm-117.2-410.7l-7.1 8.3c-.8.9-.7 2.4.2 3.2.9.8 2.4.7 3.2-.2l7.1-8.3c.8-.9.7-2.4-.2-3.2-1-.8-2.4-.7-3.2.2zm458.7-87.3l11.8-7.6c1.3-.9 1.7-2.7.9-4-.9-1.3-2.7-1.7-4-.9l-11.8 7.6c-1.3.9-1.7 2.7-.9 4 .9 1.4 2.7 1.8 4 .9zm76 460.5l-4.6-21.4c-.5-2.4-2.9-4-5.4-3.5-2.4.5-4 2.9-3.5 5.4l4.6 21.4c.5 2.4 2.9 4 5.4 3.5 2.5-.6 4-3 3.5-5.4zm80.5 108.9c-.9-2.5-3.7-3.9-6.2-3l-22.3 7.9c-2.5.9-3.9 3.7-2.9 6.2.9 2.5 3.7 3.9 6.2 2.9l22.3-7.9c2.5-.7 3.8-3.5 2.9-6.1zm29.9-218l-16.8-2.9c-1.9-.3-3.7 1-4.1 2.9-.3 1.9 1 3.7 2.9 4.1l16.8 2.9c1.9.3 3.7-1 4.1-2.9.3-2-1-3.8-2.9-4.1zm-316.9-462.9c2 1.3 4.7.7 6-1.4l11.2-17.8c1.3-2 .7-4.7-1.4-6-2-1.3-4.7-.7-6 1.4l-11.2 17.8c-1.3 2.1-.7 4.8 1.4 6zm-92 68.9c2.5.5 4.9-1.1 5.4-3.6l4.3-21.7c.5-2.5-1.1-4.9-3.6-5.4s-4.9 1.1-5.4 3.6l-4.3 21.7c-.5 2.5 1.1 4.9 3.6 5.4zm444.4 705.2c1-.2 1.6-1.2 1.3-2.2l-2.2-8.5c-.2-1-1.2-1.6-2.2-1.3-1 .2-1.6 1.2-1.3 2.2l2.2 8.5c.1.9 1.1 1.5 2.2 1.3zm-134-638.4l29.4-4.1c3.3-.5 5.7-3.6 5.2-6.9-.5-3.3-3.6-5.7-6.9-5.2L1778 900c-3.3.5-5.7 3.6-5.2 6.9.5 3.3 3.6 5.6 6.9 5.2zm88.9-211.7l18.1-14.4c2.1-1.6 2.4-4.6.8-6.7-1.6-2.1-4.6-2.4-6.7-.7l-18.2 14.4c-2.1 1.6-2.4 4.6-.7 6.7 1.6 2 4.6 2.4 6.7.7zm-714.7 569c.5-1 .1-2.2-.9-2.8l-8.8-4.5c-1-.5-2.2-.1-2.8.9-.5 1-.1 2.2.9 2.8l8.8 4.5c1.1.5 2.3.1 2.8-.9zm388.7-385.8l14-11.6c1.6-1.3 1.8-3.7.5-5.3s-3.7-1.8-5.3-.5l-14 11.6c-1.6 1.3-1.8 3.7-.5 5.3 1.4 1.6 3.7 1.9 5.3.5zm-479.3-92.7l17.8-1.8c2-.2 3.5-2 3.3-4.1-.2-2-2-3.5-4.1-3.3l-17.8 1.8c-2 .2-3.5 2-3.3 4.1.3 2 2.1 3.5 4.1 3.3zm839 516.8c.5.9 1.7 1.2 2.7.7l8.1-4.7c.9-.5 1.2-1.7.7-2.7-.5-.9-1.7-1.2-2.7-.7l-8.1 4.7c-1 .6-1.3 1.8-.7 2.7zm-461.6 122.2c-3.2-.6-6.3 1.6-6.9 4.8l-5.1 28.4c-.6 3.2 1.6 6.3 4.8 6.9 3.2.6 6.3-1.6 6.9-4.8l5.1-28.4c.5-3.2-1.6-6.3-4.8-6.9zM983.4 752.6c1.7 1.3 4 1 5.3-.7l11.2-14.6c1.3-1.7 1-4-.7-5.3-1.7-1.3-4-1-5.3.7l-11.2 14.6c-1.3 1.7-1 4 .7 5.3zm344.7 205.7l7.9 5.8c.9.7 2.2.5 2.8-.4.7-.9.5-2.2-.4-2.8l-7.9-5.8c-.9-.7-2.2-.5-2.8.4-.7.9-.5 2.2.4 2.8z"/></svg>