<svg id="Layer_1" xmlns="http://www.w3.org/2000/svg" viewBox="0 0 157.3 85.4"><style>.st0{fill:#fff}</style><path class="st0" d="M31.4 34.7c.5 1.3.9 3.5.6 1.8-.1-.7-.3-1.3-.4-2C25.9 9.7 8.2 8.3 8.2 8.3c7.1 4.7 7.1 12.4 4.2 24.5s5 15.7 5 15.7c-4.8 9.1-1 16.5-1 16.5-1.5-10.1 2.7-16.4 2.7-16.4-9-6.9-2.3-16.3-1.7-24.7.6-8.4-2.2-11-2.2-11 8.9 5.4 14.3 17.1 16.2 21.8zm2.9-11.4s0 9.3 4.6 11.7c0 0-4.3-7.8-1.5-16.3 0 0-6.1 1.2-6.4 9.4 0-.1 1.4-3.5 3.3-4.8zm4.9 53.1c-13.8.5-11.9-14.3-11.9-14.3 1.7-16 9.8-20.8 9.8-20.8 6.1-2.3 9.8 3.7 9.8 3.7 4.1 3.1 5.7 13.5 5.7 13.5s.8-1.1.8-2.2-.9-8-.9-10.4c.1-2.4 2.3-8.5 2.3-8.5 1.2-7-5-8.4-5-8.4-8.2-.1-9.3 6.2-9.3 6.2.1.6.8-.7.8-.7 2.7-4.2 7-4 7-4 4.3.7 3.8 5.1 3.4 8-.4 3-.2 9-.2 9-6.3-9-13.7-7.8-13.7-7.8-12.5 2-14.3 20.5-14.3 20.5-2.3 15 11.4 17.5 11.4 17.5 13 3.5 20.8-7.8 20.8-7.8l-.3-1c-8.2 8.1-16.2 7.5-16.2 7.5zm10.4-38.7c0-1-.4-1.8-.9-1.8s-.9.8-.9 1.8.4 1.8.9 1.8c.6 0 .9-.8.9-1.8zm17 13.7l-.6-.5c-.4.4-.8.7-1.2.9-.5.2-1 .3-1.5.3-.6 0-1.1-.2-1.5-.5s-.7-.8-.9-1.4c-.2-.6-.2-1.2-.1-1.8v-.2h6.6l.1-.6c.1-.8 0-1.5-.2-2.2s-.6-1.2-1.1-1.6c-.5-.4-1.1-.6-1.8-.6-.8 0-1.5.2-2.2.6-.7.4-1.2 1-1.7 1.8-.4.8-.7 1.6-.8 2.5v.3c-.1.8 0 1.6.3 2.3s.7 1.3 1.2 1.7c.6.4 1.2.6 2 .6.7 0 1.3-.1 1.9-.4.6-.2 1.1-.7 1.5-1.2zm-4.4-6.5c.6-.6 1.3-.8 2-.8s1.3.3 1.7.9c.4.6.5 1.3.4 2.1v.1h-5.5c.4-.9.8-1.7 1.4-2.3zm9.5 8l4.9-9.5h-1.1l-4.1 8-1.6-8h-1l2 9.5h.9zm11.2-.3c.6-.3 1.1-.7 1.5-1.3l-.6-.5c-.4.4-.8.7-1.2.9-.5.2-1 .3-1.5.3-.6 0-1.1-.2-1.5-.5s-.7-.8-.9-1.4c-.2-.6-.2-1.2-.1-1.8v-.2h6.6l.1-.6c.1-.8 0-1.5-.2-2.2s-.6-1.2-1.1-1.6c-.5-.4-1.1-.6-1.8-.6-.8 0-1.5.2-2.2.6-.7.4-1.2 1-1.7 1.8-.4.8-.7 1.6-.8 2.5v.3c-.1.8 0 1.6.3 2.3s.7 1.3 1.2 1.7c.6.4 1.2.6 2 .6.7.2 1.3 0 1.9-.3zM80 44.9c.6-.6 1.3-.8 2-.8s1.3.3 1.7.9c.4.6.5 1.3.4 2.1v.1h-5.5c.4-.9.8-1.7 1.4-2.3zm11.8-1.7c-.6 0-1.2.1-1.8.5-.6.3-1 .8-1.5 1.3l.3-1.6h-1l-1.7 9.5h1l1.1-6.5c.4-.8.9-1.3 1.4-1.7s1.1-.6 1.7-.5c1 0 1.6.6 1.7 1.6v1L92 53h1l1-6.2c.1-1.1 0-1.9-.4-2.5-.3-.8-.9-1.1-1.8-1.1zm7.5 1h1.9l.1-.9h-1.9l.4-2.4h-1l-.4 2.4h-1.7l-.2.9h1.7l-1 6.3c-.1.8 0 1.4.3 1.8.3.4.7.6 1.3.6.4 0 .7 0 1.1-.1v-.9c-.4 0-.7.1-.9.1-.6 0-.9-.3-.9-1v-.5l1.2-6.3z"/></svg>