<?xml version="1.0" encoding="utf-8"?>
<!-- Generator: Adobe Illustrator 21.0.0, SVG Export Plug-In . SVG Version: 6.00 Build 0)  -->
<svg version="1.1" id="Layer_1" xmlns="http://www.w3.org/2000/svg" xmlns:xlink="http://www.w3.org/1999/xlink" x="0px" y="0px"
	 viewBox="0 0 1920 1320" style="enable-background:new 0 0 1920 1320;" xml:space="preserve">
<style type="text/css">
	.st0{fill:#6C1491;}
</style>
<g>
	<g>
		<path class="st0" d="M1346.5,145.5l1.2,9.5c7.2-1,14.4,1,20,5.4c5.8,4.4,9.5,10.9,10.4,18c0.9,7.2-1,14.4-5.4,20
			c-4.4,5.8-10.9,9.5-18,10.4l1.2,9.5c9.8-1.3,18.3-6.3,24.4-14.1c6-7.8,8.6-17.4,7.3-27.1c-1.3-9.8-6.3-18.3-14.1-24.4
			C1365.9,146.8,1356.2,144.2,1346.5,145.5z M482.2,1158.3c10.4,18.6,3.7,42.3-15,52.6c-9.1,5.1-19.5,6.3-29.4,3.4
			c-10-2.8-18.2-9.4-23.2-18.4l-12,6.7c6.8,12.3,17.9,21,31.4,24.9c4.8,1.4,9.6,2,14.4,2c8.8,0,17.5-2.3,25.4-6.7
			c25.2-14.1,34.3-46.1,20.2-71.3L482.2,1158.3z M1660.1,835c-19.7,21.8-18.1,55.6,3.6,75.4l9.4-10.3c-16.1-14.7-17.3-39.7-2.7-55.7
			c14.7-16.1,39.7-17.3,55.7-2.7l9.4-10.3C1713.6,811.6,1679.8,813.3,1660.1,835z M506.2-233.2c-4.2-3.7-6.7-8.8-7-14.4
			c-0.3-5.6,1.5-11,5.2-15.2s8.8-6.7,14.4-7l-0.4-7.4c-7.6,0.5-14.5,3.8-19.4,9.5c-5,5.7-7.5,13-7.1,20.4c0.5,7.6,3.8,14.5,9.5,19.4
			c5.2,4.6,11.8,7.1,18.7,7.1c0.6,0,1.2,0,1.7,0l-0.4-7.4C515.8-227.6,510.4-229.5,506.2-233.2z M1910.1,678.1
			c-12.4-16.8-36.1-20.6-52.9-8.3l5.8,8c12.5-9.1,30-6.4,39.2,6.1c4.4,6.1,6.2,13.5,5.1,20.8c-1.2,7.4-5.1,13.9-11.2,18.3l5.8,8
			c8.2-6,13.6-14.8,15.1-24.7C1918.5,696.4,1916.1,686.3,1910.1,678.1z M1027.9,831.4l8.1,12.6c19.5-12.6,45.8-6.9,58.3,12.7
			c12.6,19.5,6.9,45.8-12.7,58.3l8.1,12.6c26.5-17,34.2-52.4,17.1-78.9C1089.8,822.1,1054.4,814.4,1027.9,831.4z M51.4-156.7
			l-6.4,4.1c6.3,10.1,3.3,23.3-6.8,29.7c-4.9,3.1-10.7,4.1-16.2,2.8c-5.6-1.3-10.4-4.7-13.5-9.5l-6.4,4.1
			c5.5,8.8,15.1,13.6,24.7,13.6c5.3,0,10.7-1.4,15.5-4.5C55.9-125.1,60-143.1,51.4-156.7z M1840.8,6.2c12.1-9.7,29.7-7.7,39.3,4.4
			l7.7-6.2c-13.1-16.2-36.9-18.9-53.1-5.9c-7.9,6.3-12.9,15.4-14,25.3c-1.1,10.1,1.7,19.9,8.1,27.8l7.7-6.2
			c-4.7-5.8-6.8-13.2-6-20.5C1831.3,17.5,1835,10.9,1840.8,6.2z M829.1,800.4c-15.8,1.5-30.2,9.2-40.4,21.4
			c-20.9,25.3-17.3,63.1,8.1,84l9.9-12c-18.7-15.5-21.4-43.4-6-62.1c7.5-9.1,18-14.8,29.8-15.8c11.8-1.1,23.2,2.4,32.3,9.9l9.9-12
			C860.5,803.5,845,798.9,829.1,800.4z M1621-178.8c5,0,10-1.1,14.7-3.5c16-8.1,22.4-27.7,14.4-43.7c-5.7-11.3-17.1-17.8-29-17.8
			c-5,0-10,1.1-14.7,3.5c-16,8.1-22.4,27.7-14.4,43.7C1597.7-185.3,1609.1-178.8,1621-178.8z M1610.8-231.4
			c3.2-1.6,6.6-2.4,10.2-2.4c8.6,0,16.2,4.7,20.1,12.4c2.7,5.4,3.2,11.5,1.3,17.1c-1.9,5.7-5.9,10.4-11.2,13.1
			c-3.2,1.6-6.6,2.4-10.2,2.4c-8.6,0-16.2-4.7-20-12.4C1595.3-212.2,1599.8-225.8,1610.8-231.4z M335.7,441.6
			c0.9,0.1,1.9,0.2,2.8,0.2c13.2,0,24.5-10,25.9-23.4c1.5-14.4-8.9-27.2-23.2-28.7c-0.9-0.1-1.9-0.2-2.8-0.2
			c-13.2,0-24.5,10-25.9,23.4C311,427.2,321.3,440.1,335.7,441.6z M320.5,413.8c1-9.3,8.7-16.1,17.9-16.1c0.6,0,1.3,0,1.9,0.1
			c4.8,0.5,9.1,2.9,12.2,6.6c3,3.8,4.4,8.5,3.9,13.3c-1,9.3-8.7,16.1-17.9,16.1c-0.6,0-1.3,0-1.9-0.1
			C326.6,432.6,319.4,423.7,320.5,413.8z M1767.3,252.2c-2.5,0-5.1,0.4-7.7,1.1c-14.6,4.2-22.8,19.3-18.6,33.9
			c3.5,12,14.4,19.7,26.2,19.7c2.5,0,5.1-0.4,7.7-1.1c14.5-4.2,22.8-19.3,18.6-33.9C1790.1,260,1779.2,252.2,1767.3,252.2z
			 M1772.6,297.7c-1.7,0.5-3.5,0.8-5.3,0.8c-8.4,0-15.8-5.6-18.1-13.7c-2.9-10,2.9-20.5,12.9-23.4c1.7-0.5,3.5-0.8,5.3-0.8
			c8.4,0,15.8,5.6,18.1,13.7C1788.4,284.3,1782.6,294.8,1772.6,297.7z M801.1-188c5.5,2.5,11.3,3.7,16.9,3.7
			c15.6,0,30.4-8.9,37.3-24c9.4-20.5,0.3-44.9-20.3-54.2c-5.5-2.5-11.3-3.7-16.9-3.7c-15.6,0-30.4,8.9-37.3,24
			C771.4-221.6,780.6-197.4,801.1-188z M792.3-237c4.6-10.1,14.8-16.6,25.8-16.6c4.1,0,8,0.9,11.7,2.6c6.9,3.1,12.2,8.8,14.8,15.8
			c2.7,7.1,2.4,14.8-0.7,21.6c-4.6,10.1-14.8,16.6-25.8,16.6c-4.1,0-8-0.9-11.7-2.6C792.1-206,785.9-222.8,792.3-237z M1366.6,594.2
			c-1.7-0.3-3.5-0.4-5.2-0.4c-14.4,0-27,10.4-29.6,24.9c-2.8,16.3,8.2,31.9,24.5,34.8c1.7,0.3,3.5,0.4,5.2,0.4
			c14.4,0,27-10.3,29.6-24.9C1394,612.6,1383,597,1366.6,594.2z M1382,627.3c-1.7,10-10.4,17.2-20.4,17.2c-1.2,0-2.4-0.1-3.6-0.3
			c-11.3-2-18.9-12.8-16.9-24c1.7-10,10.4-17.2,20.4-17.2c1.2,0,2.4,0.1,3.6,0.3C1376.4,605.3,1384,616,1382,627.3z M298.6,699.8
			c6.5,5.1,14.2,7.6,21.8,7.6c10.6,0,20.9-4.7,27.9-13.6c12.1-15.5,9.4-37.7-6.1-49.7c-6.5-5.1-14.2-7.6-21.8-7.6
			c-10.6,0-20.9,4.7-27.9,13.6C280.6,665.4,283.2,687.7,298.6,699.8z M301.2,656.7c4.7-6,11.8-9.4,19.3-9.4c5.5,0,10.8,1.8,15.1,5.2
			c5.2,4.1,8.4,9.9,9.2,16.3c0.8,6.5-1,13-5.1,18c-4.7,6-11.8,9.4-19.3,9.4c-5.5,0-10.8-1.8-15.1-5.2
			C294.7,682.8,292.9,667.4,301.2,656.7z M90.6,1470.7c-5.2,0-10.5,1.6-15,5.1c-10.9,8.3-13,23.7-4.7,34.6
			c4.9,6.4,12.3,9.8,19.7,9.8c5.2,0,10.5-1.7,15-5.1c10.9-8.3,13-23.7,4.7-34.6C105.3,1474,97.9,1470.7,90.6,1470.7z M107.5,1497.7
			c-0.6,4.5-3,8.6-6.6,11.3c-3,2.3-6.6,3.5-10.4,3.5c-5.4,0-10.4-2.5-13.7-6.8c-2.8-3.6-4-8.1-3.3-12.7c0.6-4.5,3-8.6,6.6-11.3
			c3-2.3,6.6-3.5,10.4-3.5c5.4,0,10.4,2.5,13.7,6.8C106.9,1488.7,108.1,1493.2,107.5,1497.7z M917.2,198.3c5.1,0,10.3-0.9,15.4-2.7
			c23.2-8.5,35.2-34.2,26.7-57.4c-6.6-18.1-23.8-29.4-42.1-29.4c-5.1,0-10.3,0.9-15.4,2.7c-23.2,8.5-35.2,34.2-26.7,57.4
			C881.8,187,899,198.3,917.2,198.3z M889.2,140.4c3.5-7.5,9.7-13.2,17.4-16c3.4-1.3,7-1.9,10.6-1.9c13,0,24.6,8.2,29.1,20.3
			c5.9,16-2.5,33.8-18.4,39.7c-3.4,1.3-7,1.9-10.6,1.9c-13,0-24.6-8.2-29.1-20.3C885.3,156.4,885.6,147.9,889.2,140.4z M938.2,1412
			c-3.6-1.8-7.5-2.6-11.3-2.6c-9.4,0-18.4,5.3-22.9,14.3c-6.2,12.7-1,27.9,11.7,34.2c3.6,1.8,7.5,2.6,11.3,2.6
			c9.4,0,18.4-5.2,22.9-14.3C956,1433.4,950.8,1418.2,938.2,1412z M942.8,1442.6c-3,6.1-9.1,9.9-15.8,9.9c-2.7,0-5.3-0.6-7.8-1.8
			c-8.8-4.3-12.4-15-8.1-23.6c3-6.1,9.1-9.9,15.8-9.9c2.7,0,5.3,0.6,7.8,1.8c4.2,2.1,7.4,5.7,8.9,10.2
			C945.1,1433.6,944.8,1438.4,942.8,1442.6z M624-10.3l46.3,51.1l68.6-6.3l-46.3-51.1L624-10.3z M674.4,29.9L645.8-1.7l42.5-3.9
			L716.9,26L674.4,29.9z M94.9,1037.9l-47.3-50.1l-11.7,68l47.3,50.1L94.9,1037.9z M47.2,1052.4l7.2-42.1l29.3,31l-7.3,42.1
			L47.2,1052.4z M1598.5,1419.2l18.7,100.7l91.7,45.5l-18.7-100.7L1598.5,1419.2z M1631.1,1509.3l-11.6-62.3l56.8,28.1l11.6,62.3
			L1631.1,1509.3z M330.4-40.3l15.9,50.6L396.5,28l-15.9-50.6L330.4-40.3z M352.9,4.1l-9.9-31.4l31,11l9.9,31.4L352.9,4.1z
			 M904.3,1063.9l7.2,60.6l44.2-42.1l-7.2-60.6L904.3,1063.9z M918.5,1105l-4.5-37.5l27.3-26l4.5,37.5L918.5,1105z M589.3,661.8
			L540.9,635l7.6,54.8l48.3,26.8L589.3,661.8z M556.2,684.4l-4.7-33.9l29.9,16.5l4.7,33.9L556.2,684.4z M616.6,1561.1l50.6-9.7
			l22.6-46.4l-50.6,9.7L616.6,1561.1z M675.9,1515.8l-14,28.7l-31.3,6l14-28.7L675.9,1515.8z M939.5,440.7l-57.1,85.7l102.9-5.8
			l57.1-85.7L939.5,440.7z M976.4,505.5l-63.7,3.6l35.4-53l63.7-3.6L976.4,505.5z M174-204.3l67.5,70.2l15.7-96l-67.5-70.2
			L174-204.3z M199.5-268.6l41.8,43.4l-9.7,59.4l-41.8-43.4L199.5-268.6z M186.2,100.7c-8-4.7-17-5.8-25.6-3.2
			c-8.6,2.7-15.5,8.8-19.3,17.1c-2.2,4.7-5.9,8-10.6,9.5c-4.6,1.4-9.6,0.8-14.1-1.8c-8-4.7-17-5.8-25.6-3.2
			c-8.6,2.7-15.5,8.8-19.3,17.1c-1.7,3.6-0.1,7.9,3.5,9.6c1,0.5,2,0.7,3.1,0.7c2.7,0,5.3-1.5,6.6-4.2c2.2-4.7,6-8.1,10.6-9.5
			s9.6-0.8,14.1,1.8c8,4.7,17,5.8,25.6,3.1c8.6-2.7,15.5-8.8,19.3-17.1c2.2-4.7,6-8.1,10.6-9.5s9.6-0.8,14.1,1.8
			c3.4,2,7.9,0.9,9.9-2.6C190.7,107.1,189.5,102.7,186.2,100.7z M1475.9,429.5c-3.4,0.2-6.5-0.9-8.7-3.1c-2.3-2.2-3.5-5.3-3.3-8.7
			c0.2-6-1.9-11.6-6.1-15.7c-4.2-4.1-9.8-6.1-15.8-5.8c-2.6,0.2-4.6,2.4-4.4,5c0.1,2.6,2.4,4.4,5,4.4c3.4-0.2,6.5,0.9,8.7,3.2
			c2.3,2.2,3.4,5.3,3.3,8.7c-0.2,6,2,11.6,6.2,15.7s9.8,6.1,15.8,5.8c3.4-0.2,6.5,0.9,8.7,3.2c2.3,2.2,3.4,5.3,3.3,8.6
			c-0.1,2.6,1.9,4.8,4.5,4.9c0.1,0,0.1,0,0.2,0c2.5,0,4.6-2,4.7-4.5c0.2-6-1.9-11.6-6.1-15.7
			C1487.5,431.3,1481.9,429.3,1475.9,429.5z M1434,1299.5c-2.3,0.3-4,2.4-3.8,4.7c0.3,3-0.5,5.9-2.5,8c-1.9,2.2-4.6,3.4-7.7,3.4
			c-5.5,0.1-10.5,2.3-14,6.3c-3.5,4-5.1,9.2-4.6,14.6c0.3,3-0.5,5.9-2.5,8.1c-1.9,2.1-4.6,3.4-7.7,3.4c-2.4,0-4.3,2-4.2,4.3
			c0,2.3,1.9,4.2,4.3,4.2h0.1c5.5-0.1,10.4-2.3,14-6.3c3.5-4,5.2-9.2,4.6-14.6c-0.3-3,0.5-5.9,2.5-8c1.9-2.2,4.6-3.4,7.7-3.4
			c5.5-0.1,10.5-2.3,14-6.3c3.5-4,5.1-9.2,4.6-14.6C1438.4,1300.9,1436.3,1299.2,1434,1299.5z M284.3,923.1c3.7,3,5.9,7.2,6.2,11.7
			c0.3,4.5-1.4,8.9-4.8,12.3c-6,6.2-9.1,14.2-8.6,22.4c0.5,8.4,4.5,15.9,11.2,21.3c1.2,1,2.7,1.5,4.2,1.5c2,0,3.9-0.9,5.2-2.5
			c2.3-2.9,1.9-7.1-1-9.5c-3.7-3-6-7.2-6.2-11.7c-0.3-4.5,1.4-8.9,4.8-12.3c6-6.2,9.1-14.2,8.6-22.4s-4.5-15.8-11.2-21.3
			c-3.7-3-6-7.2-6.2-11.7c-0.3-4.5,1.4-8.9,4.8-12.3c2.6-2.7,2.6-6.9-0.1-9.5c-2.6-2.6-6.9-2.6-9.5,0.1c-6,6.2-9.1,14.2-8.6,22.4
			C273.7,910,277.7,917.6,284.3,923.1z M368.6,1451.4c-5.6,0.9-11-0.5-15.1-3.9s-6.6-8.3-6.9-14c-0.6-10.1-5.1-19-12.8-25.2
			c-7.6-6.2-17.3-8.8-27.3-7.3c-5.6,0.9-11-0.5-15.1-3.9c-4.1-3.4-6.6-8.3-6.9-13.9c-0.2-4.4-3.9-7.7-8.3-7.5
			c-4.4,0.2-7.7,4-7.5,8.4c0.6,10.1,5.1,19,12.7,25.2c7.6,6.2,17.3,8.8,27.4,7.3c5.6-0.9,10.9,0.5,15.1,3.9
			c4.1,3.4,6.6,8.3,6.9,13.9c0.6,10.1,5.1,19.1,12.7,25.3c6.2,5,13.8,7.7,21.7,7.7c1.9,0,3.7-0.1,5.6-0.4c4.3-0.7,7.3-4.7,6.6-9
			C376.8,1453.7,372.9,1450.7,368.6,1451.4z M37.1,390.7c6.5,0,12.6-2.5,16.9-7.1c4.6-4.8,7-11.2,6.5-18c-0.2-3.8,1-7.4,3.5-10
			c2.5-2.6,6-4,9.8-3.8c6.8,0.2,13.2-2.3,17.7-7.1s7-11.2,6.5-18c-0.2-3-2.7-5.2-5.7-5c-3,0.2-5.2,2.7-5,5.7c0.2,3.8-1,7.4-3.5,10
			c-2.5,2.6-6,3.9-9.8,3.8c-6.8-0.2-13.2,2.3-17.7,7.1c-4.6,4.8-7,11.2-6.5,18c0.2,3.8-1,7.4-3.5,9.9c-2.5,2.6-5.9,4-9.8,3.8
			c-3,0-5.4,2.2-5.5,5.2s2.2,5.4,5.2,5.5C36.6,390.7,36.8,390.7,37.1,390.7z M690.9,428.5c-3.9,1.3-7.9,1-11.3-0.9
			c-3.4-1.9-5.7-5.1-6.7-9.1c-1.7-7.2-6.1-13-12.3-16.4c-6.2-3.5-13.5-4.1-20.4-1.7c-3.9,1.3-7.9,1-11.3-0.9
			c-3.4-1.9-5.7-5.1-6.7-9.1c-0.7-3.1-3.8-5-6.9-4.3s-5,3.8-4.3,6.9c1.7,7.2,6,13,12.3,16.4c6.2,3.5,13.5,4.1,20.4,1.7
			c3.9-1.3,7.9-1,11.2,0.9c3.4,1.9,5.8,5.1,6.7,9.1c1.7,7.2,6,13,12.3,16.4c3.7,2.1,7.9,3.1,12.1,3.1c2.8,0,5.6-0.5,8.4-1.4
			c3-1,4.6-4.3,3.6-7.3C697,429.1,693.8,427.5,690.9,428.5z M98.1,588.9c3-2.4,3.4-6.8,1-9.7c-2.4-3-6.8-3.4-9.7-1
			c-6.9,5.6-11,13.4-11.5,21.8c-0.5,8.6,2.7,16.7,8.9,23.1c3.4,3.5,5.2,8,4.9,12.7c-0.3,4.6-2.5,8.9-6.3,12
			c-6.9,5.6-11,13.4-11.5,21.8c-0.5,8.6,2.7,16.7,8.9,23.1c1.4,1.4,3.1,2.1,4.9,2.1c1.7,0,3.5-0.7,4.8-2c2.7-2.7,2.8-7,0.1-9.8
			c-3.5-3.5-5.2-8-5-12.7c0.3-4.6,2.5-8.9,6.4-12c6.9-5.6,11-13.4,11.4-21.9c0.5-8.6-2.7-16.7-8.9-23c-3.5-3.5-5.2-8-5-12.7
			C92.1,596.2,94.3,592,98.1,588.9z M1159-40.1c-4,2.1-8.6,2.3-13,0.6c-8-2.9-16.3-2.5-23.7,1.4c-7.3,3.8-12.5,10.4-14.7,18.6
			c-1.2,4.6-4.1,8.3-8,10.3c-4,2.1-8.6,2.3-13,0.7c-3.4-1.3-7.3,0.5-8.5,3.9c-1.3,3.4,0.5,7.3,3.9,8.5c3.5,1.3,7,1.9,10.5,1.9
			c4.6,0,9.1-1.1,13.2-3.2c7.3-3.8,12.6-10.5,14.8-18.6c1.2-4.6,4.1-8.2,8-10.3c4-2.1,8.6-2.3,13-0.7c8,3,16.3,2.5,23.6-1.3
			c7.3-3.8,12.6-10.5,14.7-18.6c0.9-3.5-1.2-7.2-4.7-8.1s-7.2,1.2-8.1,4.7C1165.8-45.8,1163-42.1,1159-40.1z M1433.3,753.7
			c-1.6-1.5-4.1-1.4-5.5,0.2c-1.5,1.6-1.4,4.1,0.2,5.5l25.5,23.4c0.8,0.7,1.7,1,2.7,1c1.1,0,2.1-0.4,2.9-1.3
			c1.5-1.6,1.4-4.1-0.2-5.5L1433.3,753.7z M620.9,970.6c1,0,2-0.3,2.7-1c1.7-1.5,1.9-4.1,0.4-5.8l-24.2-27.3
			c-1.5-1.7-4.1-1.9-5.8-0.4c-1.7,1.5-1.9,4.1-0.4,5.8l24.2,27.3C618.6,970.1,619.8,970.6,620.9,970.6z M451,209.5
			c0.4,0,0.7,0,1.1-0.1l42.4-9.8c2.7-0.6,4.3-3.3,3.7-5.9c-0.6-2.7-3.3-4.3-5.9-3.7l-42.4,9.8c-2.7,0.6-4.3,3.3-3.7,5.9
			C446.7,207.9,448.7,209.5,451,209.5z M1371.8-173.8c2.5-0.6,4.1-3.1,3.5-5.6c-0.6-2.5-3.1-4.1-5.6-3.5l-40.1,9.7
			c-2.5,0.6-4.1,3.1-3.5,5.6c0.5,2.1,2.4,3.6,4.5,3.6c0.4,0,0.7,0,1.1-0.1L1371.8-173.8z M1859.1,1358.4c-0.6-2.3-2.9-3.7-5.2-3.2
			c-2.3,0.6-3.7,2.9-3.2,5.2l8.8,36.8c0.5,2,2.2,3.3,4.2,3.3c0.3,0,0.7,0,1-0.1c2.3-0.6,3.7-2.9,3.2-5.2L1859.1,1358.4z
			 M1161.5,1402.7c-0.9-2.1-3.4-3-5.5-2.1c-2.1,0.9-3,3.4-2.1,5.5l14.9,33.5c0.7,1.5,2.2,2.5,3.8,2.5c0.6,0,1.1-0.1,1.7-0.4
			c2.1-0.9,3-3.4,2.1-5.5L1161.5,1402.7z M1216.9,1163.2l-61.1,3.6c-3.8,0.2-6.8,3.5-6.5,7.3c0.2,3.7,3.3,6.5,6.9,6.5
			c0.1,0,0.3,0,0.4,0l61.1-3.6c3.8-0.2,6.8-3.5,6.5-7.3C1224.1,1165.9,1220.8,1163,1216.9,1163.2z M750.1,1228.1
			c-0.6-1.9-2.6-3.1-4.6-2.5c-2,0.6-3.1,2.6-2.5,4.6l9.2,31.2c0.5,1.6,1.9,2.6,3.5,2.6c0.3,0,0.7,0,1-0.2c2-0.6,3.1-2.6,2.5-4.6
			L750.1,1228.1z M1900.6,1031.3l-53.3-6.4c-3.3-0.4-6.4,2-6.8,5.3c-0.4,3.3,2,6.4,5.3,6.8l53.3,6.4c0.2,0,0.5,0,0.7,0
			c3,0,5.7-2.3,6-5.4C1906.4,1034.7,1904,1031.7,1900.6,1031.3z M1625.4,616.7l11.2,11.1l45.3-45.6l45.6,45.3l11.1-11.2l-56.7-56.4
			L1625.4,616.7z M1392.4,1070.9l29.4-51.3l-51.3-29.4l-5.8,10.2l41.3,23.6l-23.6,41.3L1392.4,1070.9z M1066.5,1606.4l-24.6-34.4
			l-8.5,6l30.6,42.8l42.8-30.6l-6-8.5L1066.5,1606.4z M1553.7-1.5l-11.1-2.1L1532,52.6l56.2,10.6l2.1-11.1l-45.2-8.6L1553.7-1.5z
			 M1166.9-285.5l-10.8-9.1l-37,44.1l-44.1-37l-9.1,10.8l54.9,46.1L1166.9-285.5z M1166.7,352.2l9.9-1.7l-8.8-50.1l-50,8.8l1.7,9.9
			l40.3-7L1166.7,352.2z M1909-250.7l-8.7-6.9l-27.9,35.3l-35.3-28l-6.9,8.7l44,34.8L1909-250.7z M1331.3,1564.1l5.3,9.9l40.2-21.4
			l21.4,40.2l9.9-5.3l-26.6-50L1331.3,1564.1z M1701.4,1097.1l-10.9-10.8l-43.8,44.2l-44.2-43.8l-10.8,10.9l55,54.5L1701.4,1097.1z"
			/>
	</g>
</g>
</svg>
