<?xml version="1.0" encoding="utf-8"?>
<!-- Generator: Adobe Illustrator 21.0.0, SVG Export Plug-In . SVG Version: 6.00 Build 0)  -->
<svg version="1.1" id="Layer_1" xmlns="http://www.w3.org/2000/svg" xmlns:xlink="http://www.w3.org/1999/xlink" x="0px" y="0px"
	 viewBox="0 0 1920 1320" style="enable-background:new 0 0 1920 1320;" xml:space="preserve">
<style type="text/css">
	.st0{fill:#02D26D;}
</style>
<g>
	<path class="st0" d="M-250.5,1100.3l-52.5,52.5c-7,7-6.5,18.7,0.9,26.3c7.5,7.5,19.3,7.8,26.3,0.9l52.5-52.5c7-7,6.5-18.7-0.9-26.3
		C-231.6,1093.6-243.4,1093.3-250.5,1100.3z"/>
	<path class="st0" d="M-291.4,1105l52.5-52.5c7-7,6.5-18.7-0.9-26.3c-7.5-7.5-19.3-7.8-26.3-0.9l-52.5,52.5c-7,7-6.5,18.7,0.9,26.3
		C-310.1,1111.6-298.4,1112-291.4,1105z"/>
	<path class="st0" d="M-486.5,980.2l74.6-74.6c9.9-9.9,9.4-26.7-1.3-37.3c-10.7-10.6-27.3-11.2-37.3-1.3l-74.6,74.6
		c-9.9,9.9-9.4,26.7,1.3,37.3C-513.2,989.5-496.5,990.1-486.5,980.2z"/>
	<path class="st0" d="M-124.9,1069.2l-74.6,74.6c-9.9,9.9-9.4,26.7,1.3,37.3c10.6,10.6,27.3,11.2,37.3,1.3l74.6-74.6
		c9.9-9.9,9.4-26.7-1.3-37.3C-98.3,1059.8-115,1059.3-124.9,1069.2z"/>
	<path class="st0" d="M114.9,1111.1l-74.6,74.6c-9.9,9.9-9.4,26.7,1.3,37.3c10.6,10.6,27.3,11.2,37.3,1.3l74.6-74.6
		c9.9-9.9,9.4-26.7-1.3-37.3C141.5,1101.9,124.8,1101.3,114.9,1111.1z"/>
	<path class="st0" d="M79.5,1015.8c-5.8-5.8-15.4-5.8-21.2,0l-93.1,93.1c-5.8,5.8-5.8,15.4,0,21.2c5.8,5.8,15.4,5.8,21.2,0
		l93.1-93.1C85.3,1031.2,85.3,1021.7,79.5,1015.8z"/>
	<path class="st0" d="M-12.8,956.5L86.6,857c3.8-3.8,3.8-9.9,0-13.6c-3.8-3.8-9.9-3.8-13.6,0l-99.6,99.4c-3.8,3.8-3.8,9.9,0,13.6
		C-22.9,960.3-16.6,960.3-12.8,956.5z"/>
	<path class="st0" d="M-276.7,961.2l42.2-42.2c2.2-2.2,2.2-5.5,0-7.7c-2.2-2.2-5.5-2.2-7.7,0l-42.2,42.2c-2.2,2.2-2.2,5.5,0,7.7
		C-282.3,963.2-278.8,963.2-276.7,961.2z"/>
	<path class="st0" d="M-143.9,979.2l-24.4,24.4c-3.8,3.8-3.8,9.9,0,13.6c3.8,3.8,9.9,3.8,13.6,0l24.4-24.4c3.8-3.8,3.8-9.9,0-13.6
		C-134.2,975.4-140.3,975.4-143.9,979.2z"/>
	<path class="st0" d="M159.2,987.3l-19,19c-2,2-2,5.4,0,7.5c2,2,5.4,2,7.5,0l19-19c2-2,2-5.4,0-7.5
		C164.7,985.3,161.4,985.3,159.2,987.3z"/>
	<path class="st0" d="M249.6,1003.4c-3.3-3.3-8.7-3.3-11.9,0l-21.8,21.8c-3.3,3.3-3.3,8.7,0,11.9c3.3,3.3,8.7,3.3,11.9,0l21.8-21.8
		C253,1012,253,1006.6,249.6,1003.4z"/>
	<path class="st0" d="M167,827.2L145.2,849c-3.3,3.3-3.3,8.7,0,11.9c3.3,3.3,8.7,3.3,11.9,0l21.8-21.8c3.3-3.3,3.3-8.7,0-11.9
		C175.6,824,170.4,823.9,167,827.2z"/>
	<path class="st0" d="M-29.5,780.6c-15.5-15.5-40.6-15.5-56,0l-102.5,102.5c-15.5,15.5-15.5,40.6,0,56c15.5,15.5,40.6,15.5,56,0
		l102.5-102.3C-14,821.2-14,796.1-29.5,780.6z"/>
	<path class="st0" d="M138.9,572.3c-3.3-3.3-8.7-3.3-11.9,0l-21.8,21.8c-3.3,3.3-3.3,8.7,0,11.9c3.3,3.3,8.7,3.3,11.9,0l21.8-21.8
		C142.2,580.9,142.2,575.6,138.9,572.3z"/>
	<path class="st0" d="M-340.8,838.2l-11.9,11.9c-2.2,2.2-2.2,5.5,0,7.7c2.2,2.2,5.5,2.2,7.7,0l11.9-11.9c2.2-2.2,2.2-5.5,0-7.7
		C-335.1,836.2-338.6,836.2-340.8,838.2z"/>
	<path class="st0" d="M-381.1,753c2,2,5.2,2,7.3,0l42.2-42.2c2-2,2-5.2,0-7.3c-2-2-5.2-2-7.3,0l-42.2,42.2
		C-383.2,747.8-383.2,751-381.1,753z"/>
	<path class="st0" d="M-186.9,593.2l-11.5,11.5c-1.9,1.9-1.9,4.9,0,6.8c1.9,1.9,4.9,1.9,6.8,0l11.5-11.5c1.9-1.9,1.9-4.9,0-6.8
		C-182,591.3-185,591.3-186.9,593.2z"/>
	<path class="st0" d="M-360.9,669.1l29-29c2-2,2-5.2,0-7.3c-2-2-5.2-2-7.3,0l-29,29c-2,2-2,5.2,0,7.3
		C-366.2,671-362.8,671-360.9,669.1z"/>
	
		<rect x="-233.7" y="555" transform="matrix(0.7071 -0.7071 0.7071 0.7071 -445.3355 36.4367)" class="st0" width="110" height="1.6"/>
	
		<rect x="-471.3" y="947.3" transform="matrix(0.7071 -0.7071 0.7071 0.7071 -768.9641 40.5237)" class="st0" width="271.5" height="2.3"/>
	
		<rect x="-597.6" y="1183.8" transform="matrix(0.7071 -0.7071 0.7071 0.7071 -973.163 20.4801)" class="st0" width="271.5" height="2.3"/>
	<polygon class="st0" points="360.1,419.4 168,611.3 169.8,613.1 361.8,421 	"/>
	<path class="st0" d="M-179.6,795.3L4,611.6c8.9-8.9,8.9-23.2,0-32.1s-23.2-8.9-32.1,0l-183.6,183.6c-8.9,8.9-8.9,23.2,0,32.1
		C-202.9,804.1-188.6,804-179.6,795.3z"/>
	<polygon class="st0" points="-19.2,762.6 93,650.4 92.3,649.7 -20,761.9 	"/>
	<path class="st0" d="M135.7,759c-0.7-0.7-1.7-0.7-2.5,0l-53.6,53.6c-0.7,0.7-0.7,1.7,0,2.5c0.7,0.7,1.7,0.7,2.5,0l53.6-53.6
		C136.4,760.7,136.4,759.7,135.7,759z"/>
	<path class="st0" d="M-18.2,983.5c-0.7-0.7-1.7-0.7-2.5,0l-53.6,53.6c-0.7,0.7-0.7,1.7,0,2.5s1.7,0.7,2.5,0l53.6-53.6
		C-17.6,985.3-17.6,984.3-18.2,983.5z"/>
	<path class="st0" d="M337.7,1140.2l-52.5,52.5c-7,7-6.5,18.7,0.9,26.3c7.5,7.5,19.3,7.8,26.3,0.9l52.5-52.5c7-7,6.5-18.7-0.9-26.3
		C356.5,1133.5,344.7,1133.2,337.7,1140.2z"/>
	<path class="st0" d="M296.8,1145l52.5-52.5c7-7,6.5-18.7-0.9-26.3c-7.5-7.5-19.3-7.8-26.3-0.9l-52.7,52.5c-7,7-6.5,18.7,0.9,26.3
		C277.9,1151.6,289.7,1151.9,296.8,1145z"/>
	<path class="st0" d="M463.2,1109.1l-74.6,74.6c-9.9,9.9-9.4,26.7,1.3,37.3c10.7,10.6,27.3,11.2,37.3,1.3l74.6-74.6
		c9.9-9.9,9.4-26.7-1.3-37.3C489.9,1099.8,473,1099.2,463.2,1109.1z"/>
	<path class="st0" d="M703,1151.1l-74.6,74.6c-9.9,9.9-9.4,26.7,1.3,37.3c10.6,10.6,27.3,11.2,37.3,1.3l74.6-74.6
		c9.9-9.9,9.4-26.7-1.3-37.3C729.7,1141.8,713,1141.2,703,1151.1z"/>
	<path class="st0" d="M667.6,1055.7c-5.8-5.8-15.4-5.8-21.2,0l-93.1,93.1c-5.8,5.8-5.8,15.4,0,21.2c5.8,5.8,15.4,5.8,21.2,0
		l93.1-93.1C673.5,1071.1,673.5,1061.6,667.6,1055.7z"/>
	<path class="st0" d="M444.1,1019.1l-24.4,24.4c-3.8,3.8-3.8,9.9,0,13.6c3.8,3.8,9.9,3.8,13.6,0l24.4-24.4c3.8-3.8,3.8-9.9,0-13.6
		C454,1015.5,447.9,1015.5,444.1,1019.1z"/>
	<path class="st0" d="M747.4,1027.2l-19,19c-2,2-2,5.4,0,7.5c2,2,5.4,2,7.5,0l19-19c2-2,2-5.4,0-7.5
		C752.8,1025.2,749.4,1025.2,747.4,1027.2z"/>
	<path class="st0" d="M837.7,1043.3c-3.3-3.3-8.7-3.3-11.9,0l-21.8,21.8c-3.3,3.3-3.3,8.7,0,11.9c3.3,3.3,8.7,3.3,11.9,0l21.8-21.8
		C841,1051.9,841,1046.7,837.7,1043.3z"/>
	
		<rect x="-9.4" y="1223.6" transform="matrix(0.7071 -0.7071 0.7071 0.7071 -829.0723 448.0542)" class="st0" width="271.5" height="2.3"/>
	<path class="st0" d="M569.9,1023.5c-0.7-0.7-1.7-0.7-2.5,0l-53.6,53.6c-0.7,0.7-0.7,1.7,0,2.5s1.7,0.7,2.5,0l53.6-53.6
		C570.6,1025.2,570.6,1024.2,569.9,1023.5z"/>
	<path class="st0" d="M520.5,202l-52.5,52.5c-7,7-6.5,18.7,0.9,26.3c7.5,7.5,19.3,7.8,26.3,0.9l52.5-52.5c7-7,6.5-18.7-0.9-26.3
		C539.2,195.3,527.5,195,520.5,202z"/>
	<path class="st0" d="M479.4,206.8l52.5-52.5c7-7,6.5-18.7-0.9-26.3c-7.5-7.5-19.3-7.8-26.3-0.9l-52.5,52.5c-7,7-6.5,18.7,0.9,26.3
		C460.7,213.3,472.4,213.7,479.4,206.8z"/>
	<path class="st0" d="M645.9,170.9l-74.6,74.6c-9.9,9.9-9.4,26.7,1.3,37.3c10.6,10.6,27.3,11.2,37.3,1.3l74.6-74.6
		c9.9-9.9,9.4-26.7-1.3-37.3C672.5,161.5,655.8,161,645.9,170.9z"/>
	<path class="st0" d="M885.7,212.9l-74.6,74.6c-9.9,9.9-9.4,26.7,1.3,37.3c10.6,10.6,27.3,11.2,37.3,1.3l74.6-74.6
		c9.9-9.9,9.4-26.7-1.3-37.3C912.3,203.4,895.6,203,885.7,212.9z"/>
	<path class="st0" d="M850.3,117.5c-5.8-5.8-15.4-5.8-21.2,0l-93.1,93.1c-5.8,5.8-5.8,15.4,0,21.2c5.8,5.8,15.4,5.8,21.2,0
		l93.1-93.1C856.1,132.9,856.1,123.4,850.3,117.5z"/>
	<path class="st0" d="M626.9,80.9l-24.4,24.4c-3.8,3.8-3.8,9.9,0,13.6c3.8,3.8,9.9,3.8,13.6,0l24.2-24.4c3.8-3.8,3.8-9.9,0-13.6
		C636.8,77.1,630.5,77.1,626.9,80.9z"/>
	<path class="st0" d="M930,89l-19,19.2c-2,2-2,5.4,0,7.5c2,2,5.4,2,7.5,0l19-19c2-2,2-5.4,0-7.5S932.2,87,930,89z"/>
	<path class="st0" d="M1020.4,105.1c-3.3-3.3-8.7-3.3-11.9,0l-21.8,21.8c-3.3,3.3-3.3,8.7,0,11.9c3.3,3.2,8.7,3.3,11.9,0l21.8-21.8
		C1023.8,113.7,1023.8,108.3,1020.4,105.1z"/>
	
		<rect x="173.2" y="285.5" transform="matrix(0.7071 -0.7071 0.7071 0.7071 -112.2223 302.4462)" class="st0" width="271.5" height="2.3"/>
	<path class="st0" d="M752.6,85.3c-0.7-0.7-1.7-0.7-2.5,0l-53.6,53.6c-0.7,0.7-0.7,1.7,0,2.5s1.7,0.7,2.5,0l53.6-53.6
		C753.2,87,753.2,85.8,752.6,85.3z"/>
	<circle class="st0" cx="182" cy="689" r="39.2"/>
	<circle class="st0" cx="-263" cy="682.8" r="39.2"/>
	<path class="st0" d="M-501,1123.6c21.6,0,39.2-17.6,39.2-39.2s-17.6-39.2-39.2-39.2s-39.2,17.6-39.2,39.2S-522.7,1123.6-501,1123.6
		z"/>
	<path class="st0" d="M536.2,884.8l-52.5,52.5c-7,7-6.5,18.7,0.9,26.3c7.5,7.5,19.3,7.8,26.3,0.9l52.5-52.5c7-7,6.5-18.7-0.9-26.3
		C554.9,878.3,543.1,877.9,536.2,884.8z"/>
	<path class="st0" d="M495.2,889.6l52.5-52.5c7-7,6.5-18.7-0.9-26.3c-7.5-7.5-19.3-7.8-26.3-0.9l-52.5,52.5c-7,7-6.5,18.7,0.9,26.3
		C476.4,896.3,488.3,896.7,495.2,889.6z"/>
	<path class="st0" d="M336,651.7l-74.6,74.6c-9.9,9.9-9.4,26.7,1.3,37.3c10.6,10.6,27.3,11.2,37.3,1.3l74.6-74.6
		c9.9-9.9,9.4-26.7-1.3-37.3C362.7,642.4,346,641.8,336,651.7z"/>
	<path class="st0" d="M698.9,855.1c-10.6-10.6-27.3-11.2-37.3-1.3L587,928.4c-9.9,9.9-9.4,26.7,1.3,37.3
		c10.6,10.6,27.3,11.2,37.3,1.3l74.6-74.6C710.1,882.5,709.5,865.8,698.9,855.1z"/>
	<path class="st0" d="M938.7,897c-10.6-10.6-27.3-11.2-37.3-1.3l-74.5,74.6c-9.9,9.9-9.4,26.7,1.3,37.3
		c10.7,10.6,27.3,11.2,37.3,1.3l74.6-74.6C949.9,924.5,949.3,907.6,938.7,897z"/>
	<path class="st0" d="M509.9,745.8l42.2-42.2c2.2-2.2,2.2-5.5,0-7.7c-2.2-2.2-5.5-2.2-7.7,0l-42.2,42.2c-2.2,2.2-2.2,5.5,0,7.7
		C504.4,747.9,507.7,747.9,509.9,745.8z"/>
	<path class="st0" d="M642.6,763.9l-24.4,24.4c-3.8,3.8-3.8,9.9,0,13.6c3.8,3.8,9.9,3.8,13.6,0l24.4-24.4c3.8-3.8,3.8-9.9,0-13.6
		S646.4,760.1,642.6,763.9z"/>
	<path class="st0" d="M757.1,565.3c-15.5-15.5-40.6-15.5-56,0L598.6,667.8c-15.5,15.5-15.5,40.6,0,56c15.5,15.5,40.6,15.5,56,0
		l102.5-102.5C772.7,605.8,772.7,580.7,757.1,565.3z"/>
	<path class="st0" d="M903.6,390.7l21.8-21.8c3.3-3.3,3.3-8.7,0-11.9c-3.3-3.2-8.7-3.3-11.9,0l-21.8,21.8c-3.3,3.3-3.3,8.7,0,11.9
		C895,393.9,900.4,393.9,903.6,390.7z"/>
	<path class="st0" d="M441.7,642.4l11.9-11.9c2.2-2.2,2.2-5.5,0-7.7c-2.2-2.2-5.5-2.2-7.7,0L434,634.7c-2.2,2.2-2.2,5.5,0,7.7
		C436.2,644.6,439.5,644.6,441.7,642.4z"/>
	<path class="st0" d="M412.6,537.6l42.2-42.2c2-2,2-5.2,0-7.3c-2-2-5.2-2-7.3,0l-42.1,42.2c-2,2-2,5.2,0,7.3
		C407.4,539.6,410.6,539.6,412.6,537.6z"/>
	<path class="st0" d="M599.6,377.9l-11.5,11.5c-1.9,1.9-1.9,4.9,0,6.8c1.9,1.9,4.9,1.9,6.8,0l11.5-11.5c1.9-1.9,1.9-4.9,0-6.8
		C604.5,376,601.5,376,599.6,377.9z"/>
	<path class="st0" d="M425.7,453.7l29-29c2-2,2-5.2,0-7.3c-2-2-5.2-2-7.3,0l-29,29c-2,2-2,5.2,0,7.3
		C420.5,455.7,423.7,455.7,425.7,453.7z"/>
	
		<rect x="552.9" y="339.7" transform="matrix(0.7071 -0.7071 0.7071 0.7071 -62.7508 529.5867)" class="st0" width="110" height="1.6"/>
	
		<rect x="612.8" y="991.1" transform="matrix(0.7071 -0.7071 0.7071 0.7071 -505.7625 762.7023)" class="st0" width="110" height="1.6"/>
	
		<rect x="315.4" y="732" transform="matrix(0.7071 -0.7071 0.7071 0.7071 -386.2769 533.7161)" class="st0" width="271.5" height="2.3"/>
	
		<rect x="189.1" y="968.4" transform="matrix(0.7071 -0.7071 0.7071 0.7071 -590.4757 513.6727)" class="st0" width="271.5" height="2.3"/>
	<path class="st0" d="M817.2,928.7c-3.3-3.3-8.9-3.3-12.2,0l-69.7,69.7c-3.3,3.3-3.3,8.9,0,12.2c3.3,3.3,8.9,3.3,12.2,0l69.7-69.7
		C820.7,937.4,820.7,932,817.2,928.7z"/>
	<path class="st0" d="M606.9,579.8l183.6-183.6c8.9-8.9,8.9-23.2,0-32.1c-8.9-8.9-23.2-8.9-32.1,0L574.9,547.9
		c-8.9,8.9-8.9,23.2,0,32.1C583.8,588.8,598,588.7,606.9,579.8z"/>
	<polygon class="st0" points="767.3,547.2 879.5,435 878.8,434.2 766.6,546.4 	"/>
	<path class="st0" d="M919.7,543.5l-53.6,53.6c-0.7,0.7-0.7,1.7,0,2.5c0.7,0.7,1.7,0.7,2.5,0l53.6-53.6c0.7-0.7,0.7-1.7,0-2.5
		C921.6,542.8,920.4,542.8,919.7,543.5z"/>
	<path class="st0" d="M768.3,768.1c-0.7-0.7-1.7-0.7-2.5,0l-53.6,53.6c-0.7,0.7-0.7,1.7,0,2.5s1.7,0.7,2.5,0l53.6-53.6
		C769,770,769,768.8,768.3,768.1z"/>
	<path class="st0" d="M523.5,506.7c21.6,0,39.2-17.6,39.2-39.2c0-21.6-17.6-39.2-39.2-39.2c-21.6,0-39.2,17.6-39.2,39.2
		C484.4,489.1,501.9,506.7,523.5,506.7z"/>
	<path class="st0" d="M246.3,869c0,21.6,17.6,39.2,39.2,39.2c21.6,0,39.2-17.6,39.2-39.2s-17.6-39.2-39.2-39.2
		C263.8,829.8,246.3,847.4,246.3,869z"/>
	<path class="st0" d="M-129.8,379.4l-52.5,52.5c-7,7-6.5,18.7,0.9,26.3c7.5,7.5,19.3,7.8,26.3,0.9l52.5-52.5c7-7,6.5-18.7-0.9-26.3
		C-111.1,372.7-122.9,372.3-129.8,379.4z"/>
	<path class="st0" d="M-170.8,384.2l52.5-52.5c7-7,6.5-18.7-0.9-26.3c-7.5-7.5-19.3-7.8-26.3-0.9l-52.5,52.5c-7,7-6.5,18.7,0.9,26.3
		C-189.6,390.7-177.7,391.1-170.8,384.2z"/>
	<path class="st0" d="M-366,259.2l74.6-74.6c9.9-9.9,9.4-26.7-1.3-37.3c-10.6-10.6-27.3-11.2-37.3-1.3l-74.6,74.6
		c-9.9,9.9-9.4,26.7,1.3,37.3C-392.7,268.6-376,269.2-366,259.2z"/>
	<path class="st0" d="M-40.4,461.4l74.6-74.6c9.9-9.9,9.4-26.7-1.3-37.3c-10.6-10.6-27.3-11.2-37.3-1.3l-74.5,74.6
		c-9.9,9.9-9.4,26.7,1.3,37.3C-66.8,470.7-50.4,471.4-40.4,461.4z"/>
	<path class="st0" d="M162.1,502c10.6,10.6,27.3,11.2,37.3,1.3l74.6-74.6c9.9-9.9,9.4-26.7-1.3-37.3c-10.7-10.6-27.3-11.2-37.3-1.3
		l-74.6,74.6C150.9,474.7,151.5,491.4,162.1,502z"/>
	<path class="st0" d="M85.7,409.1c5.8,5.8,15.4,5.8,21.2,0l93.1-93.1c5.8-5.8,5.8-15.4,0-21.2c-5.8-5.8-15.4-5.8-21.2,0l-93.1,93.1
		C79.8,393.9,79.8,403.3,85.7,409.1z"/>
	<path class="st0" d="M94,235.5c3.8,3.8,9.9,3.8,13.6,0l99.6-99.6c3.8-3.8,3.8-9.9,0-13.6c-3.8-3.8-9.9-3.8-13.6,0L94,221.9
		C90.2,225.6,90.2,231.7,94,235.5z"/>
	<path class="st0" d="M-163.8,232.6c-2.2,2.2-2.2,5.5,0,7.7s5.5,2.2,7.7,0l42.2-42.2c2.2-2.2,2.2-5.5,0-7.7c-2.2-2.2-5.5-2.2-7.7,0
		L-163.8,232.6z"/>
	<path class="st0" d="M-23.4,258.3l-24.4,24.4c-3.8,3.8-3.8,9.9,0,13.6s9.9,3.8,13.6,0l24.4-24.4c3.8-3.8,3.8-9.9,0-13.6
		C-13.6,254.5-19.7,254.5-23.4,258.3z"/>
	<path class="st0" d="M268.2,293l19-19c2-2,2-5.4,0-7.5c-2-2-5.4-2-7.5,0l-18.9,19c-2,2-2,5.4,0,7.5C262.8,295,266.2,295,268.2,293z
		"/>
	<path class="st0" d="M348.3,316.2l21.8-21.8c3.3-3.3,3.3-8.7,0-11.9c-3.3-3.3-8.7-3.3-11.9,0l-21.8,21.8c-3.3,3.3-3.3,8.7,0,11.9
		S345.1,319.6,348.3,316.2z"/>
	<path class="st0" d="M-11.4,218.4L91.1,115.9c15.5-15.5,15.5-40.6,0-56c-15.5-15.5-40.6-15.5-56,0L-67.4,162.3
		c-15.5,15.5-15.5,40.6,0,56C-52,233.8-26.9,233.8-11.4,218.4z"/>
	
		<rect x="-53.4" y="485.6" transform="matrix(0.7071 -0.7071 0.7071 0.7071 -343.4208 143.6069)" class="st0" width="110" height="1.6"/>
	
		<rect x="-350.7" y="226.4" transform="matrix(0.7071 -0.7071 0.7071 0.7071 -223.8325 -85.3369)" class="st0" width="271.5" height="2.3"/>
	
		<rect x="-477" y="462.8" transform="matrix(0.7071 -0.7071 0.7071 0.7071 -428.0156 -105.3962)" class="st0" width="271.5" height="2.3"/>
	<path class="st0" d="M151.2,423.1c-3.3-3.3-8.9-3.3-12.2,0l-69.7,69.7c-3.3,3.3-3.3,8.9,0,12.2s8.9,3.3,12.2,0l69.7-69.7
		C154.7,431.8,154.7,426.4,151.2,423.1z"/>
	<path class="st0" d="M99.7,262.5l-53.6,53.6c-0.7,0.7-0.7,1.7,0,2.5c0.7,0.7,1.7,0.7,2.5,0l53.6-53.6c0.7-0.7,0.7-1.7,0-2.5
		C101.4,261.8,100.5,261.9,99.7,262.5z"/>
	<path class="st0" d="M-380.4,402.6c21.6,0,39.2-17.6,39.2-39.2c0-21.6-17.6-39.2-39.2-39.2s-39.2,17.6-39.2,39.2
		C-419.7,385.2-402.2,402.6-380.4,402.6z"/>
	<path class="st0" d="M1183.8,1053.8l-52.5,52.5c-7,7-6.5,18.7,0.9,26.3c7.5,7.5,19.3,7.8,26.3,0.9l52.5-52.5c7-7,6.5-18.7-0.9-26.3
		C1202.6,1047.1,1190.9,1046.8,1183.8,1053.8z"/>
	<path class="st0" d="M1142.8,1058.6l52.5-52.5c7-7,6.5-18.7-0.9-26.3c-7.5-7.5-19.3-7.8-26.3-0.9l-52.5,52.5
		c-7,7-6.5,18.7,0.9,26.3C1124.1,1065.1,1135.9,1065.6,1142.8,1058.6z"/>
	<path class="st0" d="M904.2,846.7l74.6-74.6c9.9-9.9,9.4-26.7-1.3-37.3c-10.6-10.6-27.3-11.2-37.3-1.3L865.6,808
		c-9.9,9.9-9.4,26.7,1.3,37.3C877.5,855.9,894.2,856.5,904.2,846.7z"/>
	<path class="st0" d="M1309.3,1022.7l-74.6,74.6c-9.9,9.9-9.4,26.7,1.3,37.3c10.7,10.6,27.3,11.2,37.3,1.3l74.6-74.6
		c9.9-9.9,9.4-26.7-1.3-37.3C1335.9,1013.3,1319.2,1012.9,1309.3,1022.7z"/>
	<path class="st0" d="M1549.1,1064.7l-74.6,74.6c-9.9,9.9-9.4,26.7,1.3,37.3c10.6,10.6,27.3,11.2,37.3,1.3l74.6-74.6
		c9.9-9.9,9.4-26.7-1.3-37.3C1575.7,1055.4,1559,1054.8,1549.1,1064.7z"/>
	<path class="st0" d="M1513.7,969.3c-5.8-5.8-15.4-5.8-21.2,0l-93.1,93.1c-5.8,5.8-5.8,15.4,0,21.2c5.8,5.8,15.4,5.8,21.2,0
		l93.1-93.1C1519.5,984.7,1519.5,975.3,1513.7,969.3z"/>
	<path class="st0" d="M1421.4,910.1l99.6-99.6c3.8-3.8,3.8-9.9,0-13.6s-9.9-3.8-13.6,0l-99.7,99.4c-3.8,3.8-3.8,9.9,0,13.6
		C1411.4,913.9,1417.6,913.9,1421.4,910.1z"/>
	<path class="st0" d="M1157.5,914.7l42.2-42.2c2.2-2.2,2.2-5.5,0-7.7c-2.2-2.2-5.5-2.2-7.7,0l-42.2,42.2c-2.2,2.2-2.2,5.5,0,7.7
		C1152,916.8,1155.5,916.8,1157.5,914.7z"/>
	<path class="st0" d="M1290.3,932.7l-24.4,24.4c-3.8,3.8-3.8,9.9,0,13.6c3.8,3.8,9.9,3.8,13.6,0l24.4-24.4c3.8-3.8,3.8-9.9,0-13.6
		C1300,929,1293.9,929,1290.3,932.7z"/>
	<path class="st0" d="M1593.4,940.9l-19,19c-2,2-2,5.4,0,7.5c2,2,5.4,2,7.5,0l19-19c2-2,2-5.4,0-7.5
		C1598.9,938.8,1595.6,938.8,1593.4,940.9z"/>
	<path class="st0" d="M1683.9,957c-3.3-3.3-8.7-3.3-11.9,0l-21.8,21.8c-3.3,3.3-3.3,8.7,0,11.9c3.3,3.3,8.6,3.3,11.9,0l21.8-21.8
		C1687.2,965.5,1687.2,960.2,1683.9,957z"/>
	<path class="st0" d="M1601.3,780.7l-21.8,21.8c-3.3,3.3-3.3,8.7,0,11.9c3.3,3.3,8.6,3.3,11.9,0l21.8-21.8c3.3-3.3,3.3-8.7,0-11.9
		C1609.8,777.4,1604.6,777.4,1601.3,780.7z"/>
	<path class="st0" d="M1404.7,734.1c-15.5-15.5-40.6-15.5-56,0l-102.5,102.5c-15.5,15.5-15.5,40.6,0,56c15.5,15.5,40.6,15.5,56,0
		l102.5-102.5C1420.2,774.8,1420.2,749.7,1404.7,734.1z"/>
	<path class="st0" d="M1573.1,525.8c-3.3-3.3-8.7-3.3-11.9,0l-21.8,21.8c-3.3,3.3-3.3,8.7,0,11.9c3.3,3.3,8.7,3.3,11.9,0l21.8-21.8
		C1576.4,534.4,1576.4,529.2,1573.1,525.8z"/>
	<path class="st0" d="M1093.5,791.8l-11.9,11.9c-2.2,2.2-2.2,5.5,0,7.7c2.2,2.2,5.5,2.2,7.7,0l11.9-11.9c2.2-2.2,2.2-5.5,0-7.7
		C1099.1,789.7,1095.6,789.7,1093.5,791.8z"/>
	<path class="st0" d="M1053.1,706.6c2,2,5.2,2,7.3,0l42.2-42.2c2-2,2-5.2,0-7.3c-2-2-5.2-2-7.3,0l-42.2,42.2
		C1051.1,701.3,1051.1,704.5,1053.1,706.6z"/>
	<path class="st0" d="M1247.3,546.7l-11.5,11.5c-1.9,1.9-1.9,4.9,0,6.8c1.9,1.9,4.9,1.9,6.8,0l11.5-11.5c1.9-1.9,1.9-4.9,0-6.8
		C1252.3,544.9,1249.2,544.9,1247.3,546.7z"/>
	<path class="st0" d="M1073.3,622.7l29-29c2-2,2-5.2,0-7.3c-2-2-5.2-2-7.3,0l-29,29c-2,2-2,5.2,0,7.3
		C1068.1,624.5,1071.4,624.5,1073.3,622.7z"/>
	
		<rect x="1200.5" y="508.5" transform="matrix(0.7071 -0.7071 0.7071 0.7071 7.5783 1036.9821)" class="st0" width="110" height="1.6"/>
	
		<rect x="962.9" y="900.9" transform="matrix(0.7071 -0.7071 0.7071 0.7071 -316.0502 1041.0688)" class="st0" width="271.5" height="2.3"/>
	
		<rect x="836.6" y="1137.3" transform="matrix(0.7071 -0.7071 0.7071 0.7071 -520.2492 1021.0255)" class="st0" width="271.5" height="2.3"/>
	<polygon class="st0" points="1794.3,373 1602.3,564.9 1604,566.6 1796.1,374.6 	"/>
	<path class="st0" d="M1254.6,748.8l183.6-183.6c8.9-8.9,8.9-23.2,0-32.1c-8.9-8.9-23.2-8.9-32.1,0l-183.6,183.6
		c-8.9,8.9-8.9,23.2,0,32.1C1231.4,757.5,1245.6,757.5,1254.6,748.8z"/>
	<polygon class="st0" points="1415,716.1 1527.2,603.9 1526.5,603.2 1414.3,715.4 	"/>
	<path class="st0" d="M1569.9,712.5c-0.7-0.7-1.7-0.7-2.5,0l-53.6,53.6c-0.7,0.7-0.7,1.7,0,2.5s1.7,0.7,2.5,0l53.6-53.6
		C1570.6,714.3,1570.6,713.2,1569.9,712.5z"/>
	<path class="st0" d="M1416,937.1c-0.7-0.7-1.7-0.7-2.5,0l-53.6,53.6c-0.7,0.7-0.7,1.7,0,2.5c0.7,0.7,1.7,0.7,2.5,0l53.6-53.6
		C1416.6,938.8,1416.6,937.8,1416,937.1z"/>
	<path class="st0" d="M1772,1093.7l-52.5,52.5c-7,7-6.5,18.7,0.9,26.3c7.5,7.5,19.3,7.8,26.3,0.9l52.5-52.5c7-7,6.5-18.7-0.9-26.3
		C1790.7,1087,1778.9,1086.8,1772,1093.7z"/>
	<path class="st0" d="M1731,1098.5l52.5-52.5c7-7,6.5-18.7-0.9-26.3c-7.5-7.5-19.3-7.8-26.3-0.9l-52.5,52.5c-7,7-6.5,18.7,0.9,26.3
		C1712.2,1105.2,1723.9,1105.5,1731,1098.5z"/>
	<path class="st0" d="M1897.4,1062.7l-74.6,74.6c-9.9,9.9-9.4,26.7,1.3,37.3c10.7,10.6,27.3,11.2,37.3,1.3l74.6-74.6
		c9.9-9.9,9.4-26.7-1.3-37.3C1924.1,1053.4,1907.3,1052.8,1897.4,1062.7z"/>
	<path class="st0" d="M2137.2,1104.6l-74.6,74.6c-9.9,9.9-9.4,26.7,1.3,37.3c10.6,10.6,27.3,11.2,37.3,1.3l74.6-74.6
		c9.9-9.9,9.4-26.7-1.3-37.3C2163.9,1095.3,2147.2,1094.7,2137.2,1104.6z"/>
	<path class="st0" d="M2101.8,1009.2c-5.8-5.8-15.4-5.8-21.2,0l-93.1,93.1c-5.8,5.8-5.8,15.4,0,21.2s15.4,5.8,21.2,0l93.1-93.1
		C2107.7,1024.6,2107.7,1015.2,2101.8,1009.2z"/>
	<path class="st0" d="M1878.4,972.7L1854,997c-3.8,3.8-3.8,9.9,0,13.6s9.9,3.8,13.6,0l24.4-24.4c3.8-3.8,3.8-9.9,0-13.6
		C1888.2,969,1882.1,969,1878.4,972.7z"/>
	<path class="st0" d="M2181.6,980.8l-19,19c-2,2-2,5.4,0,7.5c2,2,5.4,2,7.5,0l19-19c2-2,2-5.4,0-7.5
		C2187,978.8,2183.7,978.8,2181.6,980.8z"/>
	<path class="st0" d="M2271.9,996.9c-3.3-3.3-8.7-3.3-11.9,0l-21.8,21.8c-3.3,3.3-3.3,8.7,0,11.9c3.3,3.3,8.6,3.3,11.9,0l21.8-21.8
		C2275.3,1005.5,2275.3,1000.2,2271.9,996.9z"/>
	
		<rect x="1424.8" y="1177.2" transform="matrix(0.7071 -0.7071 0.7071 0.7071 -376.1584 1448.5995)" class="st0" width="271.5" height="2.3"/>
	<path class="st0" d="M2004.1,977c-0.7-0.7-1.7-0.7-2.5,0l-53.6,53.6c-0.7,0.7-0.7,1.7,0,2.5s1.7,0.7,2.5,0l53.6-53.6
		C2004.8,978.8,2004.8,977.7,2004.1,977z"/>
	<path class="st0" d="M1954.7,155.5l-52.5,52.5c-7,7-6.5,18.7,0.9,26.3c7.5,7.5,19.3,7.8,26.3,0.9l52.5-52.5c7-7,6.5-18.7-0.9-26.3
		C1973.5,148.8,1961.7,148.6,1954.7,155.5z"/>
	<path class="st0" d="M1913.6,160.3l52.5-52.5c7-7,6.5-18.7-0.9-26.3c-7.5-7.5-19.3-7.8-26.3-0.9l-52.5,52.5c-7,7-6.5,18.7,0.9,26.3
		C1894.9,166.8,1906.7,167.3,1913.6,160.3z"/>
	<path class="st0" d="M2080.2,124.5l-74.6,74.6c-9.9,9.9-9.4,26.7,1.3,37.3c10.6,10.6,27.3,11.2,37.3,1.3l74.6-74.6
		c9.9-9.9,9.4-26.7-1.3-37.3C2106.7,115,2090,114.6,2080.2,124.5z"/>
	<path class="st0" d="M2320,166.4l-74.6,74.6c-9.9,9.9-9.4,26.7,1.3,37.3c10.6,10.6,27.3,11.2,37.3,1.3l74.6-74.6
		c9.9-9.9,9.4-26.7-1.3-37.3C2346.5,157,2329.8,156.5,2320,166.4z"/>
	<path class="st0" d="M2284.5,71c-5.8-5.8-15.4-5.8-21.2,0l-93.1,93.1c-5.8,5.8-5.8,15.4,0,21.2c5.8,5.8,15.4,5.8,21.2,0l93.1-93.1
		C2290.4,86.4,2290.4,77,2284.5,71z"/>
	<path class="st0" d="M2061.1,34.5l-24.4,24.4c-3.8,3.8-3.8,9.9,0,13.6s9.9,3.8,13.6,0l24.4-24.4c3.8-3.8,3.8-9.9,0-13.6
		C2071,30.7,2064.8,30.7,2061.1,34.5z"/>
	<path class="st0" d="M2364.2,42.6l-19,19c-2,2-2,5.4,0,7.5c2,2,5.4,2,7.5,0l19-19c2-2,2-5.4,0-7.5
		C2369.8,40.5,2366.4,40.5,2364.2,42.6z"/>
	<path class="st0" d="M2454.7,58.7c-3.3-3.3-8.6-3.3-11.9,0L2421,80.5c-3.3,3.3-3.3,8.7,0,11.9c3.3,3.3,8.7,3.3,11.9,0l21.8-21.8
		C2458,67.3,2458,61.9,2454.7,58.7z"/>
	
		<rect x="1607.5" y="239.1" transform="matrix(0.7071 -0.7071 0.7071 0.7071 340.6915 1302.9913)" class="st0" width="271.5" height="2.3"/>
	<path class="st0" d="M2186.8,38.8c-0.7-0.7-1.7-0.7-2.5,0l-53.6,53.6c-0.7,0.7-0.7,1.7,0,2.5c0.7,0.7,1.7,0.7,2.5,0l53.6-53.6
		C2187.4,40.5,2187.4,39.4,2186.8,38.8z"/>
	<circle class="st0" cx="1616.2" cy="642.5" r="39.2"/>
	<circle class="st0" cx="1171.3" cy="636.3" r="39.2"/>
	<path class="st0" d="M933.2,1077.2c21.6,0,39.2-17.6,39.2-39.2s-17.6-39.2-39.2-39.2S894,1016.3,894,1038
		C894,1059.6,911.6,1077.2,933.2,1077.2z"/>
	<path class="st0" d="M1970.4,838.4l-52.5,52.5c-7,7-6.5,18.7,0.9,26.3c7.5,7.5,19.3,7.8,26.3,0.9l52.5-52.5c7-7,6.5-18.7-0.9-26.3
		C1989.1,831.8,1977.4,831.4,1970.4,838.4z"/>
	<path class="st0" d="M1929.5,843.2l52.5-52.5c7-7,6.5-18.7-0.9-26.3c-7.5-7.5-19.3-7.8-26.3-0.9l-52.5,52.5c-7,7-6.5,18.7,0.9,26.3
		C1910.6,849.8,1922.5,850.3,1929.5,843.2z"/>
	<path class="st0" d="M1770.2,605.2l-74.6,74.6c-9.9,9.9-9.4,26.7,1.3,37.3c10.6,10.6,27.3,11.2,37.3,1.3l74.6-74.6
		c9.9-9.9,9.4-26.7-1.3-37.3C1796.8,596,1780.2,595.4,1770.2,605.2z"/>
	<path class="st0" d="M2133.1,808.6c-10.6-10.6-27.3-11.2-37.3-1.3l-74.6,74.6c-9.9,9.9-9.4,26.7,1.3,37.3
		c10.6,10.6,27.3,11.2,37.3,1.3l74.6-74.6C2144.3,836.1,2143.7,819.4,2133.1,808.6z"/>
	<path class="st0" d="M2373,850.6c-10.6-10.6-27.3-11.2-37.3-1.3l-74.6,74.6c-9.9,9.9-9.4,26.7,1.3,37.3
		c10.6,10.6,27.3,11.2,37.3,1.3l74.6-74.6C2384.1,878,2383.5,861.2,2373,850.6z"/>
	<path class="st0" d="M1944.1,699.3l42.2-42.2c2.2-2.2,2.2-5.5,0-7.7c-2.2-2.2-5.5-2.2-7.7,0l-42.2,42.2c-2.2,2.2-2.2,5.5,0,7.7
		C1938.6,701.5,1942,701.5,1944.1,699.3z"/>
	<path class="st0" d="M2076.8,717.5l-24.4,24.4c-3.8,3.8-3.8,9.9,0,13.6c3.8,3.8,9.9,3.8,13.6,0l24.4-24.4c3.8-3.8,3.8-9.9,0-13.6
		C2086.7,713.7,2080.6,713.7,2076.8,717.5z"/>
	<path class="st0" d="M2191.3,518.9c-15.5-15.5-40.6-15.5-56,0l-102.5,102.5c-15.5,15.5-15.5,40.6,0,56c15.5,15.5,40.6,15.5,56,0
		l102.5-102.5C2206.9,559.4,2206.9,534.3,2191.3,518.9z"/>
	<path class="st0" d="M2337.8,344.2l21.8-21.8c3.3-3.3,3.3-8.7,0-11.9s-8.7-3.3-11.9,0l-21.8,21.8c-3.3,3.3-3.3,8.7,0,11.9
		C2329.3,347.4,2334.6,347.4,2337.8,344.2z"/>
	<path class="st0" d="M1875.9,596l11.9-11.9c2.2-2.2,2.2-5.5,0-7.7s-5.5-2.2-7.7,0l-11.9,11.9c-2.2,2.2-2.2,5.5,0,7.7
		C1870.4,598.1,1873.7,598.1,1875.9,596z"/>
	<path class="st0" d="M1846.9,491.1l42.2-42.2c2-2,2-5.2,0-7.3c-2-2-5.2-2-7.3,0l-42.1,42.2c-2,2-2,5.2,0,7.3
		C1841.6,493.2,1844.8,493.2,1846.9,491.1z"/>
	<path class="st0" d="M2033.8,331.5l-11.5,11.5c-1.9,1.9-1.9,4.9,0,6.8c1.9,1.9,4.9,1.9,6.8,0l11.5-11.5c1.9-1.9,1.9-4.9,0-6.8
		S2035.7,329.6,2033.8,331.5z"/>
	<path class="st0" d="M1859.9,407.2l29-29c2-2,2-5.2,0-7.3c-2-2-5.2-2-7.3,0l-29,29c-2,2-2,5.2,0,7.3
		C1854.7,409.3,1857.9,409.3,1859.9,407.2z"/>
	
		<rect x="1987.1" y="293.3" transform="matrix(0.7071 -0.7071 0.7071 0.7071 390.163 1530.1318)" class="st0" width="110" height="1.6"/>
	
		<rect x="2047" y="944.6" transform="matrix(0.7071 -0.7071 0.7071 0.7071 -52.8486 1763.2476)" class="st0" width="110" height="1.6"/>
	
		<rect x="1749.6" y="685.5" transform="matrix(0.7071 -0.7071 0.7071 0.7071 66.637 1534.2614)" class="st0" width="271.5" height="2.3"/>
	
		<rect x="1623.3" y="922" transform="matrix(0.7071 -0.7071 0.7071 0.7071 -137.562 1514.2179)" class="st0" width="271.5" height="2.3"/>
	<path class="st0" d="M2251.4,882.2c-3.3-3.3-8.9-3.3-12.2,0l-69.7,69.7c-3.3,3.3-3.3,8.9,0,12.2c3.3,3.3,8.9,3.3,12.2,0l69.7-69.7
		C2254.9,890.9,2254.9,885.6,2251.4,882.2z"/>
	<path class="st0" d="M2041.1,533.4l183.6-183.6c8.9-8.9,8.9-23.2,0-32.1s-23.2-8.9-32.1,0L2009,501.3c-8.9,8.9-8.9,23.2,0,32.1
		C2017.9,542.2,2032.2,542.2,2041.1,533.4z"/>
	<polygon class="st0" points="2201.5,500.7 2313.7,388.5 2313,387.8 2200.8,500 	"/>
	<path class="st0" d="M2353.9,497.1l-53.6,53.6c-0.7,0.7-0.7,1.7,0,2.5c0.7,0.7,1.7,0.7,2.5,0l53.6-53.6c0.7-0.7,0.7-1.7,0-2.5
		C2355.8,496.4,2354.7,496.4,2353.9,497.1z"/>
	<path class="st0" d="M2202.5,721.7c-0.7-0.7-1.7-0.7-2.5,0l-53.6,53.6c-0.7,0.7-0.7,1.7,0,2.5s1.7,0.7,2.5,0l53.6-53.6
		C2203.3,723.6,2203.3,722.4,2202.5,721.7z"/>
	<path class="st0" d="M1957.8,460.2c21.6,0,39.2-17.6,39.2-39.2c0-21.6-17.6-39.2-39.2-39.2s-39.2,17.6-39.2,39.2
		C1918.6,442.7,1936.1,460.2,1957.8,460.2z"/>
	<path class="st0" d="M1680.5,822.6c0,21.6,17.6,39.2,39.2,39.2s39.2-17.6,39.2-39.2c0-21.6-17.6-39.2-39.2-39.2
		S1680.5,800.9,1680.5,822.6z"/>
	<path class="st0" d="M1304.4,332.9l-52.5,52.5c-7,7-6.5,18.7,0.9,26.3c7.5,7.5,19.3,7.8,26.3,0.9l52.5-52.5c7-7,6.5-18.7-0.9-26.3
		C1323.1,326.2,1311.4,325.8,1304.4,332.9z"/>
	<path class="st0" d="M1263.5,337.7l52.5-52.5c7-7,6.5-18.7-0.9-26.3c-7.5-7.5-19.3-7.8-26.3-0.9l-52.5,52.5c-7,7-6.5,18.7,0.9,26.3
		C1244.6,344.2,1256.5,344.7,1263.5,337.7z"/>
	<path class="st0" d="M1068.2,212.7l74.6-74.6c9.9-9.9,9.4-26.7-1.3-37.3c-10.6-10.6-27.3-11.2-37.3-1.3l-74.6,74.6
		c-9.9,9.9-9.4,26.7,1.3,37.3C1041.5,222.2,1058.2,222.7,1068.2,212.7z"/>
	<path class="st0" d="M1393.8,414.9l74.6-74.6c9.9-9.9,9.4-26.7-1.3-37.3c-10.6-10.6-27.3-11.2-37.3-1.3l-74.5,74.6
		c-9.9,9.9-9.4,26.7,1.3,37.3C1367.1,424.4,1383.8,424.9,1393.8,414.9z"/>
	<path class="st0" d="M1596.3,455.6c10.6,10.6,27.3,11.2,37.3,1.3l74.6-74.6c9.9-9.9,9.4-26.7-1.3-37.3
		c-10.6-10.6-27.3-11.2-37.3-1.3l-74.6,74.6C1585.1,428.3,1585.7,445,1596.3,455.6z"/>
	<path class="st0" d="M1520,362.7c5.8,5.8,15.4,5.8,21.2,0l93.1-93.1c5.8-5.8,5.8-15.4,0-21.2s-15.4-5.8-21.2,0l-93.1,93.1
		C1514,347.4,1514,356.9,1520,362.7z"/>
	<path class="st0" d="M1528.2,189.1c3.8,3.8,9.9,3.8,13.6,0l99.6-99.6c3.8-3.8,3.8-9.9,0-13.6c-3.8-3.8-9.9-3.8-13.6,0l-99.6,99.6
		C1524.5,179.2,1524.5,185.3,1528.2,189.1z"/>
	<path class="st0" d="M1270.4,186.1c-2.2,2.2-2.2,5.5,0,7.7s5.5,2.2,7.7,0l42.2-42.2c2.2-2.2,2.2-5.5,0-7.7c-2.2-2.2-5.5-2.2-7.7,0
		L1270.4,186.1z"/>
	<path class="st0" d="M1410.8,211.8l-24.4,24.4c-3.8,3.8-3.8,9.9,0,13.6s9.9,3.8,13.6,0l24.4-24.4c3.8-3.8,3.8-9.9,0-13.6
		C1420.7,208.1,1414.6,208.1,1410.8,211.8z"/>
	<path class="st0" d="M1702.4,246.5l19-19c2-2,2-5.4,0-7.5c-2-2-5.4-2-7.5,0l-18.9,19c-2,2-2,5.4,0,7.5
		C1697.1,248.6,1700.4,248.6,1702.4,246.5z"/>
	<path class="st0" d="M1782.6,269.8l21.8-21.8c3.3-3.3,3.3-8.7,0-11.9c-3.3-3.3-8.6-3.3-11.9,0l-21.8,21.8c-3.3,3.3-3.3,8.7,0,11.9
		C1774,273.1,1779.4,273.1,1782.6,269.8z"/>
	<path class="st0" d="M1422.8,171.9l102.5-102.5c15.5-15.5,15.5-40.6,0-56c-15.5-15.5-40.6-15.5-56,0l-102.6,102.3
		c-15.5,15.5-15.5,40.6,0,56C1382.2,187.3,1407.3,187.3,1422.8,171.9z"/>
	
		<rect x="1380.8" y="439.1" transform="matrix(0.7071 -0.7071 0.7071 0.7071 109.4929 1144.1521)" class="st0" width="110" height="1.6"/>
	
		<rect x="1083.6" y="179.9" transform="matrix(0.7071 -0.7071 0.7071 0.7071 229.0814 915.2083)" class="st0" width="271.5" height="2.3"/>
	
		<rect x="957.3" y="416.4" transform="matrix(0.7071 -0.7071 0.7071 0.7071 24.8983 895.1491)" class="st0" width="271.5" height="2.3"/>
	<path class="st0" d="M1585.4,376.6c-3.3-3.3-8.9-3.3-12.2,0l-69.7,69.7c-3.3,3.3-3.3,8.9,0,12.2c3.3,3.3,8.9,3.3,12.2,0l69.7-69.7
		C1588.9,385.3,1588.9,379.9,1585.4,376.6z"/>
	<path class="st0" d="M1533.9,216.1l-53.6,53.6c-0.7,0.7-0.7,1.7,0,2.5s1.7,0.7,2.5,0l53.6-53.6c0.7-0.7,0.7-1.7,0-2.5
		S1534.8,215.5,1533.9,216.1z"/>
	<path class="st0" d="M1053.8,356.1c21.6,0,39.2-17.6,39.2-39.2c0-21.6-17.6-39.2-39.2-39.2s-39.2,17.6-39.2,39.2
		C1014.5,338.7,1032.1,356.1,1053.8,356.1z"/>
</g>
</svg>
