<?xml version="1.0" encoding="utf-8"?>
<!-- Generator: Adobe Illustrator 21.0.0, SVG Export Plug-In . SVG Version: 6.00 Build 0)  -->
<svg version="1.1" id="Layer_1" xmlns="http://www.w3.org/2000/svg" xmlns:xlink="http://www.w3.org/1999/xlink" x="0px" y="0px"
	 viewBox="0 0 1920 1320" style="enable-background:new 0 0 1920 1320;" xml:space="preserve">
<style type="text/css">
	.st0{fill:#E65100;}
</style>
<g>
	<g>
		<path class="st0" d="M211.8,585.2c-0.7-0.7-1.8-0.8-2.6-0.2c-0.7,0.7-0.8,1.8-0.2,2.6l5.8,6.6c0.7,0.7,1.8,0.8,2.6,0.2
			c0.7-0.7,0.8-1.8,0.2-2.6L211.8,585.2z M440.9-207.1l9.7-3.7c1.1-0.4,1.7-1.7,1.2-2.8c-0.4-1.1-1.7-1.7-2.8-1.2l-9.7,3.7
			c-1.1,0.4-1.7,1.7-1.2,2.8C438.6-207.2,439.8-206.6,440.9-207.1z M480.8,8.7l-7.6,6.3c-0.9,0.7-1,2-0.3,2.9c0.7,0.9,2,1,2.9,0.3
			l7.6-6.3c0.9-0.7,1-2,0.3-2.9C483,8.1,481.6,8,480.8,8.7z M505.2,555.5c1.5,1,3.4,0.6,4.4-0.8c1-1.5,0.6-3.4-0.8-4.4l-12.8-8.8
			c-1.5-1-3.4-0.6-4.4,0.8c-1,1.5-0.6,3.4,0.8,4.4L505.2,555.5z M151.3-124.2c-2.2-1.6-5.2-1.2-6.9,0.9l-14.3,18.9
			c-1.6,2.2-1.2,5.2,0.9,6.9c2.2,1.6,5.2,1.2,6.9-0.9l14.3-18.9C153.9-119.5,153.4-122.6,151.3-124.2z M740.1-148.6
			c0.7,1,2.1,1.3,3.1,0.6c1-0.7,1.3-2.1,0.6-3.1l-6.2-9c-0.7-1-2.1-1.3-3.1-0.6c-1,0.7-1.3,2.1-0.6,3.1L740.1-148.6z M773.6-199.2
			c1.5,1.7,4,1.8,5.7,0.3l14.5-12.9c1.7-1.5,1.8-4,0.3-5.7c-1.5-1.7-4-1.8-5.7-0.3l-14.5,12.9C772.3-203.4,772.1-200.9,773.6-199.2z
			 M421.5,34.4l-7.6,8.5c-0.9,1-0.8,2.5,0.2,3.3c1,0.9,2.5,0.8,3.3-0.2l7.6-8.5c0.9-1,0.8-2.5-0.2-3.3
			C423.9,33.4,422.4,33.4,421.5,34.4z M171.8,116.9l8.2-23.6c0.9-2.7-0.5-5.6-3.2-6.5s-5.6,0.5-6.5,3.2l-8.2,23.6
			c-0.9,2.7,0.5,5.6,3.2,6.5S170.9,119.6,171.8,116.9z M162.5-40.6l18.5,14c2.1,1.6,5.1,1.2,6.7-0.9c1.6-2.1,1.2-5.1-0.9-6.7
			l-18.5-14c-2.1-1.6-5.1-1.2-6.7,0.9C160-45.2,160.4-42.2,162.5-40.6z M114.8,316c-1.8-0.3-3.5,1-3.7,2.8l-2.2,15.9
			c-0.3,1.8,1,3.5,2.8,3.7c1.8,0.3,3.5-1,3.7-2.8l2.3-15.9C117.9,318,116.6,316.3,114.8,316z M858,97.2c1.3,2.4,4.3,3.3,6.7,2
			s3.3-4.3,2-6.7l-11.3-21.1c-1.3-2.4-4.3-3.3-6.7-2s-3.3,4.3-2,6.7L858,97.2z M787.9,140.1c-1.7-2.2-4.8-2.7-7.1-1l-19.6,14.6
			c-2.2,1.7-2.7,4.8-1,7.1c1.7,2.2,4.8,2.7,7.1,1l19.6-14.6C789.1,145.5,789.6,142.4,787.9,140.1z M827.8-131.2l16.1-7.3
			c1.8-0.8,2.6-3,1.8-4.8c-0.8-1.8-3-2.6-4.8-1.8l-16.2,7.3c-1.8,0.8-2.6,3-1.8,4.8C823.8-131.1,825.9-130.3,827.8-131.2z
			 M572.2,196.9l-1.4,33.1c-0.2,3.8,2.8,7,6.5,7.1c3.8,0.2,7-2.8,7.1-6.5l1.4-33.1c0.2-3.8-2.8-7-6.5-7.1
			C575.5,190.2,572.4,193.1,572.2,196.9z M317.7,225.8l-14.7,0.8c-1.7,0.1-3,1.5-2.9,3.2s1.5,3,3.2,2.9l14.7-0.8
			c1.7-0.1,3-1.5,2.9-3.2S319.3,225.7,317.7,225.8z M676-190.3l3.9-7.3c0.5-0.8,0.1-1.9-0.7-2.3c-0.8-0.5-1.9-0.1-2.3,0.7l-3.9,7.3
			c-0.5,0.8-0.1,1.9,0.7,2.3C674.5-189.2,675.5-189.5,676-190.3z M863.7-203.4l23.7-6.5c2.7-0.7,4.3-3.5,3.5-6.2
			c-0.7-2.7-3.5-4.3-6.2-3.5l-23.7,6.5c-2.7,0.7-4.3,3.5-3.5,6.2S861-202.6,863.7-203.4z M349.6-206.5c0.6,1.8,2.5,2.7,4.3,2.1
			c1.7-0.6,2.6-2.5,2.1-4.3l-5.2-15.5c-0.6-1.8-2.5-2.7-4.3-2.1c-1.8,0.6-2.7,2.5-2.1,4.3L349.6-206.5z M560.7,54.1L541,39.9
			c-2.3-1.6-5.4-1.1-7,1.2s-1.1,5.4,1.2,7l19.8,14.1c2.3,1.6,5.4,1.1,7-1.2C563.6,58.8,563.1,55.7,560.7,54.1z M446.9,157.2
			c1.3,1.2,3.3,1.1,4.5-0.2c1.2-1.3,1.1-3.3-0.2-4.5L439.7,142c-1.3-1.2-3.3-1.1-4.5,0.2c-1.2,1.3-1.1,3.3,0.2,4.5L446.9,157.2z
			 M602.4-280.4c0.2,1,1.1,1.7,2.1,1.6c1-0.2,1.7-1.1,1.6-2.1l-1.3-9c-0.2-1-1.1-1.7-2.1-1.6c-1,0.2-1.7,1.1-1.6,2.1L602.4-280.4z
			 M660.2,334c-0.9-0.4-2-0.1-2.4,0.8l-3.8,7.8c-0.4,0.9-0.1,2,0.8,2.4c0.9,0.4,2,0.1,2.4-0.8l3.8-7.8
			C661.5,335.6,661.1,334.5,660.2,334z M670.2-1.9c-0.9,2.2,0.1,4.7,2.3,5.6l19.1,8c2.2,0.9,4.7-0.1,5.6-2.3
			c0.9-2.2-0.1-4.7-2.3-5.6l-19.1-8C673.6-5.1,671.1-4.1,670.2-1.9z M315,57.6c0.3,1.2,1.6,2,2.8,1.7c1.2-0.3,2-1.6,1.7-2.8
			l-2.7-10.9c-0.3-1.2-1.6-2-2.8-1.7c-1.2,0.3-2,1.6-1.7,2.8L315,57.6z M592.4,312.4l-26.4,4.6c-3,0.5-5,3.4-4.5,6.4s3.4,5,6.4,4.5
			l26.4-4.6c3-0.5,5-3.4,4.5-6.4C598.2,313.9,595.4,311.9,592.4,312.4z M781.9,491.4c-1.3-3.4-5.1-5.1-8.5-3.8l-29.8,11.3
			c-3.4,1.3-5.1,5.1-3.8,8.5c1.3,3.4,5.1,5.1,8.5,3.8l29.8-11.3C781.5,498.6,783.2,494.8,781.9,491.4z M86.5-237.5l28-0.8
			c3.2-0.1,5.7-2.7,5.6-5.9c-0.1-3.2-2.7-5.7-5.9-5.6l-28,0.8c-3.2,0.1-5.7,2.7-5.6,5.9C80.7-239.9,83.3-237.4,86.5-237.5z
			 M650.1-46.3c2.2-0.4,3.6-2.5,3.2-4.7l-3.6-19c-0.4-2.2-2.5-3.6-4.7-3.2c-2.2,0.4-3.6,2.5-3.2,4.7l3.6,19
			C645.9-47.3,648-45.9,650.1-46.3z M357.9,330.7c-1.1-2.7-4.1-3.9-6.7-2.9l-23.4,9.4c-2.7,1.1-3.9,4.1-2.9,6.7
			c1.1,2.7,4.1,3.9,6.7,2.9l23.4-9.4C357.7,336.3,359,333.3,357.9,330.7z M930.8-172.9l19.2,3.5c2.2,0.4,4.3-1,4.7-3.2
			c0.4-2.2-1-4.3-3.2-4.7l-19.3-3.5c-2.2-0.4-4.3,1-4.7,3.2C927.1-175.4,928.6-173.3,930.8-172.9z M264.6,483.9l-23.7,23
			c-2.7,2.6-2.8,6.9-0.2,9.6s6.9,2.8,9.6,0.2l23.7-23c2.7-2.6,2.8-6.9,0.2-9.6C271.6,481.4,267.3,481.3,264.6,483.9z M592.6,623.7
			l-8.6-6.2c-1-0.7-2.4-0.5-3.1,0.5s-0.5,2.4,0.5,3.1l8.7,6.2c1,0.7,2.4,0.5,3.1-0.5C593.8,625.8,593.6,624.4,592.6,623.7z
			 M150.4,171l-12.6-7c-1.4-0.8-3.2-0.3-4,1.1c-0.8,1.4-0.3,3.2,1.1,4l12.6,7c1.4,0.8,3.2,0.3,4-1.1
			C152.4,173.6,151.9,171.8,150.4,171z M762.4,616c-2.6-2.7-6.9-2.8-9.6-0.2c-2.7,2.6-2.8,6.9-0.2,9.6l22.9,23.7
			c2.6,2.7,6.9,2.8,9.6,0.2s2.8-6.9,0.2-9.6L762.4,616z M605.6,0.9l-7.2,10.3c-0.8,1.2-0.5,2.8,0.7,3.6s2.8,0.5,3.6-0.7l7.2-10.3
			c0.8-1.2,0.5-2.8-0.7-3.6S606.4-0.3,605.6,0.9z M141.1,612.9c-0.9-0.7-2.2-0.6-2.9,0.3c-0.7,0.9-0.6,2.2,0.3,2.9l7.6,6.3
			c0.9,0.7,2.2,0.6,2.9-0.3c0.7-0.9,0.6-2.2-0.3-2.9L141.1,612.9z M888.3,3.9c-1.3-0.3-2.7,0.5-3,1.8l-2.9,11.5
			c-0.3,1.3,0.5,2.7,1.8,3c1.3,0.3,2.7-0.5,3-1.8l2.9-11.5C890.4,5.5,889.6,4.2,888.3,3.9z M552.9,374.6c-1-0.6-2.3-0.2-2.8,0.8
			l-4.9,8.9c-0.6,1-0.2,2.3,0.8,2.8c1,0.6,2.3,0.2,2.8-0.8l4.9-8.9C554.3,376.4,553.9,375.1,552.9,374.6z M392.4,575.6
			c-3.6-0.7-7.1,1.7-7.7,5.3l-5.8,31.8c-0.7,3.6,1.7,7.1,5.3,7.7c3.6,0.7,7.1-1.7,7.7-5.3l5.8-31.8
			C398.4,579.7,396,576.3,392.4,575.6z M931.5,206.2l-8.3,3c-1,0.3-1.4,1.4-1.1,2.3c0.3,1,1.4,1.4,2.3,1.1l8.3-3
			c1-0.3,1.4-1.4,1.1-2.3C933.5,206.4,932.4,205.9,931.5,206.2z M32.8,436.5L9.4,457.4c-2.7,2.4-2.9,6.4-0.5,9.1
			c2.4,2.7,6.4,2.9,9.1,0.5l23.5-20.9c2.7-2.4,2.9-6.4,0.5-9.1C39.6,434.4,35.5,434.2,32.8,436.5z M548.2,116.7
			c0.3-2.9-1.8-5.6-4.7-5.9c-2.9-0.3-5.6,1.8-5.9,4.7l-2.8,25.8c-0.3,2.9,1.8,5.6,4.7,5.9c2.9,0.3,5.6-1.8,5.9-4.7L548.2,116.7z
			 M21.5-133.3c1-1.3,0.7-3.1-0.5-4.1l-11.1-8.6c-1.3-1-3.1-0.8-4.1,0.5c-1,1.3-0.8,3.1,0.5,4.1l11.1,8.6
			C18.7-131.8,20.6-132,21.5-133.3z M49.1,177.8c-3.3-1-6.8,1-7.8,4.3l-8.5,29.3c-1,3.3,1,6.8,4.3,7.8c3.3,1,6.8-1,7.8-4.3l8.5-29.3
			C54.3,182.3,52.4,178.8,49.1,177.8z M186.9,497.4l-10.3-3.6c-1.2-0.4-2.5,0.2-2.9,1.4s0.2,2.5,1.4,2.9l10.3,3.6
			c1.2,0.4,2.5-0.2,2.9-1.4C188.7,499.1,188.1,497.8,186.9,497.4z M235.9,654.1l-13.5-4.2c-1.5-0.5-3.2,0.4-3.7,1.9
			c-0.5,1.5,0.4,3.2,1.9,3.7l13.5,4.2c1.5,0.5,3.2-0.4,3.7-1.9C238.3,656.2,237.4,654.6,235.9,654.1z M679.9,638.3l-6.3,7.2
			c-0.7,0.8-0.6,2.1,0.2,2.8c0.8,0.7,2.1,0.6,2.8-0.2l6.3-7.2c0.7-0.8,0.6-2.1-0.2-2.8C681.9,637.4,680.7,637.5,679.9,638.3z
			 M16.4-51.2l-3.5,9.1c-0.4,1,0.1,2.2,1.1,2.6c1,0.4,2.2-0.1,2.6-1.1l3.5-9.1c0.4-1-0.1-2.2-1.1-2.6C18-52.8,16.9-52.3,16.4-51.2z
			 M63.3-120.7l-0.3,8.9c0,1,0.8,1.9,1.8,1.9s1.9-0.8,1.9-1.8l0.3-8.9c0-1-0.8-1.9-1.8-1.9C64.1-122.5,63.3-121.7,63.3-120.7z
			 M770.3-264c1.4,0.6,3.1,0,3.7-1.5l5.5-12.6c0.6-1.4,0-3.1-1.4-3.7s-3.1,0-3.7,1.5l-5.5,12.6C768.3-266.3,768.9-264.6,770.3-264z
			 M763.1,85.9l14.9-4.4c1.7-0.5,2.7-2.3,2.2-4c-0.5-1.7-2.3-2.7-4-2.2l-14.9,4.4c-1.7,0.5-2.7,2.3-2.2,4
			C759.6,85.4,761.4,86.4,763.1,85.9z M413.2-53.3l7.8,2.9c0.9,0.3,1.9-0.1,2.2-1c0.3-0.9-0.1-1.9-1-2.2l-7.8-2.9
			c-0.9-0.3-1.9,0.1-2.2,1C411.9-54.6,412.4-53.6,413.2-53.3z M16.8,276.7c1.3-1.3,1.4-3.4,0.1-4.7L5.7,260.4
			c-1.3-1.3-3.4-1.4-4.7-0.1c-1.3,1.3-1.4,3.4-0.1,4.7l11.1,11.6C13.4,277.9,15.5,278,16.8,276.7z M953,642.7l-9.6,9.4
			c-1.1,1.1-1.1,2.8,0,3.9c1.1,1.1,2.8,1.1,3.9,0.1l9.6-9.4c1.1-1.1,1.1-2.8,0.1-3.9C955.8,641.6,954.1,641.6,953,642.7z
			 M822.7,303.2l-10.2,0.4c-1.2,0.1-2.1,1-2,2.2c0,1.2,1,2.1,2.2,2l10.2-0.4c1.2-0.1,2.1-1,2-2.2C824.8,304,823.8,303.1,822.7,303.2
			z M707.6,409.7l-10.3,4.8c-1.2,0.5-1.7,1.9-1.1,3.1c0.5,1.2,2,1.7,3.1,1.1l10.3-4.8c1.2-0.5,1.7-1.9,1.1-3.1
			C710.2,409.6,708.8,409.1,707.6,409.7z M118.7,37.5c0.9-2.5-0.5-5.3-3-6.2l-22.4-7.8c-2.5-0.9-5.3,0.5-6.2,3
			c-0.9,2.5,0.5,5.3,3,6.2l22.4,7.8C115.1,41.4,117.8,40,118.7,37.5z M186.9,28.4c-1.4,0.1-2.4,1.4-2.3,2.8l1.2,12.3
			c0.1,1.4,1.4,2.4,2.8,2.3c1.4-0.1,2.4-1.4,2.3-2.8l-1.2-12.3C189.6,29.3,188.3,28.3,186.9,28.4z M618.2,430.8l-8.2-3.9
			c-0.9-0.4-2.1,0-2.5,0.9c-0.4,0.9-0.1,2.1,0.9,2.5l8.2,3.9c0.9,0.4,2.1,0,2.5-0.9C619.5,432.4,619.1,431.3,618.2,430.8z
			 M292.2-115.5c-0.5-2.5-3-4.1-5.5-3.6l-22.2,4.6c-2.5,0.5-4.1,3-3.6,5.5c0.5,2.5,3,4.1,5.5,3.6l22.2-4.6
			C291.1-110.5,292.7-113,292.2-115.5z M12.7,41c-2.8,1.8-3.7,5.5-1.9,8.4l15.6,25c1.8,2.8,5.5,3.7,8.4,1.9c2.8-1.8,3.7-5.5,1.9-8.4
			l-15.6-25C19.3,40.1,15.5,39.2,12.7,41z M62.4,616.6c-3.5-0.9-7,1.2-7.9,4.7l-7.7,30.6c-0.9,3.5,1.2,7,4.7,7.9
			c3.5,0.9,7-1.2,7.9-4.7l7.7-30.6C67.9,621,65.8,617.5,62.4,616.6z M317.9,130.2l-16.2,7c-1.8,0.8-2.7,2.9-1.9,4.8
			c0.8,1.8,2.9,2.7,4.8,1.9l16.2-7c1.8-0.8,2.7-2.9,1.9-4.8C321.9,130.3,319.7,129.4,317.9,130.2z M53.9,383.3
			c0.8,1.3,2.6,1.7,3.9,0.9c1.3-0.8,1.7-2.6,0.9-3.9l-7.3-11.6c-0.8-1.3-2.6-1.7-3.9-0.9c-1.3,0.8-1.7,2.6-0.9,3.9L53.9,383.3z
			 M293.4,440.7l12-12.7c1.4-1.4,1.3-3.7-0.1-5.1c-1.4-1.4-3.7-1.3-5.1,0.1l-12,12.7c-1.4,1.4-1.3,3.7,0.1,5.1
			C289.7,442.2,292,442.1,293.4,440.7z M236.7,130.1c0.7,1.2,2.2,1.6,3.5,0.9c1.2-0.7,1.6-2.2,0.9-3.4L235,117
			c-0.7-1.2-2.2-1.6-3.4-0.9s-1.6,2.2-0.9,3.5L236.7,130.1z M183.6-146.1c-0.5,3,1.5,5.9,4.6,6.5l26.8,4.6c3,0.5,5.9-1.5,6.5-4.6
			c0.5-3-1.5-5.9-4.6-6.5l-26.8-4.6C187-151.2,184.1-149.2,183.6-146.1z M923.6-78.6c0.6-0.8,0.5-1.9-0.3-2.5l-6.7-5.5
			c-0.8-0.6-1.9-0.5-2.5,0.3c-0.6,0.8-0.5,1.9,0.3,2.5l6.7,5.5C921.8-77.8,923-77.9,923.6-78.6z M8.7,603.2c-0.4-1.3-1.8-2-3-1.6
			c-1.3,0.4-2,1.7-1.6,3L7.5,616c0.4,1.3,1.8,2,3,1.6c1.3-0.4,2-1.8,1.6-3L8.7,603.2z M766.6,216.7c-1.1,0.5-1.5,1.8-1,2.9l4.7,9.5
			c0.5,1.1,1.8,1.5,2.9,1s1.5-1.8,1-2.9l-4.7-9.5C769,216.6,767.7,216.1,766.6,216.7z M253.8-41.8c2.2,2.2,5.8,2.2,8.1,0
			c2.2-2.2,2.2-5.8,0-8.1l-19.5-19.6c-2.2-2.2-5.8-2.2-8.1,0c-2.2,2.2-2.2,5.8,0,8.1L253.8-41.8z M644.4-117.5
			c2.4-0.7,3.8-3.3,3.1-5.7l-6.4-21.4c-0.7-2.4-3.3-3.8-5.7-3.1c-2.4,0.7-3.8,3.3-3.1,5.7l6.4,21.4
			C639.3-118.2,642-116.8,644.4-117.5z M64.9,278.2l-11.3,4.2c-1.3,0.5-1.9,1.9-1.5,3.2c0.5,1.3,1.9,1.9,3.2,1.5l11.3-4.2
			c1.3-0.5,1.9-1.9,1.5-3.2C67.7,278.4,66.2,277.7,64.9,278.2z M827.5,15.1c2.3-2.4,2.2-6.1-0.1-8.4c-2.4-2.3-6.1-2.2-8.4,0.1
			l-20.2,20.9c-2.3,2.4-2.2,6.1,0.1,8.4c2.4,2.3,6.1,2.2,8.4-0.1L827.5,15.1z M417.2,255.4l-13.4,9.1c-1.5,1-1.9,3.1-0.9,4.7
			c1,1.5,3.1,1.9,4.7,0.9L421,261c1.5-1,1.9-3.1,0.9-4.7C420.8,254.7,418.7,254.3,417.2,255.4z M870.3,355c-2.2-0.5-4.5,0.9-5,3.1
			l-4.6,19.8c-0.5,2.3,0.9,4.5,3.1,5c2.2,0.5,4.5-0.9,5-3.1l4.6-19.8C873.9,357.8,872.5,355.5,870.3,355z M816,420.8
			c-3.1-0.6-6.2,1.4-6.8,4.6l-5.4,27.7c-0.6,3.1,1.4,6.2,4.6,6.8c3.1,0.6,6.2-1.4,6.8-4.6l5.4-27.7
			C821.1,424.4,819.1,421.4,816,420.8z M263.5-187.7c0.8,0.8,2,0.7,2.8,0c0.8-0.8,0.7-2,0-2.8l-6.9-6.7c-0.8-0.8-2-0.7-2.8,0
			c-0.8,0.8-0.7,2,0,2.8L263.5-187.7z M266.8,266.5c-0.1-2.7-2.4-4.9-5.2-4.7l-24.1,1c-2.7,0.1-4.9,2.4-4.7,5.2
			c0.1,2.7,2.4,4.9,5.2,4.7l24.1-1C264.8,271.6,266.9,269.3,266.8,266.5z M25,527.5c-2.3,0.2-4.1,2.2-3.9,4.6l1.7,20.5
			c0.2,2.3,2.2,4,4.6,3.9c2.3-0.2,4.1-2.2,3.9-4.6l-1.7-20.5C29.4,529,27.3,527.3,25,527.5z M798.2,565.5c-1.5,0.1-2.6,1.3-2.5,2.7
			l0.5,12.8c0.1,1.5,1.3,2.6,2.7,2.5c1.5-0.1,2.6-1.3,2.5-2.7L801,568C801,566.6,799.7,565.5,798.2,565.5z M63.3-284.7l12.8-5.4
			c1.5-0.6,2.1-2.3,1.5-3.7c-0.6-1.5-2.3-2.1-3.7-1.5l-12.8,5.4c-1.5,0.6-2.1,2.3-1.5,3.7C60.1-284.7,61.8-284,63.3-284.7z
			 M952.1,8.4l-9-1.5c-1-0.2-2,0.5-2.2,1.5s0.5,2,1.5,2.2l9,1.5c1,0.2,2-0.5,2.2-1.5C953.8,9.5,953.1,8.5,952.1,8.4z M857,220.2
			c-1.2-2.5-4.2-3.6-6.7-2.4l-22.2,10.3c-2.5,1.2-3.6,4.2-2.4,6.7c1.2,2.5,4.2,3.6,6.7,2.4l22.3-10.3
			C857.1,225.7,858.2,222.7,857,220.2z M275.1,331.6l-15,0.6c-1.7,0.1-3,1.5-3,3.2c0.1,1.7,1.5,3,3.2,3l15-0.6c1.7-0.1,3-1.5,3-3.2
			C278.3,332.9,276.8,331.6,275.1,331.6z M924,95.6c0.7,1.3,2.3,1.8,3.6,1.1l11.4-6c1.3-0.7,1.8-2.3,1.1-3.6
			c-0.7-1.3-2.3-1.8-3.6-1.1l-11.4,6C923.8,92.7,923.3,94.3,924,95.6z M673.3,484.5c-0.6,0.9-0.5,2.1,0.4,2.7l7.5,5.6
			c0.9,0.6,2.1,0.5,2.7-0.4c0.6-0.9,0.5-2.1-0.4-2.7l-7.5-5.6C675.2,483.5,674,483.6,673.3,484.5z M733.3,326.2
			c-2.8,0.1-5,2.4-4.9,5.1l0.5,24.4c0.1,2.8,2.4,5,5.1,4.9c2.8-0.1,5-2.4,4.9-5.1l-0.5-24.4C738.4,328.5,736.1,326.2,733.3,326.2z
			 M478.7-278.2c0.2,1,1.2,1.6,2.2,1.4c1-0.2,1.6-1.2,1.4-2.2l-2-8.6c-0.2-1-1.2-1.6-2.2-1.4c-1,0.2-1.6,1.2-1.4,2.2L478.7-278.2z
			 M669-249.6c2.8,1.8,6.5,0.9,8.3-1.8l15.6-24.7c1.8-2.8,0.9-6.5-1.9-8.3c-2.8-1.8-6.5-0.9-8.3,1.8L667.1-258
			C665.4-255.1,666.2-251.4,669-249.6z M636.1,153.4l-7.8,4.2c-0.9,0.5-1.2,1.6-0.7,2.5s1.6,1.2,2.5,0.7l7.8-4.2
			c0.9-0.5,1.2-1.6,0.7-2.5C638.1,153.3,637,153,636.1,153.4z M474.7-64l20.9-2.8c2.4-0.3,4-2.5,3.7-4.9c-0.3-2.4-2.5-4-4.9-3.7
			l-20.9,2.8c-2.4,0.3-4,2.5-3.7,4.9C470.2-65.4,472.4-63.7,474.7-64z M610.3,91.5c-1.4-0.9-3.2-0.6-4.1,0.8l-8,11.9
			c-0.9,1.4-0.6,3.2,0.8,4.1c1.4,0.9,3.2,0.6,4.1-0.8l8-11.9C612.1,94.2,611.7,92.4,610.3,91.5z M488.6,77.4c-2-1.3-4.7-0.7-6,1.3
			l-11.4,17.7c-1.3,2-0.7,4.7,1.3,6c2,1.3,4.7,0.7,6-1.3l11.4-17.7C491.3,81.4,490.7,78.7,488.6,77.4z M290.5,618.3
			c-0.5-1-1.7-1.4-2.7-0.9c-1,0.5-1.4,1.7-0.9,2.7l4.3,8.6c0.5,1,1.7,1.4,2.7,0.9s1.4-1.7,0.9-2.7L290.5,618.3z M727.1,260.6
			c-1.7-0.8-3.8-0.1-4.6,1.6l-7.3,14.9c-0.8,1.7-0.1,3.8,1.6,4.6s3.8,0.1,4.6-1.6l7.3-14.9C729.5,263.4,728.8,261.4,727.1,260.6z
			 M508.9,600.3l-24.4,20.1c-2.8,2.3-3.2,6.4-0.9,9.1c2.3,2.8,6.4,3.2,9.1,0.9l24.4-20.1c2.8-2.3,3.2-6.4,0.9-9.1
			C515.8,598.4,511.7,598,508.9,600.3z M92.5,108.5c-1.5,0-2.7,1.1-2.7,2.6c0,1.5,1.1,2.7,2.6,2.7l12.8,0.4c1.5,0,2.7-1.1,2.7-2.6
			c0-1.5-1.1-2.7-2.6-2.7L92.5,108.5z M878.3,163.3l-0.8-25.8c-0.1-2.9-2.5-5.2-5.5-5.1c-2.9,0.1-5.2,2.5-5.1,5.5l0.8,25.8
			c0.1,2.9,2.5,5.2,5.5,5.1C876,168.7,878.4,166.3,878.3,163.3z M135.4,223.3c-0.6-3.6-4.1-6-7.7-5.4l-31.9,5.6
			c-3.6,0.6-6,4.1-5.4,7.7c0.6,3.6,4.1,6,7.7,5.4l31.9-5.5C133.6,230.4,136.1,227,135.4,223.3z M330-66.2c-0.4,0.9-0.1,1.9,0.8,2.4
			c0.9,0.4,1.9,0.1,2.4-0.8l3.9-7.6c0.4-0.9,0.1-1.9-0.8-2.4c-0.9-0.4-1.9-0.1-2.4,0.8L330-66.2z M146.8,414.8
			c-1.1-1.1-2.9-1.1-4,0.1l-9.6,9.8c-1.1,1.1-1.1,2.9,0.1,4c1.1,1.1,2.9,1.1,4-0.1l9.6-9.8C147.9,417.6,147.9,415.9,146.8,414.8z
			 M7-272.3c2.1,0.4,4-1,4.4-3l3.3-18c0.4-2.1-1-4-3-4.4c-2.1-0.4-4,1-4.4,3l-3.3,18C3.6-274.7,5-272.7,7-272.3z M93.8,558.3
			c-0.7-1-2.1-1.2-3.1-0.4c-1,0.7-1.2,2.1-0.4,3.1l6.4,8.5c0.7,1,2.1,1.2,3.1,0.4c1-0.7,1.2-2.1,0.4-3.1L93.8,558.3z M715.8,149.5
			c-1.7-2.2-4.9-2.6-7.1-0.9l-19.4,14.9c-2.2,1.7-2.6,4.9-0.9,7.1c1.7,2.2,4.9,2.6,7.1,0.9l19.4-14.9
			C717.1,154.9,717.5,151.7,715.8,149.5z M365.8,640.9l-19.6,9.8c-2.2,1.1-3.1,3.8-2,6.1c1.1,2.2,3.8,3.1,6.1,2l19.6-9.8
			c2.2-1.1,3.1-3.8,2-6.1C370.7,640.7,368,639.8,365.8,640.9z M310.5,557l-8.8-1c-1-0.1-1.9,0.6-2,1.6c-0.1,1,0.6,1.9,1.6,2l8.8,1
			c1,0.1,1.9-0.6,2-1.6S311.5,557.1,310.5,557z M931.9,420.6c-0.6-1.1-2-1.5-3.1-1l-9.8,5.1c-1.1,0.6-1.5,2-1,3.1
			c0.6,1.1,2,1.5,3.1,1l9.8-5.1C932.1,423.1,932.5,421.7,931.9,420.6z M582.9,513.9c-0.9-0.4-1.9,0-2.3,0.9l-3.6,7.7
			c-0.4,0.9,0,1.9,0.9,2.3c0.9,0.4,1.9,0,2.3-0.9l3.6-7.7C584.2,515.4,583.8,514.4,582.9,513.9z M684.4,562.9l-14.9,0.1
			c-1.7,0-3.1,1.4-3.1,3.1s1.4,3.1,3.1,3.1l14.9-0.1c1.7,0,3.1-1.4,3.1-3.1S686.1,562.9,684.4,562.9z M955.3,277.9
			c1.1,0,1.9-0.9,1.9-2l-0.3-9.3c0-1.1-0.9-1.9-2-1.9s-1.9,0.9-1.9,2l0.3,9.3C953.4,277.1,954.3,277.9,955.3,277.9z M99.1,492
			l-13.9-2.5c-1.6-0.3-3.1,0.8-3.4,2.4c-0.3,1.6,0.8,3.1,2.4,3.4l13.9,2.5c1.6,0.3,3.1-0.8,3.4-2.4
			C101.7,493.8,100.7,492.3,99.1,492z M959.5,139.8c-1.9-1.6-4.6-1.3-6.2,0.6l-13.6,16.4c-1.6,1.9-1.3,4.6,0.6,6.2
			c1.9,1.6,4.7,1.3,6.2-0.6l13.6-16.4C961.6,144.1,961.4,141.3,959.5,139.8z M880.5,570c-0.4-1.7-2-2.7-3.7-2.3l-14.6,3.2
			c-1.7,0.4-2.7,2-2.3,3.7c0.4,1.7,2,2.7,3.7,2.3l14.5-3.2C879.8,573.3,880.9,571.6,880.5,570z M517.3,423.9l-28.2,6.3
			c-3.2,0.7-5.2,3.9-4.5,7.1c0.7,3.2,3.9,5.2,7.1,4.5l28.2-6.3c3.2-0.7,5.2-3.9,4.5-7.1C523.7,425.2,520.5,423.2,517.3,423.9z
			 M627,271.5l-9.1,2.8c-1,0.3-1.6,1.4-1.3,2.5c0.3,1,1.4,1.6,2.5,1.3l9.1-2.8c1-0.3,1.6-1.4,1.3-2.5
			C629.2,271.7,628.1,271.2,627,271.5z M518.3-190.8c0.4,1.3,1.8,2.1,3.1,1.7c1.3-0.4,2.1-1.8,1.7-3.1l-3.4-11.7
			c-0.4-1.3-1.8-2.1-3.1-1.7c-1.3,0.4-2.1,1.8-1.7,3.1L518.3-190.8z M487.8,213.7c1,2.6,3.9,4,6.5,3l23.1-8.3c2.6-1,4-3.9,3-6.5
			s-3.9-4-6.5-3l-23.1,8.3C488.2,208.1,486.9,211.1,487.8,213.7z M388.1-261.2l18.9-21.6c2.2-2.4,1.9-6.2-0.5-8.3
			c-2.5-2.2-6.2-1.9-8.3,0.5l-19,21.6c-2.2,2.4-1.9,6.2,0.5,8.3C382.2-258.5,386-258.7,388.1-261.2z M453.8,645.4l-9-0.2
			c-1,0-1.9,0.8-1.9,1.8c0,1,0.8,1.9,1.8,1.9l9,0.2c1,0,1.9-0.8,1.9-1.8C455.6,646.2,454.8,645.4,453.8,645.4z M422.6,525l-23.4,5.3
			c-2.7,0.6-4.3,3.3-3.7,5.9c0.6,2.7,3.3,4.3,5.9,3.7l23.4-5.3c2.7-0.6,4.3-3.3,3.7-5.9C427.9,526.1,425.3,524.4,422.6,525z
			 M31.1,133.7l-5.8,7.9c-0.7,0.9-0.5,2.2,0.4,2.8c0.9,0.7,2.2,0.5,2.8-0.4l5.8-7.9c0.7-0.9,0.5-2.2-0.4-2.8
			C33,132.6,31.8,132.8,31.1,133.7z M289.4-271.3c0.5,1,1.7,1.3,2.7,0.8c1-0.5,1.3-1.7,0.8-2.7l-4.6-8.4c-0.5-1-1.7-1.3-2.7-0.8
			c-1,0.5-1.3,1.7-0.8,2.7L289.4-271.3z M403.9-153.6c-3.7-0.3-7,2.5-7.3,6.2l-2.7,32.7c-0.3,3.7,2.5,7,6.2,7.3
			c3.7,0.3,7-2.5,7.3-6.2l2.7-32.8C410.4-150,407.7-153.3,403.9-153.6z M539-244.5l24.4-19.1c2.8-2.2,3.2-6.2,1.1-9
			c-2.2-2.8-6.2-3.2-9-1.1l-24.4,19.1c-2.8,2.2-3.2,6.2-1.1,9C532.2-242.8,536.2-242.3,539-244.5z M83.5-33.7c1.1-0.5,1.6-1.9,1-3
			l-4.7-9.7c-0.5-1.1-1.9-1.6-3-1c-1.1,0.5-1.6,1.9-1,3l4.7,9.7C81.1-33.6,82.4-33.2,83.5-33.7z M442.8,340.3
			c-2.5-1.1-5.4,0.1-6.4,2.6l-9.3,21.9c-1.1,2.5,0.1,5.4,2.6,6.4c2.5,1.1,5.4-0.1,6.4-2.6l9.3-21.9
			C446.5,344.2,445.4,341.3,442.8,340.3z M331.4-139.3c1,0.1,1.9-0.6,2-1.6l0.9-8.8c0.1-1-0.6-1.9-1.6-2c-1-0.1-1.9,0.6-2,1.6
			l-0.9,8.8C329.7-140.3,330.4-139.4,331.4-139.3z M500.6,286.1c-2-2.5-5.6-3-8.1-1c-2.5,2-3,5.6-1,8.1l17.3,22.2c2,2.5,5.6,3,8.2,1
			c2.5-2,3-5.6,1-8.1L500.6,286.1z M952.6,510.2c0.6-2.3-0.8-4.5-3.1-5.1l-19.9-4.9c-2.3-0.6-4.5,0.8-5.1,3.1
			c-0.6,2.3,0.8,4.5,3.1,5.1l19.9,4.9C949.8,513.8,952,512.4,952.6,510.2z M220.4,218.6c1.5-2,1.2-4.9-0.9-6.5l-17.7-13.6
			c-2-1.5-4.9-1.2-6.5,0.9c-1.5,2-1.2,4.9,0.9,6.5l17.8,13.6C215.9,221,218.8,220.6,220.4,218.6z M383.8,194.1
			c0.3,1,1.4,1.5,2.4,1.2s1.5-1.4,1.2-2.4l-2.9-8.6c-0.3-1-1.4-1.5-2.4-1.2c-1,0.3-1.5,1.4-1.2,2.4L383.8,194.1z M677,75.4l-5.3-6.9
			c-0.6-0.8-1.7-0.9-2.5-0.3c-0.8,0.6-0.9,1.7-0.3,2.5l5.3,6.9c0.6,0.8,1.7,0.9,2.5,0.3C677.4,77.3,677.6,76.2,677,75.4z
			 M179.8-240.9c3,2,7.1,1.2,9-1.8l17.4-26.5c2-3,1.2-7.1-1.8-9c-3-2-7.1-1.2-9,1.8L178-250C176-247,176.8-242.9,179.8-240.9z
			 M543.3-21.3c0.2-1.1-0.5-2.2-1.6-2.5l-9.9-2.1c-1.1-0.2-2.2,0.5-2.5,1.6c-0.2,1.1,0.5,2.2,1.6,2.5l9.9,2.1
			C541.9-19.4,543-20.1,543.3-21.3z M212.8,376.3c-2.6,0.8-4.1,3.5-3.3,6.2l6.9,23.1c0.8,2.6,3.5,4.1,6.2,3.3
			c2.6-0.8,4.1-3.5,3.3-6.2l-6.9-23.1C218.2,377,215.5,375.5,212.8,376.3z M897.3,628.4L872,636c-2.9,0.9-4.5,3.9-3.6,6.8
			c0.9,2.9,3.9,4.5,6.8,3.6l25.3-7.6c2.9-0.9,4.5-3.9,3.6-6.8C903.2,629.2,900.1,627.5,897.3,628.4z M732-20.1c-1.9,3-1,6.9,1.9,8.8
			L760,5.3c3,1.9,6.9,1,8.8-1.9c1.9-3,1-6.9-1.9-8.8L740.8-22C737.9-24,733.9-23.1,732-20.1z M675.1,231.1c1.1-2.1,0.4-4.6-1.7-5.8
			l-18-9.9c-2.1-1.1-4.6-0.4-5.8,1.7c-1.1,2.1-0.4,4.6,1.7,5.8l18,9.9C671.4,233.9,674,233.2,675.1,231.1z M384.6,105
			c1.2-0.3,1.9-1.6,1.6-2.8l-2.9-10.5c-0.3-1.2-1.6-1.9-2.8-1.6c-1.2,0.3-1.9,1.6-1.6,2.8l2.9,10.5
			C382.1,104.6,383.4,105.3,384.6,105z M356.7,515.8c2.7-1,4.1-4,3.1-6.7l-8.8-23.9c-1-2.7-4-4.1-6.7-3.1c-2.7,1-4.1,4-3.1,6.7
			l8.8,23.9C351,515.5,354,516.9,356.7,515.8z M379.8,421.9l11.8,6.6c1.3,0.8,3,0.3,3.8-1.1c0.8-1.3,0.3-3-1.1-3.8l-11.8-6.6
			c-1.3-0.8-3.1-0.3-3.8,1.1C378,419.4,378.5,421.1,379.8,421.9z M262.5,11.2l-7.1,8.3c-0.8,0.9-0.7,2.4,0.2,3.2
			c0.9,0.8,2.4,0.7,3.2-0.2l7.1-8.3c0.8-0.9,0.7-2.4-0.2-3.2C264.8,10.2,263.3,10.3,262.5,11.2z M721.3-76.1l11.8-7.6
			c1.3-0.9,1.7-2.7,0.9-4c-0.9-1.3-2.7-1.7-4-0.9L718.1-81c-1.3,0.9-1.7,2.7-0.9,4C718-75.6,719.9-75.2,721.3-76.1z M797.2,384.4
			l-4.6-21.4c-0.5-2.4-2.9-4-5.4-3.5c-2.4,0.5-4,2.9-3.5,5.4l4.6,21.4c0.5,2.4,2.9,4,5.4,3.5C796.1,389.2,797.7,386.8,797.2,384.4z
			 M877.8,493.3c-0.9-2.5-3.7-3.9-6.2-3l-22.3,7.9c-2.5,0.9-3.9,3.7-2.9,6.2c0.9,2.5,3.7,3.9,6.2,2.9l22.3-7.9
			C877.4,498.7,878.7,495.9,877.8,493.3z M907.5,275.3l-16.8-2.9c-1.9-0.3-3.7,1-4.1,2.9c-0.3,1.9,1,3.7,2.9,4.1l16.8,2.9
			c1.9,0.3,3.7-1,4.1-2.9C910.8,277.4,909.5,275.6,907.5,275.3z M590.6-187.6c2,1.3,4.7,0.7,6-1.4l11.2-17.8c1.3-2,0.7-4.7-1.4-6
			c-2-1.3-4.7-0.7-6,1.4l-11.2,17.8C588-191.5,588.6-188.8,590.6-187.6z M498.8-118.7c2.5,0.5,4.9-1.1,5.4-3.6l4.3-21.7
			c0.5-2.5-1.1-4.9-3.6-5.4c-2.5-0.5-4.9,1.1-5.4,3.6l-4.3,21.7C494.7-121.6,496.3-119.2,498.8-118.7z M943,586.5
			c1-0.2,1.6-1.2,1.3-2.2l-2.2-8.5c-0.2-1-1.2-1.6-2.2-1.3c-1,0.2-1.6,1.2-1.3,2.2l2.2,8.5C941.1,586.1,942.1,586.7,943,586.5z
			 M809.2-51.9l29.4-4.1c3.3-0.5,5.7-3.6,5.2-6.9c-0.5-3.3-3.6-5.7-6.9-5.2L807.5-64c-3.3,0.5-5.7,3.6-5.2,6.9
			C802.8-53.8,805.8-51.5,809.2-51.9z M898-263.6l18.1-14.4c2.1-1.6,2.4-4.6,0.8-6.7c-1.6-2.1-4.6-2.4-6.7-0.7l-18.1,14.4
			c-2.1,1.6-2.4,4.6-0.7,6.7C893-262.3,896-261.9,898-263.6z M183.4,305.4c0.5-1,0.1-2.2-0.9-2.8l-8.8-4.5c-1-0.5-2.2-0.1-2.8,0.9
			c-0.5,1-0.1,2.2,0.9,2.8l8.8,4.5C181.7,306.8,182.9,306.4,183.4,305.4z M572.1-80.4l14-11.6c1.6-1.3,1.8-3.7,0.5-5.3
			c-1.3-1.6-3.7-1.8-5.3-0.5l-14,11.6c-1.6,1.3-1.8,3.7-0.5,5.3C568.1-79.3,570.5-79,572.1-80.4z M92.8-173.1l17.8-1.8
			c2-0.2,3.5-2,3.3-4.1c-0.2-2-2-3.5-4.1-3.3L92-180.5c-2,0.2-3.5,2-3.3,4.1C89-174.4,90.8-172.9,92.8-173.1z M931.7,343.7
			c0.5,0.9,1.7,1.2,2.7,0.7l8.1-4.7c0.9-0.5,1.2-1.7,0.7-2.7c-0.5-0.9-1.7-1.2-2.7-0.7l-8.1,4.7
			C931.5,341.6,931.2,342.8,931.7,343.7z M470.1,465.9c-3.2-0.6-6.3,1.6-6.9,4.8l-5.1,28.4c-0.6,3.2,1.6,6.3,4.8,6.9
			c3.2,0.6,6.3-1.6,6.9-4.8l5-28.4C475.4,469.6,473.3,466.5,470.1,465.9z M12.8-211.4c1.7,1.3,4,1,5.3-0.7l11.2-14.6
			c1.3-1.7,1-4-0.7-5.3c-1.7-1.3-4-1-5.3,0.7l-11.2,14.6C10.9-215,11.2-212.7,12.8-211.4z M357.5-5.7l7.9,5.8
			c0.9,0.7,2.2,0.5,2.8-0.4c0.7-0.9,0.5-2.2-0.4-2.8l-7.9-5.8c-0.9-0.7-2.2-0.5-2.8,0.4C356.4-7.6,356.6-6.3,357.5-5.7z
			 M1172.3,585.2c-0.7-0.7-1.8-0.8-2.6-0.2c-0.7,0.7-0.8,1.8-0.2,2.6l5.8,6.6c0.7,0.7,1.8,0.8,2.6,0.2c0.7-0.7,0.8-1.8,0.2-2.6
			L1172.3,585.2z M1401.6-207.1l9.7-3.7c1.1-0.4,1.7-1.7,1.2-2.8c-0.4-1.1-1.7-1.7-2.8-1.2l-9.7,3.7c-1.1,0.4-1.7,1.7-1.2,2.8
			C1399.2-207.2,1400.5-206.6,1401.6-207.1z M1441.4,8.7l-7.6,6.3c-0.9,0.7-1,2-0.3,2.9c0.7,0.9,2,1,2.9,0.3l7.6-6.3
			c0.9-0.7,1-2,0.3-2.9C1443.5,8.1,1442.3,8,1441.4,8.7z M1465.7,555.5c1.5,1,3.4,0.6,4.4-0.8c1-1.5,0.6-3.4-0.8-4.4l-12.8-8.8
			c-1.5-1-3.4-0.6-4.4,0.8c-1,1.5-0.6,3.4,0.8,4.4L1465.7,555.5z M1111.8-124.2c-2.2-1.6-5.2-1.2-6.9,0.9l-14.3,18.9
			c-1.6,2.2-1.2,5.2,0.9,6.9c2.2,1.6,5.2,1.2,6.9-0.9l14.3-18.9C1114.5-119.5,1114.1-122.6,1111.8-124.2z M1700.7-148.6
			c0.7,1,2.1,1.3,3.1,0.6c1-0.7,1.3-2.1,0.6-3.1l-6.2-9c-0.7-1-2.1-1.3-3.1-0.6c-1,0.7-1.3,2.1-0.6,3.1L1700.7-148.6z M1734.1-199.2
			c1.5,1.7,4,1.8,5.7,0.3l14.5-12.9c1.7-1.5,1.8-4,0.3-5.7c-1.5-1.7-4-1.8-5.7-0.3l-14.5,12.9
			C1732.8-203.4,1732.6-200.9,1734.1-199.2z M1382,34.4l-7.6,8.5c-0.9,1-0.8,2.5,0.2,3.3c1,0.9,2.5,0.8,3.3-0.2l7.6-8.5
			c0.9-1,0.8-2.5-0.2-3.3C1384.4,33.4,1382.9,33.4,1382,34.4z M1132.3,116.9l8.2-23.6c0.9-2.7-0.5-5.6-3.2-6.5
			c-2.7-0.9-5.6,0.5-6.5,3.2l-8.2,23.6c-0.9,2.7,0.5,5.6,3.2,6.5S1131.4,119.6,1132.3,116.9z M1123.2-40.6l18.5,14
			c2.1,1.6,5.1,1.2,6.7-0.9c1.6-2.1,1.2-5.1-0.9-6.7l-18.5-14c-2.1-1.6-5.1-1.2-6.7,0.9C1120.6-45.2,1121.1-42.2,1123.2-40.6z
			 M1075.4,316c-1.8-0.3-3.5,1-3.7,2.8l-2.2,15.9c-0.3,1.8,1,3.5,2.8,3.7c1.8,0.3,3.5-1,3.7-2.8l2.3-15.9
			C1078.5,318,1077.2,316.3,1075.4,316z M1818.5,97.2c1.3,2.4,4.3,3.3,6.7,2c2.4-1.3,3.3-4.3,2-6.7l-11.3-21.1
			c-1.3-2.4-4.3-3.3-6.7-2s-3.3,4.3-2,6.7L1818.5,97.2z M1748.6,140.1c-1.7-2.2-4.8-2.7-7.1-1l-19.6,14.6c-2.2,1.7-2.7,4.8-1,7.1
			c1.7,2.2,4.8,2.7,7.1,1l19.6-14.6C1749.8,145.5,1750.2,142.4,1748.6,140.1z M1788.4-131.2l16.1-7.3c1.8-0.8,2.6-3,1.8-4.8
			c-0.8-1.8-3-2.6-4.8-1.8l-16.1,7.3c-1.8,0.8-2.6,3-1.8,4.8C1784.3-131.1,1786.6-130.3,1788.4-131.2z M1532.7,196.9l-1.4,33.1
			c-0.2,3.8,2.8,7,6.5,7.1c3.8,0.2,7-2.8,7.1-6.5l1.4-33.1c0.2-3.8-2.8-7-6.5-7.1C1536.1,190.2,1532.9,193.1,1532.7,196.9z
			 M1278.3,225.8l-14.7,0.8c-1.7,0.1-3,1.5-2.9,3.2s1.5,3,3.2,2.9l14.7-0.8c1.7-0.1,3-1.5,2.9-3.2
			C1281.4,227,1280,225.7,1278.3,225.8z M1636.6-190.3l3.9-7.3c0.5-0.8,0.1-1.9-0.7-2.3c-0.8-0.5-1.9-0.1-2.3,0.7l-3.9,7.3
			c-0.5,0.8-0.1,1.9,0.7,2.3C1635.1-189.2,1636.1-189.5,1636.6-190.3z M1824.3-203.4l23.7-6.5c2.7-0.7,4.3-3.5,3.5-6.2
			c-0.7-2.7-3.5-4.3-6.2-3.5l-23.7,6.5c-2.7,0.7-4.3,3.5-3.5,6.2C1818.8-204.2,1821.6-202.6,1824.3-203.4z M1310.1-206.5
			c0.6,1.8,2.5,2.7,4.3,2.1c1.8-0.6,2.7-2.5,2.1-4.3l-5.2-15.5c-0.6-1.8-2.5-2.7-4.3-2.1c-1.8,0.6-2.7,2.5-2.1,4.3L1310.1-206.5z
			 M1521.4,54.1l-19.8-14.1c-2.3-1.6-5.4-1.1-7,1.2s-1.1,5.4,1.2,7l19.8,14.1c2.3,1.6,5.4,1.1,7-1.2
			C1524.1,58.8,1523.6,55.7,1521.4,54.1z M1407.4,157.2c1.3,1.2,3.3,1.1,4.5-0.2c1.2-1.3,1.1-3.3-0.2-4.5l-11.4-10.5
			c-1.3-1.2-3.3-1.1-4.5,0.2c-1.2,1.3-1.1,3.3,0.2,4.5L1407.4,157.2z M1563-280.4c0.2,1,1.1,1.7,2.1,1.6c1-0.2,1.7-1.1,1.6-2.1
			l-1.3-9c-0.2-1-1.1-1.7-2.1-1.6c-1,0.2-1.7,1.1-1.6,2.1L1563-280.4z M1620.8,334c-0.9-0.4-2-0.1-2.4,0.8l-3.8,7.8
			c-0.4,0.9-0.1,2,0.8,2.4c0.9,0.4,2,0.1,2.4-0.8l3.8-7.8C1622,335.6,1621.7,334.5,1620.8,334z M1630.8-1.9
			c-0.9,2.2,0.1,4.7,2.3,5.6l19.1,8c2.2,0.9,4.7-0.1,5.6-2.3s-0.1-4.7-2.3-5.6l-19.1-8C1634.2-5.1,1631.7-4.1,1630.8-1.9z
			 M1275.7,57.6c0.3,1.2,1.6,2,2.8,1.7c1.2-0.3,2-1.6,1.7-2.8l-2.7-10.9c-0.3-1.2-1.6-2-2.8-1.7c-1.2,0.3-2,1.6-1.7,2.8L1275.7,57.6
			z M1553,312.4l-26.4,4.6c-3,0.5-5,3.4-4.5,6.4c0.5,3,3.4,5,6.4,4.5l26.4-4.6c3-0.5,5-3.4,4.5-6.4S1556,311.9,1553,312.4z
			 M1742.5,491.4c-1.3-3.4-5.1-5.1-8.5-3.8l-29.8,11.3c-3.4,1.3-5.1,5.1-3.8,8.5c1.3,3.4,5.1,5.1,8.5,3.8l29.8-11.3
			C1742,498.6,1743.7,494.8,1742.5,491.4z M1047.2-237.5l28-0.8c3.2-0.1,5.7-2.7,5.6-5.9c-0.1-3.2-2.7-5.7-5.9-5.6l-28.1,0.8
			c-3.2,0.1-5.7,2.7-5.6,5.9C1041.3-239.9,1044-237.4,1047.2-237.5z M1610.7-46.3c2.2-0.4,3.6-2.5,3.2-4.7l-3.6-19
			c-0.4-2.2-2.5-3.6-4.7-3.2c-2.2,0.4-3.6,2.5-3.2,4.7l3.6,19C1606.4-47.3,1608.5-45.9,1610.7-46.3z M1318.5,330.7
			c-1.1-2.7-4.1-3.9-6.7-2.9l-23.4,9.4c-2.7,1.1-3.9,4.1-2.9,6.7c1.1,2.7,4.1,3.9,6.7,2.9l23.4-9.4
			C1318.3,336.3,1319.6,333.3,1318.5,330.7z M1891.3-172.9l19.2,3.5c2.2,0.4,4.3-1,4.7-3.2c0.4-2.2-1-4.3-3.2-4.7l-19.2-3.5
			c-2.2-0.4-4.3,1-4.7,3.2C1887.7-175.4,1889.1-173.3,1891.3-172.9z M1225.2,483.9l-23.7,23c-2.7,2.6-2.8,6.9-0.2,9.6
			s6.9,2.8,9.6,0.2l23.7-23c2.7-2.6,2.8-6.9,0.2-9.6C1232.1,481.4,1227.8,481.3,1225.2,483.9z M1553.2,623.7l-8.6-6.2
			c-1-0.7-2.4-0.5-3.1,0.5c-0.7,1-0.5,2.4,0.5,3.1l8.7,6.2c1,0.7,2.4,0.5,3.1-0.5C1554.4,625.8,1554.2,624.4,1553.2,623.7z
			 M1110.9,171l-12.6-7c-1.4-0.8-3.2-0.3-4,1.1s-0.3,3.2,1.1,4l12.6,7c1.4,0.8,3.2,0.3,4-1.1C1112.9,173.6,1112.4,171.8,1110.9,171z
			 M1722.9,616c-2.6-2.7-6.9-2.8-9.6-0.2c-2.7,2.6-2.8,6.9-0.2,9.6l22.9,23.7c2.6,2.7,6.9,2.8,9.6,0.2c2.7-2.6,2.8-6.9,0.2-9.6
			L1722.9,616z M1566.1,0.9l-7.2,10.3c-0.8,1.2-0.5,2.8,0.7,3.6s2.8,0.5,3.6-0.7l7.2-10.3c0.8-1.2,0.5-2.8-0.7-3.6
			C1568.6-0.6,1567-0.3,1566.1,0.9z M1101.6,612.9c-0.9-0.7-2.2-0.6-2.9,0.3c-0.7,0.9-0.6,2.2,0.3,2.9l7.6,6.3
			c0.9,0.7,2.2,0.6,2.9-0.3c0.7-0.9,0.6-2.2-0.3-2.9L1101.6,612.9z M1848.8,3.9c-1.3-0.3-2.7,0.5-3,1.8l-2.9,11.5
			c-0.3,1.3,0.5,2.7,1.8,3c1.3,0.3,2.7-0.5,3-1.8l2.9-11.5C1850.9,5.5,1850.1,4.2,1848.8,3.9z M1513.5,374.6c-1-0.6-2.3-0.2-2.8,0.8
			l-4.9,8.9c-0.6,1-0.2,2.3,0.8,2.8c1,0.6,2.3,0.2,2.8-0.8l4.9-8.9C1514.9,376.4,1514.5,375.1,1513.5,374.6z M1353,575.6
			c-3.6-0.7-7.1,1.7-7.7,5.3l-5.8,31.8c-0.7,3.6,1.7,7.1,5.3,7.7c3.6,0.7,7.1-1.7,7.7-5.3l5.8-31.8
			C1359,579.7,1356.6,576.3,1353,575.6z M1892,206.2l-8.3,3c-1,0.3-1.4,1.4-1.1,2.3c0.3,1,1.4,1.4,2.3,1.1l8.3-3
			c1-0.3,1.4-1.4,1.1-2.3C1894,206.4,1892.9,205.9,1892,206.2z M993.4,436.5L970,457.4c-2.7,2.4-2.9,6.4-0.5,9.1
			c2.4,2.7,6.4,2.9,9.1,0.5l23.5-20.9c2.7-2.4,2.9-6.4,0.5-9.1C1000.2,434.4,996.1,434.2,993.4,436.5z M1508.8,116.7
			c0.3-2.9-1.8-5.6-4.7-5.9c-2.9-0.3-5.6,1.8-5.9,4.7l-2.8,25.8c-0.3,2.9,1.8,5.6,4.7,5.9s5.6-1.8,5.9-4.7L1508.8,116.7z
			 M982.1-133.3c1-1.3,0.7-3.1-0.5-4.1l-11.1-8.6c-1.3-1-3.1-0.8-4.1,0.5c-1,1.3-0.8,3.1,0.5,4.1l11.1,8.6
			C979.3-131.8,981.1-132,982.1-133.3z M1009.6,177.8c-3.3-1-6.8,1-7.8,4.3l-8.5,29.3c-1,3.3,1,6.8,4.3,7.8c3.3,1,6.8-1,7.8-4.3
			l8.5-29.3C1014.9,182.3,1012.9,178.8,1009.6,177.8z M1147.5,497.4l-10.3-3.6c-1.2-0.4-2.5,0.2-2.9,1.4s0.2,2.5,1.4,2.9l10.3,3.6
			c1.2,0.4,2.5-0.2,2.9-1.4C1149.3,499.1,1148.6,497.8,1147.5,497.4z M1196.5,654.1l-13.5-4.2c-1.5-0.5-3.2,0.4-3.7,1.9
			c-0.5,1.5,0.4,3.2,1.9,3.7l13.5,4.2c1.5,0.5,3.2-0.4,3.7-1.9C1198.9,656.2,1198,654.6,1196.5,654.1z M1640.5,638.3l-6.3,7.2
			c-0.7,0.8-0.6,2.1,0.2,2.8c0.8,0.7,2.1,0.6,2.8-0.2l6.3-7.2c0.7-0.8,0.6-2.1-0.2-2.8C1642.4,637.4,1641.2,637.5,1640.5,638.3z
			 M977-51.2l-3.5,9.1c-0.4,1,0.1,2.2,1.1,2.6c1,0.4,2.2-0.1,2.6-1.1l3.5-9.1c0.4-1-0.1-2.2-1.1-2.6C978.5-52.8,977.4-52.3,977-51.2
			z M1023.8-120.7l-0.3,8.9c0,1,0.8,1.9,1.8,1.9s1.9-0.8,1.9-1.8l0.3-8.9c0-1-0.8-1.9-1.8-1.9S1023.8-121.7,1023.8-120.7z
			 M1730.9-264c1.4,0.6,3.1,0,3.7-1.5l5.5-12.6c0.6-1.4,0-3.1-1.4-3.7s-3.1,0-3.7,1.5l-5.5,12.6
			C1728.8-266.3,1729.4-264.6,1730.9-264z M1723.6,85.9l14.9-4.4c1.7-0.5,2.7-2.3,2.2-4c-0.5-1.7-2.3-2.7-4-2.2l-14.9,4.4
			c-1.7,0.5-2.7,2.3-2.2,4C1720.2,85.4,1721.9,86.4,1723.6,85.9z M1373.8-53.3l7.8,2.9c0.9,0.3,1.9-0.1,2.2-1c0.3-0.9-0.1-1.9-1-2.2
			l-7.8-2.9c-0.9-0.3-1.9,0.1-2.2,1C1372.4-54.6,1372.9-53.6,1373.8-53.3z M977.3,276.7c1.3-1.3,1.4-3.4,0.1-4.7l-11.1-11.6
			c-1.3-1.3-3.4-1.4-4.7-0.1c-1.3,1.3-1.4,3.4-0.1,4.7l11.1,11.6C973.9,277.9,976,278,977.3,276.7z M1913.6,642.7l-9.6,9.4
			c-1.1,1.1-1.1,2.8,0,3.9c1.1,1.1,2.8,1.1,3.9,0.1l9.6-9.4c1.1-1.1,1.1-2.8,0.1-3.9C1916.4,641.6,1914.7,641.6,1913.6,642.7z
			 M1783.2,303.2l-10.2,0.4c-1.2,0.1-2.1,1-2,2.2c0,1.2,1,2.1,2.2,2l10.2-0.4c1.2-0.1,2.1-1,2-2.2
			C1785.4,304,1784.4,303.1,1783.2,303.2z M1668.3,409.7l-10.3,4.8c-1.2,0.5-1.7,1.9-1.1,3.1c0.5,1.2,2,1.7,3.1,1.1l10.3-4.8
			c1.2-0.5,1.7-1.9,1.1-3.1C1670.8,409.6,1669.4,409.1,1668.3,409.7z M1079.3,37.5c0.9-2.5-0.5-5.3-3-6.2l-22.4-7.8
			c-2.5-0.9-5.3,0.5-6.2,3s0.5,5.3,3,6.2l22.4,7.8C1075.7,41.4,1078.5,40,1079.3,37.5z M1147.4,28.4c-1.4,0.1-2.4,1.4-2.3,2.8
			l1.2,12.3c0.1,1.4,1.4,2.4,2.8,2.3c1.4-0.1,2.4-1.4,2.3-2.8l-1.2-12.3C1150.1,29.3,1148.9,28.3,1147.4,28.4z M1578.7,430.8
			l-8.2-3.9c-0.9-0.4-2.1,0-2.5,0.9s-0.1,2.1,0.9,2.5l8.2,3.9c0.9,0.4,2.1,0,2.5-0.9C1580,432.4,1579.6,431.3,1578.7,430.8z
			 M1252.7-115.5c-0.5-2.5-3-4.1-5.5-3.6l-22.2,4.6c-2.5,0.5-4.1,3-3.6,5.5c0.5,2.5,3,4.1,5.5,3.6l22.2-4.6
			C1251.6-110.5,1253.3-113,1252.7-115.5z M973.2,41c-2.8,1.8-3.7,5.5-1.9,8.4l15.6,25c1.8,2.8,5.5,3.7,8.4,1.9
			c2.8-1.8,3.7-5.5,1.9-8.4l-15.6-25C979.8,40.1,976.1,39.2,973.2,41z M1022.9,616.6c-3.5-0.9-7,1.2-7.9,4.7l-7.7,30.6
			c-0.9,3.5,1.2,7,4.7,7.9c3.5,0.9,7-1.2,7.9-4.7l7.7-30.6C1028.5,621,1026.4,617.5,1022.9,616.6z M1278.5,130.2l-16.2,7
			c-1.8,0.8-2.7,2.9-1.9,4.8c0.8,1.8,2.9,2.7,4.8,1.9l16.2-7c1.8-0.8,2.7-2.9,1.9-4.8C1282.5,130.3,1280.3,129.4,1278.5,130.2z
			 M1014.4,383.3c0.8,1.3,2.6,1.7,3.9,0.9c1.3-0.8,1.7-2.6,0.9-3.9l-7.3-11.6c-0.8-1.3-2.6-1.7-3.9-0.9c-1.3,0.8-1.7,2.6-0.9,3.9
			L1014.4,383.3z M1253.9,440.7l12-12.7c1.4-1.4,1.3-3.7-0.1-5.1c-1.4-1.4-3.7-1.3-5.1,0.1l-12,12.7c-1.4,1.4-1.3,3.7,0.1,5.1
			C1250.2,442.2,1252.5,442.1,1253.9,440.7z M1197.3,130.1c0.7,1.2,2.2,1.6,3.5,0.9c1.2-0.7,1.6-2.2,0.9-3.4l-6.1-10.6
			c-0.7-1.2-2.2-1.6-3.4-0.9c-1.2,0.7-1.6,2.2-0.9,3.5L1197.3,130.1z M1144.1-146.1c-0.5,3,1.5,5.9,4.6,6.5l26.8,4.6
			c3,0.5,5.9-1.5,6.5-4.6c0.5-3-1.5-5.9-4.6-6.5l-26.8-4.6C1147.5-151.2,1144.6-149.2,1144.1-146.1z M1884.1-78.6
			c0.6-0.8,0.5-1.9-0.3-2.5l-6.7-5.5c-0.8-0.6-1.9-0.5-2.5,0.3c-0.6,0.8-0.5,1.9,0.3,2.5l6.7,5.5
			C1882.4-77.8,1883.5-77.9,1884.1-78.6z M969.3,603.2c-0.4-1.3-1.8-2-3-1.6c-1.3,0.4-2,1.7-1.6,3l3.4,11.3c0.4,1.3,1.8,2,3,1.6
			c1.3-0.4,2-1.8,1.6-3L969.3,603.2z M1727.1,216.7c-1.1,0.5-1.5,1.8-1,2.9l4.7,9.5c0.5,1.1,1.8,1.5,2.9,1s1.5-1.8,1-2.9l-4.7-9.5
			C1729.5,216.6,1728.2,216.1,1727.1,216.7z M1214.4-41.8c2.2,2.2,5.8,2.2,8.1,0c2.2-2.2,2.2-5.8,0-8.1L1203-69.6
			c-2.2-2.2-5.8-2.2-8.1,0c-2.2,2.2-2.2,5.8,0,8.1L1214.4-41.8z M1605-117.5c2.4-0.7,3.8-3.3,3.1-5.7l-6.4-21.4
			c-0.7-2.4-3.3-3.8-5.7-3.1c-2.4,0.7-3.8,3.3-3.1,5.7l6.4,21.4C1600-118.2,1602.5-116.8,1605-117.5z M1025.5,278.2l-11.3,4.2
			c-1.3,0.5-1.9,1.9-1.5,3.2c0.5,1.3,1.9,1.9,3.2,1.5l11.3-4.2c1.3-0.5,1.9-1.9,1.5-3.2C1028.2,278.4,1026.8,277.7,1025.5,278.2z
			 M1788.1,15.1c2.3-2.4,2.2-6.1-0.1-8.4c-2.4-2.3-6.1-2.2-8.4,0.1l-20.2,20.9c-2.3,2.4-2.2,6.1,0.1,8.4c2.4,2.3,6.1,2.2,8.4-0.1
			L1788.1,15.1z M1377.7,255.4l-13.4,9.1c-1.5,1-1.9,3.1-0.9,4.7c1,1.5,3.1,1.9,4.7,0.9l13.4-9.1c1.5-1,1.9-3.1,0.9-4.7
			C1381.4,254.7,1379.3,254.3,1377.7,255.4z M1830.9,355c-2.2-0.5-4.5,0.9-5,3.1l-4.6,19.8c-0.5,2.3,0.9,4.5,3.1,5s4.5-0.9,5-3.1
			l4.6-19.8C1834.5,357.8,1833.1,355.5,1830.9,355z M1776.5,420.8c-3.1-0.6-6.2,1.4-6.8,4.6l-5.4,27.7c-0.6,3.1,1.4,6.2,4.6,6.8
			c3.1,0.6,6.2-1.4,6.8-4.6l5.4-27.7C1781.7,424.4,1779.6,421.4,1776.5,420.8z M1224-187.7c0.8,0.8,2,0.7,2.8,0c0.8-0.8,0.7-2,0-2.8
			l-6.9-6.7c-0.8-0.8-2-0.7-2.8,0c-0.8,0.8-0.7,2,0,2.8L1224-187.7z M1227.3,266.5c-0.1-2.7-2.4-4.9-5.2-4.7l-24.1,1
			c-2.7,0.1-4.9,2.4-4.7,5.2c0.1,2.7,2.4,4.9,5.2,4.7l24.1-1C1225.3,271.6,1227.5,269.3,1227.3,266.5z M985.5,527.5
			c-2.3,0.2-4.1,2.2-3.9,4.6l1.7,20.5c0.2,2.3,2.2,4,4.6,3.9c2.3-0.2,4.1-2.2,3.9-4.6l-1.7-20.5C989.9,529,987.8,527.3,985.5,527.5z
			 M1758.8,565.5c-1.5,0.1-2.6,1.3-2.5,2.7l0.5,12.8c0.1,1.5,1.3,2.6,2.7,2.5c1.5-0.1,2.6-1.3,2.5-2.7l-0.5-12.8
			C1761.5,566.6,1760.3,565.5,1758.8,565.5z M1023.8-284.7l12.8-5.4c1.5-0.6,2.1-2.3,1.5-3.7c-0.6-1.5-2.3-2.1-3.7-1.5l-12.8,5.4
			c-1.5,0.6-2.1,2.3-1.5,3.7C1020.6-284.7,1022.3-284,1023.8-284.7z M1912.7,8.4l-9-1.5c-1-0.2-2,0.5-2.2,1.5c-0.2,1,0.5,2,1.5,2.2
			l9,1.5c1,0.2,2-0.5,2.2-1.5C1914.4,9.5,1913.7,8.5,1912.7,8.4z M1817.6,220.2c-1.2-2.5-4.2-3.6-6.7-2.4l-22.2,10.3
			c-2.5,1.2-3.6,4.2-2.4,6.7c1.2,2.5,4.2,3.6,6.7,2.4l22.3-10.3C1817.6,225.7,1818.7,222.7,1817.6,220.2z M1235.7,331.6l-15,0.6
			c-1.7,0.1-3,1.5-3,3.2c0.1,1.7,1.5,3,3.2,3l15-0.6c1.7-0.1,3-1.5,3-3.2C1238.9,332.9,1237.4,331.6,1235.7,331.6z M1884.5,95.6
			c0.7,1.3,2.3,1.8,3.6,1.1l11.4-6c1.3-0.7,1.8-2.3,1.1-3.6c-0.7-1.3-2.3-1.8-3.6-1.1l-11.4,6C1884.3,92.7,1883.8,94.3,1884.5,95.6z
			 M1633.9,484.5c-0.6,0.9-0.5,2.1,0.4,2.7l7.5,5.6c0.9,0.6,2.1,0.5,2.7-0.4c0.6-0.9,0.5-2.1-0.4-2.7l-7.5-5.6
			C1635.8,483.5,1634.6,483.6,1633.9,484.5z M1693.8,326.2c-2.8,0.1-5,2.4-4.9,5.1l0.5,24.4c0.1,2.8,2.4,5,5.1,4.9
			c2.8-0.1,5-2.4,4.9-5.1l-0.5-24.4C1698.9,328.5,1696.6,326.2,1693.8,326.2z M1439.3-278.2c0.2,1,1.2,1.6,2.2,1.4
			c1-0.2,1.6-1.2,1.4-2.2l-2-8.6c-0.2-1-1.2-1.6-2.2-1.4c-1,0.2-1.6,1.2-1.4,2.2L1439.3-278.2z M1629.6-249.6
			c2.8,1.8,6.5,0.9,8.3-1.8l15.6-24.6c1.8-2.8,0.9-6.5-1.9-8.3c-2.8-1.8-6.5-0.9-8.3,1.8l-15.5,24.6
			C1625.9-255.1,1626.7-251.4,1629.6-249.6z M1596.8,153.4l-7.8,4.2c-0.9,0.5-1.2,1.6-0.7,2.5c0.5,0.9,1.6,1.2,2.5,0.7l7.8-4.2
			c0.9-0.5,1.2-1.6,0.7-2.5C1598.7,153.3,1597.6,153,1596.8,153.4z M1435.4-64l20.9-2.8c2.4-0.3,4-2.5,3.7-4.9
			c-0.3-2.4-2.5-4-4.9-3.7l-20.9,2.8c-2.4,0.3-4,2.5-3.7,4.9C1430.8-65.4,1433-63.7,1435.4-64z M1570.9,91.5
			c-1.4-0.9-3.2-0.6-4.1,0.8l-8,11.9c-0.9,1.4-0.6,3.2,0.8,4.1c1.4,0.9,3.2,0.6,4.1-0.8l8-11.9C1572.6,94.2,1572.2,92.4,1570.9,91.5
			z M1449.2,77.4c-2-1.3-4.7-0.7-6,1.3l-11.4,17.7c-1.3,2-0.7,4.7,1.3,6s4.7,0.7,6-1.3l11.4-17.7
			C1451.8,81.4,1451.2,78.7,1449.2,77.4z M1251.1,618.3c-0.5-1-1.7-1.4-2.7-0.9c-1,0.5-1.4,1.7-0.9,2.7l4.3,8.6
			c0.5,1,1.7,1.4,2.7,0.9c1-0.5,1.4-1.7,0.9-2.7L1251.1,618.3z M1687.7,260.6c-1.7-0.8-3.8-0.1-4.6,1.6l-7.3,14.9
			c-0.8,1.7-0.1,3.8,1.6,4.6s3.8,0.1,4.6-1.6l7.3-14.9C1690.1,263.4,1689.4,261.4,1687.7,260.6z M1469.6,600.3l-24.4,20.1
			c-2.8,2.3-3.2,6.4-0.9,9.1c2.3,2.8,6.4,3.2,9.1,0.9l24.4-20.1c2.8-2.3,3.2-6.4,0.9-9.1C1476.4,598.4,1472.3,598,1469.6,600.3z
			 M1053.1,108.5c-1.5,0-2.7,1.1-2.7,2.6c0,1.5,1.1,2.7,2.6,2.7l12.8,0.4c1.5,0,2.7-1.1,2.7-2.6c0-1.5-1.1-2.7-2.6-2.7L1053.1,108.5
			z M1838.8,163.3l-0.8-25.8c-0.1-2.9-2.5-5.2-5.5-5.1c-2.9,0.1-5.2,2.5-5.1,5.5l0.8,25.8c0.1,2.9,2.5,5.2,5.5,5.1
			C1836.6,168.7,1838.9,166.3,1838.8,163.3z M1095.9,223.3c-0.6-3.6-4.1-6-7.7-5.4l-31.9,5.6c-3.6,0.6-6,4.1-5.4,7.7
			c0.6,3.6,4.1,6,7.7,5.4l31.9-5.5C1094.2,230.4,1096.6,227,1095.9,223.3z M1290.6-66.2c-0.4,0.9-0.1,1.9,0.8,2.4
			c0.9,0.4,1.9,0.1,2.4-0.8l3.9-7.6c0.4-0.9,0.1-1.9-0.8-2.4c-0.9-0.4-1.9-0.1-2.4,0.8L1290.6-66.2z M1107.3,414.8
			c-1.1-1.1-2.9-1.1-4,0.1l-9.6,9.8c-1.1,1.1-1.1,2.9,0.1,4c1.1,1.1,2.9,1.1,4-0.1l9.6-9.8C1108.4,417.6,1108.4,415.9,1107.3,414.8z
			 M967.7-272.3c2.1,0.4,4-1,4.4-3l3.3-18c0.4-2.1-1-4-3-4.4c-2.1-0.4-4,1-4.4,3l-3.3,18C964.3-274.7,965.6-272.7,967.7-272.3z
			 M1054.3,558.3c-0.7-1-2.1-1.2-3.1-0.4c-1,0.7-1.2,2.1-0.4,3.1l6.4,8.5c0.7,1,2.1,1.2,3.1,0.4c1-0.7,1.2-2.1,0.4-3.1L1054.3,558.3
			z M1676.4,149.5c-1.7-2.2-4.9-2.6-7.1-0.9l-19.5,14.9c-2.2,1.7-2.6,4.9-0.9,7.1c1.7,2.2,4.9,2.6,7.1,0.9l19.4-14.9
			C1677.7,154.9,1678.1,151.7,1676.4,149.5z M1326.3,640.9l-19.6,9.8c-2.2,1.1-3.1,3.8-2,6.1c1.1,2.2,3.8,3.1,6.1,2l19.6-9.8
			c2.2-1.1,3.1-3.8,2-6.1C1331.3,640.7,1328.5,639.8,1326.3,640.9z M1271,557l-8.8-1c-1-0.1-1.9,0.6-2,1.6c-0.1,1,0.6,1.9,1.6,2
			l8.8,1c1,0.1,1.9-0.6,2-1.6C1272.9,558,1272.1,557.1,1271,557z M1892.4,420.6c-0.6-1.1-2-1.5-3.1-1l-9.8,5.1c-1.1,0.6-1.5,2-1,3.1
			c0.6,1.1,2,1.5,3.1,1l9.8-5.1C1892.6,423.1,1893,421.7,1892.4,420.6z M1543.4,513.9c-0.9-0.4-1.9,0-2.3,0.9l-3.6,7.7
			c-0.4,0.9,0,1.9,0.9,2.3c0.9,0.4,1.9,0,2.3-0.9l3.6-7.7C1544.7,515.4,1544.3,514.4,1543.4,513.9z M1644.9,562.9L1630,563
			c-1.7,0-3.1,1.4-3.1,3.1s1.4,3.1,3.1,3.1l14.9-0.1c1.7,0,3.1-1.4,3.1-3.1S1646.6,562.9,1644.9,562.9z M1916,277.9
			c1.1,0,1.9-0.9,1.9-2l-0.3-9.3c0-1.1-0.9-1.9-2-1.9s-1.9,0.9-1.9,2l0.3,9.3C1914,277.1,1914.9,277.9,1916,277.9z M1059.6,492
			l-13.9-2.5c-1.6-0.3-3.1,0.8-3.4,2.4c-0.3,1.6,0.8,3.1,2.4,3.4l13.9,2.5c1.6,0.3,3.1-0.8,3.4-2.4
			C1062.2,493.8,1061.2,492.3,1059.6,492z M1920,139.8c-1.9-1.6-4.6-1.3-6.2,0.6l-13.6,16.4c-1.6,1.9-1.3,4.6,0.6,6.2
			c1.9,1.6,4.7,1.3,6.2-0.6l13.6-16.4C1922.2,144.1,1921.9,141.3,1920,139.8z M1841,570c-0.4-1.7-2-2.7-3.7-2.3l-14.6,3.2
			c-1.7,0.4-2.7,2-2.3,3.7c0.4,1.7,2,2.7,3.7,2.3l14.5-3.2C1840.3,573.3,1841.4,571.6,1841,570z M1477.9,423.9l-28.2,6.3
			c-3.2,0.7-5.2,3.9-4.5,7.1c0.7,3.2,3.9,5.2,7.1,4.5l28.2-6.3c3.2-0.7,5.2-3.9,4.5-7.1C1484.2,425.2,1481.1,423.2,1477.9,423.9z
			 M1587.6,271.5l-9.1,2.8c-1,0.3-1.6,1.4-1.3,2.5c0.3,1,1.4,1.6,2.5,1.3l9.1-2.8c1-0.3,1.6-1.4,1.3-2.5
			C1589.8,271.7,1588.7,271.2,1587.6,271.5z M1478.9-190.8c0.4,1.3,1.8,2.1,3.1,1.7c1.3-0.4,2.1-1.8,1.7-3.1l-3.4-11.7
			c-0.4-1.3-1.8-2.1-3.1-1.7c-1.3,0.4-2.1,1.8-1.7,3.1L1478.9-190.8z M1448.4,213.7c1,2.6,3.9,4,6.5,3l23.1-8.3c2.6-1,4-3.9,3-6.5
			s-3.9-4-6.5-3l-23.1,8.3C1448.8,208.1,1447.4,211.1,1448.4,213.7z M1348.6-261.2l18.9-21.6c2.2-2.4,1.9-6.2-0.5-8.3
			c-2.5-2.2-6.2-1.9-8.3,0.5l-18.9,21.6c-2.2,2.4-1.9,6.2,0.5,8.3C1342.7-258.5,1346.5-258.7,1348.6-261.2z M1414.3,645.4l-9-0.2
			c-1,0-1.9,0.8-1.9,1.8c0,1,0.8,1.9,1.8,1.9l9,0.2c1,0,1.9-0.8,1.9-1.8C1416.2,646.2,1415.3,645.4,1414.3,645.4z M1383.2,525
			l-23.4,5.3c-2.7,0.6-4.3,3.3-3.7,5.9c0.6,2.7,3.3,4.3,5.9,3.7l23.4-5.3c2.7-0.6,4.3-3.3,3.7-5.9
			C1388.5,526.1,1385.8,524.4,1383.2,525z M991.7,133.7l-5.8,7.9c-0.7,0.9-0.5,2.2,0.4,2.8c0.9,0.7,2.2,0.5,2.8-0.4l5.8-7.9
			c0.7-0.9,0.5-2.2-0.4-2.8C993.6,132.6,992.3,132.8,991.7,133.7z M1249.9-271.3c0.5,1,1.7,1.3,2.7,0.8c1-0.5,1.3-1.7,0.8-2.7
			l-4.6-8.4c-0.5-1-1.7-1.3-2.7-0.8c-1,0.5-1.3,1.7-0.8,2.7L1249.9-271.3z M1364.5-153.6c-3.7-0.3-7,2.5-7.3,6.2l-2.7,32.8
			c-0.3,3.7,2.5,7,6.2,7.3s7-2.5,7.3-6.2l2.7-32.8C1370.9-150,1368.2-153.3,1364.5-153.6z M1499.5-244.5l24.4-19.1
			c2.8-2.2,3.2-6.2,1.1-9c-2.2-2.8-6.2-3.2-9-1.1l-24.4,19.1c-2.8,2.2-3.2,6.2-1.1,9C1492.8-242.8,1496.8-242.3,1499.5-244.5z
			 M1044.1-33.7c1.1-0.5,1.6-1.9,1-3l-4.7-9.7c-0.5-1.1-1.9-1.6-3-1c-1.1,0.5-1.6,1.9-1,3l4.7,9.7
			C1041.7-33.6,1043-33.2,1044.1-33.7z M1403.4,340.3c-2.5-1.1-5.4,0.1-6.4,2.6l-9.3,21.9c-1.1,2.5,0.1,5.4,2.6,6.4
			c2.5,1.1,5.4-0.1,6.4-2.6l9.3-21.9C1407.1,344.2,1405.9,341.3,1403.4,340.3z M1292-139.3c1,0.1,1.9-0.6,2-1.6l0.9-8.8
			c0.1-1-0.6-1.9-1.6-2s-1.9,0.6-2,1.6l-0.9,8.8C1290.2-140.3,1291-139.4,1292-139.3z M1461.2,286.1c-2-2.5-5.6-3-8.1-1
			c-2.5,2-3,5.6-1,8.1l17.3,22.2c2,2.5,5.6,3,8.2,1c2.5-2,3-5.6,1-8.1L1461.2,286.1z M1913.2,510.2c0.6-2.3-0.8-4.5-3.1-5.1
			l-19.9-4.9c-2.3-0.6-4.5,0.8-5.1,3.1c-0.6,2.3,0.8,4.5,3.1,5.1l19.9,4.9C1910.4,513.8,1912.7,512.4,1913.2,510.2z M1180.9,218.6
			c1.5-2,1.2-4.9-0.9-6.5l-17.7-13.6c-2-1.5-4.9-1.2-6.5,0.9c-1.5,2-1.2,4.9,0.9,6.5l17.8,13.6
			C1176.5,221,1179.4,220.6,1180.9,218.6z M1344.4,194.1c0.3,1,1.4,1.5,2.4,1.2s1.5-1.4,1.2-2.4l-2.9-8.6c-0.3-1-1.4-1.5-2.4-1.2
			c-1,0.3-1.5,1.4-1.2,2.4L1344.4,194.1z M1637.6,75.4l-5.3-6.9c-0.6-0.8-1.7-0.9-2.5-0.3c-0.8,0.6-0.9,1.7-0.3,2.5l5.3,6.9
			c0.6,0.8,1.7,0.9,2.5,0.3C1638.1,77.3,1638.2,76.2,1637.6,75.4z M1140.4-240.9c3,2,7.1,1.2,9-1.8l17.4-26.5c2-3,1.2-7.1-1.8-9
			c-3-2-7.1-1.2-9,1.8l-17.5,26.4C1136.5-247,1137.4-242.9,1140.4-240.9z M1503.8-21.3c0.2-1.1-0.5-2.2-1.6-2.5l-9.9-2.1
			c-1.1-0.2-2.2,0.5-2.5,1.6c-0.2,1.1,0.5,2.2,1.6,2.5l9.9,2.1C1502.4-19.4,1503.6-20.1,1503.8-21.3z M1173.4,376.3
			c-2.6,0.8-4.1,3.5-3.3,6.2l6.9,23.1c0.8,2.6,3.5,4.1,6.2,3.3c2.6-0.8,4.1-3.5,3.3-6.2l-6.9-23.1
			C1178.7,377,1176,375.5,1173.4,376.3z M1857.8,628.4l-25.3,7.6c-2.9,0.9-4.5,3.9-3.6,6.8c0.9,2.9,3.9,4.5,6.8,3.6l25.3-7.6
			c2.9-0.9,4.5-3.9,3.6-6.8C1863.8,629.2,1860.7,627.5,1857.8,628.4z M1692.5-20.1c-1.9,3-1,6.9,1.9,8.8l26.1,16.6
			c3,1.9,6.9,1,8.8-1.9c1.9-3,1-6.9-1.9-8.8L1701.3-22C1698.4-24,1694.4-23.1,1692.5-20.1z M1635.8,231.1c1.1-2.1,0.4-4.6-1.7-5.8
			l-18-9.9c-2.1-1.1-4.6-0.4-5.8,1.7c-1.1,2.1-0.4,4.6,1.7,5.8l18,9.9C1632.1,233.9,1634.6,233.2,1635.8,231.1z M1345.1,105
			c1.2-0.3,1.9-1.6,1.6-2.8l-2.9-10.5c-0.3-1.2-1.6-1.9-2.8-1.6c-1.2,0.3-1.9,1.6-1.6,2.8l2.9,10.5
			C1342.7,104.6,1343.9,105.3,1345.1,105z M1317.3,515.8c2.7-1,4.1-4,3.1-6.7l-8.8-23.9c-1-2.7-4-4.1-6.7-3.1c-2.7,1-4.1,4-3.1,6.7
			l8.8,23.9C1311.6,515.5,1314.6,516.9,1317.3,515.8z M1340.3,421.9l11.8,6.6c1.3,0.8,3,0.3,3.8-1.1c0.8-1.3,0.3-3-1.1-3.8L1343,417
			c-1.3-0.8-3.1-0.3-3.8,1.1C1338.5,419.4,1339,421.1,1340.3,421.9z M1223.1,11.2l-7.1,8.3c-0.8,0.9-0.7,2.4,0.2,3.2
			c0.9,0.8,2.4,0.7,3.2-0.2l7.1-8.3c0.8-0.9,0.7-2.4-0.2-3.2C1225.3,10.2,1223.9,10.3,1223.1,11.2z M1681.8-76.1l11.8-7.6
			c1.3-0.9,1.7-2.7,0.9-4c-0.9-1.3-2.7-1.7-4-0.9l-11.8,7.6c-1.3,0.9-1.7,2.7-0.9,4C1678.7-75.6,1680.5-75.2,1681.8-76.1z
			 M1757.8,384.4l-4.6-21.4c-0.5-2.4-2.9-4-5.4-3.5c-2.4,0.5-4,2.9-3.5,5.4l4.6,21.4c0.5,2.4,2.9,4,5.4,3.5
			C1756.8,389.2,1758.3,386.8,1757.8,384.4z M1838.3,493.3c-0.9-2.5-3.7-3.9-6.2-3l-22.3,7.9c-2.5,0.9-3.9,3.7-2.9,6.2
			c0.9,2.5,3.7,3.9,6.2,2.9l22.3-7.9C1837.9,498.7,1839.2,495.9,1838.3,493.3z M1868.2,275.3l-16.8-2.9c-1.9-0.3-3.7,1-4.1,2.9
			c-0.3,1.9,1,3.7,2.9,4.1l16.8,2.9c1.9,0.3,3.7-1,4.1-2.9C1871.4,277.4,1870.1,275.6,1868.2,275.3z M1551.3-187.6
			c2,1.3,4.7,0.7,6-1.4l11.2-17.8c1.3-2,0.7-4.7-1.4-6c-2-1.3-4.7-0.7-6,1.4l-11.2,17.8C1548.6-191.5,1549.2-188.8,1551.3-187.6z
			 M1459.3-118.7c2.5,0.5,4.9-1.1,5.4-3.6l4.3-21.7c0.5-2.5-1.1-4.9-3.6-5.4s-4.9,1.1-5.4,3.6l-4.3,21.7
			C1455.2-121.6,1456.8-119.2,1459.3-118.7z M1903.7,586.5c1-0.2,1.6-1.2,1.3-2.2l-2.2-8.5c-0.2-1-1.2-1.6-2.2-1.3
			c-1,0.2-1.6,1.2-1.3,2.2l2.2,8.5C1901.6,586.1,1902.6,586.7,1903.7,586.5z M1769.7-51.9l29.4-4.1c3.3-0.5,5.7-3.6,5.2-6.9
			c-0.5-3.3-3.6-5.7-6.9-5.2L1768-64c-3.3,0.5-5.7,3.6-5.2,6.9C1763.3-53.8,1766.4-51.5,1769.7-51.9z M1858.6-263.6l18.1-14.4
			c2.1-1.6,2.4-4.6,0.8-6.7c-1.6-2.1-4.6-2.4-6.7-0.7l-18.2,14.4c-2.1,1.6-2.4,4.6-0.7,6.7C1853.5-262.3,1856.5-261.9,1858.6-263.6z
			 M1143.9,305.4c0.5-1,0.1-2.2-0.9-2.8l-8.8-4.5c-1-0.5-2.2-0.1-2.8,0.9c-0.5,1-0.1,2.2,0.9,2.8l8.8,4.5
			C1142.2,306.8,1143.4,306.4,1143.9,305.4z M1532.6-80.4l14-11.6c1.6-1.3,1.8-3.7,0.5-5.3c-1.3-1.6-3.7-1.8-5.3-0.5l-14,11.6
			c-1.6,1.3-1.8,3.7-0.5,5.3C1528.7-79.3,1531-79,1532.6-80.4z M1053.3-173.1l17.8-1.8c2-0.2,3.5-2,3.3-4.1c-0.2-2-2-3.5-4.1-3.3
			l-17.8,1.8c-2,0.2-3.5,2-3.3,4.1C1049.5-174.4,1051.3-172.9,1053.3-173.1z M1892.3,343.7c0.5,0.9,1.7,1.2,2.7,0.7l8.1-4.7
			c0.9-0.5,1.2-1.7,0.7-2.7c-0.5-0.9-1.7-1.2-2.7-0.7l-8.1,4.7C1892,341.6,1891.7,342.8,1892.3,343.7z M1430.7,465.9
			c-3.2-0.6-6.3,1.6-6.9,4.8l-5.1,28.4c-0.6,3.2,1.6,6.3,4.8,6.9c3.2,0.6,6.3-1.6,6.9-4.8l5.1-28.4
			C1436,469.6,1433.9,466.5,1430.7,465.9z M973.4-211.4c1.7,1.3,4,1,5.3-0.7l11.2-14.6c1.3-1.7,1-4-0.7-5.3c-1.7-1.3-4-1-5.3,0.7
			l-11.2,14.6C971.4-215,971.7-212.7,973.4-211.4z M1318.1-5.7l7.9,5.8c0.9,0.7,2.2,0.5,2.8-0.4c0.7-0.9,0.5-2.2-0.4-2.8l-7.9-5.8
			c-0.9-0.7-2.2-0.5-2.8,0.4C1317-7.6,1317.2-6.3,1318.1-5.7z"/>
	</g>
</g>
<g>
	<g>
		<path class="st0" d="M221.8,1549.2c-0.7-0.7-1.8-0.8-2.6-0.2c-0.7,0.7-0.8,1.8-0.2,2.6l5.8,6.6c0.7,0.7,1.8,0.8,2.6,0.2
			c0.7-0.7,0.8-1.8,0.2-2.6L221.8,1549.2z M450.9,756.9l9.7-3.7c1.1-0.4,1.7-1.7,1.2-2.8c-0.4-1.1-1.7-1.7-2.8-1.2l-9.7,3.7
			c-1.1,0.4-1.7,1.7-1.2,2.8C448.6,756.8,449.8,757.4,450.9,756.9z M490.8,972.7l-7.6,6.3c-0.9,0.7-1,2-0.3,2.9c0.7,0.9,2,1,2.9,0.3
			l7.6-6.3c0.9-0.7,1-2,0.3-2.9C493,972.1,491.6,972,490.8,972.7z M515.2,1519.5c1.5,1,3.4,0.6,4.4-0.8c1-1.5,0.6-3.4-0.8-4.4
			l-12.8-8.8c-1.5-1-3.4-0.6-4.4,0.8c-1,1.5-0.6,3.4,0.8,4.4L515.2,1519.5z M161.3,839.8c-2.2-1.6-5.2-1.2-6.9,0.9l-14.3,18.9
			c-1.6,2.2-1.2,5.2,0.9,6.9c2.2,1.6,5.2,1.2,6.9-0.9l14.3-18.9C163.9,844.5,163.4,841.4,161.3,839.8z M750.1,815.4
			c0.7,1,2.1,1.3,3.1,0.6c1-0.7,1.3-2.1,0.6-3.1l-6.2-9c-0.7-1-2.1-1.3-3.1-0.6c-1,0.7-1.3,2.1-0.6,3.1L750.1,815.4z M783.6,764.8
			c1.5,1.7,4,1.8,5.7,0.3l14.5-12.9c1.7-1.5,1.8-4,0.3-5.7c-1.5-1.7-4-1.8-5.7-0.3l-14.5,12.9C782.3,760.6,782.1,763.1,783.6,764.8z
			 M431.5,998.4l-7.6,8.5c-0.9,1-0.8,2.5,0.2,3.3c1,0.9,2.5,0.8,3.3-0.2l7.6-8.5c0.9-1,0.8-2.5-0.2-3.3
			C433.9,997.4,432.4,997.4,431.5,998.4z M181.8,1080.9l8.2-23.6c0.9-2.7-0.5-5.6-3.2-6.5c-2.7-0.9-5.6,0.5-6.5,3.2l-8.2,23.6
			c-0.9,2.7,0.5,5.6,3.2,6.5C178,1085,180.9,1083.6,181.8,1080.9z M172.5,923.4l18.5,14c2.1,1.6,5.1,1.2,6.7-0.9s1.2-5.1-0.9-6.7
			l-18.5-14c-2.1-1.6-5.1-1.2-6.7,0.9S170.4,921.8,172.5,923.4z M124.8,1280c-1.8-0.3-3.5,1-3.7,2.8l-2.2,15.9
			c-0.3,1.8,1,3.5,2.8,3.7c1.8,0.3,3.5-1,3.7-2.8l2.3-15.9C127.9,1282,126.6,1280.3,124.8,1280z M868,1061.2c1.3,2.4,4.3,3.3,6.7,2
			c2.4-1.3,3.3-4.3,2-6.7l-11.3-21.1c-1.3-2.4-4.3-3.3-6.7-2s-3.3,4.3-2,6.7L868,1061.2z M797.9,1104.1c-1.7-2.2-4.8-2.7-7.1-1
			l-19.6,14.6c-2.2,1.7-2.7,4.8-1,7.1c1.7,2.2,4.8,2.7,7.1,1l19.6-14.6C799.1,1109.5,799.6,1106.4,797.9,1104.1z M837.8,832.8
			l16.1-7.3c1.8-0.8,2.6-3,1.8-4.8s-3-2.6-4.8-1.8l-16.2,7.3c-1.8,0.8-2.6,3-1.8,4.8C833.8,832.9,835.9,833.7,837.8,832.8z
			 M582.2,1160.9l-1.4,33.1c-0.2,3.8,2.8,7,6.5,7.1c3.8,0.2,7-2.8,7.1-6.5l1.4-33.1c0.2-3.8-2.8-7-6.5-7.1
			C585.5,1154.2,582.4,1157.1,582.2,1160.9z M327.7,1189.8l-14.7,0.8c-1.7,0.1-3,1.5-2.9,3.2s1.5,3,3.2,2.9l14.7-0.8
			c1.7-0.1,3-1.5,2.9-3.2S329.3,1189.7,327.7,1189.8z M686,773.7l3.9-7.3c0.5-0.8,0.1-1.9-0.7-2.3c-0.8-0.5-1.9-0.1-2.3,0.7
			l-3.9,7.3c-0.5,0.8-0.1,1.9,0.7,2.3C684.5,774.8,685.5,774.5,686,773.7z M873.7,760.6l23.7-6.5c2.7-0.7,4.3-3.5,3.5-6.2
			c-0.7-2.7-3.5-4.3-6.2-3.5l-23.7,6.5c-2.7,0.7-4.3,3.5-3.5,6.2S871,761.4,873.7,760.6z M359.6,757.5c0.6,1.8,2.5,2.7,4.3,2.1
			c1.7-0.6,2.6-2.5,2.1-4.3l-5.2-15.5c-0.6-1.8-2.5-2.7-4.3-2.1c-1.8,0.6-2.7,2.5-2.1,4.3L359.6,757.5z M570.7,1018.1l-19.8-14.1
			c-2.3-1.6-5.4-1.1-7,1.2c-1.6,2.3-1.1,5.4,1.2,7l19.8,14.1c2.3,1.6,5.4,1.1,7-1.2C573.6,1022.8,573.1,1019.7,570.7,1018.1z
			 M456.9,1121.2c1.3,1.2,3.3,1.1,4.5-0.2c1.2-1.3,1.1-3.3-0.2-4.5l-11.4-10.5c-1.3-1.2-3.3-1.1-4.5,0.2c-1.2,1.3-1.1,3.3,0.2,4.5
			L456.9,1121.2z M612.4,683.6c0.2,1,1.1,1.7,2.1,1.6c1-0.2,1.7-1.1,1.6-2.1l-1.3-9c-0.2-1-1.1-1.7-2.1-1.6c-1,0.2-1.7,1.1-1.6,2.1
			L612.4,683.6z M670.2,1298c-0.9-0.4-2-0.1-2.4,0.8l-3.8,7.8c-0.4,0.9-0.1,2,0.8,2.4c0.9,0.4,2,0.1,2.4-0.8l3.8-7.8
			C671.5,1299.6,671.1,1298.5,670.2,1298z M680.2,962.1c-0.9,2.2,0.1,4.7,2.3,5.6l19.1,8c2.2,0.9,4.7-0.1,5.6-2.3
			c0.9-2.2-0.1-4.7-2.3-5.6l-19.1-8C683.6,958.9,681.1,959.9,680.2,962.1z M325,1021.6c0.3,1.2,1.6,2,2.8,1.7c1.2-0.3,2-1.6,1.7-2.8
			l-2.7-10.9c-0.3-1.2-1.6-2-2.8-1.7c-1.2,0.3-2,1.6-1.7,2.8L325,1021.6z M602.4,1276.4l-26.4,4.6c-3,0.5-5,3.4-4.5,6.4
			s3.4,5,6.4,4.5l26.4-4.6c3-0.5,5-3.4,4.5-6.4C608.2,1277.9,605.4,1275.9,602.4,1276.4z M791.9,1455.4c-1.3-3.4-5.1-5.1-8.5-3.8
			l-29.8,11.3c-3.4,1.3-5.1,5.1-3.8,8.5c1.3,3.4,5.1,5.1,8.5,3.8l29.8-11.3C791.5,1462.6,793.2,1458.8,791.9,1455.4z M96.5,726.5
			l28-0.8c3.2-0.1,5.7-2.7,5.6-5.9c-0.1-3.2-2.7-5.7-5.9-5.6l-28,0.8c-3.2,0.1-5.7,2.7-5.6,5.9C90.7,724.1,93.3,726.6,96.5,726.5z
			 M660.1,917.7c2.2-0.4,3.6-2.5,3.2-4.7l-3.6-19c-0.4-2.2-2.5-3.6-4.7-3.2c-2.2,0.4-3.6,2.5-3.2,4.7l3.6,19
			C655.9,916.7,658,918.1,660.1,917.7z M367.9,1294.7c-1.1-2.7-4.1-3.9-6.7-2.9l-23.4,9.4c-2.7,1.1-3.9,4.1-2.9,6.7
			c1.1,2.7,4.1,3.9,6.7,2.9l23.4-9.4C367.7,1300.3,369,1297.3,367.9,1294.7z M940.8,791.1l19.2,3.5c2.2,0.4,4.3-1,4.7-3.2
			c0.4-2.2-1-4.3-3.2-4.7l-19.3-3.5c-2.2-0.4-4.3,1-4.7,3.2C937.1,788.6,938.6,790.7,940.8,791.1z M274.6,1447.9l-23.7,23
			c-2.7,2.6-2.8,6.9-0.2,9.6c2.6,2.7,6.9,2.8,9.6,0.2l23.7-23c2.7-2.6,2.8-6.9,0.2-9.6C281.6,1445.4,277.3,1445.3,274.6,1447.9z
			 M602.6,1587.7l-8.6-6.2c-1-0.7-2.4-0.5-3.1,0.5c-0.7,1-0.5,2.4,0.5,3.1l8.7,6.2c1,0.7,2.4,0.5,3.1-0.5
			C603.8,1589.8,603.6,1588.4,602.6,1587.7z M160.4,1135l-12.6-7c-1.4-0.8-3.2-0.3-4,1.1c-0.8,1.4-0.3,3.2,1.1,4l12.6,7
			c1.4,0.8,3.2,0.3,4-1.1C162.4,1137.6,161.9,1135.8,160.4,1135z M772.4,1580c-2.6-2.7-6.9-2.8-9.6-0.2c-2.7,2.6-2.8,6.9-0.2,9.6
			l22.9,23.7c2.6,2.7,6.9,2.8,9.6,0.2s2.8-6.9,0.2-9.6L772.4,1580z M615.6,964.9l-7.2,10.3c-0.8,1.2-0.5,2.8,0.7,3.6
			c1.2,0.8,2.8,0.5,3.6-0.7l7.2-10.3c0.8-1.2,0.5-2.8-0.7-3.6C618,963.4,616.4,963.7,615.6,964.9z M151.1,1576.9
			c-0.9-0.7-2.2-0.6-2.9,0.3c-0.7,0.9-0.6,2.2,0.3,2.9l7.6,6.3c0.9,0.7,2.2,0.6,2.9-0.3c0.7-0.9,0.6-2.2-0.3-2.9L151.1,1576.9z
			 M898.3,967.9c-1.3-0.3-2.7,0.5-3,1.8l-2.9,11.5c-0.3,1.3,0.5,2.7,1.8,3c1.3,0.3,2.7-0.5,3-1.8l2.9-11.5
			C900.4,969.5,899.6,968.2,898.3,967.9z M562.9,1338.6c-1-0.6-2.3-0.2-2.8,0.8l-4.9,8.9c-0.6,1-0.2,2.3,0.8,2.8
			c1,0.6,2.3,0.2,2.8-0.8l4.9-8.9C564.3,1340.4,563.9,1339.1,562.9,1338.6z M402.4,1539.6c-3.6-0.7-7.1,1.7-7.7,5.3l-5.8,31.8
			c-0.7,3.6,1.7,7.1,5.3,7.7c3.6,0.7,7.1-1.7,7.7-5.3l5.8-31.8C408.4,1543.7,406,1540.3,402.4,1539.6z M941.5,1170.2l-8.3,3
			c-1,0.3-1.4,1.4-1.1,2.3c0.3,1,1.4,1.4,2.3,1.1l8.3-3c1-0.3,1.4-1.4,1.1-2.3C943.5,1170.4,942.4,1169.9,941.5,1170.2z
			 M42.8,1400.5l-23.5,20.9c-2.7,2.4-2.9,6.4-0.5,9.1c2.4,2.7,6.4,2.9,9.1,0.5l23.5-20.9c2.7-2.4,2.9-6.4,0.5-9.1
			C49.6,1398.4,45.5,1398.2,42.8,1400.5z M558.2,1080.7c0.3-2.9-1.8-5.6-4.7-5.9c-2.9-0.3-5.6,1.8-5.9,4.7l-2.8,25.8
			c-0.3,2.9,1.8,5.6,4.7,5.9c2.9,0.3,5.6-1.8,5.9-4.7L558.2,1080.7z M31.5,830.7c1-1.3,0.7-3.1-0.5-4.1l-11.1-8.6
			c-1.3-1-3.1-0.8-4.1,0.5c-1,1.3-0.8,3.1,0.5,4.1l11.1,8.6C28.7,832.2,30.6,832,31.5,830.7z M59.1,1141.8c-3.3-1-6.8,1-7.8,4.3
			l-8.5,29.3c-1,3.3,1,6.8,4.3,7.8s6.8-1,7.8-4.3l8.5-29.3C64.3,1146.3,62.4,1142.8,59.1,1141.8z M196.9,1461.4l-10.3-3.6
			c-1.2-0.4-2.5,0.2-2.9,1.4c-0.4,1.2,0.2,2.5,1.4,2.9l10.3,3.6c1.2,0.4,2.5-0.2,2.9-1.4C198.7,1463.1,198.1,1461.8,196.9,1461.4z
			 M245.9,1618.1l-13.5-4.2c-1.5-0.5-3.2,0.4-3.7,1.9c-0.5,1.5,0.4,3.2,1.9,3.7l13.5,4.2c1.5,0.5,3.2-0.4,3.7-1.9
			C248.3,1620.2,247.4,1618.6,245.9,1618.1z M689.9,1602.3l-6.3,7.2c-0.7,0.8-0.6,2.1,0.2,2.8s2.1,0.6,2.8-0.2l6.3-7.2
			c0.7-0.8,0.6-2.1-0.2-2.8C691.9,1601.4,690.7,1601.5,689.9,1602.3z M26.4,912.8l-3.5,9.1c-0.4,1,0.1,2.2,1.1,2.6
			c1,0.4,2.2-0.1,2.6-1.1l3.5-9.1c0.4-1-0.1-2.2-1.1-2.6C28,911.2,26.9,911.7,26.4,912.8z M73.3,843.3l-0.3,8.9c0,1,0.8,1.9,1.8,1.9
			s1.9-0.8,1.9-1.8l0.3-8.9c0-1-0.8-1.9-1.8-1.9C74.1,841.5,73.3,842.3,73.3,843.3z M780.3,700c1.4,0.6,3.1,0,3.7-1.5l5.5-12.6
			c0.6-1.4,0-3.1-1.4-3.7s-3.1,0-3.7,1.5l-5.5,12.6C778.3,697.7,778.9,699.4,780.3,700z M773.1,1049.9l14.9-4.4
			c1.7-0.5,2.7-2.3,2.2-4c-0.5-1.7-2.3-2.7-4-2.2l-14.9,4.4c-1.7,0.5-2.7,2.3-2.2,4C769.6,1049.4,771.4,1050.4,773.1,1049.9z
			 M423.2,910.7l7.8,2.9c0.9,0.3,1.9-0.1,2.2-1c0.3-0.9-0.1-1.9-1-2.2l-7.8-2.9c-0.9-0.3-1.9,0.1-2.2,1
			C421.9,909.4,422.4,910.4,423.2,910.7z M26.8,1240.7c1.3-1.3,1.4-3.4,0.1-4.7l-11.1-11.6c-1.3-1.3-3.4-1.4-4.7-0.1
			c-1.3,1.3-1.4,3.4-0.1,4.7l11.1,11.6C23.4,1241.9,25.5,1242,26.8,1240.7z M963,1606.7l-9.6,9.4c-1.1,1.1-1.1,2.8,0,3.9
			s2.8,1.1,3.9,0.1l9.6-9.4c1.1-1.1,1.1-2.8,0.1-3.9C965.8,1605.6,964.1,1605.6,963,1606.7z M832.7,1267.2l-10.2,0.4
			c-1.2,0.1-2.1,1-2,2.2c0,1.2,1,2.1,2.2,2l10.2-0.4c1.2-0.1,2.1-1,2-2.2C834.8,1268,833.8,1267.1,832.7,1267.2z M717.6,1373.7
			l-10.3,4.8c-1.2,0.5-1.7,1.9-1.1,3.1c0.5,1.2,2,1.7,3.1,1.1l10.3-4.8c1.2-0.5,1.7-1.9,1.1-3.1
			C720.2,1373.6,718.8,1373.1,717.6,1373.7z M128.7,1001.5c0.9-2.5-0.5-5.3-3-6.2l-22.4-7.8c-2.5-0.9-5.3,0.5-6.2,3
			c-0.9,2.5,0.5,5.3,3,6.2l22.4,7.8C125.1,1005.4,127.8,1004,128.7,1001.5z M196.9,992.4c-1.4,0.1-2.4,1.4-2.3,2.8l1.2,12.3
			c0.1,1.4,1.4,2.4,2.8,2.3c1.4-0.1,2.4-1.4,2.3-2.8l-1.2-12.3C199.6,993.3,198.3,992.3,196.9,992.4z M628.2,1394.8l-8.2-3.9
			c-0.9-0.4-2.1,0-2.5,0.9c-0.4,0.9-0.1,2.1,0.9,2.5l8.2,3.9c0.9,0.4,2.1,0,2.5-0.9C629.5,1396.4,629.1,1395.3,628.2,1394.8z
			 M302.2,848.5c-0.5-2.5-3-4.1-5.5-3.6l-22.2,4.6c-2.5,0.5-4.1,3-3.6,5.5c0.5,2.5,3,4.1,5.5,3.6l22.2-4.6
			C301.1,853.5,302.7,851,302.2,848.5z M22.7,1005c-2.8,1.8-3.7,5.5-1.9,8.4l15.6,25c1.8,2.8,5.5,3.7,8.4,1.9
			c2.8-1.8,3.7-5.5,1.9-8.4l-15.6-25C29.3,1004.1,25.5,1003.2,22.7,1005z M72.4,1580.6c-3.5-0.9-7,1.2-7.9,4.7l-7.7,30.6
			c-0.9,3.5,1.2,7,4.7,7.9c3.5,0.9,7-1.2,7.9-4.7l7.7-30.6C77.9,1585,75.8,1581.5,72.4,1580.6z M327.9,1094.2l-16.2,7
			c-1.8,0.8-2.7,2.9-1.9,4.8c0.8,1.8,2.9,2.7,4.8,1.9l16.2-7c1.8-0.8,2.7-2.9,1.9-4.8C331.9,1094.3,329.7,1093.4,327.9,1094.2z
			 M63.9,1347.3c0.8,1.3,2.6,1.7,3.9,0.9c1.3-0.8,1.7-2.6,0.9-3.9l-7.3-11.6c-0.8-1.3-2.6-1.7-3.9-0.9c-1.3,0.8-1.7,2.6-0.9,3.9
			L63.9,1347.3z M303.4,1404.7l12-12.7c1.4-1.4,1.3-3.7-0.1-5.1c-1.4-1.4-3.7-1.3-5.1,0.1l-12,12.7c-1.4,1.4-1.3,3.7,0.1,5.1
			S302,1406.1,303.4,1404.7z M246.7,1094.1c0.7,1.2,2.2,1.6,3.5,0.9c1.2-0.7,1.6-2.2,0.9-3.4L245,1081c-0.7-1.2-2.2-1.6-3.4-0.9
			s-1.6,2.2-0.9,3.5L246.7,1094.1z M193.6,817.9c-0.5,3,1.5,5.9,4.6,6.5l26.8,4.6c3,0.5,5.9-1.5,6.5-4.6c0.5-3-1.5-5.9-4.6-6.5
			l-26.8-4.6C197,812.8,194.1,814.8,193.6,817.9z M933.6,885.4c0.6-0.8,0.5-1.9-0.3-2.5l-6.7-5.5c-0.8-0.6-1.9-0.5-2.5,0.3
			c-0.6,0.8-0.5,1.9,0.3,2.5l6.7,5.5C931.8,886.2,933,886.1,933.6,885.4z M18.7,1567.2c-0.4-1.3-1.8-2-3-1.6c-1.3,0.4-2,1.7-1.6,3
			l3.4,11.3c0.4,1.3,1.8,2,3,1.6c1.3-0.4,2-1.8,1.6-3L18.7,1567.2z M776.6,1180.7c-1.1,0.5-1.5,1.8-1,2.9l4.7,9.5
			c0.5,1.1,1.8,1.5,2.9,1c1.1-0.5,1.5-1.8,1-2.9l-4.7-9.5C779,1180.6,777.7,1180.1,776.6,1180.7z M263.8,922.2
			c2.2,2.2,5.8,2.2,8.1,0c2.2-2.2,2.2-5.8,0-8.1l-19.5-19.6c-2.2-2.2-5.8-2.2-8.1,0c-2.2,2.2-2.2,5.8,0,8.1L263.8,922.2z
			 M654.4,846.5c2.4-0.7,3.8-3.3,3.1-5.7l-6.4-21.4c-0.7-2.4-3.3-3.8-5.7-3.1c-2.4,0.7-3.8,3.3-3.1,5.7l6.4,21.4
			C649.3,845.8,652,847.2,654.4,846.5z M74.9,1242.2l-11.3,4.2c-1.3,0.5-1.9,1.9-1.5,3.2c0.5,1.3,1.9,1.9,3.2,1.5l11.3-4.2
			c1.3-0.5,1.9-1.9,1.5-3.2C77.7,1242.4,76.2,1241.7,74.9,1242.2z M837.5,979.1c2.3-2.4,2.2-6.1-0.1-8.4c-2.4-2.3-6.1-2.2-8.4,0.1
			l-20.2,20.9c-2.3,2.4-2.2,6.1,0.1,8.4c2.4,2.3,6.1,2.2,8.4-0.1L837.5,979.1z M427.2,1219.4l-13.4,9.1c-1.5,1-1.9,3.1-0.9,4.7
			c1,1.5,3.1,1.9,4.7,0.9l13.4-9.1c1.5-1,1.9-3.1,0.9-4.7C430.8,1218.7,428.7,1218.3,427.2,1219.4z M880.3,1319
			c-2.2-0.5-4.5,0.9-5,3.1l-4.6,19.8c-0.5,2.3,0.9,4.5,3.1,5c2.2,0.5,4.5-0.9,5-3.1l4.6-19.8C883.9,1321.8,882.5,1319.5,880.3,1319z
			 M826,1384.8c-3.1-0.6-6.2,1.4-6.8,4.6l-5.4,27.7c-0.6,3.1,1.4,6.2,4.6,6.8c3.1,0.6,6.2-1.4,6.8-4.6l5.4-27.7
			C831.1,1388.4,829.1,1385.4,826,1384.8z M273.5,776.3c0.8,0.8,2,0.7,2.8,0c0.8-0.8,0.7-2,0-2.8l-6.9-6.7c-0.8-0.8-2-0.7-2.8,0
			c-0.8,0.8-0.7,2,0,2.8L273.5,776.3z M276.8,1230.5c-0.1-2.7-2.4-4.9-5.2-4.7l-24.1,1c-2.7,0.1-4.9,2.4-4.7,5.2
			c0.1,2.7,2.4,4.9,5.2,4.7l24.1-1C274.8,1235.6,276.9,1233.3,276.8,1230.5z M35,1491.5c-2.3,0.2-4.1,2.2-3.9,4.6l1.7,20.5
			c0.2,2.3,2.2,4,4.6,3.9c2.3-0.2,4.1-2.2,3.9-4.6l-1.7-20.5C39.4,1493,37.3,1491.3,35,1491.5z M808.2,1529.5
			c-1.5,0.1-2.6,1.3-2.5,2.7l0.5,12.8c0.1,1.5,1.3,2.6,2.7,2.5c1.5-0.1,2.6-1.3,2.5-2.7L811,1532
			C811,1530.6,809.7,1529.5,808.2,1529.5z M73.3,679.3l12.8-5.4c1.5-0.6,2.1-2.3,1.5-3.7c-0.6-1.5-2.3-2.1-3.7-1.5l-12.8,5.4
			c-1.5,0.6-2.1,2.3-1.5,3.7C70.1,679.3,71.8,680,73.3,679.3z M962.1,972.4l-9-1.5c-1-0.2-2,0.5-2.2,1.5s0.5,2,1.5,2.2l9,1.5
			c1,0.2,2-0.5,2.2-1.5C963.8,973.5,963.1,972.5,962.1,972.4z M867,1184.2c-1.2-2.5-4.2-3.6-6.7-2.4l-22.2,10.3
			c-2.5,1.2-3.6,4.2-2.4,6.7c1.2,2.5,4.2,3.6,6.7,2.4l22.3-10.3C867.1,1189.7,868.2,1186.7,867,1184.2z M285.1,1295.6l-15,0.6
			c-1.7,0.1-3,1.5-3,3.2c0.1,1.7,1.5,3,3.2,3l15-0.6c1.7-0.1,3-1.5,3-3.2C288.3,1296.9,286.8,1295.6,285.1,1295.6z M934,1059.6
			c0.7,1.3,2.3,1.8,3.6,1.1l11.4-6c1.3-0.7,1.8-2.3,1.1-3.6s-2.3-1.8-3.6-1.1l-11.4,6C933.8,1056.7,933.3,1058.3,934,1059.6z
			 M683.3,1448.5c-0.6,0.9-0.5,2.1,0.4,2.7l7.5,5.6c0.9,0.6,2.1,0.5,2.7-0.4c0.6-0.9,0.5-2.1-0.4-2.7l-7.5-5.6
			C685.2,1447.5,684,1447.6,683.3,1448.5z M743.3,1290.2c-2.8,0.1-5,2.4-4.9,5.1l0.5,24.4c0.1,2.8,2.4,5,5.1,4.9
			c2.8-0.1,5-2.4,4.9-5.1l-0.5-24.4C748.4,1292.5,746.1,1290.2,743.3,1290.2z M488.7,685.8c0.2,1,1.2,1.6,2.2,1.4
			c1-0.2,1.6-1.2,1.4-2.2l-2-8.6c-0.2-1-1.2-1.6-2.2-1.4c-1,0.2-1.6,1.2-1.4,2.2L488.7,685.8z M679,714.4c2.8,1.8,6.5,0.9,8.3-1.8
			l15.6-24.7c1.8-2.8,0.9-6.5-1.9-8.3c-2.8-1.8-6.5-0.9-8.3,1.8L677.1,706C675.4,708.9,676.2,712.6,679,714.4z M646.1,1117.4
			l-7.8,4.2c-0.9,0.5-1.2,1.6-0.7,2.5c0.5,0.9,1.6,1.2,2.5,0.7l7.8-4.2c0.9-0.5,1.2-1.6,0.7-2.5C648.1,1117.3,647,1117,646.1,1117.4
			z M484.7,900l20.9-2.8c2.4-0.3,4-2.5,3.7-4.9c-0.3-2.4-2.5-4-4.9-3.7l-20.9,2.8c-2.4,0.3-4,2.5-3.7,4.9
			C480.2,898.6,482.4,900.3,484.7,900z M620.3,1055.5c-1.4-0.9-3.2-0.6-4.1,0.8l-8,11.9c-0.9,1.4-0.6,3.2,0.8,4.1
			c1.4,0.9,3.2,0.6,4.1-0.8l8-11.9C622.1,1058.2,621.7,1056.4,620.3,1055.5z M498.6,1041.4c-2-1.3-4.7-0.7-6,1.3l-11.4,17.7
			c-1.3,2-0.7,4.7,1.3,6c2,1.3,4.7,0.7,6-1.3l11.4-17.7C501.3,1045.4,500.7,1042.7,498.6,1041.4z M300.5,1582.3
			c-0.5-1-1.7-1.4-2.7-0.9c-1,0.5-1.4,1.7-0.9,2.7l4.3,8.6c0.5,1,1.7,1.4,2.7,0.9s1.4-1.7,0.9-2.7L300.5,1582.3z M737.1,1224.6
			c-1.7-0.8-3.8-0.1-4.6,1.6l-7.3,14.9c-0.8,1.7-0.1,3.8,1.6,4.6c1.7,0.8,3.8,0.1,4.6-1.6l7.3-14.9
			C739.5,1227.4,738.8,1225.4,737.1,1224.6z M518.9,1564.3l-24.4,20.1c-2.8,2.3-3.2,6.4-0.9,9.1c2.3,2.8,6.4,3.2,9.1,0.9l24.4-20.1
			c2.8-2.3,3.2-6.4,0.9-9.1C525.8,1562.4,521.7,1562,518.9,1564.3z M102.5,1072.5c-1.5,0-2.7,1.1-2.7,2.6c0,1.5,1.1,2.7,2.6,2.7
			l12.8,0.4c1.5,0,2.7-1.1,2.7-2.6s-1.1-2.7-2.6-2.7L102.5,1072.5z M888.3,1127.3l-0.8-25.8c-0.1-2.9-2.5-5.2-5.5-5.1
			c-2.9,0.1-5.2,2.5-5.1,5.5l0.8,25.8c0.1,2.9,2.5,5.2,5.5,5.1C886,1132.7,888.4,1130.3,888.3,1127.3z M145.4,1187.3
			c-0.6-3.6-4.1-6-7.7-5.4l-31.9,5.6c-3.6,0.6-6,4.1-5.4,7.7s4.1,6,7.7,5.4l31.9-5.5C143.6,1194.4,146.1,1191,145.4,1187.3z
			 M340,897.8c-0.4,0.9-0.1,1.9,0.8,2.4c0.9,0.4,1.9,0.1,2.4-0.8l3.9-7.6c0.4-0.9,0.1-1.9-0.8-2.4c-0.9-0.4-1.9-0.1-2.4,0.8
			L340,897.8z M156.8,1378.8c-1.1-1.1-2.9-1.1-4,0.1l-9.6,9.8c-1.1,1.1-1.1,2.9,0.1,4c1.1,1.1,2.9,1.1,4-0.1l9.6-9.8
			C157.9,1381.6,157.9,1379.9,156.8,1378.8z M17,691.7c2.1,0.4,4-1,4.4-3l3.3-18c0.4-2.1-1-4-3-4.4c-2.1-0.4-4,1-4.4,3l-3.3,18
			C13.6,689.3,15,691.3,17,691.7z M103.8,1522.3c-0.7-1-2.1-1.2-3.1-0.4c-1,0.7-1.2,2.1-0.4,3.1l6.4,8.5c0.7,1,2.1,1.2,3.1,0.4
			c1-0.7,1.2-2.1,0.4-3.1L103.8,1522.3z M725.8,1113.5c-1.7-2.2-4.9-2.6-7.1-0.9l-19.4,14.9c-2.2,1.7-2.6,4.9-0.9,7.1
			c1.7,2.2,4.9,2.6,7.1,0.9l19.4-14.9C727.1,1118.9,727.5,1115.7,725.8,1113.5z M375.8,1604.9l-19.6,9.8c-2.2,1.1-3.1,3.8-2,6.1
			c1.1,2.2,3.8,3.1,6.1,2l19.6-9.8c2.2-1.1,3.1-3.8,2-6.1C380.7,1604.7,378,1603.8,375.8,1604.9z M320.5,1521l-8.8-1
			c-1-0.1-1.9,0.6-2,1.6c-0.1,1,0.6,1.9,1.6,2l8.8,1c1,0.1,1.9-0.6,2-1.6S321.5,1521.1,320.5,1521z M941.9,1384.6
			c-0.6-1.1-2-1.5-3.1-1l-9.8,5.1c-1.1,0.6-1.5,2-1,3.1c0.6,1.1,2,1.5,3.1,1l9.8-5.1C942.1,1387.1,942.5,1385.7,941.9,1384.6z
			 M592.9,1477.9c-0.9-0.4-1.9,0-2.3,0.9l-3.6,7.7c-0.4,0.9,0,1.9,0.9,2.3s1.9,0,2.3-0.9l3.6-7.7
			C594.2,1479.4,593.8,1478.4,592.9,1477.9z M694.4,1526.9l-14.9,0.1c-1.7,0-3.1,1.4-3.1,3.1s1.4,3.1,3.1,3.1l14.9-0.1
			c1.7,0,3.1-1.4,3.1-3.1C697.5,1528.3,696.1,1526.9,694.4,1526.9z M965.3,1241.9c1.1,0,1.9-0.9,1.9-2l-0.3-9.3c0-1.1-0.9-1.9-2-1.9
			s-1.9,0.9-1.9,2l0.3,9.3C963.4,1241.1,964.3,1241.9,965.3,1241.9z M109.1,1456l-13.9-2.5c-1.6-0.3-3.1,0.8-3.4,2.4
			c-0.3,1.6,0.8,3.1,2.4,3.4l13.9,2.5c1.6,0.3,3.1-0.8,3.4-2.4C111.7,1457.8,110.7,1456.3,109.1,1456z M969.5,1103.8
			c-1.9-1.6-4.6-1.3-6.2,0.6l-13.6,16.4c-1.6,1.9-1.3,4.6,0.6,6.2c1.9,1.6,4.7,1.3,6.2-0.6l13.6-16.4
			C971.6,1108.1,971.4,1105.3,969.5,1103.8z M890.5,1534c-0.4-1.7-2-2.7-3.7-2.3l-14.6,3.2c-1.7,0.4-2.7,2-2.3,3.7
			c0.4,1.7,2,2.7,3.7,2.3l14.5-3.2C889.8,1537.3,890.9,1535.6,890.5,1534z M527.3,1387.9l-28.2,6.3c-3.2,0.7-5.2,3.9-4.5,7.1
			s3.9,5.2,7.1,4.5l28.2-6.3c3.2-0.7,5.2-3.9,4.5-7.1C533.7,1389.2,530.5,1387.2,527.3,1387.9z M637,1235.5l-9.1,2.8
			c-1,0.3-1.6,1.4-1.3,2.5c0.3,1,1.4,1.6,2.5,1.3l9.1-2.8c1-0.3,1.6-1.4,1.3-2.5S638.1,1235.2,637,1235.5z M528.3,773.2
			c0.4,1.3,1.8,2.1,3.1,1.7c1.3-0.4,2.1-1.8,1.7-3.1l-3.4-11.7c-0.4-1.3-1.8-2.1-3.1-1.7c-1.3,0.4-2.1,1.8-1.7,3.1L528.3,773.2z
			 M497.8,1177.7c1,2.6,3.9,4,6.5,3l23.1-8.3c2.6-1,4-3.9,3-6.5c-1-2.6-3.9-4-6.5-3l-23.1,8.3
			C498.2,1172.1,496.9,1175.1,497.8,1177.7z M398.1,702.8l18.9-21.6c2.2-2.4,1.9-6.2-0.5-8.3c-2.5-2.2-6.2-1.9-8.3,0.5l-19,21.6
			c-2.2,2.4-1.9,6.2,0.5,8.3C392.2,705.5,396,705.3,398.1,702.8z M463.8,1609.4l-9-0.2c-1,0-1.9,0.8-1.9,1.8c0,1,0.8,1.9,1.8,1.9
			l9,0.2c1,0,1.9-0.8,1.9-1.8C465.6,1610.2,464.8,1609.4,463.8,1609.4z M432.6,1489l-23.4,5.3c-2.7,0.6-4.3,3.3-3.7,5.9
			c0.6,2.7,3.3,4.3,5.9,3.7l23.4-5.3c2.7-0.6,4.3-3.3,3.7-5.9C437.9,1490.1,435.3,1488.4,432.6,1489z M41.1,1097.7l-5.8,7.9
			c-0.7,0.9-0.5,2.2,0.4,2.8c0.9,0.7,2.2,0.5,2.8-0.4l5.8-7.9c0.7-0.9,0.5-2.2-0.4-2.8C43,1096.6,41.8,1096.8,41.1,1097.7z
			 M299.4,692.7c0.5,1,1.7,1.3,2.7,0.8s1.3-1.7,0.8-2.7l-4.6-8.4c-0.5-1-1.7-1.3-2.7-0.8c-1,0.5-1.3,1.7-0.8,2.7L299.4,692.7z
			 M413.9,810.4c-3.7-0.3-7,2.5-7.3,6.2l-2.7,32.7c-0.3,3.7,2.5,7,6.2,7.3c3.7,0.3,7-2.5,7.3-6.2l2.7-32.8
			C420.4,814,417.7,810.7,413.9,810.4z M549,719.5l24.4-19.1c2.8-2.2,3.2-6.2,1.1-9c-2.2-2.8-6.2-3.2-9-1.1l-24.4,19.1
			c-2.8,2.2-3.2,6.2-1.1,9C542.2,721.2,546.2,721.7,549,719.5z M93.5,930.3c1.1-0.5,1.6-1.9,1-3l-4.7-9.7c-0.5-1.1-1.9-1.6-3-1
			c-1.1,0.5-1.6,1.9-1,3l4.7,9.7C91.1,930.4,92.4,930.8,93.5,930.3z M452.8,1304.3c-2.5-1.1-5.4,0.1-6.4,2.6l-9.3,21.9
			c-1.1,2.5,0.1,5.4,2.6,6.4c2.5,1.1,5.4-0.1,6.4-2.6l9.3-21.9C456.5,1308.2,455.4,1305.3,452.8,1304.3z M341.4,824.7
			c1,0.1,1.9-0.6,2-1.6l0.9-8.8c0.1-1-0.6-1.9-1.6-2c-1-0.1-1.9,0.6-2,1.6l-0.9,8.8C339.7,823.7,340.4,824.6,341.4,824.7z
			 M510.6,1250.1c-2-2.5-5.6-3-8.1-1c-2.5,2-3,5.6-1,8.1l17.3,22.2c2,2.5,5.6,3,8.2,1c2.5-2,3-5.6,1-8.1L510.6,1250.1z
			 M962.6,1474.2c0.6-2.3-0.8-4.5-3.1-5.1l-19.9-4.9c-2.3-0.6-4.5,0.8-5.1,3.1s0.8,4.5,3.1,5.1l19.9,4.9
			C959.8,1477.8,962,1476.4,962.6,1474.2z M230.4,1182.6c1.5-2,1.2-4.9-0.9-6.5l-17.7-13.6c-2-1.5-4.9-1.2-6.5,0.9
			c-1.5,2-1.2,4.9,0.9,6.5l17.8,13.6C225.9,1185,228.8,1184.6,230.4,1182.6z M393.8,1158.1c0.3,1,1.4,1.5,2.4,1.2s1.5-1.4,1.2-2.4
			l-2.9-8.6c-0.3-1-1.4-1.5-2.4-1.2c-1,0.3-1.5,1.4-1.2,2.4L393.8,1158.1z M687,1039.4l-5.3-6.9c-0.6-0.8-1.7-0.9-2.5-0.3
			c-0.8,0.6-0.9,1.7-0.3,2.5l5.3,6.9c0.6,0.8,1.7,0.9,2.5,0.3C687.4,1041.3,687.6,1040.2,687,1039.4z M189.8,723.1
			c3,2,7.1,1.2,9-1.8l17.4-26.5c2-3,1.2-7.1-1.8-9c-3-2-7.1-1.2-9,1.8L188,714C186,717,186.8,721.1,189.8,723.1z M553.3,942.7
			c0.2-1.1-0.5-2.2-1.6-2.5l-9.9-2.1c-1.1-0.2-2.2,0.5-2.5,1.6c-0.2,1.1,0.5,2.2,1.6,2.5l9.9,2.1C551.9,944.6,553,943.9,553.3,942.7
			z M222.8,1340.3c-2.6,0.8-4.1,3.5-3.3,6.2l6.9,23.1c0.8,2.6,3.5,4.1,6.2,3.3c2.6-0.8,4.1-3.5,3.3-6.2l-6.9-23.1
			C228.2,1341,225.5,1339.5,222.8,1340.3z M907.3,1592.4L882,1600c-2.9,0.9-4.5,3.9-3.6,6.8c0.9,2.9,3.9,4.5,6.8,3.6l25.3-7.6
			c2.9-0.9,4.5-3.9,3.6-6.8C913.2,1593.2,910.1,1591.5,907.3,1592.4z M742,943.9c-1.9,3-1,6.9,1.9,8.8l26.1,16.6
			c3,1.9,6.9,1,8.8-1.9c1.9-3,1-6.9-1.9-8.8L750.8,942C747.9,940,743.9,940.9,742,943.9z M685.1,1195.1c1.1-2.1,0.4-4.6-1.7-5.8
			l-18-9.9c-2.1-1.1-4.6-0.4-5.8,1.7c-1.1,2.1-0.4,4.6,1.7,5.8l18,9.9C681.4,1197.9,684,1197.2,685.1,1195.1z M394.6,1069
			c1.2-0.3,1.9-1.6,1.6-2.8l-2.9-10.5c-0.3-1.2-1.6-1.9-2.8-1.6c-1.2,0.3-1.9,1.6-1.6,2.8l2.9,10.5
			C392.1,1068.6,393.4,1069.3,394.6,1069z M366.7,1479.8c2.7-1,4.1-4,3.1-6.7l-8.8-23.9c-1-2.7-4-4.1-6.7-3.1c-2.7,1-4.1,4-3.1,6.7
			l8.8,23.9C361,1479.5,364,1480.9,366.7,1479.8z M389.8,1385.9l11.8,6.6c1.3,0.8,3,0.3,3.8-1.1c0.8-1.3,0.3-3-1.1-3.8l-11.8-6.6
			c-1.3-0.8-3.1-0.3-3.8,1.1C388,1383.4,388.5,1385.1,389.8,1385.9z M272.5,975.2l-7.1,8.3c-0.8,0.9-0.7,2.4,0.2,3.2
			c0.9,0.8,2.4,0.7,3.2-0.2l7.1-8.3c0.8-0.9,0.7-2.4-0.2-3.2C274.8,974.2,273.3,974.3,272.5,975.2z M731.3,887.9l11.8-7.6
			c1.3-0.9,1.7-2.7,0.9-4c-0.9-1.3-2.7-1.7-4-0.9l-11.8,7.6c-1.3,0.9-1.7,2.7-0.9,4C728,888.4,729.9,888.8,731.3,887.9z
			 M807.2,1348.4l-4.6-21.4c-0.5-2.4-2.9-4-5.4-3.5c-2.4,0.5-4,2.9-3.5,5.4l4.6,21.4c0.5,2.4,2.9,4,5.4,3.5
			C806.1,1353.2,807.7,1350.8,807.2,1348.4z M887.8,1457.3c-0.9-2.5-3.7-3.9-6.2-3l-22.3,7.9c-2.5,0.9-3.9,3.7-2.9,6.2
			c0.9,2.5,3.7,3.9,6.2,2.9l22.3-7.9C887.4,1462.7,888.7,1459.9,887.8,1457.3z M917.5,1239.3l-16.8-2.9c-1.9-0.3-3.7,1-4.1,2.9
			c-0.3,1.9,1,3.7,2.9,4.1l16.8,2.9c1.9,0.3,3.7-1,4.1-2.9C920.8,1241.4,919.5,1239.6,917.5,1239.3z M600.6,776.4
			c2,1.3,4.7,0.7,6-1.4l11.2-17.8c1.3-2,0.7-4.7-1.4-6c-2-1.3-4.7-0.7-6,1.4l-11.2,17.8C598,772.5,598.6,775.2,600.6,776.4z
			 M508.8,845.3c2.5,0.5,4.9-1.1,5.4-3.6l4.3-21.7c0.5-2.5-1.1-4.9-3.6-5.4s-4.9,1.1-5.4,3.6l-4.3,21.7
			C504.7,842.4,506.3,844.8,508.8,845.3z M953,1550.5c1-0.2,1.6-1.2,1.3-2.2l-2.2-8.5c-0.2-1-1.2-1.6-2.2-1.3
			c-1,0.2-1.6,1.2-1.3,2.2l2.2,8.5C951.1,1550.1,952.1,1550.7,953,1550.5z M819.2,912.1l29.4-4.1c3.3-0.5,5.7-3.6,5.2-6.9
			c-0.5-3.3-3.6-5.7-6.9-5.2l-29.4,4.1c-3.3,0.5-5.7,3.6-5.2,6.9C812.8,910.2,815.8,912.5,819.2,912.1z M908,700.4l18.1-14.4
			c2.1-1.6,2.4-4.6,0.8-6.7c-1.6-2.1-4.6-2.4-6.7-0.7l-18.1,14.4c-2.1,1.6-2.4,4.6-0.7,6.7C903,701.7,906,702.1,908,700.4z
			 M193.4,1269.4c0.5-1,0.1-2.2-0.9-2.8l-8.8-4.5c-1-0.5-2.2-0.1-2.8,0.9c-0.5,1-0.1,2.2,0.9,2.8l8.8,4.5
			C191.7,1270.8,192.9,1270.4,193.4,1269.4z M582.1,883.6l14-11.6c1.6-1.3,1.8-3.7,0.5-5.3c-1.3-1.6-3.7-1.8-5.3-0.5l-14,11.6
			c-1.6,1.3-1.8,3.7-0.5,5.3S580.5,885,582.1,883.6z M102.8,790.9l17.8-1.8c2-0.2,3.5-2,3.3-4.1c-0.2-2-2-3.5-4.1-3.3l-17.8,1.8
			c-2,0.2-3.5,2-3.3,4.1C99,789.6,100.8,791.1,102.8,790.9z M941.7,1307.7c0.5,0.9,1.7,1.2,2.7,0.7l8.1-4.7c0.9-0.5,1.2-1.7,0.7-2.7
			c-0.5-0.9-1.7-1.2-2.7-0.7l-8.1,4.7C941.5,1305.6,941.2,1306.8,941.7,1307.7z M480.1,1429.9c-3.2-0.6-6.3,1.6-6.9,4.8l-5.1,28.4
			c-0.6,3.2,1.6,6.3,4.8,6.9c3.2,0.6,6.3-1.6,6.9-4.8l5-28.4C485.4,1433.6,483.3,1430.5,480.1,1429.9z M22.8,752.6
			c1.7,1.3,4,1,5.3-0.7l11.2-14.6c1.3-1.7,1-4-0.7-5.3c-1.7-1.3-4-1-5.3,0.7l-11.2,14.6C20.9,749,21.2,751.3,22.8,752.6z
			 M367.5,958.3l7.9,5.8c0.9,0.7,2.2,0.5,2.8-0.4c0.7-0.9,0.5-2.2-0.4-2.8l-7.9-5.8c-0.9-0.7-2.2-0.5-2.8,0.4
			C366.4,956.4,366.6,957.7,367.5,958.3z M1182.3,1549.2c-0.7-0.7-1.8-0.8-2.6-0.2c-0.7,0.7-0.8,1.8-0.2,2.6l5.8,6.6
			c0.7,0.7,1.8,0.8,2.6,0.2c0.7-0.7,0.8-1.8,0.2-2.6L1182.3,1549.2z M1411.6,756.9l9.7-3.7c1.1-0.4,1.7-1.7,1.2-2.8
			c-0.4-1.1-1.7-1.7-2.8-1.2l-9.7,3.7c-1.1,0.4-1.7,1.7-1.2,2.8C1409.2,756.8,1410.5,757.4,1411.6,756.9z M1451.4,972.7l-7.6,6.3
			c-0.9,0.7-1,2-0.3,2.9c0.7,0.9,2,1,2.9,0.3l7.6-6.3c0.9-0.7,1-2,0.3-2.9C1453.5,972.1,1452.3,972,1451.4,972.7z M1475.7,1519.5
			c1.5,1,3.4,0.6,4.4-0.8c1-1.5,0.6-3.4-0.8-4.4l-12.8-8.8c-1.5-1-3.4-0.6-4.4,0.8c-1,1.5-0.6,3.4,0.8,4.4L1475.7,1519.5z
			 M1121.8,839.8c-2.2-1.6-5.2-1.2-6.9,0.9l-14.3,18.9c-1.6,2.2-1.2,5.2,0.9,6.9c2.2,1.6,5.2,1.2,6.9-0.9l14.3-18.9
			C1124.5,844.5,1124.1,841.4,1121.8,839.8z M1710.7,815.4c0.7,1,2.1,1.3,3.1,0.6c1-0.7,1.3-2.1,0.6-3.1l-6.2-9
			c-0.7-1-2.1-1.3-3.1-0.6c-1,0.7-1.3,2.1-0.6,3.1L1710.7,815.4z M1744.1,764.8c1.5,1.7,4,1.8,5.7,0.3l14.5-12.9
			c1.7-1.5,1.8-4,0.3-5.7c-1.5-1.7-4-1.8-5.7-0.3l-14.5,12.9C1742.8,760.6,1742.6,763.1,1744.1,764.8z M1392,998.4l-7.6,8.5
			c-0.9,1-0.8,2.5,0.2,3.3c1,0.9,2.5,0.8,3.3-0.2l7.6-8.5c0.9-1,0.8-2.5-0.2-3.3C1394.4,997.4,1392.9,997.4,1392,998.4z
			 M1142.3,1080.9l8.2-23.6c0.9-2.7-0.5-5.6-3.2-6.5c-2.7-0.9-5.6,0.5-6.5,3.2l-8.2,23.6c-0.9,2.7,0.5,5.6,3.2,6.5
			C1138.5,1085,1141.4,1083.6,1142.3,1080.9z M1133.2,923.4l18.5,14c2.1,1.6,5.1,1.2,6.7-0.9c1.6-2.1,1.2-5.1-0.9-6.7l-18.5-14
			c-2.1-1.6-5.1-1.2-6.7,0.9C1130.6,918.8,1131.1,921.8,1133.2,923.4z M1085.4,1280c-1.8-0.3-3.5,1-3.7,2.8l-2.2,15.9
			c-0.3,1.8,1,3.5,2.8,3.7c1.8,0.3,3.5-1,3.7-2.8l2.3-15.9C1088.5,1282,1087.2,1280.3,1085.4,1280z M1828.5,1061.2
			c1.3,2.4,4.3,3.3,6.7,2c2.4-1.3,3.3-4.3,2-6.7l-11.3-21.1c-1.3-2.4-4.3-3.3-6.7-2s-3.3,4.3-2,6.7L1828.5,1061.2z M1758.6,1104.1
			c-1.7-2.2-4.8-2.7-7.1-1l-19.6,14.6c-2.2,1.7-2.7,4.8-1,7.1c1.7,2.2,4.8,2.7,7.1,1l19.6-14.6
			C1759.8,1109.5,1760.2,1106.4,1758.6,1104.1z M1798.4,832.8l16.1-7.3c1.8-0.8,2.6-3,1.8-4.8c-0.8-1.8-3-2.6-4.8-1.8l-16.1,7.3
			c-1.8,0.8-2.6,3-1.8,4.8C1794.3,832.9,1796.6,833.7,1798.4,832.8z M1542.7,1160.9l-1.4,33.1c-0.2,3.8,2.8,7,6.5,7.1
			c3.8,0.2,7-2.8,7.1-6.5l1.4-33.1c0.2-3.8-2.8-7-6.5-7.1C1546.1,1154.2,1542.9,1157.1,1542.7,1160.9z M1288.3,1189.8l-14.7,0.8
			c-1.7,0.1-3,1.5-2.9,3.2s1.5,3,3.2,2.9l14.7-0.8c1.7-0.1,3-1.5,2.9-3.2C1291.4,1191,1290,1189.7,1288.3,1189.8z M1646.6,773.7
			l3.9-7.3c0.5-0.8,0.1-1.9-0.7-2.3c-0.8-0.5-1.9-0.1-2.3,0.7l-3.9,7.3c-0.5,0.8-0.1,1.9,0.7,2.3
			C1645.1,774.8,1646.1,774.5,1646.6,773.7z M1834.3,760.6l23.7-6.5c2.7-0.7,4.3-3.5,3.5-6.2c-0.7-2.7-3.5-4.3-6.2-3.5l-23.7,6.5
			c-2.7,0.7-4.3,3.5-3.5,6.2C1828.8,759.8,1831.6,761.4,1834.3,760.6z M1320.1,757.5c0.6,1.8,2.5,2.7,4.3,2.1
			c1.8-0.6,2.7-2.5,2.1-4.3l-5.2-15.5c-0.6-1.8-2.5-2.7-4.3-2.1c-1.8,0.6-2.7,2.5-2.1,4.3L1320.1,757.5z M1531.4,1018.1l-19.8-14.1
			c-2.3-1.6-5.4-1.1-7,1.2s-1.1,5.4,1.2,7l19.8,14.1c2.3,1.6,5.4,1.1,7-1.2C1534.1,1022.8,1533.6,1019.7,1531.4,1018.1z
			 M1417.4,1121.2c1.3,1.2,3.3,1.1,4.5-0.2c1.2-1.3,1.1-3.3-0.2-4.5l-11.4-10.5c-1.3-1.2-3.3-1.1-4.5,0.2c-1.2,1.3-1.1,3.3,0.2,4.5
			L1417.4,1121.2z M1573,683.6c0.2,1,1.1,1.7,2.1,1.6c1-0.2,1.7-1.1,1.6-2.1l-1.3-9c-0.2-1-1.1-1.7-2.1-1.6c-1,0.2-1.7,1.1-1.6,2.1
			L1573,683.6z M1630.8,1298c-0.9-0.4-2-0.1-2.4,0.8l-3.8,7.8c-0.4,0.9-0.1,2,0.8,2.4c0.9,0.4,2,0.1,2.4-0.8l3.8-7.8
			C1632,1299.6,1631.7,1298.5,1630.8,1298z M1640.8,962.1c-0.9,2.2,0.1,4.7,2.3,5.6l19.1,8c2.2,0.9,4.7-0.1,5.6-2.3
			c0.9-2.2-0.1-4.7-2.3-5.6l-19.1-8C1644.2,958.9,1641.7,959.9,1640.8,962.1z M1285.7,1021.6c0.3,1.2,1.6,2,2.8,1.7
			c1.2-0.3,2-1.6,1.7-2.8l-2.7-10.9c-0.3-1.2-1.6-2-2.8-1.7c-1.2,0.3-2,1.6-1.7,2.8L1285.7,1021.6z M1563,1276.4l-26.4,4.6
			c-3,0.5-5,3.4-4.5,6.4c0.5,3,3.4,5,6.4,4.5l26.4-4.6c3-0.5,5-3.4,4.5-6.4C1568.9,1277.9,1566,1275.9,1563,1276.4z M1752.5,1455.4
			c-1.3-3.4-5.1-5.1-8.5-3.8l-29.8,11.3c-3.4,1.3-5.1,5.1-3.8,8.5c1.3,3.4,5.1,5.1,8.5,3.8l29.8-11.3
			C1752,1462.6,1753.7,1458.8,1752.5,1455.4z M1057.2,726.5l28-0.8c3.2-0.1,5.7-2.7,5.6-5.9c-0.1-3.2-2.7-5.7-5.9-5.6l-28.1,0.8
			c-3.2,0.1-5.7,2.7-5.6,5.9C1051.3,724.1,1054,726.6,1057.2,726.5z M1620.7,917.7c2.2-0.4,3.6-2.5,3.2-4.7l-3.6-19
			c-0.4-2.2-2.5-3.6-4.7-3.2c-2.2,0.4-3.6,2.5-3.2,4.7l3.6,19C1616.4,916.7,1618.5,918.1,1620.7,917.7z M1328.5,1294.7
			c-1.1-2.7-4.1-3.9-6.7-2.9l-23.4,9.4c-2.7,1.1-3.9,4.1-2.9,6.7c1.1,2.7,4.1,3.9,6.7,2.9l23.4-9.4
			C1328.3,1300.3,1329.6,1297.3,1328.5,1294.7z M1901.3,791.1l19.2,3.5c2.2,0.4,4.3-1,4.7-3.2c0.4-2.2-1-4.3-3.2-4.7l-19.2-3.5
			c-2.2-0.4-4.3,1-4.7,3.2C1897.7,788.6,1899.1,790.7,1901.3,791.1z M1235.2,1447.9l-23.7,23c-2.7,2.6-2.8,6.9-0.2,9.6
			c2.6,2.7,6.9,2.8,9.6,0.2l23.7-23c2.7-2.6,2.8-6.9,0.2-9.6C1242.1,1445.4,1237.8,1445.3,1235.2,1447.9z M1563.2,1587.7l-8.6-6.2
			c-1-0.7-2.4-0.5-3.1,0.5c-0.7,1-0.5,2.4,0.5,3.1l8.7,6.2c1,0.7,2.4,0.5,3.1-0.5C1564.4,1589.8,1564.2,1588.4,1563.2,1587.7z
			 M1120.9,1135l-12.6-7c-1.4-0.8-3.2-0.3-4,1.1s-0.3,3.2,1.1,4l12.6,7c1.4,0.8,3.2,0.3,4-1.1
			C1122.9,1137.6,1122.4,1135.8,1120.9,1135z M1732.9,1580c-2.6-2.7-6.9-2.8-9.6-0.2c-2.7,2.6-2.8,6.9-0.2,9.6l22.9,23.7
			c2.6,2.7,6.9,2.8,9.6,0.2c2.7-2.6,2.8-6.9,0.2-9.6L1732.9,1580z M1576.1,964.9l-7.2,10.3c-0.8,1.2-0.5,2.8,0.7,3.6
			c1.2,0.8,2.8,0.5,3.6-0.7l7.2-10.3c0.8-1.2,0.5-2.8-0.7-3.6C1578.6,963.4,1577,963.7,1576.1,964.9z M1111.6,1576.9
			c-0.9-0.7-2.2-0.6-2.9,0.3c-0.7,0.9-0.6,2.2,0.3,2.9l7.6,6.3c0.9,0.7,2.2,0.6,2.9-0.3c0.7-0.9,0.6-2.2-0.3-2.9L1111.6,1576.9z
			 M1858.8,967.9c-1.3-0.3-2.7,0.5-3,1.8l-2.9,11.5c-0.3,1.3,0.5,2.7,1.8,3c1.3,0.3,2.7-0.5,3-1.8l2.9-11.5
			C1860.9,969.5,1860.1,968.2,1858.8,967.9z M1523.5,1338.6c-1-0.6-2.3-0.2-2.8,0.8l-4.9,8.9c-0.6,1-0.2,2.3,0.8,2.8
			c1,0.6,2.3,0.2,2.8-0.8l4.9-8.9C1524.9,1340.4,1524.5,1339.1,1523.5,1338.6z M1363,1539.6c-3.6-0.7-7.1,1.7-7.7,5.3l-5.8,31.8
			c-0.7,3.6,1.7,7.1,5.3,7.7c3.6,0.7,7.1-1.7,7.7-5.3l5.8-31.8C1369,1543.7,1366.6,1540.3,1363,1539.6z M1902,1170.2l-8.3,3
			c-1,0.3-1.4,1.4-1.1,2.3c0.3,1,1.4,1.4,2.3,1.1l8.3-3c1-0.3,1.4-1.4,1.1-2.3C1904,1170.4,1902.9,1169.9,1902,1170.2z
			 M1003.4,1400.5l-23.5,20.9c-2.7,2.4-2.9,6.4-0.5,9.1c2.4,2.7,6.4,2.9,9.1,0.5l23.5-20.9c2.7-2.4,2.9-6.4,0.5-9.1
			C1010.2,1398.4,1006.1,1398.2,1003.4,1400.5z M1518.8,1080.7c0.3-2.9-1.8-5.6-4.7-5.9c-2.9-0.3-5.6,1.8-5.9,4.7l-2.8,25.8
			c-0.3,2.9,1.8,5.6,4.7,5.9s5.6-1.8,5.9-4.7L1518.8,1080.7z M992.1,830.7c1-1.3,0.7-3.1-0.5-4.1l-11.1-8.6c-1.3-1-3.1-0.8-4.1,0.5
			c-1,1.3-0.8,3.1,0.5,4.1l11.1,8.6C989.3,832.2,991.1,832,992.1,830.7z M1019.6,1141.8c-3.3-1-6.8,1-7.8,4.3l-8.5,29.3
			c-1,3.3,1,6.8,4.3,7.8c3.3,1,6.8-1,7.8-4.3l8.5-29.3C1024.9,1146.3,1022.9,1142.8,1019.6,1141.8z M1157.5,1461.4l-10.3-3.6
			c-1.2-0.4-2.5,0.2-2.9,1.4c-0.4,1.2,0.2,2.5,1.4,2.9l10.3,3.6c1.2,0.4,2.5-0.2,2.9-1.4C1159.3,1463.1,1158.6,1461.8,1157.5,1461.4
			z M1206.5,1618.1l-13.5-4.2c-1.5-0.5-3.2,0.4-3.7,1.9c-0.5,1.5,0.4,3.2,1.9,3.7l13.5,4.2c1.5,0.5,3.2-0.4,3.7-1.9
			C1208.9,1620.2,1208,1618.6,1206.5,1618.1z M1650.5,1602.3l-6.3,7.2c-0.7,0.8-0.6,2.1,0.2,2.8c0.8,0.7,2.1,0.6,2.8-0.2l6.3-7.2
			c0.7-0.8,0.6-2.1-0.2-2.8C1652.4,1601.4,1651.2,1601.5,1650.5,1602.3z M987,912.8l-3.5,9.1c-0.4,1,0.1,2.2,1.1,2.6
			c1,0.4,2.2-0.1,2.6-1.1l3.5-9.1c0.4-1-0.1-2.2-1.1-2.6C988.5,911.2,987.4,911.7,987,912.8z M1033.8,843.3l-0.3,8.9
			c0,1,0.8,1.9,1.8,1.9s1.9-0.8,1.9-1.8l0.3-8.9c0-1-0.8-1.9-1.8-1.9S1033.8,842.3,1033.8,843.3z M1740.9,700c1.4,0.6,3.1,0,3.7-1.5
			l5.5-12.6c0.6-1.4,0-3.1-1.4-3.7s-3.1,0-3.7,1.5l-5.5,12.6C1738.8,697.7,1739.4,699.4,1740.9,700z M1733.6,1049.9l14.9-4.4
			c1.7-0.5,2.7-2.3,2.2-4c-0.5-1.7-2.3-2.7-4-2.2l-14.9,4.4c-1.7,0.5-2.7,2.3-2.2,4C1730.2,1049.4,1731.9,1050.4,1733.6,1049.9z
			 M1383.8,910.7l7.8,2.9c0.9,0.3,1.9-0.1,2.2-1c0.3-0.9-0.1-1.9-1-2.2l-7.8-2.9c-0.9-0.3-1.9,0.1-2.2,1
			C1382.4,909.4,1382.9,910.4,1383.8,910.7z M987.3,1240.7c1.3-1.3,1.4-3.4,0.1-4.7l-11.1-11.6c-1.3-1.3-3.4-1.4-4.7-0.1
			c-1.3,1.3-1.4,3.4-0.1,4.7l11.1,11.6C983.9,1241.9,986,1242,987.3,1240.7z M1923.6,1606.7l-9.6,9.4c-1.1,1.1-1.1,2.8,0,3.9
			s2.8,1.1,3.9,0.1l9.6-9.4c1.1-1.1,1.1-2.8,0.1-3.9C1926.4,1605.6,1924.7,1605.6,1923.6,1606.7z M1793.2,1267.2l-10.2,0.4
			c-1.2,0.1-2.1,1-2,2.2c0,1.2,1,2.1,2.2,2l10.2-0.4c1.2-0.1,2.1-1,2-2.2C1795.4,1268,1794.4,1267.1,1793.2,1267.2z M1678.3,1373.7
			l-10.3,4.8c-1.2,0.5-1.7,1.9-1.1,3.1c0.5,1.2,2,1.7,3.1,1.1l10.3-4.8c1.2-0.5,1.7-1.9,1.1-3.1
			C1680.8,1373.6,1679.4,1373.1,1678.3,1373.7z M1089.3,1001.5c0.9-2.5-0.5-5.3-3-6.2l-22.4-7.8c-2.5-0.9-5.3,0.5-6.2,3
			s0.5,5.3,3,6.2l22.4,7.8C1085.7,1005.4,1088.5,1004,1089.3,1001.5z M1157.4,992.4c-1.4,0.1-2.4,1.4-2.3,2.8l1.2,12.3
			c0.1,1.4,1.4,2.4,2.8,2.3c1.4-0.1,2.4-1.4,2.3-2.8l-1.2-12.3C1160.1,993.3,1158.9,992.3,1157.4,992.4z M1588.7,1394.8l-8.2-3.9
			c-0.9-0.4-2.1,0-2.5,0.9s-0.1,2.1,0.9,2.5l8.2,3.9c0.9,0.4,2.1,0,2.5-0.9C1590,1396.4,1589.6,1395.3,1588.7,1394.8z M1262.7,848.5
			c-0.5-2.5-3-4.1-5.5-3.6l-22.2,4.6c-2.5,0.5-4.1,3-3.6,5.5c0.5,2.5,3,4.1,5.5,3.6l22.2-4.6C1261.6,853.5,1263.3,851,1262.7,848.5z
			 M983.2,1005c-2.8,1.8-3.7,5.5-1.9,8.4l15.6,25c1.8,2.8,5.5,3.7,8.4,1.9c2.8-1.8,3.7-5.5,1.9-8.4l-15.6-25
			C989.8,1004.1,986.1,1003.2,983.2,1005z M1032.9,1580.6c-3.5-0.9-7,1.2-7.9,4.7l-7.7,30.6c-0.9,3.5,1.2,7,4.7,7.9
			c3.5,0.9,7-1.2,7.9-4.7l7.7-30.6C1038.5,1585,1036.4,1581.5,1032.9,1580.6z M1288.5,1094.2l-16.2,7c-1.8,0.8-2.7,2.9-1.9,4.8
			c0.8,1.8,2.9,2.7,4.8,1.9l16.2-7c1.8-0.8,2.7-2.9,1.9-4.8C1292.5,1094.3,1290.3,1093.4,1288.5,1094.2z M1024.4,1347.3
			c0.8,1.3,2.6,1.7,3.9,0.9c1.3-0.8,1.7-2.6,0.9-3.9l-7.3-11.6c-0.8-1.3-2.6-1.7-3.9-0.9c-1.3,0.8-1.7,2.6-0.9,3.9L1024.4,1347.3z
			 M1263.9,1404.7l12-12.7c1.4-1.4,1.3-3.7-0.1-5.1c-1.4-1.4-3.7-1.3-5.1,0.1l-12,12.7c-1.4,1.4-1.3,3.7,0.1,5.1
			S1262.5,1406.1,1263.9,1404.7z M1207.3,1094.1c0.7,1.2,2.2,1.6,3.5,0.9c1.2-0.7,1.6-2.2,0.9-3.4l-6.1-10.6
			c-0.7-1.2-2.2-1.6-3.4-0.9c-1.2,0.7-1.6,2.2-0.9,3.5L1207.3,1094.1z M1154.1,817.9c-0.5,3,1.5,5.9,4.6,6.5l26.8,4.6
			c3,0.5,5.9-1.5,6.5-4.6c0.5-3-1.5-5.9-4.6-6.5l-26.8-4.6C1157.5,812.8,1154.6,814.8,1154.1,817.9z M1894.1,885.4
			c0.6-0.8,0.5-1.9-0.3-2.5l-6.7-5.5c-0.8-0.6-1.9-0.5-2.5,0.3c-0.6,0.8-0.5,1.9,0.3,2.5l6.7,5.5
			C1892.4,886.2,1893.5,886.1,1894.1,885.4z M979.3,1567.2c-0.4-1.3-1.8-2-3-1.6c-1.3,0.4-2,1.7-1.6,3l3.4,11.3c0.4,1.3,1.8,2,3,1.6
			c1.3-0.4,2-1.8,1.6-3L979.3,1567.2z M1737.1,1180.7c-1.1,0.5-1.5,1.8-1,2.9l4.7,9.5c0.5,1.1,1.8,1.5,2.9,1c1.1-0.5,1.5-1.8,1-2.9
			l-4.7-9.5C1739.5,1180.6,1738.2,1180.1,1737.1,1180.7z M1224.4,922.2c2.2,2.2,5.8,2.2,8.1,0c2.2-2.2,2.2-5.8,0-8.1l-19.5-19.6
			c-2.2-2.2-5.8-2.2-8.1,0c-2.2,2.2-2.2,5.8,0,8.1L1224.4,922.2z M1615,846.5c2.4-0.7,3.8-3.3,3.1-5.7l-6.4-21.4
			c-0.7-2.4-3.3-3.8-5.7-3.1c-2.4,0.7-3.8,3.3-3.1,5.7l6.4,21.4C1610,845.8,1612.5,847.2,1615,846.5z M1035.5,1242.2l-11.3,4.2
			c-1.3,0.5-1.9,1.9-1.5,3.2c0.5,1.3,1.9,1.9,3.2,1.5l11.3-4.2c1.3-0.5,1.9-1.9,1.5-3.2C1038.2,1242.4,1036.8,1241.7,1035.5,1242.2z
			 M1798.1,979.1c2.3-2.4,2.2-6.1-0.1-8.4c-2.4-2.3-6.1-2.2-8.4,0.1l-20.2,20.9c-2.3,2.4-2.2,6.1,0.1,8.4c2.4,2.3,6.1,2.2,8.4-0.1
			L1798.1,979.1z M1387.7,1219.4l-13.4,9.1c-1.5,1-1.9,3.1-0.9,4.7c1,1.5,3.1,1.9,4.7,0.9l13.4-9.1c1.5-1,1.9-3.1,0.9-4.7
			C1391.4,1218.7,1389.3,1218.3,1387.7,1219.4z M1840.9,1319c-2.2-0.5-4.5,0.9-5,3.1l-4.6,19.8c-0.5,2.3,0.9,4.5,3.1,5
			s4.5-0.9,5-3.1l4.6-19.8C1844.5,1321.8,1843.1,1319.5,1840.9,1319z M1786.5,1384.8c-3.1-0.6-6.2,1.4-6.8,4.6l-5.4,27.7
			c-0.6,3.1,1.4,6.2,4.6,6.8c3.1,0.6,6.2-1.4,6.8-4.6l5.4-27.7C1791.7,1388.4,1789.6,1385.4,1786.5,1384.8z M1234,776.3
			c0.8,0.8,2,0.7,2.8,0c0.8-0.8,0.7-2,0-2.8l-6.9-6.7c-0.8-0.8-2-0.7-2.8,0c-0.8,0.8-0.7,2,0,2.8L1234,776.3z M1237.3,1230.5
			c-0.1-2.7-2.4-4.9-5.2-4.7l-24.1,1c-2.7,0.1-4.9,2.4-4.7,5.2c0.1,2.7,2.4,4.9,5.2,4.7l24.1-1
			C1235.3,1235.6,1237.5,1233.3,1237.3,1230.5z M995.5,1491.5c-2.3,0.2-4.1,2.2-3.9,4.6l1.7,20.5c0.2,2.3,2.2,4,4.6,3.9
			c2.3-0.2,4.1-2.2,3.9-4.6l-1.7-20.5C999.9,1493,997.8,1491.3,995.5,1491.5z M1768.8,1529.5c-1.5,0.1-2.6,1.3-2.5,2.7l0.5,12.8
			c0.1,1.5,1.3,2.6,2.7,2.5c1.5-0.1,2.6-1.3,2.5-2.7l-0.5-12.8C1771.5,1530.6,1770.3,1529.5,1768.8,1529.5z M1033.8,679.3l12.8-5.4
			c1.5-0.6,2.1-2.3,1.5-3.7c-0.6-1.5-2.3-2.1-3.7-1.5l-12.8,5.4c-1.5,0.6-2.1,2.3-1.5,3.7C1030.6,679.3,1032.3,680,1033.8,679.3z
			 M1922.7,972.4l-9-1.5c-1-0.2-2,0.5-2.2,1.5c-0.2,1,0.5,2,1.5,2.2l9,1.5c1,0.2,2-0.5,2.2-1.5
			C1924.4,973.5,1923.7,972.5,1922.7,972.4z M1827.6,1184.2c-1.2-2.5-4.2-3.6-6.7-2.4l-22.2,10.3c-2.5,1.2-3.6,4.2-2.4,6.7
			s4.2,3.6,6.7,2.4l22.3-10.3C1827.6,1189.7,1828.7,1186.7,1827.6,1184.2z M1245.7,1295.6l-15,0.6c-1.7,0.1-3,1.5-3,3.2
			c0.1,1.7,1.5,3,3.2,3l15-0.6c1.7-0.1,3-1.5,3-3.2C1248.9,1296.9,1247.4,1295.6,1245.7,1295.6z M1894.5,1059.6
			c0.7,1.3,2.3,1.8,3.6,1.1l11.4-6c1.3-0.7,1.8-2.3,1.1-3.6c-0.7-1.3-2.3-1.8-3.6-1.1l-11.4,6
			C1894.3,1056.7,1893.8,1058.3,1894.5,1059.6z M1643.9,1448.5c-0.6,0.9-0.5,2.1,0.4,2.7l7.5,5.6c0.9,0.6,2.1,0.5,2.7-0.4
			c0.6-0.9,0.5-2.1-0.4-2.7l-7.5-5.6C1645.8,1447.5,1644.6,1447.6,1643.9,1448.5z M1703.8,1290.2c-2.8,0.1-5,2.4-4.9,5.1l0.5,24.4
			c0.1,2.8,2.4,5,5.1,4.9c2.8-0.1,5-2.4,4.9-5.1l-0.5-24.4C1708.9,1292.5,1706.6,1290.2,1703.8,1290.2z M1449.3,685.8
			c0.2,1,1.2,1.6,2.2,1.4s1.6-1.2,1.4-2.2l-2-8.6c-0.2-1-1.2-1.6-2.2-1.4c-1,0.2-1.6,1.2-1.4,2.2L1449.3,685.8z M1639.6,714.4
			c2.8,1.8,6.5,0.9,8.3-1.8l15.6-24.6c1.8-2.8,0.9-6.5-1.9-8.3s-6.5-0.9-8.3,1.8l-15.5,24.6C1635.9,708.9,1636.7,712.6,1639.6,714.4
			z M1606.8,1117.4l-7.8,4.2c-0.9,0.5-1.2,1.6-0.7,2.5c0.5,0.9,1.6,1.2,2.5,0.7l7.8-4.2c0.9-0.5,1.2-1.6,0.7-2.5
			C1608.7,1117.3,1607.6,1117,1606.8,1117.4z M1445.4,900l20.9-2.8c2.4-0.3,4-2.5,3.7-4.9c-0.3-2.4-2.5-4-4.9-3.7l-20.9,2.8
			c-2.4,0.3-4,2.5-3.7,4.9C1440.8,898.6,1443,900.3,1445.4,900z M1580.9,1055.5c-1.4-0.9-3.2-0.6-4.1,0.8l-8,11.9
			c-0.9,1.4-0.6,3.2,0.8,4.1c1.4,0.9,3.2,0.6,4.1-0.8l8-11.9C1582.6,1058.2,1582.2,1056.4,1580.9,1055.5z M1459.2,1041.4
			c-2-1.3-4.7-0.7-6,1.3l-11.4,17.7c-1.3,2-0.7,4.7,1.3,6c2,1.3,4.7,0.7,6-1.3l11.4-17.7C1461.8,1045.4,1461.2,1042.7,1459.2,1041.4
			z M1261.1,1582.3c-0.5-1-1.7-1.4-2.7-0.9c-1,0.5-1.4,1.7-0.9,2.7l4.3,8.6c0.5,1,1.7,1.4,2.7,0.9c1-0.5,1.4-1.7,0.9-2.7
			L1261.1,1582.3z M1697.7,1224.6c-1.7-0.8-3.8-0.1-4.6,1.6l-7.3,14.9c-0.8,1.7-0.1,3.8,1.6,4.6c1.7,0.8,3.8,0.1,4.6-1.6l7.3-14.9
			C1700.1,1227.4,1699.4,1225.4,1697.7,1224.6z M1479.6,1564.3l-24.4,20.1c-2.8,2.3-3.2,6.4-0.9,9.1c2.3,2.8,6.4,3.2,9.1,0.9
			l24.4-20.1c2.8-2.3,3.2-6.4,0.9-9.1C1486.4,1562.4,1482.3,1562,1479.6,1564.3z M1063.1,1072.5c-1.5,0-2.7,1.1-2.7,2.6
			c0,1.5,1.1,2.7,2.6,2.7l12.8,0.4c1.5,0,2.7-1.1,2.7-2.6s-1.1-2.7-2.6-2.7L1063.1,1072.5z M1848.8,1127.3l-0.8-25.8
			c-0.1-2.9-2.5-5.2-5.5-5.1c-2.9,0.1-5.2,2.5-5.1,5.5l0.8,25.8c0.1,2.9,2.5,5.2,5.5,5.1C1846.6,1132.7,1848.9,1130.3,1848.8,1127.3
			z M1105.9,1187.3c-0.6-3.6-4.1-6-7.7-5.4l-31.9,5.6c-3.6,0.6-6,4.1-5.4,7.7c0.6,3.6,4.1,6,7.7,5.4l31.9-5.5
			C1104.2,1194.4,1106.6,1191,1105.9,1187.3z M1300.6,897.8c-0.4,0.9-0.1,1.9,0.8,2.4c0.9,0.4,1.9,0.1,2.4-0.8l3.9-7.6
			c0.4-0.9,0.1-1.9-0.8-2.4c-0.9-0.4-1.9-0.1-2.4,0.8L1300.6,897.8z M1117.3,1378.8c-1.1-1.1-2.9-1.1-4,0.1l-9.6,9.8
			c-1.1,1.1-1.1,2.9,0.1,4c1.1,1.1,2.9,1.1,4-0.1l9.6-9.8C1118.4,1381.6,1118.4,1379.9,1117.3,1378.8z M977.7,691.7
			c2.1,0.4,4-1,4.4-3l3.3-18c0.4-2.1-1-4-3-4.4c-2.1-0.4-4,1-4.4,3l-3.3,18C974.3,689.3,975.6,691.3,977.7,691.7z M1064.3,1522.3
			c-0.7-1-2.1-1.2-3.1-0.4c-1,0.7-1.2,2.1-0.4,3.1l6.4,8.5c0.7,1,2.1,1.2,3.1,0.4c1-0.7,1.2-2.1,0.4-3.1L1064.3,1522.3z
			 M1686.4,1113.5c-1.7-2.2-4.9-2.6-7.1-0.9l-19.5,14.9c-2.2,1.7-2.6,4.9-0.9,7.1c1.7,2.2,4.9,2.6,7.1,0.9l19.4-14.9
			C1687.7,1118.9,1688.1,1115.7,1686.4,1113.5z M1336.3,1604.9l-19.6,9.8c-2.2,1.1-3.1,3.8-2,6.1c1.1,2.2,3.8,3.1,6.1,2l19.6-9.8
			c2.2-1.1,3.1-3.8,2-6.1C1341.3,1604.7,1338.5,1603.8,1336.3,1604.9z M1281,1521l-8.8-1c-1-0.1-1.9,0.6-2,1.6s0.6,1.9,1.6,2l8.8,1
			c1,0.1,1.9-0.6,2-1.6C1282.9,1522,1282.1,1521.1,1281,1521z M1902.4,1384.6c-0.6-1.1-2-1.5-3.1-1l-9.8,5.1c-1.1,0.6-1.5,2-1,3.1
			c0.6,1.1,2,1.5,3.1,1l9.8-5.1C1902.6,1387.1,1903,1385.7,1902.4,1384.6z M1553.4,1477.9c-0.9-0.4-1.9,0-2.3,0.9l-3.6,7.7
			c-0.4,0.9,0,1.9,0.9,2.3s1.9,0,2.3-0.9l3.6-7.7C1554.7,1479.4,1554.3,1478.4,1553.4,1477.9z M1654.9,1526.9l-14.9,0.1
			c-1.7,0-3.1,1.4-3.1,3.1s1.4,3.1,3.1,3.1l14.9-0.1c1.7,0,3.1-1.4,3.1-3.1C1658,1528.3,1656.6,1526.9,1654.9,1526.9z M1926,1241.9
			c1.1,0,1.9-0.9,1.9-2l-0.3-9.3c0-1.1-0.9-1.9-2-1.9s-1.9,0.9-1.9,2l0.3,9.3C1924,1241.1,1924.9,1241.9,1926,1241.9z M1069.6,1456
			l-13.9-2.5c-1.6-0.3-3.1,0.8-3.4,2.4s0.8,3.1,2.4,3.4l13.9,2.5c1.6,0.3,3.1-0.8,3.4-2.4C1072.2,1457.8,1071.2,1456.3,1069.6,1456z
			 M1930,1103.8c-1.9-1.6-4.6-1.3-6.2,0.6l-13.6,16.4c-1.6,1.9-1.3,4.6,0.6,6.2c1.9,1.6,4.7,1.3,6.2-0.6l13.6-16.4
			C1932.2,1108.1,1931.9,1105.3,1930,1103.8z M1851,1534c-0.4-1.7-2-2.7-3.7-2.3l-14.6,3.2c-1.7,0.4-2.7,2-2.3,3.7s2,2.7,3.7,2.3
			l14.5-3.2C1850.3,1537.3,1851.4,1535.6,1851,1534z M1487.9,1387.9l-28.2,6.3c-3.2,0.7-5.2,3.9-4.5,7.1c0.7,3.2,3.9,5.2,7.1,4.5
			l28.2-6.3c3.2-0.7,5.2-3.9,4.5-7.1C1494.2,1389.2,1491.1,1387.2,1487.9,1387.9z M1597.6,1235.5l-9.1,2.8c-1,0.3-1.6,1.4-1.3,2.5
			c0.3,1,1.4,1.6,2.5,1.3l9.1-2.8c1-0.3,1.6-1.4,1.3-2.5C1599.8,1235.7,1598.7,1235.2,1597.6,1235.5z M1488.9,773.2
			c0.4,1.3,1.8,2.1,3.1,1.7c1.3-0.4,2.1-1.8,1.7-3.1l-3.4-11.7c-0.4-1.3-1.8-2.1-3.1-1.7c-1.3,0.4-2.1,1.8-1.7,3.1L1488.9,773.2z
			 M1458.4,1177.7c1,2.6,3.9,4,6.5,3l23.1-8.3c2.6-1,4-3.9,3-6.5c-1-2.6-3.9-4-6.5-3l-23.1,8.3
			C1458.8,1172.1,1457.4,1175.1,1458.4,1177.7z M1358.6,702.8l18.9-21.6c2.2-2.4,1.9-6.2-0.5-8.3c-2.5-2.2-6.2-1.9-8.3,0.5
			l-18.9,21.6c-2.2,2.4-1.9,6.2,0.5,8.3C1352.7,705.5,1356.5,705.3,1358.6,702.8z M1424.3,1609.4l-9-0.2c-1,0-1.9,0.8-1.9,1.8
			c0,1,0.8,1.9,1.8,1.9l9,0.2c1,0,1.9-0.8,1.9-1.8C1426.2,1610.2,1425.3,1609.4,1424.3,1609.4z M1393.2,1489l-23.4,5.3
			c-2.7,0.6-4.3,3.3-3.7,5.9c0.6,2.7,3.3,4.3,5.9,3.7l23.4-5.3c2.7-0.6,4.3-3.3,3.7-5.9C1398.5,1490.1,1395.8,1488.4,1393.2,1489z
			 M1001.7,1097.7l-5.8,7.9c-0.7,0.9-0.5,2.2,0.4,2.8c0.9,0.7,2.2,0.5,2.8-0.4l5.8-7.9c0.7-0.9,0.5-2.2-0.4-2.8
			C1003.6,1096.6,1002.3,1096.8,1001.7,1097.7z M1259.9,692.7c0.5,1,1.7,1.3,2.7,0.8c1-0.5,1.3-1.7,0.8-2.7l-4.6-8.4
			c-0.5-1-1.7-1.3-2.7-0.8c-1,0.5-1.3,1.7-0.8,2.7L1259.9,692.7z M1374.5,810.4c-3.7-0.3-7,2.5-7.3,6.2l-2.7,32.8
			c-0.3,3.7,2.5,7,6.2,7.3s7-2.5,7.3-6.2l2.7-32.8C1380.9,814,1378.2,810.7,1374.5,810.4z M1509.5,719.5l24.4-19.1
			c2.8-2.2,3.2-6.2,1.1-9c-2.2-2.8-6.2-3.2-9-1.1l-24.4,19.1c-2.8,2.2-3.2,6.2-1.1,9C1502.8,721.2,1506.8,721.7,1509.5,719.5z
			 M1054.1,930.3c1.1-0.5,1.6-1.9,1-3l-4.7-9.7c-0.5-1.1-1.9-1.6-3-1c-1.1,0.5-1.6,1.9-1,3l4.7,9.7
			C1051.7,930.4,1053,930.8,1054.1,930.3z M1413.4,1304.3c-2.5-1.1-5.4,0.1-6.4,2.6l-9.3,21.9c-1.1,2.5,0.1,5.4,2.6,6.4
			c2.5,1.1,5.4-0.1,6.4-2.6l9.3-21.9C1417.1,1308.2,1415.9,1305.3,1413.4,1304.3z M1302,824.7c1,0.1,1.9-0.6,2-1.6l0.9-8.8
			c0.1-1-0.6-1.9-1.6-2c-1-0.1-1.9,0.6-2,1.6l-0.9,8.8C1300.2,823.7,1301,824.6,1302,824.7z M1471.2,1250.1c-2-2.5-5.6-3-8.1-1
			c-2.5,2-3,5.6-1,8.1l17.3,22.2c2,2.5,5.6,3,8.2,1c2.5-2,3-5.6,1-8.1L1471.2,1250.1z M1923.2,1474.2c0.6-2.3-0.8-4.5-3.1-5.1
			l-19.9-4.9c-2.3-0.6-4.5,0.8-5.1,3.1c-0.6,2.3,0.8,4.5,3.1,5.1l19.9,4.9C1920.4,1477.8,1922.7,1476.4,1923.2,1474.2z
			 M1190.9,1182.6c1.5-2,1.2-4.9-0.9-6.5l-17.7-13.6c-2-1.5-4.9-1.2-6.5,0.9c-1.5,2-1.2,4.9,0.9,6.5l17.8,13.6
			C1186.5,1185,1189.4,1184.6,1190.9,1182.6z M1354.4,1158.1c0.3,1,1.4,1.5,2.4,1.2s1.5-1.4,1.2-2.4l-2.9-8.6
			c-0.3-1-1.4-1.5-2.4-1.2c-1,0.3-1.5,1.4-1.2,2.4L1354.4,1158.1z M1647.6,1039.4l-5.3-6.9c-0.6-0.8-1.7-0.9-2.5-0.3
			c-0.8,0.6-0.9,1.7-0.3,2.5l5.3,6.9c0.6,0.8,1.7,0.9,2.5,0.3C1648.1,1041.3,1648.2,1040.2,1647.6,1039.4z M1150.4,723.1
			c3,2,7.1,1.2,9-1.8l17.4-26.5c2-3,1.2-7.1-1.8-9c-3-2-7.1-1.2-9,1.8l-17.5,26.4C1146.5,717,1147.4,721.1,1150.4,723.1z
			 M1513.8,942.7c0.2-1.1-0.5-2.2-1.6-2.5l-9.9-2.1c-1.1-0.2-2.2,0.5-2.5,1.6c-0.2,1.1,0.5,2.2,1.6,2.5l9.9,2.1
			C1512.4,944.6,1513.6,943.9,1513.8,942.7z M1183.4,1340.3c-2.6,0.8-4.1,3.5-3.3,6.2l6.9,23.1c0.8,2.6,3.5,4.1,6.2,3.3
			c2.6-0.8,4.1-3.5,3.3-6.2l-6.9-23.1C1188.7,1341,1186,1339.5,1183.4,1340.3z M1867.8,1592.4l-25.3,7.6c-2.9,0.9-4.5,3.9-3.6,6.8
			c0.9,2.9,3.9,4.5,6.8,3.6l25.3-7.6c2.9-0.9,4.5-3.9,3.6-6.8C1873.8,1593.2,1870.7,1591.5,1867.8,1592.4z M1702.5,943.9
			c-1.9,3-1,6.9,1.9,8.8l26.1,16.6c3,1.9,6.9,1,8.8-1.9c1.9-3,1-6.9-1.9-8.8l-26.1-16.6C1708.4,940,1704.4,940.9,1702.5,943.9z
			 M1645.8,1195.1c1.1-2.1,0.4-4.6-1.7-5.8l-18-9.9c-2.1-1.1-4.6-0.4-5.8,1.7c-1.1,2.1-0.4,4.6,1.7,5.8l18,9.9
			C1642.1,1197.9,1644.6,1197.2,1645.8,1195.1z M1355.1,1069c1.2-0.3,1.9-1.6,1.6-2.8l-2.9-10.5c-0.3-1.2-1.6-1.9-2.8-1.6
			c-1.2,0.3-1.9,1.6-1.6,2.8l2.9,10.5C1352.7,1068.6,1353.9,1069.3,1355.1,1069z M1327.3,1479.8c2.7-1,4.1-4,3.1-6.7l-8.8-23.9
			c-1-2.7-4-4.1-6.7-3.1c-2.7,1-4.1,4-3.1,6.7l8.8,23.9C1321.6,1479.5,1324.6,1480.9,1327.3,1479.8z M1350.3,1385.9l11.8,6.6
			c1.3,0.8,3,0.3,3.8-1.1c0.8-1.3,0.3-3-1.1-3.8l-11.8-6.6c-1.3-0.8-3.1-0.3-3.8,1.1C1348.5,1383.4,1349,1385.1,1350.3,1385.9z
			 M1233.1,975.2l-7.1,8.3c-0.8,0.9-0.7,2.4,0.2,3.2c0.9,0.8,2.4,0.7,3.2-0.2l7.1-8.3c0.8-0.9,0.7-2.4-0.2-3.2
			C1235.3,974.2,1233.9,974.3,1233.1,975.2z M1691.8,887.9l11.8-7.6c1.3-0.9,1.7-2.7,0.9-4c-0.9-1.3-2.7-1.7-4-0.9l-11.8,7.6
			c-1.3,0.9-1.7,2.7-0.9,4C1688.7,888.4,1690.5,888.8,1691.8,887.9z M1767.8,1348.4l-4.6-21.4c-0.5-2.4-2.9-4-5.4-3.5
			c-2.4,0.5-4,2.9-3.5,5.4l4.6,21.4c0.5,2.4,2.9,4,5.4,3.5C1766.8,1353.2,1768.3,1350.8,1767.8,1348.4z M1848.3,1457.3
			c-0.9-2.5-3.7-3.9-6.2-3l-22.3,7.9c-2.5,0.9-3.9,3.7-2.9,6.2c0.9,2.5,3.7,3.9,6.2,2.9l22.3-7.9
			C1847.9,1462.7,1849.2,1459.9,1848.3,1457.3z M1878.2,1239.3l-16.8-2.9c-1.9-0.3-3.7,1-4.1,2.9c-0.3,1.9,1,3.7,2.9,4.1l16.8,2.9
			c1.9,0.3,3.7-1,4.1-2.9C1881.4,1241.4,1880.1,1239.6,1878.2,1239.3z M1561.3,776.4c2,1.3,4.7,0.7,6-1.4l11.2-17.8
			c1.3-2,0.7-4.7-1.4-6c-2-1.3-4.7-0.7-6,1.4l-11.2,17.8C1558.6,772.5,1559.2,775.2,1561.3,776.4z M1469.3,845.3
			c2.5,0.5,4.9-1.1,5.4-3.6l4.3-21.7c0.5-2.5-1.1-4.9-3.6-5.4s-4.9,1.1-5.4,3.6l-4.3,21.7C1465.2,842.4,1466.8,844.8,1469.3,845.3z
			 M1913.7,1550.5c1-0.2,1.6-1.2,1.3-2.2l-2.2-8.5c-0.2-1-1.2-1.6-2.2-1.3c-1,0.2-1.6,1.2-1.3,2.2l2.2,8.5
			C1911.6,1550.1,1912.6,1550.7,1913.7,1550.5z M1779.7,912.1l29.4-4.1c3.3-0.5,5.7-3.6,5.2-6.9c-0.5-3.3-3.6-5.7-6.9-5.2L1778,900
			c-3.3,0.5-5.7,3.6-5.2,6.9C1773.3,910.2,1776.4,912.5,1779.7,912.1z M1868.6,700.4l18.1-14.4c2.1-1.6,2.4-4.6,0.8-6.7
			c-1.6-2.1-4.6-2.4-6.7-0.7l-18.2,14.4c-2.1,1.6-2.4,4.6-0.7,6.7C1863.5,701.7,1866.5,702.1,1868.6,700.4z M1153.9,1269.4
			c0.5-1,0.1-2.2-0.9-2.8l-8.8-4.5c-1-0.5-2.2-0.1-2.8,0.9c-0.5,1-0.1,2.2,0.9,2.8l8.8,4.5
			C1152.2,1270.8,1153.4,1270.4,1153.9,1269.4z M1542.6,883.6l14-11.6c1.6-1.3,1.8-3.7,0.5-5.3s-3.7-1.8-5.3-0.5l-14,11.6
			c-1.6,1.3-1.8,3.7-0.5,5.3C1538.7,884.7,1541,885,1542.6,883.6z M1063.3,790.9l17.8-1.8c2-0.2,3.5-2,3.3-4.1c-0.2-2-2-3.5-4.1-3.3
			l-17.8,1.8c-2,0.2-3.5,2-3.3,4.1C1059.5,789.6,1061.3,791.1,1063.3,790.9z M1902.3,1307.7c0.5,0.9,1.7,1.2,2.7,0.7l8.1-4.7
			c0.9-0.5,1.2-1.7,0.7-2.7c-0.5-0.9-1.7-1.2-2.7-0.7l-8.1,4.7C1902,1305.6,1901.7,1306.8,1902.3,1307.7z M1440.7,1429.9
			c-3.2-0.6-6.3,1.6-6.9,4.8l-5.1,28.4c-0.6,3.2,1.6,6.3,4.8,6.9c3.2,0.6,6.3-1.6,6.9-4.8l5.1-28.4
			C1446,1433.6,1443.9,1430.5,1440.7,1429.9z M983.4,752.6c1.7,1.3,4,1,5.3-0.7l11.2-14.6c1.3-1.7,1-4-0.7-5.3c-1.7-1.3-4-1-5.3,0.7
			l-11.2,14.6C981.4,749,981.7,751.3,983.4,752.6z M1328.1,958.3l7.9,5.8c0.9,0.7,2.2,0.5,2.8-0.4c0.7-0.9,0.5-2.2-0.4-2.8l-7.9-5.8
			c-0.9-0.7-2.2-0.5-2.8,0.4C1327,956.4,1327.2,957.7,1328.1,958.3z"/>
	</g>
</g>
</svg>
