<?xml version="1.0" encoding="utf-8"?>
<!-- Generator: Adobe Illustrator 21.0.0, SVG Export Plug-In . SVG Version: 6.00 Build 0)  -->
<svg version="1.1" id="Layer_1" xmlns="http://www.w3.org/2000/svg" xmlns:xlink="http://www.w3.org/1999/xlink" x="0px" y="0px"
	 viewBox="0 0 157.3 85.4" style="enable-background:new 0 0 157.3 85.4;" xml:space="preserve">
<g>
	<g>
		<path d="M31.4,34.7c0.5,1.3,0.9,3.5,0.6,1.8c-0.1-0.7-0.3-1.3-0.4-2C25.9,9.7,8.2,8.3,8.2,8.3c7.1,4.7,7.1,12.4,4.2,24.5
			c-2.9,12.1,5,15.7,5,15.7c-4.8,9.1-1,16.5-1,16.5c-1.5-10.1,2.7-16.4,2.7-16.4c-9-6.9-2.3-16.3-1.7-24.7c0.6-8.4-2.2-11-2.2-11
			C24.1,18.3,29.5,30,31.4,34.7z M34.3,23.3c0,0,0,9.3,4.6,11.7c0,0-4.3-7.8-1.5-16.3c0,0-6.1,1.2-6.4,9.4
			C31,28,32.4,24.6,34.3,23.3z M39.2,76.4c-13.8,0.5-11.9-14.3-11.9-14.3c1.7-16,9.8-20.8,9.8-20.8c6.1-2.3,9.8,3.7,9.8,3.7
			c4.1,3.1,5.7,13.5,5.7,13.5s0.8-1.1,0.8-2.2c0-1.1-0.9-8-0.9-10.4c0.1-2.4,2.3-8.5,2.3-8.5c1.2-7-5-8.4-5-8.4
			c-8.2-0.1-9.3,6.2-9.3,6.2c0.1,0.6,0.8-0.7,0.8-0.7c2.7-4.2,7-4,7-4c4.3,0.7,3.8,5.1,3.4,8c-0.4,3-0.2,9-0.2,9
			c-6.3-9-13.7-7.8-13.7-7.8c-12.5,2-14.3,20.5-14.3,20.5c-2.3,15,11.4,17.5,11.4,17.5c13,3.5,20.8-7.8,20.8-7.8l-0.3-1
			C47.2,77,39.2,76.4,39.2,76.4z M49.6,37.7c0-1-0.4-1.8-0.9-1.8c-0.5,0-0.9,0.8-0.9,1.8c0,1,0.4,1.8,0.9,1.8
			C49.3,39.5,49.6,38.7,49.6,37.7z M71.4,61.9c-0.5-0.7-1.2-1.2-1.9-1.7c-0.8-0.4-1.6-0.6-2.6-0.6c-0.9,0-1.7,0.1-2.4,0.4
			c-0.7,0.3-1.4,0.7-2,1.2c-0.6,0.5-1.1,1.1-1.6,1.7c-0.5,0.7-0.9,1.4-1.2,2.1c-0.3,0.8-0.6,1.5-0.7,2.3c-0.2,0.8-0.2,1.6-0.2,2.4
			c0,0.9,0.1,1.8,0.4,2.7c0.3,0.9,0.7,1.7,1.2,2.3c0.5,0.7,1.2,1.2,1.9,1.7c0.8,0.4,1.6,0.6,2.6,0.6c0.9,0,1.7-0.1,2.4-0.4
			c0.7-0.3,1.4-0.7,2-1.2c0.6-0.5,1.1-1.1,1.6-1.7c0.5-0.7,0.9-1.4,1.2-2.1c0.3-0.8,0.6-1.5,0.7-2.3c0.2-0.8,0.2-1.6,0.2-2.4
			c0-0.9-0.1-1.8-0.4-2.7C72.3,63.4,71.9,62.6,71.4,61.9z M70.1,69.5c-0.1,0.5-0.1,1.1-0.3,1.6c-0.1,0.6-0.3,1.1-0.5,1.6
			c-0.2,0.5-0.5,1-0.8,1.4c-0.3,0.4-0.7,0.7-1.1,1c-0.4,0.2-0.9,0.4-1.5,0.4c-0.5,0-1-0.1-1.4-0.3c-0.4-0.2-0.8-0.4-1.2-0.8
			c-0.3-0.3-0.6-0.7-0.9-1.1c-0.3-0.4-0.5-0.9-0.6-1.4c-0.2-0.5-0.3-1-0.4-1.6c-0.1-0.5-0.1-1.1-0.1-1.6c0-0.4,0-0.9,0.1-1.5
			c0-0.5,0.1-1.1,0.3-1.6c0.1-0.5,0.3-1.1,0.5-1.6c0.2-0.5,0.5-1,0.8-1.4c0.3-0.4,0.7-0.7,1.1-1c0.4-0.2,0.9-0.4,1.5-0.4
			c0.5,0,1,0.1,1.4,0.3c0.4,0.2,0.8,0.4,1.2,0.8c0.3,0.3,0.6,0.7,0.9,1.1c0.3,0.4,0.5,0.9,0.6,1.4c0.2,0.5,0.3,1,0.4,1.6
			c0.1,0.5,0.1,1.1,0.1,1.6C70.2,68.5,70.1,69,70.1,69.5z M82.5,74.9c-0.4,0.1-0.8,0.2-1.2,0.2c-0.2,0-0.4,0-0.5-0.1
			c-0.1,0-0.3-0.1-0.4-0.2c-0.1-0.1-0.2-0.3-0.3-0.5C80.1,74,80,73.7,80,73.3c0-0.4-0.1-0.8-0.1-1.4c0-0.5,0-1.2,0-2
			c0-1.2,0-2.5,0.1-3.8c0-1.3,0.1-2.7,0.2-4.1c0.1-1.4,0.2-2.8,0.3-4.2c0.1-1.4,0.2-2.8,0.4-4.2c0.1-1.4,0.3-2.8,0.4-4.2
			c0.2-1.4,0.3-2.7,0.5-4c-0.5-0.2-1-0.4-1.5-0.4c-0.2,0-0.4,0-0.6,0.1c-0.2,0-0.4,0.1-0.5,0.2c-0.2,0.1-0.3,0.2-0.4,0.3
			c-0.1,0.1-0.2,0.3-0.2,0.5c-0.1,0.8-0.1,1.7-0.2,2.8c-0.1,1.1-0.1,2.2-0.2,3.4c-0.1,1.2-0.1,2.4-0.2,3.7c-0.1,1.3-0.1,2.5-0.2,3.8
			c-0.1,1.3-0.1,2.5-0.2,3.6c-0.1,1.2-0.1,2.3-0.1,3.2c0,1-0.1,1.9-0.1,2.6c0,0.7,0,1.3,0,1.7c0,1.1,0,2,0.1,2.8
			c0,0.8,0.1,1.4,0.2,1.9c0.1,0.5,0.3,0.8,0.6,1c0.2,0.2,0.6,0.3,1,0.3c0.3,0,0.7-0.1,1.2-0.2c0.4-0.1,0.9-0.3,1.4-0.5
			c0.5-0.2,0.9-0.4,1.3-0.6c0.4-0.2,0.8-0.5,1-0.7l-0.2-0.6C83.4,74.6,83,74.8,82.5,74.9z M88,54.3c0.1,0.2,0.3,0.3,0.5,0.4
			c0.2,0.1,0.4,0.2,0.7,0.2c0.3,0,0.5-0.1,0.8-0.2c0.2-0.1,0.4-0.3,0.6-0.5c0.2-0.2,0.3-0.5,0.4-0.7c0.1-0.3,0.1-0.5,0.1-0.8
			c0-0.3,0-0.5-0.1-0.7c-0.1-0.2-0.2-0.4-0.3-0.6c-0.2-0.2-0.3-0.3-0.5-0.4c-0.2-0.1-0.4-0.1-0.7-0.1c-0.2,0-0.4,0-0.7,0.1
			c-0.2,0.1-0.4,0.2-0.6,0.4c-0.2,0.2-0.3,0.4-0.5,0.7c-0.1,0.3-0.2,0.6-0.2,0.9c0,0.2,0,0.5,0.1,0.7C87.7,53.9,87.8,54.1,88,54.3z
			 M92.3,74.9c-0.4,0.1-0.8,0.2-1.2,0.2c-0.2,0-0.4,0-0.5-0.1c-0.2,0-0.3-0.1-0.4-0.2c-0.1-0.1-0.2-0.3-0.3-0.5
			c-0.1-0.2-0.1-0.6-0.2-0.9c-0.1-0.4-0.1-0.9-0.1-1.5c0-0.6,0-1.3,0-2.1c0-0.6,0-1.3,0-2c0-0.7,0.1-1.5,0.1-2.3
			c0.1-0.8,0.1-1.7,0.2-2.6c0.1-0.9,0.2-1.8,0.3-2.6c-0.5-0.2-0.9-0.4-1.5-0.4c-0.1,0-0.3,0-0.5,0c-0.2,0-0.3,0.1-0.5,0.2
			c-0.1,0.1-0.3,0.2-0.4,0.3c-0.1,0.1-0.2,0.3-0.2,0.5c-0.1,1-0.1,1.9-0.2,2.9c0,0.9-0.1,1.8-0.1,2.7c0,0.8,0,1.6-0.1,2.4
			c0,0.7,0,1.4,0,2c0,1,0,1.8,0.1,2.5c0,0.7,0.1,1.3,0.2,1.7c0.1,0.5,0.2,0.8,0.3,1.1c0.1,0.3,0.2,0.5,0.4,0.6
			c0.1,0.1,0.3,0.2,0.5,0.3c0.2,0,0.4,0.1,0.6,0.1c0.3,0,0.7-0.1,1.2-0.2c0.4-0.1,0.9-0.3,1.4-0.5c0.5-0.2,0.9-0.4,1.3-0.6
			c0.4-0.2,0.8-0.5,1-0.7l-0.2-0.6C93.2,74.6,92.8,74.8,92.3,74.9z M111.1,63.2c-0.1-0.5-0.3-0.9-0.5-1.3c-0.2-0.4-0.5-0.8-0.8-1.1
			c-0.3-0.3-0.7-0.6-1.1-0.8c-0.4-0.2-0.9-0.3-1.4-0.3c-0.6,0-1.3,0.2-2,0.6c-0.7,0.4-1.4,1-2.2,1.7c-0.7,0.8-1.4,1.7-2.1,2.9
			c-0.7,1.1-1.4,2.5-2,4l-0.1,0c0-1.2,0.1-2.4,0.2-3.7c0.1-1.3,0.2-2.6,0.3-3.9c0.1-1.3,0.2-2.7,0.3-4c0.1-1.4,0.3-2.7,0.4-4.1
			c0.1-1.3,0.3-2.7,0.4-4c0.1-1.3,0.3-2.6,0.4-3.8c-0.5-0.2-1-0.4-1.5-0.4c-0.2,0-0.4,0-0.6,0.1c-0.2,0-0.4,0.1-0.6,0.2
			c-0.2,0.1-0.3,0.2-0.4,0.3c-0.1,0.1-0.2,0.3-0.2,0.5c-0.1,0.9-0.1,1.9-0.2,3c-0.1,1.1-0.1,2.3-0.2,3.6c-0.1,1.3-0.1,2.5-0.2,3.9
			c-0.1,1.3-0.1,2.6-0.2,3.9c-0.1,1.3-0.1,2.5-0.2,3.6c-0.1,1.1-0.1,2.2-0.1,3.1c-0.1,2.1-0.3,4-0.5,5.6c-0.2,1.7-0.5,3.1-0.9,4.3
			l0.6,0.2c0.2-0.3,0.5-0.6,0.8-1c0.3-0.4,0.6-1,0.8-1.7c0.3,0.5,0.7,0.9,1.1,1.2c0.4,0.4,0.8,0.6,1.3,0.9c0.5,0.2,0.9,0.4,1.4,0.5
			s1,0.2,1.4,0.2c0.7,0,1.4-0.1,2.1-0.3c0.7-0.2,1.4-0.6,2-1c0.6-0.4,1.2-1,1.8-1.6c0.5-0.6,1-1.4,1.4-2.2c0.4-0.8,0.7-1.7,0.9-2.7
			c0.2-1,0.3-2.1,0.3-3.2c0-0.4,0-0.9-0.1-1.3C111.3,64.2,111.2,63.7,111.1,63.2z M108.2,70.8c-0.3,1.1-0.7,2-1.2,2.7
			c-0.5,0.7-1.1,1.3-1.8,1.7c-0.7,0.4-1.4,0.6-2.2,0.6c-0.5,0-0.9-0.1-1.3-0.2c-0.4-0.1-0.8-0.4-1.1-0.6c-0.3-0.3-0.6-0.6-0.9-1
			c-0.2-0.4-0.4-0.8-0.5-1.3c0-0.3,0.1-0.6,0.2-1c0.1-0.4,0.3-0.9,0.5-1.4c0.2-0.5,0.4-1.1,0.7-1.7c0.3-0.6,0.6-1.2,0.9-1.7
			c0.3-0.6,0.7-1.1,1.1-1.6c0.4-0.5,0.8-1,1.2-1.4c0.4-0.4,0.9-0.7,1.3-1c0.5-0.2,0.9-0.4,1.4-0.4c0.4,0,0.7,0.1,1,0.4
			c0.3,0.3,0.5,0.7,0.7,1.1c0.2,0.5,0.3,1,0.4,1.5c0.1,0.6,0.1,1.1,0.1,1.6C108.6,68.5,108.5,69.7,108.2,70.8z M127.5,60.2
			c-0.2-0.2-0.4-0.3-0.7-0.4c-0.3-0.1-0.5-0.1-0.8-0.1c-0.8,0-1.6,0.3-2.3,0.8c-0.7,0.6-1.3,1.3-1.9,2.3c-0.6,1-1.1,2.1-1.6,3.4
			c-0.5,1.3-0.9,2.7-1.3,4.2l-0.1,0c0.1-0.7,0.1-1.4,0.2-2.1c0.1-0.7,0.1-1.4,0.2-2c0.1-0.6,0.1-1.2,0.1-1.8c0-0.6,0.1-1,0.1-1.5
			c0-0.4,0-0.8,0.1-1c0-0.3,0-0.4,0-0.5c0-0.6-0.1-1-0.3-1.3c-0.2-0.3-0.6-0.4-1.1-0.4c-0.3,0-0.8,0.1-1.6,0.3
			c-0.8,0.2-1.8,0.5-3.1,1l0.2,0.8c0.3-0.1,0.5-0.1,0.7-0.2c0.2-0.1,0.4-0.1,0.6-0.1c0.2,0,0.3-0.1,0.5-0.1c0.1,0,0.3,0,0.4,0
			c0.3,0,0.5,0,0.6,0.1c0.2,0.1,0.3,0.2,0.4,0.3c0.1,0.1,0.1,0.3,0.2,0.5c0,0.2,0,0.5,0,0.7c0,0.3,0,0.8,0,1.4c0,0.6,0,1.3-0.1,2
			c0,0.8-0.1,1.6-0.1,2.5c0,0.9-0.1,1.8-0.1,2.7c0,0.9-0.1,1.8-0.2,2.6c-0.1,0.9-0.1,1.7-0.2,2.4l0.2,0l2.4-0.3
			c0-0.5,0.1-1.1,0.2-1.9c0.1-0.7,0.3-1.5,0.4-2.4c0.2-0.8,0.4-1.7,0.6-2.6c0.3-0.9,0.5-1.7,0.8-2.5c0.3-0.8,0.7-1.5,1-2.2
			c0.4-0.7,0.8-1.2,1.2-1.6c0.3-0.2,0.6-0.4,0.9-0.6c0.3-0.1,0.7-0.2,1-0.2c0.3,0,0.6,0.1,0.9,0.2c0.3,0.1,0.6,0.3,0.9,0.6h0.1
			c0.3-0.2,0.6-0.5,0.7-0.9c0.2-0.3,0.2-0.7,0.2-1c0-0.3-0.1-0.5-0.2-0.7C127.8,60.5,127.7,60.3,127.5,60.2z M133.7,51
			c-0.2-0.1-0.4-0.1-0.7-0.1c-0.2,0-0.4,0-0.7,0.1c-0.2,0.1-0.4,0.2-0.6,0.4c-0.2,0.2-0.3,0.4-0.5,0.7c-0.1,0.3-0.2,0.6-0.2,0.9
			c0,0.2,0,0.5,0.1,0.7c0.1,0.2,0.2,0.4,0.3,0.6c0.1,0.2,0.3,0.3,0.5,0.4c0.2,0.1,0.4,0.2,0.7,0.2c0.3,0,0.5-0.1,0.8-0.2
			c0.2-0.1,0.4-0.3,0.6-0.5c0.2-0.2,0.3-0.5,0.4-0.7c0.1-0.3,0.1-0.5,0.1-0.8c0-0.3,0-0.5-0.1-0.7c-0.1-0.2-0.2-0.4-0.3-0.6
			C134,51.2,133.9,51.1,133.7,51z M135.8,74.9c-0.4,0.1-0.8,0.2-1.2,0.2c-0.2,0-0.4,0-0.5-0.1c-0.2,0-0.3-0.1-0.4-0.2
			c-0.1-0.1-0.2-0.3-0.3-0.5c-0.1-0.2-0.1-0.6-0.2-0.9c-0.1-0.4-0.1-0.9-0.1-1.5c0-0.6,0-1.3,0-2.1c0-0.6,0-1.3,0-2
			c0-0.7,0.1-1.5,0.1-2.3c0.1-0.8,0.1-1.7,0.2-2.6c0.1-0.9,0.2-1.8,0.3-2.6c-0.5-0.2-0.9-0.4-1.5-0.4c-0.1,0-0.3,0-0.5,0
			c-0.2,0-0.3,0.1-0.5,0.2c-0.1,0.1-0.3,0.2-0.4,0.3c-0.1,0.1-0.2,0.3-0.2,0.5c-0.1,1-0.1,1.9-0.2,2.9c0,0.9-0.1,1.8-0.1,2.7
			c0,0.8,0,1.6-0.1,2.4c0,0.7,0,1.4,0,2c0,1,0,1.8,0.1,2.5c0,0.7,0.1,1.3,0.2,1.7c0.1,0.5,0.2,0.8,0.3,1.1c0.1,0.3,0.2,0.5,0.4,0.6
			c0.1,0.1,0.3,0.2,0.5,0.3c0.2,0,0.4,0.1,0.6,0.1c0.3,0,0.7-0.1,1.2-0.2c0.4-0.1,0.9-0.3,1.4-0.5c0.5-0.2,0.9-0.4,1.3-0.6
			c0.4-0.2,0.8-0.5,1-0.7l-0.2-0.6C136.7,74.6,136.3,74.8,135.8,74.9z M116.6,44.4l-0.6-0.5c-0.4,0.4-0.8,0.7-1.2,0.9
			c-0.5,0.2-1,0.3-1.5,0.3c-0.6,0-1.1-0.2-1.5-0.5c-0.4-0.3-0.7-0.8-0.9-1.4c-0.2-0.6-0.2-1.2-0.1-1.8l0-0.2h6.6l0.1-0.6
			c0.1-0.8,0-1.5-0.2-2.2c-0.2-0.7-0.6-1.2-1.1-1.6c-0.5-0.4-1.1-0.6-1.8-0.6c-0.8,0-1.5,0.2-2.2,0.6c-0.7,0.4-1.2,1-1.7,1.8
			c-0.4,0.8-0.7,1.6-0.8,2.5l0,0.3c-0.1,0.8,0,1.6,0.3,2.3c0.3,0.7,0.7,1.3,1.2,1.7c0.6,0.4,1.2,0.6,2,0.6c0.7,0,1.3-0.1,1.9-0.4
			C115.7,45.4,116.2,44.9,116.6,44.4z M112.2,37.9c0.6-0.6,1.3-0.8,2-0.8c0.7,0,1.3,0.3,1.7,0.9c0.4,0.6,0.5,1.3,0.4,2.1l0,0.1
			l-5.5,0C111.2,39.3,111.6,38.5,112.2,37.9z M121.7,45.9l4.9-9.5h-1.1l-4.1,8l-1.6-8h-1l2,9.5H121.7z M132.9,45.6
			c0.6-0.3,1.1-0.7,1.5-1.3l-0.6-0.5c-0.4,0.4-0.8,0.7-1.2,0.9c-0.5,0.2-1,0.3-1.5,0.3c-0.6,0-1.1-0.2-1.5-0.5
			c-0.4-0.3-0.7-0.8-0.9-1.4c-0.2-0.6-0.2-1.2-0.1-1.8l0-0.2h6.6l0.1-0.6c0.1-0.8,0-1.5-0.2-2.2c-0.2-0.7-0.6-1.2-1.1-1.6
			c-0.5-0.4-1.1-0.6-1.8-0.6c-0.8,0-1.5,0.2-2.2,0.6c-0.7,0.4-1.2,1-1.7,1.8c-0.4,0.8-0.7,1.6-0.8,2.5l0,0.3c-0.1,0.8,0,1.6,0.3,2.3
			c0.3,0.7,0.7,1.3,1.2,1.7c0.6,0.4,1.2,0.6,2,0.6C131.7,46.1,132.3,45.9,132.9,45.6z M130,37.9c0.6-0.6,1.3-0.8,2-0.8
			c0.7,0,1.3,0.3,1.7,0.9c0.4,0.6,0.5,1.3,0.4,2.1l0,0.1l-5.5,0C129,39.3,129.4,38.5,130,37.9z M141.8,36.2c-0.6,0-1.2,0.1-1.8,0.5
			c-0.6,0.3-1,0.8-1.5,1.3l0.3-1.6h-1l-1.7,9.5h1l1.1-6.5c0.4-0.8,0.9-1.3,1.4-1.7c0.5-0.4,1.1-0.6,1.7-0.5c1,0,1.6,0.6,1.7,1.6
			c0,0.3,0,0.6,0,1l-1,6.2h1l1-6.2c0.1-1.1,0-1.9-0.4-2.5C143.3,36.5,142.7,36.2,141.8,36.2z M149.3,37.2h1.9l0.1-0.9h-1.9l0.4-2.4
			h-1l-0.4,2.4h-1.7l-0.2,0.9h1.7l-1,6.3c-0.1,0.8,0,1.4,0.3,1.8c0.3,0.4,0.7,0.6,1.3,0.6c0.4,0,0.7,0,1.1-0.1l0-0.9
			c-0.4,0-0.7,0.1-0.9,0.1c-0.6,0-0.9-0.3-0.9-1l0-0.5L149.3,37.2z"/>
	</g>
</g>
</svg>
