<?xml version="1.0" encoding="utf-8"?>
<!-- Generator: Adobe Illustrator 21.0.0, SVG Export Plug-In . SVG Version: 6.00 Build 0)  -->
<svg version="1.1" id="Layer_1" xmlns="http://www.w3.org/2000/svg" xmlns:xlink="http://www.w3.org/1999/xlink" x="0px" y="0px"
	 viewBox="0 0 157.3 85.4" style="enable-background:new 0 0 157.3 85.4;" xml:space="preserve">
<style type="text/css">
	.st0{fill:#FFFFFF;}
</style>
<path class="st0" d="M31.4,34.7c0.5,1.3,0.9,3.5,0.6,1.8c-0.1-0.7-0.3-1.3-0.4-2C25.9,9.7,8.2,8.3,8.2,8.3
	c7.1,4.7,7.1,12.4,4.2,24.5s5,15.7,5,15.7c-4.8,9.1-1,16.5-1,16.5c-1.5-10.1,2.7-16.4,2.7-16.4c-9-6.9-2.3-16.3-1.7-24.7
	c0.6-8.4-2.2-11-2.2-11C24.1,18.3,29.5,30,31.4,34.7z M34.3,23.3c0,0,0,9.3,4.6,11.7c0,0-4.3-7.8-1.5-16.3c0,0-6.1,1.2-6.4,9.4
	C31,28,32.4,24.6,34.3,23.3z M39.2,76.4c-13.8,0.5-11.9-14.3-11.9-14.3c1.7-16,9.8-20.8,9.8-20.8c6.1-2.3,9.8,3.7,9.8,3.7
	c4.1,3.1,5.7,13.5,5.7,13.5s0.8-1.1,0.8-2.2c0-1.1-0.9-8-0.9-10.4c0.1-2.4,2.3-8.5,2.3-8.5c1.2-7-5-8.4-5-8.4
	c-8.2-0.1-9.3,6.2-9.3,6.2c0.1,0.6,0.8-0.7,0.8-0.7c2.7-4.2,7-4,7-4c4.3,0.7,3.8,5.1,3.4,8c-0.4,3-0.2,9-0.2,9
	c-6.3-9-13.7-7.8-13.7-7.8c-12.5,2-14.3,20.5-14.3,20.5c-2.3,15,11.4,17.5,11.4,17.5c13,3.5,20.8-7.8,20.8-7.8l-0.3-1
	C47.2,77,39.2,76.4,39.2,76.4z M49.6,37.7c0-1-0.4-1.8-0.9-1.8s-0.9,0.8-0.9,1.8s0.4,1.8,0.9,1.8C49.3,39.5,49.6,38.7,49.6,37.7z
	 M66.6,51.4L66,50.9c-0.4,0.4-0.8,0.7-1.2,0.9c-0.5,0.2-1,0.3-1.5,0.3c-0.6,0-1.1-0.2-1.5-0.5s-0.7-0.8-0.9-1.4
	c-0.2-0.6-0.2-1.2-0.1-1.8v-0.2h6.6l0.1-0.6c0.1-0.8,0-1.5-0.2-2.2s-0.6-1.2-1.1-1.6c-0.5-0.4-1.1-0.6-1.8-0.6
	c-0.8,0-1.5,0.2-2.2,0.6c-0.7,0.4-1.2,1-1.7,1.8c-0.4,0.8-0.7,1.6-0.8,2.5v0.3c-0.1,0.8,0,1.6,0.3,2.3s0.7,1.3,1.2,1.7
	c0.6,0.4,1.2,0.6,2,0.6c0.7,0,1.3-0.1,1.9-0.4C65.7,52.4,66.2,51.9,66.6,51.4z M62.2,44.9c0.6-0.6,1.3-0.8,2-0.8s1.3,0.3,1.7,0.9
	c0.4,0.6,0.5,1.3,0.4,2.1v0.1h-5.5C61.2,46.3,61.6,45.5,62.2,44.9z M71.7,52.9l4.9-9.5h-1.1l-4.1,8l-1.6-8h-1l2,9.5H71.7z
	 M82.9,52.6c0.6-0.3,1.1-0.7,1.5-1.3l-0.6-0.5c-0.4,0.4-0.8,0.7-1.2,0.9c-0.5,0.2-1,0.3-1.5,0.3c-0.6,0-1.1-0.2-1.5-0.5
	s-0.7-0.8-0.9-1.4c-0.2-0.6-0.2-1.2-0.1-1.8v-0.2h6.6l0.1-0.6c0.1-0.8,0-1.5-0.2-2.2s-0.6-1.2-1.1-1.6c-0.5-0.4-1.1-0.6-1.8-0.6
	c-0.8,0-1.5,0.2-2.2,0.6c-0.7,0.4-1.2,1-1.7,1.8c-0.4,0.8-0.7,1.6-0.8,2.5v0.3c-0.1,0.8,0,1.6,0.3,2.3s0.7,1.3,1.2,1.7
	c0.6,0.4,1.2,0.6,2,0.6C81.7,53.1,82.3,52.9,82.9,52.6z M80,44.9c0.6-0.6,1.3-0.8,2-0.8s1.3,0.3,1.7,0.9c0.4,0.6,0.5,1.3,0.4,2.1
	v0.1h-5.5C79,46.3,79.4,45.5,80,44.9z M91.8,43.2c-0.6,0-1.2,0.1-1.8,0.5c-0.6,0.3-1,0.8-1.5,1.3l0.3-1.6h-1l-1.7,9.5h1l1.1-6.5
	c0.4-0.8,0.9-1.3,1.4-1.7s1.1-0.6,1.7-0.5c1,0,1.6,0.6,1.7,1.6c0,0.3,0,0.6,0,1L92,53h1l1-6.2c0.1-1.1,0-1.9-0.4-2.5
	C93.3,43.5,92.7,43.2,91.8,43.2z M99.3,44.2h1.9l0.1-0.9h-1.9l0.4-2.4h-1l-0.4,2.4h-1.7l-0.2,0.9h1.7l-1,6.3c-0.1,0.8,0,1.4,0.3,1.8
	c0.3,0.4,0.7,0.6,1.3,0.6c0.4,0,0.7,0,1.1-0.1v-0.9c-0.4,0-0.7,0.1-0.9,0.1c-0.6,0-0.9-0.3-0.9-1v-0.5L99.3,44.2z"/>
</svg>
